G04 #@! TF.GenerationSoftware,KiCad,Pcbnew,(5.1.4)-1*
G04 #@! TF.CreationDate,2024-03-23T00:37:29-07:00*
G04 #@! TF.ProjectId,macropad,6d616372-6f70-4616-942e-6b696361645f,rev?*
G04 #@! TF.SameCoordinates,Original*
G04 #@! TF.FileFunction,Profile,NP*
%FSLAX46Y46*%
G04 Gerber Fmt 4.6, Leading zero omitted, Abs format (unit mm)*
G04 Created by KiCad (PCBNEW (5.1.4)-1) date 2024-03-23 00:37:29*
%MOMM*%
%LPD*%
G04 APERTURE LIST*
%ADD10C,0.050000*%
%ADD11C,0.100000*%
G04 APERTURE END LIST*
D10*
X71437500Y-56356250D02*
X71437500Y-58737500D01*
X61118750Y-55562500D02*
X70643750Y-55562500D01*
X135731250Y-59531250D02*
X72231250Y-59531250D01*
X136525000Y-138906250D02*
X136525000Y-60325000D01*
X61118750Y-139700000D02*
X135731250Y-139700000D01*
X60325000Y-56356250D02*
X60325000Y-138906250D01*
X70643750Y-55562500D02*
G75*
G02X71437500Y-56356250I0J-793750D01*
G01*
X72231250Y-59531250D02*
G75*
G02X71437500Y-58737500I0J793750D01*
G01*
X135731250Y-59531250D02*
G75*
G02X136525000Y-60325000I0J-793750D01*
G01*
X136525000Y-138906250D02*
G75*
G02X135731250Y-139700000I-793750J0D01*
G01*
X61118750Y-139700000D02*
G75*
G02X60325000Y-138906250I0J793750D01*
G01*
X60325000Y-56356250D02*
G75*
G02X61118750Y-55562500I793750J0D01*
G01*
D11*
X128046710Y-85426702D02*
G75*
G02X127794452Y-85495001I-252258J431701D01*
G01*
X126205548Y-85495001D02*
G75*
G02X125953289Y-85426702I0J500000D01*
G01*
X125250516Y-86075282D02*
G75*
G02X125953289Y-85426702I450515J216879D01*
G01*
X125250516Y-86075281D02*
G75*
G02X125300001Y-86292159I-450515J-216878D01*
G01*
X125300001Y-87697844D02*
G75*
G02X125250516Y-87914721I-500000J1D01*
G01*
X125953289Y-88563298D02*
G75*
G02X125250516Y-87914721I-252258J431700D01*
G01*
X125953289Y-88563299D02*
G75*
G02X126205547Y-88495000I252258J-431701D01*
G01*
X127794453Y-88495001D02*
G75*
G02X128046711Y-88563300I-1J-499999D01*
G01*
X128749484Y-87914721D02*
G75*
G02X128046711Y-88563300I-450515J-216878D01*
G01*
X128749484Y-87914721D02*
G75*
G02X128699999Y-87697843I450515J216878D01*
G01*
X128699999Y-86292158D02*
G75*
G02X128749484Y-86075281I500000J-1D01*
G01*
X128046711Y-85426704D02*
G75*
G02X128749484Y-86075281I252258J-431700D01*
G01*
X128699999Y-86292159D02*
X128699999Y-87697843D01*
X127794452Y-88495000D02*
X126205547Y-88495000D01*
X125300001Y-87697843D02*
X125300001Y-86292159D01*
X126205548Y-85495001D02*
X127794452Y-85495001D01*
X70896710Y-85426702D02*
G75*
G02X70644452Y-85495001I-252258J431701D01*
G01*
X69055548Y-85495001D02*
G75*
G02X68803289Y-85426702I0J500000D01*
G01*
X68100516Y-86075282D02*
G75*
G02X68803289Y-85426702I450515J216879D01*
G01*
X68100516Y-86075281D02*
G75*
G02X68150001Y-86292159I-450515J-216878D01*
G01*
X68150001Y-87697844D02*
G75*
G02X68100516Y-87914721I-500000J1D01*
G01*
X68803289Y-88563298D02*
G75*
G02X68100516Y-87914721I-252258J431700D01*
G01*
X68803289Y-88563299D02*
G75*
G02X69055547Y-88495000I252258J-431701D01*
G01*
X70644453Y-88495001D02*
G75*
G02X70896711Y-88563300I-1J-499999D01*
G01*
X71599484Y-87914721D02*
G75*
G02X70896711Y-88563300I-450515J-216878D01*
G01*
X71599484Y-87914721D02*
G75*
G02X71549999Y-87697843I450515J216878D01*
G01*
X71549999Y-86292158D02*
G75*
G02X71599484Y-86075281I500000J-1D01*
G01*
X70896711Y-85426704D02*
G75*
G02X71599484Y-86075281I252258J-431700D01*
G01*
X71549999Y-86292159D02*
X71549999Y-87697843D01*
X70644452Y-88495000D02*
X69055547Y-88495000D01*
X68150001Y-87697843D02*
X68150001Y-86292159D01*
X69055548Y-85495001D02*
X70644452Y-85495001D01*
X89946710Y-123526702D02*
G75*
G02X89694452Y-123595001I-252258J431701D01*
G01*
X88105548Y-123595001D02*
G75*
G02X87853289Y-123526702I0J500000D01*
G01*
X87150516Y-124175282D02*
G75*
G02X87853289Y-123526702I450515J216879D01*
G01*
X87150516Y-124175281D02*
G75*
G02X87200001Y-124392159I-450515J-216878D01*
G01*
X87200001Y-125797844D02*
G75*
G02X87150516Y-126014721I-500000J1D01*
G01*
X87853289Y-126663298D02*
G75*
G02X87150516Y-126014721I-252258J431700D01*
G01*
X87853289Y-126663299D02*
G75*
G02X88105547Y-126595000I252258J-431701D01*
G01*
X89694453Y-126595001D02*
G75*
G02X89946711Y-126663300I-1J-499999D01*
G01*
X90649484Y-126014721D02*
G75*
G02X89946711Y-126663300I-450515J-216878D01*
G01*
X90649484Y-126014721D02*
G75*
G02X90599999Y-125797843I450515J216878D01*
G01*
X90599999Y-124392158D02*
G75*
G02X90649484Y-124175281I500000J-1D01*
G01*
X89946711Y-123526704D02*
G75*
G02X90649484Y-124175281I252258J-431700D01*
G01*
X90599999Y-124392159D02*
X90599999Y-125797843D01*
X89694452Y-126595000D02*
X88105547Y-126595000D01*
X87200001Y-125797843D02*
X87200001Y-124392159D01*
X88105548Y-123595001D02*
X89694452Y-123595001D01*
X89946710Y-104476702D02*
G75*
G02X89694452Y-104545001I-252258J431701D01*
G01*
X88105548Y-104545001D02*
G75*
G02X87853289Y-104476702I0J500000D01*
G01*
X87150516Y-105125282D02*
G75*
G02X87853289Y-104476702I450515J216879D01*
G01*
X87150516Y-105125281D02*
G75*
G02X87200001Y-105342159I-450515J-216878D01*
G01*
X87200001Y-106747844D02*
G75*
G02X87150516Y-106964721I-500000J1D01*
G01*
X87853289Y-107613298D02*
G75*
G02X87150516Y-106964721I-252258J431700D01*
G01*
X87853289Y-107613299D02*
G75*
G02X88105547Y-107545000I252258J-431701D01*
G01*
X89694453Y-107545001D02*
G75*
G02X89946711Y-107613300I-1J-499999D01*
G01*
X90649484Y-106964721D02*
G75*
G02X89946711Y-107613300I-450515J-216878D01*
G01*
X90649484Y-106964721D02*
G75*
G02X90599999Y-106747843I450515J216878D01*
G01*
X90599999Y-105342158D02*
G75*
G02X90649484Y-105125281I500000J-1D01*
G01*
X89946711Y-104476704D02*
G75*
G02X90649484Y-105125281I252258J-431700D01*
G01*
X90599999Y-105342159D02*
X90599999Y-106747843D01*
X89694452Y-107545000D02*
X88105547Y-107545000D01*
X87200001Y-106747843D02*
X87200001Y-105342159D01*
X88105548Y-104545001D02*
X89694452Y-104545001D01*
X89946710Y-85426702D02*
G75*
G02X89694452Y-85495001I-252258J431701D01*
G01*
X88105548Y-85495001D02*
G75*
G02X87853289Y-85426702I0J500000D01*
G01*
X87150516Y-86075282D02*
G75*
G02X87853289Y-85426702I450515J216879D01*
G01*
X87150516Y-86075281D02*
G75*
G02X87200001Y-86292159I-450515J-216878D01*
G01*
X87200001Y-87697844D02*
G75*
G02X87150516Y-87914721I-500000J1D01*
G01*
X87853289Y-88563298D02*
G75*
G02X87150516Y-87914721I-252258J431700D01*
G01*
X87853289Y-88563299D02*
G75*
G02X88105547Y-88495000I252258J-431701D01*
G01*
X89694453Y-88495001D02*
G75*
G02X89946711Y-88563300I-1J-499999D01*
G01*
X90649484Y-87914721D02*
G75*
G02X89946711Y-88563300I-450515J-216878D01*
G01*
X90649484Y-87914721D02*
G75*
G02X90599999Y-87697843I450515J216878D01*
G01*
X90599999Y-86292158D02*
G75*
G02X90649484Y-86075281I500000J-1D01*
G01*
X89946711Y-85426704D02*
G75*
G02X90649484Y-86075281I252258J-431700D01*
G01*
X90599999Y-86292159D02*
X90599999Y-87697843D01*
X89694452Y-88495000D02*
X88105547Y-88495000D01*
X87200001Y-87697843D02*
X87200001Y-86292159D01*
X88105548Y-85495001D02*
X89694452Y-85495001D01*
X128046710Y-123526702D02*
G75*
G02X127794452Y-123595001I-252258J431701D01*
G01*
X126205548Y-123595001D02*
G75*
G02X125953289Y-123526702I0J500000D01*
G01*
X125250516Y-124175282D02*
G75*
G02X125953289Y-123526702I450515J216879D01*
G01*
X125250516Y-124175281D02*
G75*
G02X125300001Y-124392159I-450515J-216878D01*
G01*
X125300001Y-125797844D02*
G75*
G02X125250516Y-126014721I-500000J1D01*
G01*
X125953289Y-126663298D02*
G75*
G02X125250516Y-126014721I-252258J431700D01*
G01*
X125953289Y-126663299D02*
G75*
G02X126205547Y-126595000I252258J-431701D01*
G01*
X127794453Y-126595001D02*
G75*
G02X128046711Y-126663300I-1J-499999D01*
G01*
X128749484Y-126014721D02*
G75*
G02X128046711Y-126663300I-450515J-216878D01*
G01*
X128749484Y-126014721D02*
G75*
G02X128699999Y-125797843I450515J216878D01*
G01*
X128699999Y-124392158D02*
G75*
G02X128749484Y-124175281I500000J-1D01*
G01*
X128046711Y-123526704D02*
G75*
G02X128749484Y-124175281I252258J-431700D01*
G01*
X128699999Y-124392159D02*
X128699999Y-125797843D01*
X127794452Y-126595000D02*
X126205547Y-126595000D01*
X125300001Y-125797843D02*
X125300001Y-124392159D01*
X126205548Y-123595001D02*
X127794452Y-123595001D01*
X108996710Y-123526702D02*
G75*
G02X108744452Y-123595001I-252258J431701D01*
G01*
X107155548Y-123595001D02*
G75*
G02X106903289Y-123526702I0J500000D01*
G01*
X106200516Y-124175282D02*
G75*
G02X106903289Y-123526702I450515J216879D01*
G01*
X106200516Y-124175281D02*
G75*
G02X106250001Y-124392159I-450515J-216878D01*
G01*
X106250001Y-125797844D02*
G75*
G02X106200516Y-126014721I-500000J1D01*
G01*
X106903289Y-126663298D02*
G75*
G02X106200516Y-126014721I-252258J431700D01*
G01*
X106903289Y-126663299D02*
G75*
G02X107155547Y-126595000I252258J-431701D01*
G01*
X108744453Y-126595001D02*
G75*
G02X108996711Y-126663300I-1J-499999D01*
G01*
X109699484Y-126014721D02*
G75*
G02X108996711Y-126663300I-450515J-216878D01*
G01*
X109699484Y-126014721D02*
G75*
G02X109649999Y-125797843I450515J216878D01*
G01*
X109649999Y-124392158D02*
G75*
G02X109699484Y-124175281I500000J-1D01*
G01*
X108996711Y-123526704D02*
G75*
G02X109699484Y-124175281I252258J-431700D01*
G01*
X109649999Y-124392159D02*
X109649999Y-125797843D01*
X108744452Y-126595000D02*
X107155547Y-126595000D01*
X106250001Y-125797843D02*
X106250001Y-124392159D01*
X107155548Y-123595001D02*
X108744452Y-123595001D01*
X70896710Y-123526702D02*
G75*
G02X70644452Y-123595001I-252258J431701D01*
G01*
X69055548Y-123595001D02*
G75*
G02X68803289Y-123526702I0J500000D01*
G01*
X68100516Y-124175282D02*
G75*
G02X68803289Y-123526702I450515J216879D01*
G01*
X68100516Y-124175281D02*
G75*
G02X68150001Y-124392159I-450515J-216878D01*
G01*
X68150001Y-125797844D02*
G75*
G02X68100516Y-126014721I-500000J1D01*
G01*
X68803289Y-126663298D02*
G75*
G02X68100516Y-126014721I-252258J431700D01*
G01*
X68803289Y-126663299D02*
G75*
G02X69055547Y-126595000I252258J-431701D01*
G01*
X70644453Y-126595001D02*
G75*
G02X70896711Y-126663300I-1J-499999D01*
G01*
X71599484Y-126014721D02*
G75*
G02X70896711Y-126663300I-450515J-216878D01*
G01*
X71599484Y-126014721D02*
G75*
G02X71549999Y-125797843I450515J216878D01*
G01*
X71549999Y-124392158D02*
G75*
G02X71599484Y-124175281I500000J-1D01*
G01*
X70896711Y-123526704D02*
G75*
G02X71599484Y-124175281I252258J-431700D01*
G01*
X71549999Y-124392159D02*
X71549999Y-125797843D01*
X70644452Y-126595000D02*
X69055547Y-126595000D01*
X68150001Y-125797843D02*
X68150001Y-124392159D01*
X69055548Y-123595001D02*
X70644452Y-123595001D01*
X128046710Y-104476702D02*
G75*
G02X127794452Y-104545001I-252258J431701D01*
G01*
X126205548Y-104545001D02*
G75*
G02X125953289Y-104476702I0J500000D01*
G01*
X125250516Y-105125282D02*
G75*
G02X125953289Y-104476702I450515J216879D01*
G01*
X125250516Y-105125281D02*
G75*
G02X125300001Y-105342159I-450515J-216878D01*
G01*
X125300001Y-106747844D02*
G75*
G02X125250516Y-106964721I-500000J1D01*
G01*
X125953289Y-107613298D02*
G75*
G02X125250516Y-106964721I-252258J431700D01*
G01*
X125953289Y-107613299D02*
G75*
G02X126205547Y-107545000I252258J-431701D01*
G01*
X127794453Y-107545001D02*
G75*
G02X128046711Y-107613300I-1J-499999D01*
G01*
X128749484Y-106964721D02*
G75*
G02X128046711Y-107613300I-450515J-216878D01*
G01*
X128749484Y-106964721D02*
G75*
G02X128699999Y-106747843I450515J216878D01*
G01*
X128699999Y-105342158D02*
G75*
G02X128749484Y-105125281I500000J-1D01*
G01*
X128046711Y-104476704D02*
G75*
G02X128749484Y-105125281I252258J-431700D01*
G01*
X128699999Y-105342159D02*
X128699999Y-106747843D01*
X127794452Y-107545000D02*
X126205547Y-107545000D01*
X125300001Y-106747843D02*
X125300001Y-105342159D01*
X126205548Y-104545001D02*
X127794452Y-104545001D01*
X108996710Y-104476702D02*
G75*
G02X108744452Y-104545001I-252258J431701D01*
G01*
X107155548Y-104545001D02*
G75*
G02X106903289Y-104476702I0J500000D01*
G01*
X106200516Y-105125282D02*
G75*
G02X106903289Y-104476702I450515J216879D01*
G01*
X106200516Y-105125281D02*
G75*
G02X106250001Y-105342159I-450515J-216878D01*
G01*
X106250001Y-106747844D02*
G75*
G02X106200516Y-106964721I-500000J1D01*
G01*
X106903289Y-107613298D02*
G75*
G02X106200516Y-106964721I-252258J431700D01*
G01*
X106903289Y-107613299D02*
G75*
G02X107155547Y-107545000I252258J-431701D01*
G01*
X108744453Y-107545001D02*
G75*
G02X108996711Y-107613300I-1J-499999D01*
G01*
X109699484Y-106964721D02*
G75*
G02X108996711Y-107613300I-450515J-216878D01*
G01*
X109699484Y-106964721D02*
G75*
G02X109649999Y-106747843I450515J216878D01*
G01*
X109649999Y-105342158D02*
G75*
G02X109699484Y-105125281I500000J-1D01*
G01*
X108996711Y-104476704D02*
G75*
G02X109699484Y-105125281I252258J-431700D01*
G01*
X109649999Y-105342159D02*
X109649999Y-106747843D01*
X108744452Y-107545000D02*
X107155547Y-107545000D01*
X106250001Y-106747843D02*
X106250001Y-105342159D01*
X107155548Y-104545001D02*
X108744452Y-104545001D01*
X70896710Y-104476702D02*
G75*
G02X70644452Y-104545001I-252258J431701D01*
G01*
X69055548Y-104545001D02*
G75*
G02X68803289Y-104476702I0J500000D01*
G01*
X68100516Y-105125282D02*
G75*
G02X68803289Y-104476702I450515J216879D01*
G01*
X68100516Y-105125281D02*
G75*
G02X68150001Y-105342159I-450515J-216878D01*
G01*
X68150001Y-106747844D02*
G75*
G02X68100516Y-106964721I-500000J1D01*
G01*
X68803289Y-107613298D02*
G75*
G02X68100516Y-106964721I-252258J431700D01*
G01*
X68803289Y-107613299D02*
G75*
G02X69055547Y-107545000I252258J-431701D01*
G01*
X70644453Y-107545001D02*
G75*
G02X70896711Y-107613300I-1J-499999D01*
G01*
X71599484Y-106964721D02*
G75*
G02X70896711Y-107613300I-450515J-216878D01*
G01*
X71599484Y-106964721D02*
G75*
G02X71549999Y-106747843I450515J216878D01*
G01*
X71549999Y-105342158D02*
G75*
G02X71599484Y-105125281I500000J-1D01*
G01*
X70896711Y-104476704D02*
G75*
G02X71599484Y-105125281I252258J-431700D01*
G01*
X71549999Y-105342159D02*
X71549999Y-106747843D01*
X70644452Y-107545000D02*
X69055547Y-107545000D01*
X68150001Y-106747843D02*
X68150001Y-105342159D01*
X69055548Y-104545001D02*
X70644452Y-104545001D01*
X108996710Y-85426702D02*
G75*
G02X108744452Y-85495001I-252258J431701D01*
G01*
X107155548Y-85495001D02*
G75*
G02X106903289Y-85426702I0J500000D01*
G01*
X106200516Y-86075282D02*
G75*
G02X106903289Y-85426702I450515J216879D01*
G01*
X106200516Y-86075281D02*
G75*
G02X106250001Y-86292159I-450515J-216878D01*
G01*
X106250001Y-87697844D02*
G75*
G02X106200516Y-87914721I-500000J1D01*
G01*
X106903289Y-88563298D02*
G75*
G02X106200516Y-87914721I-252258J431700D01*
G01*
X106903289Y-88563299D02*
G75*
G02X107155547Y-88495000I252258J-431701D01*
G01*
X108744453Y-88495001D02*
G75*
G02X108996711Y-88563300I-1J-499999D01*
G01*
X109699484Y-87914721D02*
G75*
G02X108996711Y-88563300I-450515J-216878D01*
G01*
X109699484Y-87914721D02*
G75*
G02X109649999Y-87697843I450515J216878D01*
G01*
X109649999Y-86292158D02*
G75*
G02X109699484Y-86075281I500000J-1D01*
G01*
X108996711Y-85426704D02*
G75*
G02X109699484Y-86075281I252258J-431700D01*
G01*
X109649999Y-86292159D02*
X109649999Y-87697843D01*
X108744452Y-88495000D02*
X107155547Y-88495000D01*
X106250001Y-87697843D02*
X106250001Y-86292159D01*
X107155548Y-85495001D02*
X108744452Y-85495001D01*
M02*
