M48
; DRILL file {KiCad (5.1.4)-1} date 2024-03-23 12:38:17 AM
; FORMAT={-:-/ absolute / inch / decimal}
; #@! TF.CreationDate,2024-03-23T00:38:17-07:00
; #@! TF.GenerationSoftware,Kicad,Pcbnew,(5.1.4)-1
; #@! TF.FileFunction,Plated,1,2,PTH
FMAT,2
INCH
T1C0.0157
T2C0.0236
T3C0.0394
T4C0.0579
T5C0.0591
T6C0.0866
%
G90
G05
T1
X2.4062Y-2.75
X2.5Y-2.7812
X2.5625Y-2.6562
X2.5938Y-3.0312
X2.6562Y-2.5312
X2.75Y-2.6562
X2.8438Y-3.2188
X2.8438Y-4.0312
X2.8715Y-3.3117
X2.9375Y-5.4062
X2.9733Y-3.1296
X3.0231Y-3.125
X3.0312Y-3.3243
X3.0312Y-3.75
X3.0568Y-4.4119
X3.0625Y-3.125
X3.0938Y-3.1562
X3.0938Y-3.3243
X3.1875Y-3.0625
X3.25Y-4.7188
X3.2508Y-4.843
X3.4224Y-2.9537
X3.4375Y-2.8736
X3.4688Y-3.0312
X3.4823Y-2.8438
X3.5217Y-2.8438
X3.5938Y-2.6562
X3.75Y-2.9245
X3.75Y-3.0455
X3.75Y-3.0938
X3.7731Y-2.9815
X3.7975Y-3.0463
X3.8125Y-2.9688
X4.517Y-3.4545
X4.5312Y-3.375
X4.7812Y-4.7812
X4.784Y-4.0598
X4.8125Y-3.3125
X5.0625Y-4.5
X5.0882Y-3.7535
T3
X4.525Y-3.1375
X4.525Y-3.2375
X4.625Y-3.1375
X4.625Y-3.2375
X4.725Y-3.1375
X4.725Y-3.2375
X4.1875Y-2.4604
X4.1875Y-3.0312
X4.2859Y-3.0312
X4.3844Y-2.4604
X4.3844Y-3.0312
X4.875Y-2.4604
X4.875Y-3.0312
X4.9734Y-3.0312
X5.0719Y-2.4604
X5.0719Y-3.0312
T4
X4.9Y-4.575
X5.15Y-4.475
X4.9Y-5.325
X5.15Y-5.225
X2.65Y-3.825
X2.9Y-3.725
X4.15Y-4.575
X4.4Y-4.475
X3.4Y-4.575
X3.65Y-4.475
X4.9Y-3.825
X5.15Y-3.725
X4.15Y-5.325
X4.4Y-5.225
X2.65Y-4.575
X2.9Y-4.475
X3.4Y-5.325
X3.65Y-5.225
X2.65Y-5.325
X2.9Y-5.225
X3.4Y-3.825
X3.65Y-3.725
X4.15Y-3.825
X4.4Y-3.725
T6
X3.125Y-5.0625
X3.125Y-3.5625
X4.625Y-5.0625
X4.625Y-3.5625
T2
G00X2.4237Y-2.2156
M15
G01X2.4237Y-2.2392
M16
G05
G00X2.4237Y-2.3703
M15
G01X2.4237Y-2.4136
M16
G05
G00X2.7638Y-2.2156
M15
G01X2.7638Y-2.2392
M16
G05
G00X2.7638Y-2.3703
M15
G01X2.7638Y-2.4136
M16
G05
T5
G00X4.0655Y-2.7616
M15
G01X4.0655Y-2.7104
M16
G05
G00X4.5064Y-2.7616
M15
G01X4.5064Y-2.7104
M16
G05
G00X4.753Y-2.7616
M15
G01X4.753Y-2.7104
M16
G05
G00X5.1939Y-2.7616
M15
G01X5.1939Y-2.7104
M16
G05
T0
M30
