%TF.GenerationSoftware,KiCad,Pcbnew,(5.1.4)-1*%
%TF.CreationDate,2024-03-23T01:04:34-07:00*%
%TF.ProjectId,macropad,6d616372-6f70-4616-942e-6b696361645f,rev?*%
%TF.SameCoordinates,Original*%
%TF.FileFunction,Soldermask,Bot*%
%TF.FilePolarity,Negative*%
%FSLAX46Y46*%
G04 Gerber Fmt 4.6, Leading zero omitted, Abs format (unit mm)*
G04 Created by KiCad (PCBNEW (5.1.4)-1) date 2024-03-23 01:04:34*
%MOMM*%
%LPD*%
G04 APERTURE LIST*
%ADD10C,0.100000*%
G04 APERTURE END LIST*
D10*
G36*
X134794750Y-138738500D02*
G01*
X133492750Y-138738500D01*
X133492750Y-137736500D01*
X134794750Y-137736500D01*
X134794750Y-138738500D01*
X134794750Y-138738500D01*
G37*
G36*
X77644750Y-138676000D02*
G01*
X76342750Y-138676000D01*
X76342750Y-137674000D01*
X77644750Y-137674000D01*
X77644750Y-138676000D01*
X77644750Y-138676000D01*
G37*
G36*
X96694750Y-138676000D02*
G01*
X95392750Y-138676000D01*
X95392750Y-137674000D01*
X96694750Y-137674000D01*
X96694750Y-138676000D01*
X96694750Y-138676000D01*
G37*
G36*
X115744750Y-138676000D02*
G01*
X114442750Y-138676000D01*
X114442750Y-137674000D01*
X115744750Y-137674000D01*
X115744750Y-138676000D01*
X115744750Y-138676000D01*
G37*
G36*
X86551560Y-134094064D02*
G01*
X86703027Y-134124193D01*
X86917045Y-134212842D01*
X86917046Y-134212843D01*
X87109654Y-134341539D01*
X87273461Y-134505346D01*
X87359258Y-134633751D01*
X87402158Y-134697955D01*
X87490807Y-134911973D01*
X87536000Y-135139174D01*
X87536000Y-135370826D01*
X87490807Y-135598027D01*
X87402158Y-135812045D01*
X87402157Y-135812046D01*
X87273461Y-136004654D01*
X87109654Y-136168461D01*
X86981249Y-136254258D01*
X86917045Y-136297158D01*
X86703027Y-136385807D01*
X86551560Y-136415936D01*
X86475827Y-136431000D01*
X86244173Y-136431000D01*
X86168440Y-136415936D01*
X86016973Y-136385807D01*
X85802955Y-136297158D01*
X85738751Y-136254258D01*
X85610346Y-136168461D01*
X85446539Y-136004654D01*
X85317843Y-135812046D01*
X85317842Y-135812045D01*
X85229193Y-135598027D01*
X85184000Y-135370826D01*
X85184000Y-135139174D01*
X85229193Y-134911973D01*
X85317842Y-134697955D01*
X85360742Y-134633751D01*
X85446539Y-134505346D01*
X85610346Y-134341539D01*
X85802954Y-134212843D01*
X85802955Y-134212842D01*
X86016973Y-134124193D01*
X86168440Y-134094064D01*
X86244173Y-134079000D01*
X86475827Y-134079000D01*
X86551560Y-134094064D01*
X86551560Y-134094064D01*
G37*
G36*
X105601560Y-134094064D02*
G01*
X105753027Y-134124193D01*
X105967045Y-134212842D01*
X105967046Y-134212843D01*
X106159654Y-134341539D01*
X106323461Y-134505346D01*
X106409258Y-134633751D01*
X106452158Y-134697955D01*
X106540807Y-134911973D01*
X106586000Y-135139174D01*
X106586000Y-135370826D01*
X106540807Y-135598027D01*
X106452158Y-135812045D01*
X106452157Y-135812046D01*
X106323461Y-136004654D01*
X106159654Y-136168461D01*
X106031249Y-136254258D01*
X105967045Y-136297158D01*
X105753027Y-136385807D01*
X105601560Y-136415936D01*
X105525827Y-136431000D01*
X105294173Y-136431000D01*
X105218440Y-136415936D01*
X105066973Y-136385807D01*
X104852955Y-136297158D01*
X104788751Y-136254258D01*
X104660346Y-136168461D01*
X104496539Y-136004654D01*
X104367843Y-135812046D01*
X104367842Y-135812045D01*
X104279193Y-135598027D01*
X104234000Y-135370826D01*
X104234000Y-135139174D01*
X104279193Y-134911973D01*
X104367842Y-134697955D01*
X104410742Y-134633751D01*
X104496539Y-134505346D01*
X104660346Y-134341539D01*
X104852954Y-134212843D01*
X104852955Y-134212842D01*
X105066973Y-134124193D01*
X105218440Y-134094064D01*
X105294173Y-134079000D01*
X105525827Y-134079000D01*
X105601560Y-134094064D01*
X105601560Y-134094064D01*
G37*
G36*
X124651560Y-134094064D02*
G01*
X124803027Y-134124193D01*
X125017045Y-134212842D01*
X125017046Y-134212843D01*
X125209654Y-134341539D01*
X125373461Y-134505346D01*
X125459258Y-134633751D01*
X125502158Y-134697955D01*
X125590807Y-134911973D01*
X125636000Y-135139174D01*
X125636000Y-135370826D01*
X125590807Y-135598027D01*
X125502158Y-135812045D01*
X125502157Y-135812046D01*
X125373461Y-136004654D01*
X125209654Y-136168461D01*
X125081249Y-136254258D01*
X125017045Y-136297158D01*
X124803027Y-136385807D01*
X124651560Y-136415936D01*
X124575827Y-136431000D01*
X124344173Y-136431000D01*
X124268440Y-136415936D01*
X124116973Y-136385807D01*
X123902955Y-136297158D01*
X123838751Y-136254258D01*
X123710346Y-136168461D01*
X123546539Y-136004654D01*
X123417843Y-135812046D01*
X123417842Y-135812045D01*
X123329193Y-135598027D01*
X123284000Y-135370826D01*
X123284000Y-135139174D01*
X123329193Y-134911973D01*
X123417842Y-134697955D01*
X123460742Y-134633751D01*
X123546539Y-134505346D01*
X123710346Y-134341539D01*
X123902954Y-134212843D01*
X123902955Y-134212842D01*
X124116973Y-134124193D01*
X124268440Y-134094064D01*
X124344173Y-134079000D01*
X124575827Y-134079000D01*
X124651560Y-134094064D01*
X124651560Y-134094064D01*
G37*
G36*
X67501560Y-134094064D02*
G01*
X67653027Y-134124193D01*
X67867045Y-134212842D01*
X67867046Y-134212843D01*
X68059654Y-134341539D01*
X68223461Y-134505346D01*
X68309258Y-134633751D01*
X68352158Y-134697955D01*
X68440807Y-134911973D01*
X68486000Y-135139174D01*
X68486000Y-135370826D01*
X68440807Y-135598027D01*
X68352158Y-135812045D01*
X68352157Y-135812046D01*
X68223461Y-136004654D01*
X68059654Y-136168461D01*
X67931249Y-136254258D01*
X67867045Y-136297158D01*
X67653027Y-136385807D01*
X67501560Y-136415936D01*
X67425827Y-136431000D01*
X67194173Y-136431000D01*
X67118440Y-136415936D01*
X66966973Y-136385807D01*
X66752955Y-136297158D01*
X66688751Y-136254258D01*
X66560346Y-136168461D01*
X66396539Y-136004654D01*
X66267843Y-135812046D01*
X66267842Y-135812045D01*
X66179193Y-135598027D01*
X66134000Y-135370826D01*
X66134000Y-135139174D01*
X66179193Y-134911973D01*
X66267842Y-134697955D01*
X66310742Y-134633751D01*
X66396539Y-134505346D01*
X66560346Y-134341539D01*
X66752954Y-134212843D01*
X66752955Y-134212842D01*
X66966973Y-134124193D01*
X67118440Y-134094064D01*
X67194173Y-134079000D01*
X67425827Y-134079000D01*
X67501560Y-134094064D01*
X67501560Y-134094064D01*
G37*
G36*
X134794750Y-135438500D02*
G01*
X133492750Y-135438500D01*
X133492750Y-134436500D01*
X134794750Y-134436500D01*
X134794750Y-135438500D01*
X134794750Y-135438500D01*
G37*
G36*
X77644750Y-135376000D02*
G01*
X76342750Y-135376000D01*
X76342750Y-134374000D01*
X77644750Y-134374000D01*
X77644750Y-135376000D01*
X77644750Y-135376000D01*
G37*
G36*
X115744750Y-135376000D02*
G01*
X114442750Y-135376000D01*
X114442750Y-134374000D01*
X115744750Y-134374000D01*
X115744750Y-135376000D01*
X115744750Y-135376000D01*
G37*
G36*
X96694750Y-135376000D02*
G01*
X95392750Y-135376000D01*
X95392750Y-134374000D01*
X96694750Y-134374000D01*
X96694750Y-135376000D01*
X96694750Y-135376000D01*
G37*
G36*
X131001560Y-131554064D02*
G01*
X131153027Y-131584193D01*
X131367045Y-131672842D01*
X131367046Y-131672843D01*
X131559654Y-131801539D01*
X131723461Y-131965346D01*
X131738041Y-131987167D01*
X131852158Y-132157955D01*
X131940807Y-132371973D01*
X131986000Y-132599174D01*
X131986000Y-132830826D01*
X131940807Y-133058027D01*
X131852158Y-133272045D01*
X131852157Y-133272046D01*
X131723461Y-133464654D01*
X131559654Y-133628461D01*
X131431249Y-133714258D01*
X131367045Y-133757158D01*
X131153027Y-133845807D01*
X131001560Y-133875936D01*
X130925827Y-133891000D01*
X130694173Y-133891000D01*
X130618440Y-133875936D01*
X130466973Y-133845807D01*
X130252955Y-133757158D01*
X130188751Y-133714258D01*
X130060346Y-133628461D01*
X129896539Y-133464654D01*
X129767843Y-133272046D01*
X129767842Y-133272045D01*
X129679193Y-133058027D01*
X129634000Y-132830826D01*
X129634000Y-132599174D01*
X129679193Y-132371973D01*
X129767842Y-132157955D01*
X129881959Y-131987167D01*
X129896539Y-131965346D01*
X130060346Y-131801539D01*
X130252954Y-131672843D01*
X130252955Y-131672842D01*
X130466973Y-131584193D01*
X130618440Y-131554064D01*
X130694173Y-131539000D01*
X130925827Y-131539000D01*
X131001560Y-131554064D01*
X131001560Y-131554064D01*
G37*
G36*
X111951560Y-131554064D02*
G01*
X112103027Y-131584193D01*
X112317045Y-131672842D01*
X112317046Y-131672843D01*
X112509654Y-131801539D01*
X112673461Y-131965346D01*
X112688041Y-131987167D01*
X112802158Y-132157955D01*
X112890807Y-132371973D01*
X112936000Y-132599174D01*
X112936000Y-132830826D01*
X112890807Y-133058027D01*
X112802158Y-133272045D01*
X112802157Y-133272046D01*
X112673461Y-133464654D01*
X112509654Y-133628461D01*
X112381249Y-133714258D01*
X112317045Y-133757158D01*
X112103027Y-133845807D01*
X111951560Y-133875936D01*
X111875827Y-133891000D01*
X111644173Y-133891000D01*
X111568440Y-133875936D01*
X111416973Y-133845807D01*
X111202955Y-133757158D01*
X111138751Y-133714258D01*
X111010346Y-133628461D01*
X110846539Y-133464654D01*
X110717843Y-133272046D01*
X110717842Y-133272045D01*
X110629193Y-133058027D01*
X110584000Y-132830826D01*
X110584000Y-132599174D01*
X110629193Y-132371973D01*
X110717842Y-132157955D01*
X110831959Y-131987167D01*
X110846539Y-131965346D01*
X111010346Y-131801539D01*
X111202954Y-131672843D01*
X111202955Y-131672842D01*
X111416973Y-131584193D01*
X111568440Y-131554064D01*
X111644173Y-131539000D01*
X111875827Y-131539000D01*
X111951560Y-131554064D01*
X111951560Y-131554064D01*
G37*
G36*
X92901560Y-131554064D02*
G01*
X93053027Y-131584193D01*
X93267045Y-131672842D01*
X93267046Y-131672843D01*
X93459654Y-131801539D01*
X93623461Y-131965346D01*
X93638041Y-131987167D01*
X93752158Y-132157955D01*
X93840807Y-132371973D01*
X93886000Y-132599174D01*
X93886000Y-132830826D01*
X93840807Y-133058027D01*
X93752158Y-133272045D01*
X93752157Y-133272046D01*
X93623461Y-133464654D01*
X93459654Y-133628461D01*
X93331249Y-133714258D01*
X93267045Y-133757158D01*
X93053027Y-133845807D01*
X92901560Y-133875936D01*
X92825827Y-133891000D01*
X92594173Y-133891000D01*
X92518440Y-133875936D01*
X92366973Y-133845807D01*
X92152955Y-133757158D01*
X92088751Y-133714258D01*
X91960346Y-133628461D01*
X91796539Y-133464654D01*
X91667843Y-133272046D01*
X91667842Y-133272045D01*
X91579193Y-133058027D01*
X91534000Y-132830826D01*
X91534000Y-132599174D01*
X91579193Y-132371973D01*
X91667842Y-132157955D01*
X91781959Y-131987167D01*
X91796539Y-131965346D01*
X91960346Y-131801539D01*
X92152954Y-131672843D01*
X92152955Y-131672842D01*
X92366973Y-131584193D01*
X92518440Y-131554064D01*
X92594173Y-131539000D01*
X92825827Y-131539000D01*
X92901560Y-131554064D01*
X92901560Y-131554064D01*
G37*
G36*
X73851560Y-131554064D02*
G01*
X74003027Y-131584193D01*
X74217045Y-131672842D01*
X74217046Y-131672843D01*
X74409654Y-131801539D01*
X74573461Y-131965346D01*
X74588041Y-131987167D01*
X74702158Y-132157955D01*
X74790807Y-132371973D01*
X74836000Y-132599174D01*
X74836000Y-132830826D01*
X74790807Y-133058027D01*
X74702158Y-133272045D01*
X74702157Y-133272046D01*
X74573461Y-133464654D01*
X74409654Y-133628461D01*
X74281249Y-133714258D01*
X74217045Y-133757158D01*
X74003027Y-133845807D01*
X73851560Y-133875936D01*
X73775827Y-133891000D01*
X73544173Y-133891000D01*
X73468440Y-133875936D01*
X73316973Y-133845807D01*
X73102955Y-133757158D01*
X73038751Y-133714258D01*
X72910346Y-133628461D01*
X72746539Y-133464654D01*
X72617843Y-133272046D01*
X72617842Y-133272045D01*
X72529193Y-133058027D01*
X72484000Y-132830826D01*
X72484000Y-132599174D01*
X72529193Y-132371973D01*
X72617842Y-132157955D01*
X72731959Y-131987167D01*
X72746539Y-131965346D01*
X72910346Y-131801539D01*
X73102954Y-131672843D01*
X73102955Y-131672842D01*
X73316973Y-131584193D01*
X73468440Y-131554064D01*
X73544173Y-131539000D01*
X73775827Y-131539000D01*
X73851560Y-131554064D01*
X73851560Y-131554064D01*
G37*
G36*
X70446474Y-128208684D02*
G01*
X70664474Y-128298983D01*
X70818623Y-128362833D01*
X71153548Y-128586623D01*
X71438377Y-128871452D01*
X71662167Y-129206377D01*
X71694562Y-129284586D01*
X71816316Y-129578526D01*
X71894900Y-129973594D01*
X71894900Y-130376406D01*
X71816316Y-130771474D01*
X71765451Y-130894272D01*
X71662167Y-131143623D01*
X71438377Y-131478548D01*
X71153548Y-131763377D01*
X70818623Y-131987167D01*
X70664474Y-132051017D01*
X70446474Y-132141316D01*
X70051406Y-132219900D01*
X69648594Y-132219900D01*
X69253526Y-132141316D01*
X69035526Y-132051017D01*
X68881377Y-131987167D01*
X68546452Y-131763377D01*
X68261623Y-131478548D01*
X68037833Y-131143623D01*
X67934549Y-130894272D01*
X67883684Y-130771474D01*
X67805100Y-130376406D01*
X67805100Y-129973594D01*
X67883684Y-129578526D01*
X68005438Y-129284586D01*
X68037833Y-129206377D01*
X68261623Y-128871452D01*
X68546452Y-128586623D01*
X68881377Y-128362833D01*
X69035526Y-128298983D01*
X69253526Y-128208684D01*
X69648594Y-128130100D01*
X70051406Y-128130100D01*
X70446474Y-128208684D01*
X70446474Y-128208684D01*
G37*
G36*
X89496474Y-128208684D02*
G01*
X89714474Y-128298983D01*
X89868623Y-128362833D01*
X90203548Y-128586623D01*
X90488377Y-128871452D01*
X90712167Y-129206377D01*
X90744562Y-129284586D01*
X90866316Y-129578526D01*
X90944900Y-129973594D01*
X90944900Y-130376406D01*
X90866316Y-130771474D01*
X90815451Y-130894272D01*
X90712167Y-131143623D01*
X90488377Y-131478548D01*
X90203548Y-131763377D01*
X89868623Y-131987167D01*
X89714474Y-132051017D01*
X89496474Y-132141316D01*
X89101406Y-132219900D01*
X88698594Y-132219900D01*
X88303526Y-132141316D01*
X88085526Y-132051017D01*
X87931377Y-131987167D01*
X87596452Y-131763377D01*
X87311623Y-131478548D01*
X87087833Y-131143623D01*
X86984549Y-130894272D01*
X86933684Y-130771474D01*
X86855100Y-130376406D01*
X86855100Y-129973594D01*
X86933684Y-129578526D01*
X87055438Y-129284586D01*
X87087833Y-129206377D01*
X87311623Y-128871452D01*
X87596452Y-128586623D01*
X87931377Y-128362833D01*
X88085526Y-128298983D01*
X88303526Y-128208684D01*
X88698594Y-128130100D01*
X89101406Y-128130100D01*
X89496474Y-128208684D01*
X89496474Y-128208684D01*
G37*
G36*
X108546474Y-128208684D02*
G01*
X108764474Y-128298983D01*
X108918623Y-128362833D01*
X109253548Y-128586623D01*
X109538377Y-128871452D01*
X109762167Y-129206377D01*
X109794562Y-129284586D01*
X109916316Y-129578526D01*
X109994900Y-129973594D01*
X109994900Y-130376406D01*
X109916316Y-130771474D01*
X109865451Y-130894272D01*
X109762167Y-131143623D01*
X109538377Y-131478548D01*
X109253548Y-131763377D01*
X108918623Y-131987167D01*
X108764474Y-132051017D01*
X108546474Y-132141316D01*
X108151406Y-132219900D01*
X107748594Y-132219900D01*
X107353526Y-132141316D01*
X107135526Y-132051017D01*
X106981377Y-131987167D01*
X106646452Y-131763377D01*
X106361623Y-131478548D01*
X106137833Y-131143623D01*
X106034549Y-130894272D01*
X105983684Y-130771474D01*
X105905100Y-130376406D01*
X105905100Y-129973594D01*
X105983684Y-129578526D01*
X106105438Y-129284586D01*
X106137833Y-129206377D01*
X106361623Y-128871452D01*
X106646452Y-128586623D01*
X106981377Y-128362833D01*
X107135526Y-128298983D01*
X107353526Y-128208684D01*
X107748594Y-128130100D01*
X108151406Y-128130100D01*
X108546474Y-128208684D01*
X108546474Y-128208684D01*
G37*
G36*
X127596474Y-128208684D02*
G01*
X127814474Y-128298983D01*
X127968623Y-128362833D01*
X128303548Y-128586623D01*
X128588377Y-128871452D01*
X128812167Y-129206377D01*
X128844562Y-129284586D01*
X128966316Y-129578526D01*
X129044900Y-129973594D01*
X129044900Y-130376406D01*
X128966316Y-130771474D01*
X128915451Y-130894272D01*
X128812167Y-131143623D01*
X128588377Y-131478548D01*
X128303548Y-131763377D01*
X127968623Y-131987167D01*
X127814474Y-132051017D01*
X127596474Y-132141316D01*
X127201406Y-132219900D01*
X126798594Y-132219900D01*
X126403526Y-132141316D01*
X126185526Y-132051017D01*
X126031377Y-131987167D01*
X125696452Y-131763377D01*
X125411623Y-131478548D01*
X125187833Y-131143623D01*
X125084549Y-130894272D01*
X125033684Y-130771474D01*
X124955100Y-130376406D01*
X124955100Y-129973594D01*
X125033684Y-129578526D01*
X125155438Y-129284586D01*
X125187833Y-129206377D01*
X125411623Y-128871452D01*
X125696452Y-128586623D01*
X126031377Y-128362833D01*
X126185526Y-128298983D01*
X126403526Y-128208684D01*
X126798594Y-128130100D01*
X127201406Y-128130100D01*
X127596474Y-128208684D01*
X127596474Y-128208684D01*
G37*
G36*
X94250104Y-129284585D02*
G01*
X94418626Y-129354389D01*
X94570291Y-129455728D01*
X94699272Y-129584709D01*
X94800611Y-129736374D01*
X94870415Y-129904896D01*
X94906000Y-130083797D01*
X94906000Y-130266203D01*
X94870415Y-130445104D01*
X94800611Y-130613626D01*
X94699272Y-130765291D01*
X94570291Y-130894272D01*
X94418626Y-130995611D01*
X94250104Y-131065415D01*
X94071203Y-131101000D01*
X93888797Y-131101000D01*
X93709896Y-131065415D01*
X93541374Y-130995611D01*
X93389709Y-130894272D01*
X93260728Y-130765291D01*
X93159389Y-130613626D01*
X93089585Y-130445104D01*
X93054000Y-130266203D01*
X93054000Y-130083797D01*
X93089585Y-129904896D01*
X93159389Y-129736374D01*
X93260728Y-129584709D01*
X93389709Y-129455728D01*
X93541374Y-129354389D01*
X93709896Y-129284585D01*
X93888797Y-129249000D01*
X94071203Y-129249000D01*
X94250104Y-129284585D01*
X94250104Y-129284585D01*
G37*
G36*
X84090104Y-129284585D02*
G01*
X84258626Y-129354389D01*
X84410291Y-129455728D01*
X84539272Y-129584709D01*
X84640611Y-129736374D01*
X84710415Y-129904896D01*
X84746000Y-130083797D01*
X84746000Y-130266203D01*
X84710415Y-130445104D01*
X84640611Y-130613626D01*
X84539272Y-130765291D01*
X84410291Y-130894272D01*
X84258626Y-130995611D01*
X84090104Y-131065415D01*
X83911203Y-131101000D01*
X83728797Y-131101000D01*
X83549896Y-131065415D01*
X83381374Y-130995611D01*
X83229709Y-130894272D01*
X83100728Y-130765291D01*
X82999389Y-130613626D01*
X82929585Y-130445104D01*
X82894000Y-130266203D01*
X82894000Y-130083797D01*
X82929585Y-129904896D01*
X82999389Y-129736374D01*
X83100728Y-129584709D01*
X83229709Y-129455728D01*
X83381374Y-129354389D01*
X83549896Y-129284585D01*
X83728797Y-129249000D01*
X83911203Y-129249000D01*
X84090104Y-129284585D01*
X84090104Y-129284585D01*
G37*
G36*
X103140104Y-129284585D02*
G01*
X103308626Y-129354389D01*
X103460291Y-129455728D01*
X103589272Y-129584709D01*
X103690611Y-129736374D01*
X103760415Y-129904896D01*
X103796000Y-130083797D01*
X103796000Y-130266203D01*
X103760415Y-130445104D01*
X103690611Y-130613626D01*
X103589272Y-130765291D01*
X103460291Y-130894272D01*
X103308626Y-130995611D01*
X103140104Y-131065415D01*
X102961203Y-131101000D01*
X102778797Y-131101000D01*
X102599896Y-131065415D01*
X102431374Y-130995611D01*
X102279709Y-130894272D01*
X102150728Y-130765291D01*
X102049389Y-130613626D01*
X101979585Y-130445104D01*
X101944000Y-130266203D01*
X101944000Y-130083797D01*
X101979585Y-129904896D01*
X102049389Y-129736374D01*
X102150728Y-129584709D01*
X102279709Y-129455728D01*
X102431374Y-129354389D01*
X102599896Y-129284585D01*
X102778797Y-129249000D01*
X102961203Y-129249000D01*
X103140104Y-129284585D01*
X103140104Y-129284585D01*
G37*
G36*
X75200104Y-129284585D02*
G01*
X75368626Y-129354389D01*
X75520291Y-129455728D01*
X75649272Y-129584709D01*
X75750611Y-129736374D01*
X75820415Y-129904896D01*
X75856000Y-130083797D01*
X75856000Y-130266203D01*
X75820415Y-130445104D01*
X75750611Y-130613626D01*
X75649272Y-130765291D01*
X75520291Y-130894272D01*
X75368626Y-130995611D01*
X75200104Y-131065415D01*
X75021203Y-131101000D01*
X74838797Y-131101000D01*
X74659896Y-131065415D01*
X74491374Y-130995611D01*
X74339709Y-130894272D01*
X74210728Y-130765291D01*
X74109389Y-130613626D01*
X74039585Y-130445104D01*
X74004000Y-130266203D01*
X74004000Y-130083797D01*
X74039585Y-129904896D01*
X74109389Y-129736374D01*
X74210728Y-129584709D01*
X74339709Y-129455728D01*
X74491374Y-129354389D01*
X74659896Y-129284585D01*
X74838797Y-129249000D01*
X75021203Y-129249000D01*
X75200104Y-129284585D01*
X75200104Y-129284585D01*
G37*
G36*
X113300104Y-129284585D02*
G01*
X113468626Y-129354389D01*
X113620291Y-129455728D01*
X113749272Y-129584709D01*
X113850611Y-129736374D01*
X113920415Y-129904896D01*
X113956000Y-130083797D01*
X113956000Y-130266203D01*
X113920415Y-130445104D01*
X113850611Y-130613626D01*
X113749272Y-130765291D01*
X113620291Y-130894272D01*
X113468626Y-130995611D01*
X113300104Y-131065415D01*
X113121203Y-131101000D01*
X112938797Y-131101000D01*
X112759896Y-131065415D01*
X112591374Y-130995611D01*
X112439709Y-130894272D01*
X112310728Y-130765291D01*
X112209389Y-130613626D01*
X112139585Y-130445104D01*
X112104000Y-130266203D01*
X112104000Y-130083797D01*
X112139585Y-129904896D01*
X112209389Y-129736374D01*
X112310728Y-129584709D01*
X112439709Y-129455728D01*
X112591374Y-129354389D01*
X112759896Y-129284585D01*
X112938797Y-129249000D01*
X113121203Y-129249000D01*
X113300104Y-129284585D01*
X113300104Y-129284585D01*
G37*
G36*
X132350104Y-129284585D02*
G01*
X132518626Y-129354389D01*
X132670291Y-129455728D01*
X132799272Y-129584709D01*
X132900611Y-129736374D01*
X132970415Y-129904896D01*
X133006000Y-130083797D01*
X133006000Y-130266203D01*
X132970415Y-130445104D01*
X132900611Y-130613626D01*
X132799272Y-130765291D01*
X132670291Y-130894272D01*
X132518626Y-130995611D01*
X132350104Y-131065415D01*
X132171203Y-131101000D01*
X131988797Y-131101000D01*
X131809896Y-131065415D01*
X131641374Y-130995611D01*
X131489709Y-130894272D01*
X131360728Y-130765291D01*
X131259389Y-130613626D01*
X131189585Y-130445104D01*
X131154000Y-130266203D01*
X131154000Y-130083797D01*
X131189585Y-129904896D01*
X131259389Y-129736374D01*
X131360728Y-129584709D01*
X131489709Y-129455728D01*
X131641374Y-129354389D01*
X131809896Y-129284585D01*
X131988797Y-129249000D01*
X132171203Y-129249000D01*
X132350104Y-129284585D01*
X132350104Y-129284585D01*
G37*
G36*
X122190104Y-129284585D02*
G01*
X122358626Y-129354389D01*
X122510291Y-129455728D01*
X122639272Y-129584709D01*
X122740611Y-129736374D01*
X122810415Y-129904896D01*
X122846000Y-130083797D01*
X122846000Y-130266203D01*
X122810415Y-130445104D01*
X122740611Y-130613626D01*
X122639272Y-130765291D01*
X122510291Y-130894272D01*
X122358626Y-130995611D01*
X122190104Y-131065415D01*
X122011203Y-131101000D01*
X121828797Y-131101000D01*
X121649896Y-131065415D01*
X121481374Y-130995611D01*
X121329709Y-130894272D01*
X121200728Y-130765291D01*
X121099389Y-130613626D01*
X121029585Y-130445104D01*
X120994000Y-130266203D01*
X120994000Y-130083797D01*
X121029585Y-129904896D01*
X121099389Y-129736374D01*
X121200728Y-129584709D01*
X121329709Y-129455728D01*
X121481374Y-129354389D01*
X121649896Y-129284585D01*
X121828797Y-129249000D01*
X122011203Y-129249000D01*
X122190104Y-129284585D01*
X122190104Y-129284585D01*
G37*
G36*
X65040104Y-129284585D02*
G01*
X65208626Y-129354389D01*
X65360291Y-129455728D01*
X65489272Y-129584709D01*
X65590611Y-129736374D01*
X65660415Y-129904896D01*
X65696000Y-130083797D01*
X65696000Y-130266203D01*
X65660415Y-130445104D01*
X65590611Y-130613626D01*
X65489272Y-130765291D01*
X65360291Y-130894272D01*
X65208626Y-130995611D01*
X65040104Y-131065415D01*
X64861203Y-131101000D01*
X64678797Y-131101000D01*
X64499896Y-131065415D01*
X64331374Y-130995611D01*
X64179709Y-130894272D01*
X64050728Y-130765291D01*
X63949389Y-130613626D01*
X63879585Y-130445104D01*
X63844000Y-130266203D01*
X63844000Y-130083797D01*
X63879585Y-129904896D01*
X63949389Y-129736374D01*
X64050728Y-129584709D01*
X64179709Y-129455728D01*
X64331374Y-129354389D01*
X64499896Y-129284585D01*
X64678797Y-129249000D01*
X64861203Y-129249000D01*
X65040104Y-129284585D01*
X65040104Y-129284585D01*
G37*
G36*
X118044085Y-126711475D02*
G01*
X118399143Y-126858545D01*
X118399145Y-126858546D01*
X118718690Y-127072059D01*
X118990441Y-127343810D01*
X119203954Y-127663355D01*
X119203955Y-127663357D01*
X119351025Y-128018415D01*
X119426000Y-128395342D01*
X119426000Y-128779658D01*
X119351025Y-129156585D01*
X119227116Y-129455728D01*
X119203954Y-129511645D01*
X118990441Y-129831190D01*
X118718690Y-130102941D01*
X118399145Y-130316454D01*
X118399144Y-130316455D01*
X118399143Y-130316455D01*
X118044085Y-130463525D01*
X117667158Y-130538500D01*
X117282842Y-130538500D01*
X116905915Y-130463525D01*
X116550857Y-130316455D01*
X116550856Y-130316455D01*
X116550855Y-130316454D01*
X116231310Y-130102941D01*
X115959559Y-129831190D01*
X115746046Y-129511645D01*
X115722884Y-129455728D01*
X115598975Y-129156585D01*
X115524000Y-128779658D01*
X115524000Y-128395342D01*
X115598975Y-128018415D01*
X115746045Y-127663357D01*
X115746046Y-127663355D01*
X115959559Y-127343810D01*
X116231310Y-127072059D01*
X116550855Y-126858546D01*
X116550857Y-126858545D01*
X116905915Y-126711475D01*
X117282842Y-126636500D01*
X117667158Y-126636500D01*
X118044085Y-126711475D01*
X118044085Y-126711475D01*
G37*
G36*
X79944085Y-126711475D02*
G01*
X80299143Y-126858545D01*
X80299145Y-126858546D01*
X80618690Y-127072059D01*
X80890441Y-127343810D01*
X81103954Y-127663355D01*
X81103955Y-127663357D01*
X81251025Y-128018415D01*
X81326000Y-128395342D01*
X81326000Y-128779658D01*
X81251025Y-129156585D01*
X81127116Y-129455728D01*
X81103954Y-129511645D01*
X80890441Y-129831190D01*
X80618690Y-130102941D01*
X80299145Y-130316454D01*
X80299144Y-130316455D01*
X80299143Y-130316455D01*
X79944085Y-130463525D01*
X79567158Y-130538500D01*
X79182842Y-130538500D01*
X78805915Y-130463525D01*
X78450857Y-130316455D01*
X78450856Y-130316455D01*
X78450855Y-130316454D01*
X78131310Y-130102941D01*
X77859559Y-129831190D01*
X77646046Y-129511645D01*
X77622884Y-129455728D01*
X77498975Y-129156585D01*
X77424000Y-128779658D01*
X77424000Y-128395342D01*
X77498975Y-128018415D01*
X77646045Y-127663357D01*
X77646046Y-127663355D01*
X77859559Y-127343810D01*
X78131310Y-127072059D01*
X78450855Y-126858546D01*
X78450857Y-126858545D01*
X78805915Y-126711475D01*
X79182842Y-126636500D01*
X79567158Y-126636500D01*
X79944085Y-126711475D01*
X79944085Y-126711475D01*
G37*
G36*
X111401000Y-126306001D02*
G01*
X109699000Y-126306001D01*
X109699000Y-125384001D01*
X111401000Y-125384001D01*
X111401000Y-126306001D01*
X111401000Y-126306001D01*
G37*
G36*
X87151000Y-126306001D02*
G01*
X85449000Y-126306001D01*
X85449000Y-125384001D01*
X87151000Y-125384001D01*
X87151000Y-126306001D01*
X87151000Y-126306001D01*
G37*
G36*
X68101000Y-126306001D02*
G01*
X66399000Y-126306001D01*
X66399000Y-125384001D01*
X68101000Y-125384001D01*
X68101000Y-126306001D01*
X68101000Y-126306001D01*
G37*
G36*
X92351000Y-126306001D02*
G01*
X90649000Y-126306001D01*
X90649000Y-125384001D01*
X92351000Y-125384001D01*
X92351000Y-126306001D01*
X92351000Y-126306001D01*
G37*
G36*
X73301000Y-126306001D02*
G01*
X71599000Y-126306001D01*
X71599000Y-125384001D01*
X73301000Y-125384001D01*
X73301000Y-126306001D01*
X73301000Y-126306001D01*
G37*
G36*
X130451000Y-126306001D02*
G01*
X128749000Y-126306001D01*
X128749000Y-125384001D01*
X130451000Y-125384001D01*
X130451000Y-126306001D01*
X130451000Y-126306001D01*
G37*
G36*
X125251000Y-126306001D02*
G01*
X123549000Y-126306001D01*
X123549000Y-125384001D01*
X125251000Y-125384001D01*
X125251000Y-126306001D01*
X125251000Y-126306001D01*
G37*
G36*
X106201000Y-126306001D02*
G01*
X104499000Y-126306001D01*
X104499000Y-125384001D01*
X106201000Y-125384001D01*
X106201000Y-126306001D01*
X106201000Y-126306001D01*
G37*
G36*
X73301000Y-124806001D02*
G01*
X71599000Y-124806001D01*
X71599000Y-123884001D01*
X73301000Y-123884001D01*
X73301000Y-124806001D01*
X73301000Y-124806001D01*
G37*
G36*
X106201000Y-124806001D02*
G01*
X104499000Y-124806001D01*
X104499000Y-123884001D01*
X106201000Y-123884001D01*
X106201000Y-124806001D01*
X106201000Y-124806001D01*
G37*
G36*
X68101000Y-124806001D02*
G01*
X66399000Y-124806001D01*
X66399000Y-123884001D01*
X68101000Y-123884001D01*
X68101000Y-124806001D01*
X68101000Y-124806001D01*
G37*
G36*
X92351000Y-124806001D02*
G01*
X90649000Y-124806001D01*
X90649000Y-123884001D01*
X92351000Y-123884001D01*
X92351000Y-124806001D01*
X92351000Y-124806001D01*
G37*
G36*
X87151000Y-124806001D02*
G01*
X85449000Y-124806001D01*
X85449000Y-123884001D01*
X87151000Y-123884001D01*
X87151000Y-124806001D01*
X87151000Y-124806001D01*
G37*
G36*
X111401000Y-124806001D02*
G01*
X109699000Y-124806001D01*
X109699000Y-123884001D01*
X111401000Y-123884001D01*
X111401000Y-124806001D01*
X111401000Y-124806001D01*
G37*
G36*
X125251000Y-124806001D02*
G01*
X123549000Y-124806001D01*
X123549000Y-123884001D01*
X125251000Y-123884001D01*
X125251000Y-124806001D01*
X125251000Y-124806001D01*
G37*
G36*
X130451000Y-124806001D02*
G01*
X128749000Y-124806001D01*
X128749000Y-123884001D01*
X130451000Y-123884001D01*
X130451000Y-124806001D01*
X130451000Y-124806001D01*
G37*
G36*
X134794750Y-119626000D02*
G01*
X133492750Y-119626000D01*
X133492750Y-118624000D01*
X134794750Y-118624000D01*
X134794750Y-119626000D01*
X134794750Y-119626000D01*
G37*
G36*
X96694750Y-119626000D02*
G01*
X95392750Y-119626000D01*
X95392750Y-118624000D01*
X96694750Y-118624000D01*
X96694750Y-119626000D01*
X96694750Y-119626000D01*
G37*
G36*
X77644750Y-119626000D02*
G01*
X76342750Y-119626000D01*
X76342750Y-118624000D01*
X77644750Y-118624000D01*
X77644750Y-119626000D01*
X77644750Y-119626000D01*
G37*
G36*
X115744750Y-119626000D02*
G01*
X114442750Y-119626000D01*
X114442750Y-118624000D01*
X115744750Y-118624000D01*
X115744750Y-119626000D01*
X115744750Y-119626000D01*
G37*
G36*
X86551560Y-115044064D02*
G01*
X86703027Y-115074193D01*
X86917045Y-115162842D01*
X86917046Y-115162843D01*
X87109654Y-115291539D01*
X87273461Y-115455346D01*
X87359258Y-115583751D01*
X87402158Y-115647955D01*
X87490807Y-115861973D01*
X87536000Y-116089174D01*
X87536000Y-116320826D01*
X87490807Y-116548027D01*
X87402158Y-116762045D01*
X87402157Y-116762046D01*
X87273461Y-116954654D01*
X87109654Y-117118461D01*
X86981249Y-117204258D01*
X86917045Y-117247158D01*
X86703027Y-117335807D01*
X86551560Y-117365936D01*
X86475827Y-117381000D01*
X86244173Y-117381000D01*
X86168440Y-117365936D01*
X86016973Y-117335807D01*
X85802955Y-117247158D01*
X85738751Y-117204258D01*
X85610346Y-117118461D01*
X85446539Y-116954654D01*
X85317843Y-116762046D01*
X85317842Y-116762045D01*
X85229193Y-116548027D01*
X85184000Y-116320826D01*
X85184000Y-116089174D01*
X85229193Y-115861973D01*
X85317842Y-115647955D01*
X85360742Y-115583751D01*
X85446539Y-115455346D01*
X85610346Y-115291539D01*
X85802954Y-115162843D01*
X85802955Y-115162842D01*
X86016973Y-115074193D01*
X86168440Y-115044064D01*
X86244173Y-115029000D01*
X86475827Y-115029000D01*
X86551560Y-115044064D01*
X86551560Y-115044064D01*
G37*
G36*
X124651560Y-115044064D02*
G01*
X124803027Y-115074193D01*
X125017045Y-115162842D01*
X125017046Y-115162843D01*
X125209654Y-115291539D01*
X125373461Y-115455346D01*
X125459258Y-115583751D01*
X125502158Y-115647955D01*
X125590807Y-115861973D01*
X125636000Y-116089174D01*
X125636000Y-116320826D01*
X125590807Y-116548027D01*
X125502158Y-116762045D01*
X125502157Y-116762046D01*
X125373461Y-116954654D01*
X125209654Y-117118461D01*
X125081249Y-117204258D01*
X125017045Y-117247158D01*
X124803027Y-117335807D01*
X124651560Y-117365936D01*
X124575827Y-117381000D01*
X124344173Y-117381000D01*
X124268440Y-117365936D01*
X124116973Y-117335807D01*
X123902955Y-117247158D01*
X123838751Y-117204258D01*
X123710346Y-117118461D01*
X123546539Y-116954654D01*
X123417843Y-116762046D01*
X123417842Y-116762045D01*
X123329193Y-116548027D01*
X123284000Y-116320826D01*
X123284000Y-116089174D01*
X123329193Y-115861973D01*
X123417842Y-115647955D01*
X123460742Y-115583751D01*
X123546539Y-115455346D01*
X123710346Y-115291539D01*
X123902954Y-115162843D01*
X123902955Y-115162842D01*
X124116973Y-115074193D01*
X124268440Y-115044064D01*
X124344173Y-115029000D01*
X124575827Y-115029000D01*
X124651560Y-115044064D01*
X124651560Y-115044064D01*
G37*
G36*
X67501560Y-115044064D02*
G01*
X67653027Y-115074193D01*
X67867045Y-115162842D01*
X67867046Y-115162843D01*
X68059654Y-115291539D01*
X68223461Y-115455346D01*
X68309258Y-115583751D01*
X68352158Y-115647955D01*
X68440807Y-115861973D01*
X68486000Y-116089174D01*
X68486000Y-116320826D01*
X68440807Y-116548027D01*
X68352158Y-116762045D01*
X68352157Y-116762046D01*
X68223461Y-116954654D01*
X68059654Y-117118461D01*
X67931249Y-117204258D01*
X67867045Y-117247158D01*
X67653027Y-117335807D01*
X67501560Y-117365936D01*
X67425827Y-117381000D01*
X67194173Y-117381000D01*
X67118440Y-117365936D01*
X66966973Y-117335807D01*
X66752955Y-117247158D01*
X66688751Y-117204258D01*
X66560346Y-117118461D01*
X66396539Y-116954654D01*
X66267843Y-116762046D01*
X66267842Y-116762045D01*
X66179193Y-116548027D01*
X66134000Y-116320826D01*
X66134000Y-116089174D01*
X66179193Y-115861973D01*
X66267842Y-115647955D01*
X66310742Y-115583751D01*
X66396539Y-115455346D01*
X66560346Y-115291539D01*
X66752954Y-115162843D01*
X66752955Y-115162842D01*
X66966973Y-115074193D01*
X67118440Y-115044064D01*
X67194173Y-115029000D01*
X67425827Y-115029000D01*
X67501560Y-115044064D01*
X67501560Y-115044064D01*
G37*
G36*
X105601560Y-115044064D02*
G01*
X105753027Y-115074193D01*
X105967045Y-115162842D01*
X105967046Y-115162843D01*
X106159654Y-115291539D01*
X106323461Y-115455346D01*
X106409258Y-115583751D01*
X106452158Y-115647955D01*
X106540807Y-115861973D01*
X106586000Y-116089174D01*
X106586000Y-116320826D01*
X106540807Y-116548027D01*
X106452158Y-116762045D01*
X106452157Y-116762046D01*
X106323461Y-116954654D01*
X106159654Y-117118461D01*
X106031249Y-117204258D01*
X105967045Y-117247158D01*
X105753027Y-117335807D01*
X105601560Y-117365936D01*
X105525827Y-117381000D01*
X105294173Y-117381000D01*
X105218440Y-117365936D01*
X105066973Y-117335807D01*
X104852955Y-117247158D01*
X104788751Y-117204258D01*
X104660346Y-117118461D01*
X104496539Y-116954654D01*
X104367843Y-116762046D01*
X104367842Y-116762045D01*
X104279193Y-116548027D01*
X104234000Y-116320826D01*
X104234000Y-116089174D01*
X104279193Y-115861973D01*
X104367842Y-115647955D01*
X104410742Y-115583751D01*
X104496539Y-115455346D01*
X104660346Y-115291539D01*
X104852954Y-115162843D01*
X104852955Y-115162842D01*
X105066973Y-115074193D01*
X105218440Y-115044064D01*
X105294173Y-115029000D01*
X105525827Y-115029000D01*
X105601560Y-115044064D01*
X105601560Y-115044064D01*
G37*
G36*
X77644750Y-116326000D02*
G01*
X76342750Y-116326000D01*
X76342750Y-115324000D01*
X77644750Y-115324000D01*
X77644750Y-116326000D01*
X77644750Y-116326000D01*
G37*
G36*
X134794750Y-116326000D02*
G01*
X133492750Y-116326000D01*
X133492750Y-115324000D01*
X134794750Y-115324000D01*
X134794750Y-116326000D01*
X134794750Y-116326000D01*
G37*
G36*
X115744750Y-116326000D02*
G01*
X114442750Y-116326000D01*
X114442750Y-115324000D01*
X115744750Y-115324000D01*
X115744750Y-116326000D01*
X115744750Y-116326000D01*
G37*
G36*
X96694750Y-116326000D02*
G01*
X95392750Y-116326000D01*
X95392750Y-115324000D01*
X96694750Y-115324000D01*
X96694750Y-116326000D01*
X96694750Y-116326000D01*
G37*
G36*
X73851560Y-112504064D02*
G01*
X74003027Y-112534193D01*
X74217045Y-112622842D01*
X74217046Y-112622843D01*
X74409654Y-112751539D01*
X74573461Y-112915346D01*
X74588041Y-112937167D01*
X74702158Y-113107955D01*
X74790807Y-113321973D01*
X74836000Y-113549174D01*
X74836000Y-113780826D01*
X74790807Y-114008027D01*
X74702158Y-114222045D01*
X74702157Y-114222046D01*
X74573461Y-114414654D01*
X74409654Y-114578461D01*
X74281249Y-114664258D01*
X74217045Y-114707158D01*
X74003027Y-114795807D01*
X73851560Y-114825936D01*
X73775827Y-114841000D01*
X73544173Y-114841000D01*
X73468440Y-114825936D01*
X73316973Y-114795807D01*
X73102955Y-114707158D01*
X73038751Y-114664258D01*
X72910346Y-114578461D01*
X72746539Y-114414654D01*
X72617843Y-114222046D01*
X72617842Y-114222045D01*
X72529193Y-114008027D01*
X72484000Y-113780826D01*
X72484000Y-113549174D01*
X72529193Y-113321973D01*
X72617842Y-113107955D01*
X72731959Y-112937167D01*
X72746539Y-112915346D01*
X72910346Y-112751539D01*
X73102954Y-112622843D01*
X73102955Y-112622842D01*
X73316973Y-112534193D01*
X73468440Y-112504064D01*
X73544173Y-112489000D01*
X73775827Y-112489000D01*
X73851560Y-112504064D01*
X73851560Y-112504064D01*
G37*
G36*
X92901560Y-112504064D02*
G01*
X93053027Y-112534193D01*
X93267045Y-112622842D01*
X93267046Y-112622843D01*
X93459654Y-112751539D01*
X93623461Y-112915346D01*
X93638041Y-112937167D01*
X93752158Y-113107955D01*
X93840807Y-113321973D01*
X93886000Y-113549174D01*
X93886000Y-113780826D01*
X93840807Y-114008027D01*
X93752158Y-114222045D01*
X93752157Y-114222046D01*
X93623461Y-114414654D01*
X93459654Y-114578461D01*
X93331249Y-114664258D01*
X93267045Y-114707158D01*
X93053027Y-114795807D01*
X92901560Y-114825936D01*
X92825827Y-114841000D01*
X92594173Y-114841000D01*
X92518440Y-114825936D01*
X92366973Y-114795807D01*
X92152955Y-114707158D01*
X92088751Y-114664258D01*
X91960346Y-114578461D01*
X91796539Y-114414654D01*
X91667843Y-114222046D01*
X91667842Y-114222045D01*
X91579193Y-114008027D01*
X91534000Y-113780826D01*
X91534000Y-113549174D01*
X91579193Y-113321973D01*
X91667842Y-113107955D01*
X91781959Y-112937167D01*
X91796539Y-112915346D01*
X91960346Y-112751539D01*
X92152954Y-112622843D01*
X92152955Y-112622842D01*
X92366973Y-112534193D01*
X92518440Y-112504064D01*
X92594173Y-112489000D01*
X92825827Y-112489000D01*
X92901560Y-112504064D01*
X92901560Y-112504064D01*
G37*
G36*
X131001560Y-112504064D02*
G01*
X131153027Y-112534193D01*
X131367045Y-112622842D01*
X131367046Y-112622843D01*
X131559654Y-112751539D01*
X131723461Y-112915346D01*
X131738041Y-112937167D01*
X131852158Y-113107955D01*
X131940807Y-113321973D01*
X131986000Y-113549174D01*
X131986000Y-113780826D01*
X131940807Y-114008027D01*
X131852158Y-114222045D01*
X131852157Y-114222046D01*
X131723461Y-114414654D01*
X131559654Y-114578461D01*
X131431249Y-114664258D01*
X131367045Y-114707158D01*
X131153027Y-114795807D01*
X131001560Y-114825936D01*
X130925827Y-114841000D01*
X130694173Y-114841000D01*
X130618440Y-114825936D01*
X130466973Y-114795807D01*
X130252955Y-114707158D01*
X130188751Y-114664258D01*
X130060346Y-114578461D01*
X129896539Y-114414654D01*
X129767843Y-114222046D01*
X129767842Y-114222045D01*
X129679193Y-114008027D01*
X129634000Y-113780826D01*
X129634000Y-113549174D01*
X129679193Y-113321973D01*
X129767842Y-113107955D01*
X129881959Y-112937167D01*
X129896539Y-112915346D01*
X130060346Y-112751539D01*
X130252954Y-112622843D01*
X130252955Y-112622842D01*
X130466973Y-112534193D01*
X130618440Y-112504064D01*
X130694173Y-112489000D01*
X130925827Y-112489000D01*
X131001560Y-112504064D01*
X131001560Y-112504064D01*
G37*
G36*
X111951560Y-112504064D02*
G01*
X112103027Y-112534193D01*
X112317045Y-112622842D01*
X112317046Y-112622843D01*
X112509654Y-112751539D01*
X112673461Y-112915346D01*
X112688041Y-112937167D01*
X112802158Y-113107955D01*
X112890807Y-113321973D01*
X112936000Y-113549174D01*
X112936000Y-113780826D01*
X112890807Y-114008027D01*
X112802158Y-114222045D01*
X112802157Y-114222046D01*
X112673461Y-114414654D01*
X112509654Y-114578461D01*
X112381249Y-114664258D01*
X112317045Y-114707158D01*
X112103027Y-114795807D01*
X111951560Y-114825936D01*
X111875827Y-114841000D01*
X111644173Y-114841000D01*
X111568440Y-114825936D01*
X111416973Y-114795807D01*
X111202955Y-114707158D01*
X111138751Y-114664258D01*
X111010346Y-114578461D01*
X110846539Y-114414654D01*
X110717843Y-114222046D01*
X110717842Y-114222045D01*
X110629193Y-114008027D01*
X110584000Y-113780826D01*
X110584000Y-113549174D01*
X110629193Y-113321973D01*
X110717842Y-113107955D01*
X110831959Y-112937167D01*
X110846539Y-112915346D01*
X111010346Y-112751539D01*
X111202954Y-112622843D01*
X111202955Y-112622842D01*
X111416973Y-112534193D01*
X111568440Y-112504064D01*
X111644173Y-112489000D01*
X111875827Y-112489000D01*
X111951560Y-112504064D01*
X111951560Y-112504064D01*
G37*
G36*
X127596474Y-109158684D02*
G01*
X127814474Y-109248983D01*
X127968623Y-109312833D01*
X128303548Y-109536623D01*
X128588377Y-109821452D01*
X128812167Y-110156377D01*
X128844562Y-110234586D01*
X128966316Y-110528526D01*
X129044900Y-110923594D01*
X129044900Y-111326406D01*
X128966316Y-111721474D01*
X128915451Y-111844272D01*
X128812167Y-112093623D01*
X128588377Y-112428548D01*
X128303548Y-112713377D01*
X127968623Y-112937167D01*
X127814474Y-113001017D01*
X127596474Y-113091316D01*
X127201406Y-113169900D01*
X126798594Y-113169900D01*
X126403526Y-113091316D01*
X126185526Y-113001017D01*
X126031377Y-112937167D01*
X125696452Y-112713377D01*
X125411623Y-112428548D01*
X125187833Y-112093623D01*
X125084549Y-111844272D01*
X125033684Y-111721474D01*
X124955100Y-111326406D01*
X124955100Y-110923594D01*
X125033684Y-110528526D01*
X125155438Y-110234586D01*
X125187833Y-110156377D01*
X125411623Y-109821452D01*
X125696452Y-109536623D01*
X126031377Y-109312833D01*
X126185526Y-109248983D01*
X126403526Y-109158684D01*
X126798594Y-109080100D01*
X127201406Y-109080100D01*
X127596474Y-109158684D01*
X127596474Y-109158684D01*
G37*
G36*
X89496474Y-109158684D02*
G01*
X89714474Y-109248983D01*
X89868623Y-109312833D01*
X90203548Y-109536623D01*
X90488377Y-109821452D01*
X90712167Y-110156377D01*
X90744562Y-110234586D01*
X90866316Y-110528526D01*
X90944900Y-110923594D01*
X90944900Y-111326406D01*
X90866316Y-111721474D01*
X90815451Y-111844272D01*
X90712167Y-112093623D01*
X90488377Y-112428548D01*
X90203548Y-112713377D01*
X89868623Y-112937167D01*
X89714474Y-113001017D01*
X89496474Y-113091316D01*
X89101406Y-113169900D01*
X88698594Y-113169900D01*
X88303526Y-113091316D01*
X88085526Y-113001017D01*
X87931377Y-112937167D01*
X87596452Y-112713377D01*
X87311623Y-112428548D01*
X87087833Y-112093623D01*
X86984549Y-111844272D01*
X86933684Y-111721474D01*
X86855100Y-111326406D01*
X86855100Y-110923594D01*
X86933684Y-110528526D01*
X87055438Y-110234586D01*
X87087833Y-110156377D01*
X87311623Y-109821452D01*
X87596452Y-109536623D01*
X87931377Y-109312833D01*
X88085526Y-109248983D01*
X88303526Y-109158684D01*
X88698594Y-109080100D01*
X89101406Y-109080100D01*
X89496474Y-109158684D01*
X89496474Y-109158684D01*
G37*
G36*
X108546474Y-109158684D02*
G01*
X108764474Y-109248983D01*
X108918623Y-109312833D01*
X109253548Y-109536623D01*
X109538377Y-109821452D01*
X109762167Y-110156377D01*
X109794562Y-110234586D01*
X109916316Y-110528526D01*
X109994900Y-110923594D01*
X109994900Y-111326406D01*
X109916316Y-111721474D01*
X109865451Y-111844272D01*
X109762167Y-112093623D01*
X109538377Y-112428548D01*
X109253548Y-112713377D01*
X108918623Y-112937167D01*
X108764474Y-113001017D01*
X108546474Y-113091316D01*
X108151406Y-113169900D01*
X107748594Y-113169900D01*
X107353526Y-113091316D01*
X107135526Y-113001017D01*
X106981377Y-112937167D01*
X106646452Y-112713377D01*
X106361623Y-112428548D01*
X106137833Y-112093623D01*
X106034549Y-111844272D01*
X105983684Y-111721474D01*
X105905100Y-111326406D01*
X105905100Y-110923594D01*
X105983684Y-110528526D01*
X106105438Y-110234586D01*
X106137833Y-110156377D01*
X106361623Y-109821452D01*
X106646452Y-109536623D01*
X106981377Y-109312833D01*
X107135526Y-109248983D01*
X107353526Y-109158684D01*
X107748594Y-109080100D01*
X108151406Y-109080100D01*
X108546474Y-109158684D01*
X108546474Y-109158684D01*
G37*
G36*
X70446474Y-109158684D02*
G01*
X70664474Y-109248983D01*
X70818623Y-109312833D01*
X71153548Y-109536623D01*
X71438377Y-109821452D01*
X71662167Y-110156377D01*
X71694562Y-110234586D01*
X71816316Y-110528526D01*
X71894900Y-110923594D01*
X71894900Y-111326406D01*
X71816316Y-111721474D01*
X71765451Y-111844272D01*
X71662167Y-112093623D01*
X71438377Y-112428548D01*
X71153548Y-112713377D01*
X70818623Y-112937167D01*
X70664474Y-113001017D01*
X70446474Y-113091316D01*
X70051406Y-113169900D01*
X69648594Y-113169900D01*
X69253526Y-113091316D01*
X69035526Y-113001017D01*
X68881377Y-112937167D01*
X68546452Y-112713377D01*
X68261623Y-112428548D01*
X68037833Y-112093623D01*
X67934549Y-111844272D01*
X67883684Y-111721474D01*
X67805100Y-111326406D01*
X67805100Y-110923594D01*
X67883684Y-110528526D01*
X68005438Y-110234586D01*
X68037833Y-110156377D01*
X68261623Y-109821452D01*
X68546452Y-109536623D01*
X68881377Y-109312833D01*
X69035526Y-109248983D01*
X69253526Y-109158684D01*
X69648594Y-109080100D01*
X70051406Y-109080100D01*
X70446474Y-109158684D01*
X70446474Y-109158684D01*
G37*
G36*
X94250104Y-110234585D02*
G01*
X94418626Y-110304389D01*
X94570291Y-110405728D01*
X94699272Y-110534709D01*
X94800611Y-110686374D01*
X94870415Y-110854896D01*
X94906000Y-111033797D01*
X94906000Y-111216203D01*
X94870415Y-111395104D01*
X94800611Y-111563626D01*
X94699272Y-111715291D01*
X94570291Y-111844272D01*
X94418626Y-111945611D01*
X94250104Y-112015415D01*
X94071203Y-112051000D01*
X93888797Y-112051000D01*
X93709896Y-112015415D01*
X93541374Y-111945611D01*
X93389709Y-111844272D01*
X93260728Y-111715291D01*
X93159389Y-111563626D01*
X93089585Y-111395104D01*
X93054000Y-111216203D01*
X93054000Y-111033797D01*
X93089585Y-110854896D01*
X93159389Y-110686374D01*
X93260728Y-110534709D01*
X93389709Y-110405728D01*
X93541374Y-110304389D01*
X93709896Y-110234585D01*
X93888797Y-110199000D01*
X94071203Y-110199000D01*
X94250104Y-110234585D01*
X94250104Y-110234585D01*
G37*
G36*
X122190104Y-110234585D02*
G01*
X122358626Y-110304389D01*
X122510291Y-110405728D01*
X122639272Y-110534709D01*
X122740611Y-110686374D01*
X122810415Y-110854896D01*
X122846000Y-111033797D01*
X122846000Y-111216203D01*
X122810415Y-111395104D01*
X122740611Y-111563626D01*
X122639272Y-111715291D01*
X122510291Y-111844272D01*
X122358626Y-111945611D01*
X122190104Y-112015415D01*
X122011203Y-112051000D01*
X121828797Y-112051000D01*
X121649896Y-112015415D01*
X121481374Y-111945611D01*
X121329709Y-111844272D01*
X121200728Y-111715291D01*
X121099389Y-111563626D01*
X121029585Y-111395104D01*
X120994000Y-111216203D01*
X120994000Y-111033797D01*
X121029585Y-110854896D01*
X121099389Y-110686374D01*
X121200728Y-110534709D01*
X121329709Y-110405728D01*
X121481374Y-110304389D01*
X121649896Y-110234585D01*
X121828797Y-110199000D01*
X122011203Y-110199000D01*
X122190104Y-110234585D01*
X122190104Y-110234585D01*
G37*
G36*
X84090104Y-110234585D02*
G01*
X84258626Y-110304389D01*
X84410291Y-110405728D01*
X84539272Y-110534709D01*
X84640611Y-110686374D01*
X84710415Y-110854896D01*
X84746000Y-111033797D01*
X84746000Y-111216203D01*
X84710415Y-111395104D01*
X84640611Y-111563626D01*
X84539272Y-111715291D01*
X84410291Y-111844272D01*
X84258626Y-111945611D01*
X84090104Y-112015415D01*
X83911203Y-112051000D01*
X83728797Y-112051000D01*
X83549896Y-112015415D01*
X83381374Y-111945611D01*
X83229709Y-111844272D01*
X83100728Y-111715291D01*
X82999389Y-111563626D01*
X82929585Y-111395104D01*
X82894000Y-111216203D01*
X82894000Y-111033797D01*
X82929585Y-110854896D01*
X82999389Y-110686374D01*
X83100728Y-110534709D01*
X83229709Y-110405728D01*
X83381374Y-110304389D01*
X83549896Y-110234585D01*
X83728797Y-110199000D01*
X83911203Y-110199000D01*
X84090104Y-110234585D01*
X84090104Y-110234585D01*
G37*
G36*
X75200104Y-110234585D02*
G01*
X75368626Y-110304389D01*
X75520291Y-110405728D01*
X75649272Y-110534709D01*
X75750611Y-110686374D01*
X75820415Y-110854896D01*
X75856000Y-111033797D01*
X75856000Y-111216203D01*
X75820415Y-111395104D01*
X75750611Y-111563626D01*
X75649272Y-111715291D01*
X75520291Y-111844272D01*
X75368626Y-111945611D01*
X75200104Y-112015415D01*
X75021203Y-112051000D01*
X74838797Y-112051000D01*
X74659896Y-112015415D01*
X74491374Y-111945611D01*
X74339709Y-111844272D01*
X74210728Y-111715291D01*
X74109389Y-111563626D01*
X74039585Y-111395104D01*
X74004000Y-111216203D01*
X74004000Y-111033797D01*
X74039585Y-110854896D01*
X74109389Y-110686374D01*
X74210728Y-110534709D01*
X74339709Y-110405728D01*
X74491374Y-110304389D01*
X74659896Y-110234585D01*
X74838797Y-110199000D01*
X75021203Y-110199000D01*
X75200104Y-110234585D01*
X75200104Y-110234585D01*
G37*
G36*
X65040104Y-110234585D02*
G01*
X65208626Y-110304389D01*
X65360291Y-110405728D01*
X65489272Y-110534709D01*
X65590611Y-110686374D01*
X65660415Y-110854896D01*
X65696000Y-111033797D01*
X65696000Y-111216203D01*
X65660415Y-111395104D01*
X65590611Y-111563626D01*
X65489272Y-111715291D01*
X65360291Y-111844272D01*
X65208626Y-111945611D01*
X65040104Y-112015415D01*
X64861203Y-112051000D01*
X64678797Y-112051000D01*
X64499896Y-112015415D01*
X64331374Y-111945611D01*
X64179709Y-111844272D01*
X64050728Y-111715291D01*
X63949389Y-111563626D01*
X63879585Y-111395104D01*
X63844000Y-111216203D01*
X63844000Y-111033797D01*
X63879585Y-110854896D01*
X63949389Y-110686374D01*
X64050728Y-110534709D01*
X64179709Y-110405728D01*
X64331374Y-110304389D01*
X64499896Y-110234585D01*
X64678797Y-110199000D01*
X64861203Y-110199000D01*
X65040104Y-110234585D01*
X65040104Y-110234585D01*
G37*
G36*
X113300104Y-110234585D02*
G01*
X113468626Y-110304389D01*
X113620291Y-110405728D01*
X113749272Y-110534709D01*
X113850611Y-110686374D01*
X113920415Y-110854896D01*
X113956000Y-111033797D01*
X113956000Y-111216203D01*
X113920415Y-111395104D01*
X113850611Y-111563626D01*
X113749272Y-111715291D01*
X113620291Y-111844272D01*
X113468626Y-111945611D01*
X113300104Y-112015415D01*
X113121203Y-112051000D01*
X112938797Y-112051000D01*
X112759896Y-112015415D01*
X112591374Y-111945611D01*
X112439709Y-111844272D01*
X112310728Y-111715291D01*
X112209389Y-111563626D01*
X112139585Y-111395104D01*
X112104000Y-111216203D01*
X112104000Y-111033797D01*
X112139585Y-110854896D01*
X112209389Y-110686374D01*
X112310728Y-110534709D01*
X112439709Y-110405728D01*
X112591374Y-110304389D01*
X112759896Y-110234585D01*
X112938797Y-110199000D01*
X113121203Y-110199000D01*
X113300104Y-110234585D01*
X113300104Y-110234585D01*
G37*
G36*
X103140104Y-110234585D02*
G01*
X103308626Y-110304389D01*
X103460291Y-110405728D01*
X103589272Y-110534709D01*
X103690611Y-110686374D01*
X103760415Y-110854896D01*
X103796000Y-111033797D01*
X103796000Y-111216203D01*
X103760415Y-111395104D01*
X103690611Y-111563626D01*
X103589272Y-111715291D01*
X103460291Y-111844272D01*
X103308626Y-111945611D01*
X103140104Y-112015415D01*
X102961203Y-112051000D01*
X102778797Y-112051000D01*
X102599896Y-112015415D01*
X102431374Y-111945611D01*
X102279709Y-111844272D01*
X102150728Y-111715291D01*
X102049389Y-111563626D01*
X101979585Y-111395104D01*
X101944000Y-111216203D01*
X101944000Y-111033797D01*
X101979585Y-110854896D01*
X102049389Y-110686374D01*
X102150728Y-110534709D01*
X102279709Y-110405728D01*
X102431374Y-110304389D01*
X102599896Y-110234585D01*
X102778797Y-110199000D01*
X102961203Y-110199000D01*
X103140104Y-110234585D01*
X103140104Y-110234585D01*
G37*
G36*
X132350104Y-110234585D02*
G01*
X132518626Y-110304389D01*
X132670291Y-110405728D01*
X132799272Y-110534709D01*
X132900611Y-110686374D01*
X132970415Y-110854896D01*
X133006000Y-111033797D01*
X133006000Y-111216203D01*
X132970415Y-111395104D01*
X132900611Y-111563626D01*
X132799272Y-111715291D01*
X132670291Y-111844272D01*
X132518626Y-111945611D01*
X132350104Y-112015415D01*
X132171203Y-112051000D01*
X131988797Y-112051000D01*
X131809896Y-112015415D01*
X131641374Y-111945611D01*
X131489709Y-111844272D01*
X131360728Y-111715291D01*
X131259389Y-111563626D01*
X131189585Y-111395104D01*
X131154000Y-111216203D01*
X131154000Y-111033797D01*
X131189585Y-110854896D01*
X131259389Y-110686374D01*
X131360728Y-110534709D01*
X131489709Y-110405728D01*
X131641374Y-110304389D01*
X131809896Y-110234585D01*
X131988797Y-110199000D01*
X132171203Y-110199000D01*
X132350104Y-110234585D01*
X132350104Y-110234585D01*
G37*
G36*
X68101000Y-107256001D02*
G01*
X66399000Y-107256001D01*
X66399000Y-106334001D01*
X68101000Y-106334001D01*
X68101000Y-107256001D01*
X68101000Y-107256001D01*
G37*
G36*
X87151000Y-107256001D02*
G01*
X85449000Y-107256001D01*
X85449000Y-106334001D01*
X87151000Y-106334001D01*
X87151000Y-107256001D01*
X87151000Y-107256001D01*
G37*
G36*
X125251000Y-107256001D02*
G01*
X123549000Y-107256001D01*
X123549000Y-106334001D01*
X125251000Y-106334001D01*
X125251000Y-107256001D01*
X125251000Y-107256001D01*
G37*
G36*
X130451000Y-107256001D02*
G01*
X128749000Y-107256001D01*
X128749000Y-106334001D01*
X130451000Y-106334001D01*
X130451000Y-107256001D01*
X130451000Y-107256001D01*
G37*
G36*
X111401000Y-107256001D02*
G01*
X109699000Y-107256001D01*
X109699000Y-106334001D01*
X111401000Y-106334001D01*
X111401000Y-107256001D01*
X111401000Y-107256001D01*
G37*
G36*
X73301000Y-107256001D02*
G01*
X71599000Y-107256001D01*
X71599000Y-106334001D01*
X73301000Y-106334001D01*
X73301000Y-107256001D01*
X73301000Y-107256001D01*
G37*
G36*
X92351000Y-107256001D02*
G01*
X90649000Y-107256001D01*
X90649000Y-106334001D01*
X92351000Y-106334001D01*
X92351000Y-107256001D01*
X92351000Y-107256001D01*
G37*
G36*
X106201000Y-107256001D02*
G01*
X104499000Y-107256001D01*
X104499000Y-106334001D01*
X106201000Y-106334001D01*
X106201000Y-107256001D01*
X106201000Y-107256001D01*
G37*
G36*
X92351000Y-105756001D02*
G01*
X90649000Y-105756001D01*
X90649000Y-104834001D01*
X92351000Y-104834001D01*
X92351000Y-105756001D01*
X92351000Y-105756001D01*
G37*
G36*
X87151000Y-105756001D02*
G01*
X85449000Y-105756001D01*
X85449000Y-104834001D01*
X87151000Y-104834001D01*
X87151000Y-105756001D01*
X87151000Y-105756001D01*
G37*
G36*
X106201000Y-105756001D02*
G01*
X104499000Y-105756001D01*
X104499000Y-104834001D01*
X106201000Y-104834001D01*
X106201000Y-105756001D01*
X106201000Y-105756001D01*
G37*
G36*
X125251000Y-105756001D02*
G01*
X123549000Y-105756001D01*
X123549000Y-104834001D01*
X125251000Y-104834001D01*
X125251000Y-105756001D01*
X125251000Y-105756001D01*
G37*
G36*
X111401000Y-105756001D02*
G01*
X109699000Y-105756001D01*
X109699000Y-104834001D01*
X111401000Y-104834001D01*
X111401000Y-105756001D01*
X111401000Y-105756001D01*
G37*
G36*
X68101000Y-105756001D02*
G01*
X66399000Y-105756001D01*
X66399000Y-104834001D01*
X68101000Y-104834001D01*
X68101000Y-105756001D01*
X68101000Y-105756001D01*
G37*
G36*
X73301000Y-105756001D02*
G01*
X71599000Y-105756001D01*
X71599000Y-104834001D01*
X73301000Y-104834001D01*
X73301000Y-105756001D01*
X73301000Y-105756001D01*
G37*
G36*
X130451000Y-105756001D02*
G01*
X128749000Y-105756001D01*
X128749000Y-104834001D01*
X130451000Y-104834001D01*
X130451000Y-105756001D01*
X130451000Y-105756001D01*
G37*
G36*
X115744750Y-100576000D02*
G01*
X114442750Y-100576000D01*
X114442750Y-99574000D01*
X115744750Y-99574000D01*
X115744750Y-100576000D01*
X115744750Y-100576000D01*
G37*
G36*
X134794750Y-100576000D02*
G01*
X133492750Y-100576000D01*
X133492750Y-99574000D01*
X134794750Y-99574000D01*
X134794750Y-100576000D01*
X134794750Y-100576000D01*
G37*
G36*
X96694750Y-100576000D02*
G01*
X95392750Y-100576000D01*
X95392750Y-99574000D01*
X96694750Y-99574000D01*
X96694750Y-100576000D01*
X96694750Y-100576000D01*
G37*
G36*
X77644750Y-100576000D02*
G01*
X76342750Y-100576000D01*
X76342750Y-99574000D01*
X77644750Y-99574000D01*
X77644750Y-100576000D01*
X77644750Y-100576000D01*
G37*
G36*
X124651560Y-95994064D02*
G01*
X124803027Y-96024193D01*
X125017045Y-96112842D01*
X125017046Y-96112843D01*
X125209654Y-96241539D01*
X125373461Y-96405346D01*
X125459258Y-96533751D01*
X125502158Y-96597955D01*
X125590807Y-96811973D01*
X125636000Y-97039174D01*
X125636000Y-97270826D01*
X125590807Y-97498027D01*
X125502158Y-97712045D01*
X125502157Y-97712046D01*
X125373461Y-97904654D01*
X125209654Y-98068461D01*
X125081249Y-98154258D01*
X125017045Y-98197158D01*
X124803027Y-98285807D01*
X124651560Y-98315936D01*
X124575827Y-98331000D01*
X124344173Y-98331000D01*
X124268440Y-98315936D01*
X124116973Y-98285807D01*
X123902955Y-98197158D01*
X123838751Y-98154258D01*
X123710346Y-98068461D01*
X123546539Y-97904654D01*
X123417843Y-97712046D01*
X123417842Y-97712045D01*
X123329193Y-97498027D01*
X123284000Y-97270826D01*
X123284000Y-97039174D01*
X123329193Y-96811973D01*
X123417842Y-96597955D01*
X123460742Y-96533751D01*
X123546539Y-96405346D01*
X123710346Y-96241539D01*
X123902954Y-96112843D01*
X123902955Y-96112842D01*
X124116973Y-96024193D01*
X124268440Y-95994064D01*
X124344173Y-95979000D01*
X124575827Y-95979000D01*
X124651560Y-95994064D01*
X124651560Y-95994064D01*
G37*
G36*
X86551560Y-95994064D02*
G01*
X86703027Y-96024193D01*
X86917045Y-96112842D01*
X86917046Y-96112843D01*
X87109654Y-96241539D01*
X87273461Y-96405346D01*
X87359258Y-96533751D01*
X87402158Y-96597955D01*
X87490807Y-96811973D01*
X87536000Y-97039174D01*
X87536000Y-97270826D01*
X87490807Y-97498027D01*
X87402158Y-97712045D01*
X87402157Y-97712046D01*
X87273461Y-97904654D01*
X87109654Y-98068461D01*
X86981249Y-98154258D01*
X86917045Y-98197158D01*
X86703027Y-98285807D01*
X86551560Y-98315936D01*
X86475827Y-98331000D01*
X86244173Y-98331000D01*
X86168440Y-98315936D01*
X86016973Y-98285807D01*
X85802955Y-98197158D01*
X85738751Y-98154258D01*
X85610346Y-98068461D01*
X85446539Y-97904654D01*
X85317843Y-97712046D01*
X85317842Y-97712045D01*
X85229193Y-97498027D01*
X85184000Y-97270826D01*
X85184000Y-97039174D01*
X85229193Y-96811973D01*
X85317842Y-96597955D01*
X85360742Y-96533751D01*
X85446539Y-96405346D01*
X85610346Y-96241539D01*
X85802954Y-96112843D01*
X85802955Y-96112842D01*
X86016973Y-96024193D01*
X86168440Y-95994064D01*
X86244173Y-95979000D01*
X86475827Y-95979000D01*
X86551560Y-95994064D01*
X86551560Y-95994064D01*
G37*
G36*
X105601560Y-95994064D02*
G01*
X105753027Y-96024193D01*
X105967045Y-96112842D01*
X105967046Y-96112843D01*
X106159654Y-96241539D01*
X106323461Y-96405346D01*
X106409258Y-96533751D01*
X106452158Y-96597955D01*
X106540807Y-96811973D01*
X106586000Y-97039174D01*
X106586000Y-97270826D01*
X106540807Y-97498027D01*
X106452158Y-97712045D01*
X106452157Y-97712046D01*
X106323461Y-97904654D01*
X106159654Y-98068461D01*
X106031249Y-98154258D01*
X105967045Y-98197158D01*
X105753027Y-98285807D01*
X105601560Y-98315936D01*
X105525827Y-98331000D01*
X105294173Y-98331000D01*
X105218440Y-98315936D01*
X105066973Y-98285807D01*
X104852955Y-98197158D01*
X104788751Y-98154258D01*
X104660346Y-98068461D01*
X104496539Y-97904654D01*
X104367843Y-97712046D01*
X104367842Y-97712045D01*
X104279193Y-97498027D01*
X104234000Y-97270826D01*
X104234000Y-97039174D01*
X104279193Y-96811973D01*
X104367842Y-96597955D01*
X104410742Y-96533751D01*
X104496539Y-96405346D01*
X104660346Y-96241539D01*
X104852954Y-96112843D01*
X104852955Y-96112842D01*
X105066973Y-96024193D01*
X105218440Y-95994064D01*
X105294173Y-95979000D01*
X105525827Y-95979000D01*
X105601560Y-95994064D01*
X105601560Y-95994064D01*
G37*
G36*
X67501560Y-95994064D02*
G01*
X67653027Y-96024193D01*
X67867045Y-96112842D01*
X67867046Y-96112843D01*
X68059654Y-96241539D01*
X68223461Y-96405346D01*
X68309258Y-96533751D01*
X68352158Y-96597955D01*
X68440807Y-96811973D01*
X68486000Y-97039174D01*
X68486000Y-97270826D01*
X68440807Y-97498027D01*
X68352158Y-97712045D01*
X68352157Y-97712046D01*
X68223461Y-97904654D01*
X68059654Y-98068461D01*
X67931249Y-98154258D01*
X67867045Y-98197158D01*
X67653027Y-98285807D01*
X67501560Y-98315936D01*
X67425827Y-98331000D01*
X67194173Y-98331000D01*
X67118440Y-98315936D01*
X66966973Y-98285807D01*
X66752955Y-98197158D01*
X66688751Y-98154258D01*
X66560346Y-98068461D01*
X66396539Y-97904654D01*
X66267843Y-97712046D01*
X66267842Y-97712045D01*
X66179193Y-97498027D01*
X66134000Y-97270826D01*
X66134000Y-97039174D01*
X66179193Y-96811973D01*
X66267842Y-96597955D01*
X66310742Y-96533751D01*
X66396539Y-96405346D01*
X66560346Y-96241539D01*
X66752954Y-96112843D01*
X66752955Y-96112842D01*
X66966973Y-96024193D01*
X67118440Y-95994064D01*
X67194173Y-95979000D01*
X67425827Y-95979000D01*
X67501560Y-95994064D01*
X67501560Y-95994064D01*
G37*
G36*
X134794750Y-97276000D02*
G01*
X133492750Y-97276000D01*
X133492750Y-96274000D01*
X134794750Y-96274000D01*
X134794750Y-97276000D01*
X134794750Y-97276000D01*
G37*
G36*
X115744750Y-97276000D02*
G01*
X114442750Y-97276000D01*
X114442750Y-96274000D01*
X115744750Y-96274000D01*
X115744750Y-97276000D01*
X115744750Y-97276000D01*
G37*
G36*
X77644750Y-97276000D02*
G01*
X76342750Y-97276000D01*
X76342750Y-96274000D01*
X77644750Y-96274000D01*
X77644750Y-97276000D01*
X77644750Y-97276000D01*
G37*
G36*
X96694750Y-97276000D02*
G01*
X95392750Y-97276000D01*
X95392750Y-96274000D01*
X96694750Y-96274000D01*
X96694750Y-97276000D01*
X96694750Y-97276000D01*
G37*
G36*
X73851560Y-93454064D02*
G01*
X74003027Y-93484193D01*
X74217045Y-93572842D01*
X74217046Y-93572843D01*
X74409654Y-93701539D01*
X74573461Y-93865346D01*
X74588041Y-93887167D01*
X74702158Y-94057955D01*
X74790807Y-94271973D01*
X74836000Y-94499174D01*
X74836000Y-94730826D01*
X74790807Y-94958027D01*
X74702158Y-95172045D01*
X74702157Y-95172046D01*
X74573461Y-95364654D01*
X74409654Y-95528461D01*
X74281249Y-95614258D01*
X74217045Y-95657158D01*
X74003027Y-95745807D01*
X73851560Y-95775936D01*
X73775827Y-95791000D01*
X73544173Y-95791000D01*
X73468440Y-95775936D01*
X73316973Y-95745807D01*
X73102955Y-95657158D01*
X73038751Y-95614258D01*
X72910346Y-95528461D01*
X72746539Y-95364654D01*
X72617843Y-95172046D01*
X72617842Y-95172045D01*
X72529193Y-94958027D01*
X72484000Y-94730826D01*
X72484000Y-94499174D01*
X72529193Y-94271973D01*
X72617842Y-94057955D01*
X72731959Y-93887167D01*
X72746539Y-93865346D01*
X72910346Y-93701539D01*
X73102954Y-93572843D01*
X73102955Y-93572842D01*
X73316973Y-93484193D01*
X73468440Y-93454064D01*
X73544173Y-93439000D01*
X73775827Y-93439000D01*
X73851560Y-93454064D01*
X73851560Y-93454064D01*
G37*
G36*
X131001560Y-93454064D02*
G01*
X131153027Y-93484193D01*
X131367045Y-93572842D01*
X131367046Y-93572843D01*
X131559654Y-93701539D01*
X131723461Y-93865346D01*
X131738041Y-93887167D01*
X131852158Y-94057955D01*
X131940807Y-94271973D01*
X131986000Y-94499174D01*
X131986000Y-94730826D01*
X131940807Y-94958027D01*
X131852158Y-95172045D01*
X131852157Y-95172046D01*
X131723461Y-95364654D01*
X131559654Y-95528461D01*
X131431249Y-95614258D01*
X131367045Y-95657158D01*
X131153027Y-95745807D01*
X131001560Y-95775936D01*
X130925827Y-95791000D01*
X130694173Y-95791000D01*
X130618440Y-95775936D01*
X130466973Y-95745807D01*
X130252955Y-95657158D01*
X130188751Y-95614258D01*
X130060346Y-95528461D01*
X129896539Y-95364654D01*
X129767843Y-95172046D01*
X129767842Y-95172045D01*
X129679193Y-94958027D01*
X129634000Y-94730826D01*
X129634000Y-94499174D01*
X129679193Y-94271973D01*
X129767842Y-94057955D01*
X129881959Y-93887167D01*
X129896539Y-93865346D01*
X130060346Y-93701539D01*
X130252954Y-93572843D01*
X130252955Y-93572842D01*
X130466973Y-93484193D01*
X130618440Y-93454064D01*
X130694173Y-93439000D01*
X130925827Y-93439000D01*
X131001560Y-93454064D01*
X131001560Y-93454064D01*
G37*
G36*
X111951560Y-93454064D02*
G01*
X112103027Y-93484193D01*
X112317045Y-93572842D01*
X112317046Y-93572843D01*
X112509654Y-93701539D01*
X112673461Y-93865346D01*
X112688041Y-93887167D01*
X112802158Y-94057955D01*
X112890807Y-94271973D01*
X112936000Y-94499174D01*
X112936000Y-94730826D01*
X112890807Y-94958027D01*
X112802158Y-95172045D01*
X112802157Y-95172046D01*
X112673461Y-95364654D01*
X112509654Y-95528461D01*
X112381249Y-95614258D01*
X112317045Y-95657158D01*
X112103027Y-95745807D01*
X111951560Y-95775936D01*
X111875827Y-95791000D01*
X111644173Y-95791000D01*
X111568440Y-95775936D01*
X111416973Y-95745807D01*
X111202955Y-95657158D01*
X111138751Y-95614258D01*
X111010346Y-95528461D01*
X110846539Y-95364654D01*
X110717843Y-95172046D01*
X110717842Y-95172045D01*
X110629193Y-94958027D01*
X110584000Y-94730826D01*
X110584000Y-94499174D01*
X110629193Y-94271973D01*
X110717842Y-94057955D01*
X110831959Y-93887167D01*
X110846539Y-93865346D01*
X111010346Y-93701539D01*
X111202954Y-93572843D01*
X111202955Y-93572842D01*
X111416973Y-93484193D01*
X111568440Y-93454064D01*
X111644173Y-93439000D01*
X111875827Y-93439000D01*
X111951560Y-93454064D01*
X111951560Y-93454064D01*
G37*
G36*
X92901560Y-93454064D02*
G01*
X93053027Y-93484193D01*
X93267045Y-93572842D01*
X93267046Y-93572843D01*
X93459654Y-93701539D01*
X93623461Y-93865346D01*
X93638041Y-93887167D01*
X93752158Y-94057955D01*
X93840807Y-94271973D01*
X93886000Y-94499174D01*
X93886000Y-94730826D01*
X93840807Y-94958027D01*
X93752158Y-95172045D01*
X93752157Y-95172046D01*
X93623461Y-95364654D01*
X93459654Y-95528461D01*
X93331249Y-95614258D01*
X93267045Y-95657158D01*
X93053027Y-95745807D01*
X92901560Y-95775936D01*
X92825827Y-95791000D01*
X92594173Y-95791000D01*
X92518440Y-95775936D01*
X92366973Y-95745807D01*
X92152955Y-95657158D01*
X92088751Y-95614258D01*
X91960346Y-95528461D01*
X91796539Y-95364654D01*
X91667843Y-95172046D01*
X91667842Y-95172045D01*
X91579193Y-94958027D01*
X91534000Y-94730826D01*
X91534000Y-94499174D01*
X91579193Y-94271973D01*
X91667842Y-94057955D01*
X91781959Y-93887167D01*
X91796539Y-93865346D01*
X91960346Y-93701539D01*
X92152954Y-93572843D01*
X92152955Y-93572842D01*
X92366973Y-93484193D01*
X92518440Y-93454064D01*
X92594173Y-93439000D01*
X92825827Y-93439000D01*
X92901560Y-93454064D01*
X92901560Y-93454064D01*
G37*
G36*
X89496474Y-90108684D02*
G01*
X89714474Y-90198983D01*
X89868623Y-90262833D01*
X90203548Y-90486623D01*
X90488377Y-90771452D01*
X90712167Y-91106377D01*
X90744562Y-91184586D01*
X90866316Y-91478526D01*
X90944900Y-91873594D01*
X90944900Y-92276406D01*
X90866316Y-92671474D01*
X90815451Y-92794272D01*
X90712167Y-93043623D01*
X90488377Y-93378548D01*
X90203548Y-93663377D01*
X89868623Y-93887167D01*
X89714474Y-93951017D01*
X89496474Y-94041316D01*
X89101406Y-94119900D01*
X88698594Y-94119900D01*
X88303526Y-94041316D01*
X88085526Y-93951017D01*
X87931377Y-93887167D01*
X87596452Y-93663377D01*
X87311623Y-93378548D01*
X87087833Y-93043623D01*
X86984549Y-92794272D01*
X86933684Y-92671474D01*
X86855100Y-92276406D01*
X86855100Y-91873594D01*
X86933684Y-91478526D01*
X87055438Y-91184586D01*
X87087833Y-91106377D01*
X87311623Y-90771452D01*
X87596452Y-90486623D01*
X87931377Y-90262833D01*
X88085526Y-90198983D01*
X88303526Y-90108684D01*
X88698594Y-90030100D01*
X89101406Y-90030100D01*
X89496474Y-90108684D01*
X89496474Y-90108684D01*
G37*
G36*
X108546474Y-90108684D02*
G01*
X108764474Y-90198983D01*
X108918623Y-90262833D01*
X109253548Y-90486623D01*
X109538377Y-90771452D01*
X109762167Y-91106377D01*
X109794562Y-91184586D01*
X109916316Y-91478526D01*
X109994900Y-91873594D01*
X109994900Y-92276406D01*
X109916316Y-92671474D01*
X109865451Y-92794272D01*
X109762167Y-93043623D01*
X109538377Y-93378548D01*
X109253548Y-93663377D01*
X108918623Y-93887167D01*
X108764474Y-93951017D01*
X108546474Y-94041316D01*
X108151406Y-94119900D01*
X107748594Y-94119900D01*
X107353526Y-94041316D01*
X107135526Y-93951017D01*
X106981377Y-93887167D01*
X106646452Y-93663377D01*
X106361623Y-93378548D01*
X106137833Y-93043623D01*
X106034549Y-92794272D01*
X105983684Y-92671474D01*
X105905100Y-92276406D01*
X105905100Y-91873594D01*
X105983684Y-91478526D01*
X106105438Y-91184586D01*
X106137833Y-91106377D01*
X106361623Y-90771452D01*
X106646452Y-90486623D01*
X106981377Y-90262833D01*
X107135526Y-90198983D01*
X107353526Y-90108684D01*
X107748594Y-90030100D01*
X108151406Y-90030100D01*
X108546474Y-90108684D01*
X108546474Y-90108684D01*
G37*
G36*
X70446474Y-90108684D02*
G01*
X70664474Y-90198983D01*
X70818623Y-90262833D01*
X71153548Y-90486623D01*
X71438377Y-90771452D01*
X71662167Y-91106377D01*
X71694562Y-91184586D01*
X71816316Y-91478526D01*
X71894900Y-91873594D01*
X71894900Y-92276406D01*
X71816316Y-92671474D01*
X71765451Y-92794272D01*
X71662167Y-93043623D01*
X71438377Y-93378548D01*
X71153548Y-93663377D01*
X70818623Y-93887167D01*
X70664474Y-93951017D01*
X70446474Y-94041316D01*
X70051406Y-94119900D01*
X69648594Y-94119900D01*
X69253526Y-94041316D01*
X69035526Y-93951017D01*
X68881377Y-93887167D01*
X68546452Y-93663377D01*
X68261623Y-93378548D01*
X68037833Y-93043623D01*
X67934549Y-92794272D01*
X67883684Y-92671474D01*
X67805100Y-92276406D01*
X67805100Y-91873594D01*
X67883684Y-91478526D01*
X68005438Y-91184586D01*
X68037833Y-91106377D01*
X68261623Y-90771452D01*
X68546452Y-90486623D01*
X68881377Y-90262833D01*
X69035526Y-90198983D01*
X69253526Y-90108684D01*
X69648594Y-90030100D01*
X70051406Y-90030100D01*
X70446474Y-90108684D01*
X70446474Y-90108684D01*
G37*
G36*
X127596474Y-90108684D02*
G01*
X127814474Y-90198983D01*
X127968623Y-90262833D01*
X128303548Y-90486623D01*
X128588377Y-90771452D01*
X128812167Y-91106377D01*
X128844562Y-91184586D01*
X128966316Y-91478526D01*
X129044900Y-91873594D01*
X129044900Y-92276406D01*
X128966316Y-92671474D01*
X128915451Y-92794272D01*
X128812167Y-93043623D01*
X128588377Y-93378548D01*
X128303548Y-93663377D01*
X127968623Y-93887167D01*
X127814474Y-93951017D01*
X127596474Y-94041316D01*
X127201406Y-94119900D01*
X126798594Y-94119900D01*
X126403526Y-94041316D01*
X126185526Y-93951017D01*
X126031377Y-93887167D01*
X125696452Y-93663377D01*
X125411623Y-93378548D01*
X125187833Y-93043623D01*
X125084549Y-92794272D01*
X125033684Y-92671474D01*
X124955100Y-92276406D01*
X124955100Y-91873594D01*
X125033684Y-91478526D01*
X125155438Y-91184586D01*
X125187833Y-91106377D01*
X125411623Y-90771452D01*
X125696452Y-90486623D01*
X126031377Y-90262833D01*
X126185526Y-90198983D01*
X126403526Y-90108684D01*
X126798594Y-90030100D01*
X127201406Y-90030100D01*
X127596474Y-90108684D01*
X127596474Y-90108684D01*
G37*
G36*
X65040104Y-91184585D02*
G01*
X65208626Y-91254389D01*
X65360291Y-91355728D01*
X65489272Y-91484709D01*
X65590611Y-91636374D01*
X65660415Y-91804896D01*
X65696000Y-91983797D01*
X65696000Y-92166203D01*
X65660415Y-92345104D01*
X65590611Y-92513626D01*
X65489272Y-92665291D01*
X65360291Y-92794272D01*
X65208626Y-92895611D01*
X65040104Y-92965415D01*
X64861203Y-93001000D01*
X64678797Y-93001000D01*
X64499896Y-92965415D01*
X64331374Y-92895611D01*
X64179709Y-92794272D01*
X64050728Y-92665291D01*
X63949389Y-92513626D01*
X63879585Y-92345104D01*
X63844000Y-92166203D01*
X63844000Y-91983797D01*
X63879585Y-91804896D01*
X63949389Y-91636374D01*
X64050728Y-91484709D01*
X64179709Y-91355728D01*
X64331374Y-91254389D01*
X64499896Y-91184585D01*
X64678797Y-91149000D01*
X64861203Y-91149000D01*
X65040104Y-91184585D01*
X65040104Y-91184585D01*
G37*
G36*
X122190104Y-91184585D02*
G01*
X122358626Y-91254389D01*
X122510291Y-91355728D01*
X122639272Y-91484709D01*
X122740611Y-91636374D01*
X122810415Y-91804896D01*
X122846000Y-91983797D01*
X122846000Y-92166203D01*
X122810415Y-92345104D01*
X122740611Y-92513626D01*
X122639272Y-92665291D01*
X122510291Y-92794272D01*
X122358626Y-92895611D01*
X122190104Y-92965415D01*
X122011203Y-93001000D01*
X121828797Y-93001000D01*
X121649896Y-92965415D01*
X121481374Y-92895611D01*
X121329709Y-92794272D01*
X121200728Y-92665291D01*
X121099389Y-92513626D01*
X121029585Y-92345104D01*
X120994000Y-92166203D01*
X120994000Y-91983797D01*
X121029585Y-91804896D01*
X121099389Y-91636374D01*
X121200728Y-91484709D01*
X121329709Y-91355728D01*
X121481374Y-91254389D01*
X121649896Y-91184585D01*
X121828797Y-91149000D01*
X122011203Y-91149000D01*
X122190104Y-91184585D01*
X122190104Y-91184585D01*
G37*
G36*
X132350104Y-91184585D02*
G01*
X132518626Y-91254389D01*
X132670291Y-91355728D01*
X132799272Y-91484709D01*
X132900611Y-91636374D01*
X132970415Y-91804896D01*
X133006000Y-91983797D01*
X133006000Y-92166203D01*
X132970415Y-92345104D01*
X132900611Y-92513626D01*
X132799272Y-92665291D01*
X132670291Y-92794272D01*
X132518626Y-92895611D01*
X132350104Y-92965415D01*
X132171203Y-93001000D01*
X131988797Y-93001000D01*
X131809896Y-92965415D01*
X131641374Y-92895611D01*
X131489709Y-92794272D01*
X131360728Y-92665291D01*
X131259389Y-92513626D01*
X131189585Y-92345104D01*
X131154000Y-92166203D01*
X131154000Y-91983797D01*
X131189585Y-91804896D01*
X131259389Y-91636374D01*
X131360728Y-91484709D01*
X131489709Y-91355728D01*
X131641374Y-91254389D01*
X131809896Y-91184585D01*
X131988797Y-91149000D01*
X132171203Y-91149000D01*
X132350104Y-91184585D01*
X132350104Y-91184585D01*
G37*
G36*
X94250104Y-91184585D02*
G01*
X94418626Y-91254389D01*
X94570291Y-91355728D01*
X94699272Y-91484709D01*
X94800611Y-91636374D01*
X94870415Y-91804896D01*
X94906000Y-91983797D01*
X94906000Y-92166203D01*
X94870415Y-92345104D01*
X94800611Y-92513626D01*
X94699272Y-92665291D01*
X94570291Y-92794272D01*
X94418626Y-92895611D01*
X94250104Y-92965415D01*
X94071203Y-93001000D01*
X93888797Y-93001000D01*
X93709896Y-92965415D01*
X93541374Y-92895611D01*
X93389709Y-92794272D01*
X93260728Y-92665291D01*
X93159389Y-92513626D01*
X93089585Y-92345104D01*
X93054000Y-92166203D01*
X93054000Y-91983797D01*
X93089585Y-91804896D01*
X93159389Y-91636374D01*
X93260728Y-91484709D01*
X93389709Y-91355728D01*
X93541374Y-91254389D01*
X93709896Y-91184585D01*
X93888797Y-91149000D01*
X94071203Y-91149000D01*
X94250104Y-91184585D01*
X94250104Y-91184585D01*
G37*
G36*
X84090104Y-91184585D02*
G01*
X84258626Y-91254389D01*
X84410291Y-91355728D01*
X84539272Y-91484709D01*
X84640611Y-91636374D01*
X84710415Y-91804896D01*
X84746000Y-91983797D01*
X84746000Y-92166203D01*
X84710415Y-92345104D01*
X84640611Y-92513626D01*
X84539272Y-92665291D01*
X84410291Y-92794272D01*
X84258626Y-92895611D01*
X84090104Y-92965415D01*
X83911203Y-93001000D01*
X83728797Y-93001000D01*
X83549896Y-92965415D01*
X83381374Y-92895611D01*
X83229709Y-92794272D01*
X83100728Y-92665291D01*
X82999389Y-92513626D01*
X82929585Y-92345104D01*
X82894000Y-92166203D01*
X82894000Y-91983797D01*
X82929585Y-91804896D01*
X82999389Y-91636374D01*
X83100728Y-91484709D01*
X83229709Y-91355728D01*
X83381374Y-91254389D01*
X83549896Y-91184585D01*
X83728797Y-91149000D01*
X83911203Y-91149000D01*
X84090104Y-91184585D01*
X84090104Y-91184585D01*
G37*
G36*
X103140104Y-91184585D02*
G01*
X103308626Y-91254389D01*
X103460291Y-91355728D01*
X103589272Y-91484709D01*
X103690611Y-91636374D01*
X103760415Y-91804896D01*
X103796000Y-91983797D01*
X103796000Y-92166203D01*
X103760415Y-92345104D01*
X103690611Y-92513626D01*
X103589272Y-92665291D01*
X103460291Y-92794272D01*
X103308626Y-92895611D01*
X103140104Y-92965415D01*
X102961203Y-93001000D01*
X102778797Y-93001000D01*
X102599896Y-92965415D01*
X102431374Y-92895611D01*
X102279709Y-92794272D01*
X102150728Y-92665291D01*
X102049389Y-92513626D01*
X101979585Y-92345104D01*
X101944000Y-92166203D01*
X101944000Y-91983797D01*
X101979585Y-91804896D01*
X102049389Y-91636374D01*
X102150728Y-91484709D01*
X102279709Y-91355728D01*
X102431374Y-91254389D01*
X102599896Y-91184585D01*
X102778797Y-91149000D01*
X102961203Y-91149000D01*
X103140104Y-91184585D01*
X103140104Y-91184585D01*
G37*
G36*
X75200104Y-91184585D02*
G01*
X75368626Y-91254389D01*
X75520291Y-91355728D01*
X75649272Y-91484709D01*
X75750611Y-91636374D01*
X75820415Y-91804896D01*
X75856000Y-91983797D01*
X75856000Y-92166203D01*
X75820415Y-92345104D01*
X75750611Y-92513626D01*
X75649272Y-92665291D01*
X75520291Y-92794272D01*
X75368626Y-92895611D01*
X75200104Y-92965415D01*
X75021203Y-93001000D01*
X74838797Y-93001000D01*
X74659896Y-92965415D01*
X74491374Y-92895611D01*
X74339709Y-92794272D01*
X74210728Y-92665291D01*
X74109389Y-92513626D01*
X74039585Y-92345104D01*
X74004000Y-92166203D01*
X74004000Y-91983797D01*
X74039585Y-91804896D01*
X74109389Y-91636374D01*
X74210728Y-91484709D01*
X74339709Y-91355728D01*
X74491374Y-91254389D01*
X74659896Y-91184585D01*
X74838797Y-91149000D01*
X75021203Y-91149000D01*
X75200104Y-91184585D01*
X75200104Y-91184585D01*
G37*
G36*
X113300104Y-91184585D02*
G01*
X113468626Y-91254389D01*
X113620291Y-91355728D01*
X113749272Y-91484709D01*
X113850611Y-91636374D01*
X113920415Y-91804896D01*
X113956000Y-91983797D01*
X113956000Y-92166203D01*
X113920415Y-92345104D01*
X113850611Y-92513626D01*
X113749272Y-92665291D01*
X113620291Y-92794272D01*
X113468626Y-92895611D01*
X113300104Y-92965415D01*
X113121203Y-93001000D01*
X112938797Y-93001000D01*
X112759896Y-92965415D01*
X112591374Y-92895611D01*
X112439709Y-92794272D01*
X112310728Y-92665291D01*
X112209389Y-92513626D01*
X112139585Y-92345104D01*
X112104000Y-92166203D01*
X112104000Y-91983797D01*
X112139585Y-91804896D01*
X112209389Y-91636374D01*
X112310728Y-91484709D01*
X112439709Y-91355728D01*
X112591374Y-91254389D01*
X112759896Y-91184585D01*
X112938797Y-91149000D01*
X113121203Y-91149000D01*
X113300104Y-91184585D01*
X113300104Y-91184585D01*
G37*
G36*
X118044085Y-88611475D02*
G01*
X118399143Y-88758545D01*
X118399145Y-88758546D01*
X118718690Y-88972059D01*
X118990441Y-89243810D01*
X119203954Y-89563355D01*
X119203955Y-89563357D01*
X119351025Y-89918415D01*
X119426000Y-90295342D01*
X119426000Y-90679658D01*
X119351025Y-91056585D01*
X119227116Y-91355728D01*
X119203954Y-91411645D01*
X118990441Y-91731190D01*
X118718690Y-92002941D01*
X118399145Y-92216454D01*
X118399144Y-92216455D01*
X118399143Y-92216455D01*
X118044085Y-92363525D01*
X117667158Y-92438500D01*
X117282842Y-92438500D01*
X116905915Y-92363525D01*
X116550857Y-92216455D01*
X116550856Y-92216455D01*
X116550855Y-92216454D01*
X116231310Y-92002941D01*
X115959559Y-91731190D01*
X115746046Y-91411645D01*
X115722884Y-91355728D01*
X115598975Y-91056585D01*
X115524000Y-90679658D01*
X115524000Y-90295342D01*
X115598975Y-89918415D01*
X115746045Y-89563357D01*
X115746046Y-89563355D01*
X115959559Y-89243810D01*
X116231310Y-88972059D01*
X116550855Y-88758546D01*
X116550857Y-88758545D01*
X116905915Y-88611475D01*
X117282842Y-88536500D01*
X117667158Y-88536500D01*
X118044085Y-88611475D01*
X118044085Y-88611475D01*
G37*
G36*
X79944085Y-88611475D02*
G01*
X80299143Y-88758545D01*
X80299145Y-88758546D01*
X80618690Y-88972059D01*
X80890441Y-89243810D01*
X81103954Y-89563355D01*
X81103955Y-89563357D01*
X81251025Y-89918415D01*
X81326000Y-90295342D01*
X81326000Y-90679658D01*
X81251025Y-91056585D01*
X81127116Y-91355728D01*
X81103954Y-91411645D01*
X80890441Y-91731190D01*
X80618690Y-92002941D01*
X80299145Y-92216454D01*
X80299144Y-92216455D01*
X80299143Y-92216455D01*
X79944085Y-92363525D01*
X79567158Y-92438500D01*
X79182842Y-92438500D01*
X78805915Y-92363525D01*
X78450857Y-92216455D01*
X78450856Y-92216455D01*
X78450855Y-92216454D01*
X78131310Y-92002941D01*
X77859559Y-91731190D01*
X77646046Y-91411645D01*
X77622884Y-91355728D01*
X77498975Y-91056585D01*
X77424000Y-90679658D01*
X77424000Y-90295342D01*
X77498975Y-89918415D01*
X77646045Y-89563357D01*
X77646046Y-89563355D01*
X77859559Y-89243810D01*
X78131310Y-88972059D01*
X78450855Y-88758546D01*
X78450857Y-88758545D01*
X78805915Y-88611475D01*
X79182842Y-88536500D01*
X79567158Y-88536500D01*
X79944085Y-88611475D01*
X79944085Y-88611475D01*
G37*
G36*
X87151000Y-88206001D02*
G01*
X85449000Y-88206001D01*
X85449000Y-87284001D01*
X87151000Y-87284001D01*
X87151000Y-88206001D01*
X87151000Y-88206001D01*
G37*
G36*
X68101000Y-88206001D02*
G01*
X66399000Y-88206001D01*
X66399000Y-87284001D01*
X68101000Y-87284001D01*
X68101000Y-88206001D01*
X68101000Y-88206001D01*
G37*
G36*
X125251000Y-88206001D02*
G01*
X123549000Y-88206001D01*
X123549000Y-87284001D01*
X125251000Y-87284001D01*
X125251000Y-88206001D01*
X125251000Y-88206001D01*
G37*
G36*
X130451000Y-88206001D02*
G01*
X128749000Y-88206001D01*
X128749000Y-87284001D01*
X130451000Y-87284001D01*
X130451000Y-88206001D01*
X130451000Y-88206001D01*
G37*
G36*
X92351000Y-88206001D02*
G01*
X90649000Y-88206001D01*
X90649000Y-87284001D01*
X92351000Y-87284001D01*
X92351000Y-88206001D01*
X92351000Y-88206001D01*
G37*
G36*
X111401000Y-88206001D02*
G01*
X109699000Y-88206001D01*
X109699000Y-87284001D01*
X111401000Y-87284001D01*
X111401000Y-88206001D01*
X111401000Y-88206001D01*
G37*
G36*
X106201000Y-88206001D02*
G01*
X104499000Y-88206001D01*
X104499000Y-87284001D01*
X106201000Y-87284001D01*
X106201000Y-88206001D01*
X106201000Y-88206001D01*
G37*
G36*
X73301000Y-88206001D02*
G01*
X71599000Y-88206001D01*
X71599000Y-87284001D01*
X73301000Y-87284001D01*
X73301000Y-88206001D01*
X73301000Y-88206001D01*
G37*
G36*
X130451000Y-86706001D02*
G01*
X128749000Y-86706001D01*
X128749000Y-85784001D01*
X130451000Y-85784001D01*
X130451000Y-86706001D01*
X130451000Y-86706001D01*
G37*
G36*
X73301000Y-86706001D02*
G01*
X71599000Y-86706001D01*
X71599000Y-85784001D01*
X73301000Y-85784001D01*
X73301000Y-86706001D01*
X73301000Y-86706001D01*
G37*
G36*
X111401000Y-86706001D02*
G01*
X109699000Y-86706001D01*
X109699000Y-85784001D01*
X111401000Y-85784001D01*
X111401000Y-86706001D01*
X111401000Y-86706001D01*
G37*
G36*
X87151000Y-86706001D02*
G01*
X85449000Y-86706001D01*
X85449000Y-85784001D01*
X87151000Y-85784001D01*
X87151000Y-86706001D01*
X87151000Y-86706001D01*
G37*
G36*
X106201000Y-86706001D02*
G01*
X104499000Y-86706001D01*
X104499000Y-85784001D01*
X106201000Y-85784001D01*
X106201000Y-86706001D01*
X106201000Y-86706001D01*
G37*
G36*
X92351000Y-86706001D02*
G01*
X90649000Y-86706001D01*
X90649000Y-85784001D01*
X92351000Y-85784001D01*
X92351000Y-86706001D01*
X92351000Y-86706001D01*
G37*
G36*
X68101000Y-86706001D02*
G01*
X66399000Y-86706001D01*
X66399000Y-85784001D01*
X68101000Y-85784001D01*
X68101000Y-86706001D01*
X68101000Y-86706001D01*
G37*
G36*
X125251000Y-86706001D02*
G01*
X123549000Y-86706001D01*
X123549000Y-85784001D01*
X125251000Y-85784001D01*
X125251000Y-86706001D01*
X125251000Y-86706001D01*
G37*
G36*
X118784468Y-84978565D02*
G01*
X118823138Y-84990296D01*
X118858777Y-85009346D01*
X118890017Y-85034983D01*
X118915654Y-85066223D01*
X118934704Y-85101862D01*
X118946435Y-85140532D01*
X118951000Y-85186888D01*
X118951000Y-86263112D01*
X118946435Y-86309468D01*
X118934704Y-86348138D01*
X118915654Y-86383777D01*
X118890017Y-86415017D01*
X118858777Y-86440654D01*
X118823138Y-86459704D01*
X118784468Y-86471435D01*
X118738112Y-86476000D01*
X118086888Y-86476000D01*
X118040532Y-86471435D01*
X118001862Y-86459704D01*
X117966223Y-86440654D01*
X117934983Y-86415017D01*
X117909346Y-86383777D01*
X117890296Y-86348138D01*
X117878565Y-86309468D01*
X117874000Y-86263112D01*
X117874000Y-85186888D01*
X117878565Y-85140532D01*
X117890296Y-85101862D01*
X117909346Y-85066223D01*
X117934983Y-85034983D01*
X117966223Y-85009346D01*
X118001862Y-84990296D01*
X118040532Y-84978565D01*
X118086888Y-84974000D01*
X118738112Y-84974000D01*
X118784468Y-84978565D01*
X118784468Y-84978565D01*
G37*
G36*
X116909468Y-84978565D02*
G01*
X116948138Y-84990296D01*
X116983777Y-85009346D01*
X117015017Y-85034983D01*
X117040654Y-85066223D01*
X117059704Y-85101862D01*
X117071435Y-85140532D01*
X117076000Y-85186888D01*
X117076000Y-86263112D01*
X117071435Y-86309468D01*
X117059704Y-86348138D01*
X117040654Y-86383777D01*
X117015017Y-86415017D01*
X116983777Y-86440654D01*
X116948138Y-86459704D01*
X116909468Y-86471435D01*
X116863112Y-86476000D01*
X116211888Y-86476000D01*
X116165532Y-86471435D01*
X116126862Y-86459704D01*
X116091223Y-86440654D01*
X116059983Y-86415017D01*
X116034346Y-86383777D01*
X116015296Y-86348138D01*
X116003565Y-86309468D01*
X115999000Y-86263112D01*
X115999000Y-85186888D01*
X116003565Y-85140532D01*
X116015296Y-85101862D01*
X116034346Y-85066223D01*
X116059983Y-85034983D01*
X116091223Y-85009346D01*
X116126862Y-84990296D01*
X116165532Y-84978565D01*
X116211888Y-84974000D01*
X116863112Y-84974000D01*
X116909468Y-84978565D01*
X116909468Y-84978565D01*
G37*
G36*
X61996968Y-83391065D02*
G01*
X62035638Y-83402796D01*
X62071277Y-83421846D01*
X62102517Y-83447483D01*
X62128154Y-83478723D01*
X62147204Y-83514362D01*
X62158935Y-83553032D01*
X62163500Y-83599388D01*
X62163500Y-84675612D01*
X62158935Y-84721968D01*
X62147204Y-84760638D01*
X62128154Y-84796277D01*
X62102517Y-84827517D01*
X62071277Y-84853154D01*
X62035638Y-84872204D01*
X61996968Y-84883935D01*
X61950612Y-84888500D01*
X61299388Y-84888500D01*
X61253032Y-84883935D01*
X61214362Y-84872204D01*
X61178723Y-84853154D01*
X61147483Y-84827517D01*
X61121846Y-84796277D01*
X61102796Y-84760638D01*
X61091065Y-84721968D01*
X61086500Y-84675612D01*
X61086500Y-83599388D01*
X61091065Y-83553032D01*
X61102796Y-83514362D01*
X61121846Y-83478723D01*
X61147483Y-83447483D01*
X61178723Y-83421846D01*
X61214362Y-83402796D01*
X61253032Y-83391065D01*
X61299388Y-83386500D01*
X61950612Y-83386500D01*
X61996968Y-83391065D01*
X61996968Y-83391065D01*
G37*
G36*
X80396968Y-83391065D02*
G01*
X80435638Y-83402796D01*
X80471277Y-83421846D01*
X80502517Y-83447483D01*
X80528154Y-83478723D01*
X80547204Y-83514362D01*
X80558935Y-83553032D01*
X80563500Y-83599388D01*
X80563500Y-84675612D01*
X80558935Y-84721968D01*
X80547204Y-84760638D01*
X80528154Y-84796277D01*
X80502517Y-84827517D01*
X80471277Y-84853154D01*
X80435638Y-84872204D01*
X80396968Y-84883935D01*
X80350612Y-84888500D01*
X79699388Y-84888500D01*
X79653032Y-84883935D01*
X79614362Y-84872204D01*
X79578723Y-84853154D01*
X79547483Y-84827517D01*
X79521846Y-84796277D01*
X79502796Y-84760638D01*
X79491065Y-84721968D01*
X79486500Y-84675612D01*
X79486500Y-83599388D01*
X79491065Y-83553032D01*
X79502796Y-83514362D01*
X79521846Y-83478723D01*
X79547483Y-83447483D01*
X79578723Y-83421846D01*
X79614362Y-83402796D01*
X79653032Y-83391065D01*
X79699388Y-83386500D01*
X80350612Y-83386500D01*
X80396968Y-83391065D01*
X80396968Y-83391065D01*
G37*
G36*
X82271968Y-83391065D02*
G01*
X82310638Y-83402796D01*
X82346277Y-83421846D01*
X82377517Y-83447483D01*
X82403154Y-83478723D01*
X82422204Y-83514362D01*
X82433935Y-83553032D01*
X82438500Y-83599388D01*
X82438500Y-84675612D01*
X82433935Y-84721968D01*
X82422204Y-84760638D01*
X82403154Y-84796277D01*
X82377517Y-84827517D01*
X82346277Y-84853154D01*
X82310638Y-84872204D01*
X82271968Y-84883935D01*
X82225612Y-84888500D01*
X81574388Y-84888500D01*
X81528032Y-84883935D01*
X81489362Y-84872204D01*
X81453723Y-84853154D01*
X81422483Y-84827517D01*
X81396846Y-84796277D01*
X81377796Y-84760638D01*
X81366065Y-84721968D01*
X81361500Y-84675612D01*
X81361500Y-83599388D01*
X81366065Y-83553032D01*
X81377796Y-83514362D01*
X81396846Y-83478723D01*
X81422483Y-83447483D01*
X81453723Y-83421846D01*
X81489362Y-83402796D01*
X81528032Y-83391065D01*
X81574388Y-83386500D01*
X82225612Y-83386500D01*
X82271968Y-83391065D01*
X82271968Y-83391065D01*
G37*
G36*
X63871968Y-83391065D02*
G01*
X63910638Y-83402796D01*
X63946277Y-83421846D01*
X63977517Y-83447483D01*
X64003154Y-83478723D01*
X64022204Y-83514362D01*
X64033935Y-83553032D01*
X64038500Y-83599388D01*
X64038500Y-84675612D01*
X64033935Y-84721968D01*
X64022204Y-84760638D01*
X64003154Y-84796277D01*
X63977517Y-84827517D01*
X63946277Y-84853154D01*
X63910638Y-84872204D01*
X63871968Y-84883935D01*
X63825612Y-84888500D01*
X63174388Y-84888500D01*
X63128032Y-84883935D01*
X63089362Y-84872204D01*
X63053723Y-84853154D01*
X63022483Y-84827517D01*
X62996846Y-84796277D01*
X62977796Y-84760638D01*
X62966065Y-84721968D01*
X62961500Y-84675612D01*
X62961500Y-83599388D01*
X62966065Y-83553032D01*
X62977796Y-83514362D01*
X62996846Y-83478723D01*
X63022483Y-83447483D01*
X63053723Y-83421846D01*
X63089362Y-83402796D01*
X63128032Y-83391065D01*
X63174388Y-83386500D01*
X63825612Y-83386500D01*
X63871968Y-83391065D01*
X63871968Y-83391065D01*
G37*
G36*
X125644750Y-84207250D02*
G01*
X123742750Y-84207250D01*
X123742750Y-83005250D01*
X125644750Y-83005250D01*
X125644750Y-84207250D01*
X125644750Y-84207250D01*
G37*
G36*
X131844750Y-84207250D02*
G01*
X129942750Y-84207250D01*
X129942750Y-83005250D01*
X131844750Y-83005250D01*
X131844750Y-84207250D01*
X131844750Y-84207250D01*
G37*
G36*
X99303218Y-81803565D02*
G01*
X99341888Y-81815296D01*
X99377527Y-81834346D01*
X99408767Y-81859983D01*
X99434404Y-81891223D01*
X99453454Y-81926862D01*
X99465185Y-81965532D01*
X99469750Y-82011888D01*
X99469750Y-83088112D01*
X99465185Y-83134468D01*
X99453454Y-83173138D01*
X99434404Y-83208777D01*
X99408767Y-83240017D01*
X99377527Y-83265654D01*
X99341888Y-83284704D01*
X99303218Y-83296435D01*
X99256862Y-83301000D01*
X98605638Y-83301000D01*
X98559282Y-83296435D01*
X98520612Y-83284704D01*
X98484973Y-83265654D01*
X98453733Y-83240017D01*
X98428096Y-83208777D01*
X98409046Y-83173138D01*
X98397315Y-83134468D01*
X98392750Y-83088112D01*
X98392750Y-82011888D01*
X98397315Y-81965532D01*
X98409046Y-81926862D01*
X98428096Y-81891223D01*
X98453733Y-81859983D01*
X98484973Y-81834346D01*
X98520612Y-81815296D01*
X98559282Y-81803565D01*
X98605638Y-81799000D01*
X99256862Y-81799000D01*
X99303218Y-81803565D01*
X99303218Y-81803565D01*
G37*
G36*
X101178218Y-81803565D02*
G01*
X101216888Y-81815296D01*
X101252527Y-81834346D01*
X101283767Y-81859983D01*
X101309404Y-81891223D01*
X101328454Y-81926862D01*
X101340185Y-81965532D01*
X101344750Y-82011888D01*
X101344750Y-83088112D01*
X101340185Y-83134468D01*
X101328454Y-83173138D01*
X101309404Y-83208777D01*
X101283767Y-83240017D01*
X101252527Y-83265654D01*
X101216888Y-83284704D01*
X101178218Y-83296435D01*
X101131862Y-83301000D01*
X100480638Y-83301000D01*
X100434282Y-83296435D01*
X100395612Y-83284704D01*
X100359973Y-83265654D01*
X100328733Y-83240017D01*
X100303096Y-83208777D01*
X100284046Y-83173138D01*
X100272315Y-83134468D01*
X100267750Y-83088112D01*
X100267750Y-82011888D01*
X100272315Y-81965532D01*
X100284046Y-81926862D01*
X100303096Y-81891223D01*
X100328733Y-81859983D01*
X100359973Y-81834346D01*
X100395612Y-81815296D01*
X100434282Y-81803565D01*
X100480638Y-81799000D01*
X101131862Y-81799000D01*
X101178218Y-81803565D01*
X101178218Y-81803565D01*
G37*
G36*
X67553218Y-81803565D02*
G01*
X67591888Y-81815296D01*
X67627527Y-81834346D01*
X67658767Y-81859983D01*
X67684404Y-81891223D01*
X67703454Y-81926862D01*
X67715185Y-81965532D01*
X67719750Y-82011888D01*
X67719750Y-83088112D01*
X67715185Y-83134468D01*
X67703454Y-83173138D01*
X67684404Y-83208777D01*
X67658767Y-83240017D01*
X67627527Y-83265654D01*
X67591888Y-83284704D01*
X67553218Y-83296435D01*
X67506862Y-83301000D01*
X66855638Y-83301000D01*
X66809282Y-83296435D01*
X66770612Y-83284704D01*
X66734973Y-83265654D01*
X66703733Y-83240017D01*
X66678096Y-83208777D01*
X66659046Y-83173138D01*
X66647315Y-83134468D01*
X66642750Y-83088112D01*
X66642750Y-82011888D01*
X66647315Y-81965532D01*
X66659046Y-81926862D01*
X66678096Y-81891223D01*
X66703733Y-81859983D01*
X66734973Y-81834346D01*
X66770612Y-81815296D01*
X66809282Y-81803565D01*
X66855638Y-81799000D01*
X67506862Y-81799000D01*
X67553218Y-81803565D01*
X67553218Y-81803565D01*
G37*
G36*
X69428218Y-81803565D02*
G01*
X69466888Y-81815296D01*
X69502527Y-81834346D01*
X69533767Y-81859983D01*
X69559404Y-81891223D01*
X69578454Y-81926862D01*
X69590185Y-81965532D01*
X69594750Y-82011888D01*
X69594750Y-83088112D01*
X69590185Y-83134468D01*
X69578454Y-83173138D01*
X69559404Y-83208777D01*
X69533767Y-83240017D01*
X69502527Y-83265654D01*
X69466888Y-83284704D01*
X69428218Y-83296435D01*
X69381862Y-83301000D01*
X68730638Y-83301000D01*
X68684282Y-83296435D01*
X68645612Y-83284704D01*
X68609973Y-83265654D01*
X68578733Y-83240017D01*
X68553096Y-83208777D01*
X68534046Y-83173138D01*
X68522315Y-83134468D01*
X68517750Y-83088112D01*
X68517750Y-82011888D01*
X68522315Y-81965532D01*
X68534046Y-81926862D01*
X68553096Y-81891223D01*
X68578733Y-81859983D01*
X68609973Y-81834346D01*
X68645612Y-81815296D01*
X68684282Y-81803565D01*
X68730638Y-81799000D01*
X69381862Y-81799000D01*
X69428218Y-81803565D01*
X69428218Y-81803565D01*
G37*
G36*
X61996968Y-81009815D02*
G01*
X62035638Y-81021546D01*
X62071277Y-81040596D01*
X62102517Y-81066233D01*
X62128154Y-81097473D01*
X62147204Y-81133112D01*
X62158935Y-81171782D01*
X62163500Y-81218138D01*
X62163500Y-82294362D01*
X62158935Y-82340718D01*
X62147204Y-82379388D01*
X62128154Y-82415027D01*
X62102517Y-82446267D01*
X62071277Y-82471904D01*
X62035638Y-82490954D01*
X61996968Y-82502685D01*
X61950612Y-82507250D01*
X61299388Y-82507250D01*
X61253032Y-82502685D01*
X61214362Y-82490954D01*
X61178723Y-82471904D01*
X61147483Y-82446267D01*
X61121846Y-82415027D01*
X61102796Y-82379388D01*
X61091065Y-82340718D01*
X61086500Y-82294362D01*
X61086500Y-81218138D01*
X61091065Y-81171782D01*
X61102796Y-81133112D01*
X61121846Y-81097473D01*
X61147483Y-81066233D01*
X61178723Y-81040596D01*
X61214362Y-81021546D01*
X61253032Y-81009815D01*
X61299388Y-81005250D01*
X61950612Y-81005250D01*
X61996968Y-81009815D01*
X61996968Y-81009815D01*
G37*
G36*
X63871968Y-81009815D02*
G01*
X63910638Y-81021546D01*
X63946277Y-81040596D01*
X63977517Y-81066233D01*
X64003154Y-81097473D01*
X64022204Y-81133112D01*
X64033935Y-81171782D01*
X64038500Y-81218138D01*
X64038500Y-82294362D01*
X64033935Y-82340718D01*
X64022204Y-82379388D01*
X64003154Y-82415027D01*
X63977517Y-82446267D01*
X63946277Y-82471904D01*
X63910638Y-82490954D01*
X63871968Y-82502685D01*
X63825612Y-82507250D01*
X63174388Y-82507250D01*
X63128032Y-82502685D01*
X63089362Y-82490954D01*
X63053723Y-82471904D01*
X63022483Y-82446267D01*
X62996846Y-82415027D01*
X62977796Y-82379388D01*
X62966065Y-82340718D01*
X62961500Y-82294362D01*
X62961500Y-81218138D01*
X62966065Y-81171782D01*
X62977796Y-81133112D01*
X62996846Y-81097473D01*
X63022483Y-81066233D01*
X63053723Y-81040596D01*
X63089362Y-81021546D01*
X63128032Y-81009815D01*
X63174388Y-81005250D01*
X63825612Y-81005250D01*
X63871968Y-81009815D01*
X63871968Y-81009815D01*
G37*
G36*
X99176000Y-80932250D02*
G01*
X97674000Y-80932250D01*
X97674000Y-79630250D01*
X99176000Y-79630250D01*
X99176000Y-80932250D01*
X99176000Y-80932250D01*
G37*
G36*
X101376000Y-80932250D02*
G01*
X99874000Y-80932250D01*
X99874000Y-79630250D01*
X101376000Y-79630250D01*
X101376000Y-80932250D01*
X101376000Y-80932250D01*
G37*
G36*
X92051000Y-80732250D02*
G01*
X79399000Y-80732250D01*
X79399000Y-79130250D01*
X92051000Y-79130250D01*
X92051000Y-80732250D01*
X92051000Y-80732250D01*
G37*
G36*
X131844750Y-80507250D02*
G01*
X129942750Y-80507250D01*
X129942750Y-79305250D01*
X131844750Y-79305250D01*
X131844750Y-80507250D01*
X131844750Y-80507250D01*
G37*
G36*
X125644750Y-80507250D02*
G01*
X123742750Y-80507250D01*
X123742750Y-79305250D01*
X125644750Y-79305250D01*
X125644750Y-80507250D01*
X125644750Y-80507250D01*
G37*
G36*
X63871968Y-78628565D02*
G01*
X63910638Y-78640296D01*
X63946277Y-78659346D01*
X63977517Y-78684983D01*
X64003154Y-78716223D01*
X64022204Y-78751862D01*
X64033935Y-78790532D01*
X64038500Y-78836888D01*
X64038500Y-79913112D01*
X64033935Y-79959468D01*
X64022204Y-79998138D01*
X64003154Y-80033777D01*
X63977517Y-80065017D01*
X63946277Y-80090654D01*
X63910638Y-80109704D01*
X63871968Y-80121435D01*
X63825612Y-80126000D01*
X63174388Y-80126000D01*
X63128032Y-80121435D01*
X63089362Y-80109704D01*
X63053723Y-80090654D01*
X63022483Y-80065017D01*
X62996846Y-80033777D01*
X62977796Y-79998138D01*
X62966065Y-79959468D01*
X62961500Y-79913112D01*
X62961500Y-78836888D01*
X62966065Y-78790532D01*
X62977796Y-78751862D01*
X62996846Y-78716223D01*
X63022483Y-78684983D01*
X63053723Y-78659346D01*
X63089362Y-78640296D01*
X63128032Y-78628565D01*
X63174388Y-78624000D01*
X63825612Y-78624000D01*
X63871968Y-78628565D01*
X63871968Y-78628565D01*
G37*
G36*
X61996968Y-78628565D02*
G01*
X62035638Y-78640296D01*
X62071277Y-78659346D01*
X62102517Y-78684983D01*
X62128154Y-78716223D01*
X62147204Y-78751862D01*
X62158935Y-78790532D01*
X62163500Y-78836888D01*
X62163500Y-79913112D01*
X62158935Y-79959468D01*
X62147204Y-79998138D01*
X62128154Y-80033777D01*
X62102517Y-80065017D01*
X62071277Y-80090654D01*
X62035638Y-80109704D01*
X61996968Y-80121435D01*
X61950612Y-80126000D01*
X61299388Y-80126000D01*
X61253032Y-80121435D01*
X61214362Y-80109704D01*
X61178723Y-80090654D01*
X61147483Y-80065017D01*
X61121846Y-80033777D01*
X61102796Y-79998138D01*
X61091065Y-79959468D01*
X61086500Y-79913112D01*
X61086500Y-78836888D01*
X61091065Y-78790532D01*
X61102796Y-78751862D01*
X61121846Y-78716223D01*
X61147483Y-78684983D01*
X61178723Y-78659346D01*
X61214362Y-78640296D01*
X61253032Y-78628565D01*
X61299388Y-78624000D01*
X61950612Y-78624000D01*
X61996968Y-78628565D01*
X61996968Y-78628565D01*
G37*
G36*
X101376000Y-79232250D02*
G01*
X99874000Y-79232250D01*
X99874000Y-77930250D01*
X101376000Y-77930250D01*
X101376000Y-79232250D01*
X101376000Y-79232250D01*
G37*
G36*
X99176000Y-79232250D02*
G01*
X97674000Y-79232250D01*
X97674000Y-77930250D01*
X99176000Y-77930250D01*
X99176000Y-79232250D01*
X99176000Y-79232250D01*
G37*
G36*
X78826000Y-78557250D02*
G01*
X77224000Y-78557250D01*
X77224000Y-65905250D01*
X78826000Y-65905250D01*
X78826000Y-78557250D01*
X78826000Y-78557250D01*
G37*
G36*
X94226000Y-78557250D02*
G01*
X92624000Y-78557250D01*
X92624000Y-65905250D01*
X94226000Y-65905250D01*
X94226000Y-78557250D01*
X94226000Y-78557250D01*
G37*
G36*
X129131564Y-75983139D02*
G01*
X129322833Y-76062365D01*
X129322835Y-76062366D01*
X129494973Y-76177385D01*
X129641365Y-76323777D01*
X129732034Y-76459472D01*
X129756385Y-76495917D01*
X129835611Y-76687186D01*
X129876000Y-76890234D01*
X129876000Y-77097266D01*
X129835611Y-77300314D01*
X129763047Y-77475500D01*
X129756384Y-77491585D01*
X129641365Y-77663723D01*
X129494973Y-77810115D01*
X129322835Y-77925134D01*
X129322834Y-77925135D01*
X129322833Y-77925135D01*
X129131564Y-78004361D01*
X128928516Y-78044750D01*
X128721484Y-78044750D01*
X128518436Y-78004361D01*
X128327167Y-77925135D01*
X128327166Y-77925135D01*
X128327165Y-77925134D01*
X128155027Y-77810115D01*
X128008635Y-77663723D01*
X127893616Y-77491585D01*
X127886953Y-77475500D01*
X127814389Y-77300314D01*
X127774000Y-77097266D01*
X127774000Y-76890234D01*
X127814389Y-76687186D01*
X127893615Y-76495917D01*
X127917967Y-76459472D01*
X128008635Y-76323777D01*
X128155027Y-76177385D01*
X128327165Y-76062366D01*
X128327167Y-76062365D01*
X128518436Y-75983139D01*
X128721484Y-75942750D01*
X128928516Y-75942750D01*
X129131564Y-75983139D01*
X129131564Y-75983139D01*
G37*
G36*
X107413500Y-78044750D02*
G01*
X105311500Y-78044750D01*
X105311500Y-75942750D01*
X107413500Y-75942750D01*
X107413500Y-78044750D01*
X107413500Y-78044750D01*
G37*
G36*
X109169064Y-75983139D02*
G01*
X109360333Y-76062365D01*
X109360335Y-76062366D01*
X109532473Y-76177385D01*
X109678865Y-76323777D01*
X109769534Y-76459472D01*
X109793885Y-76495917D01*
X109873111Y-76687186D01*
X109913500Y-76890234D01*
X109913500Y-77097266D01*
X109873111Y-77300314D01*
X109800547Y-77475500D01*
X109793884Y-77491585D01*
X109678865Y-77663723D01*
X109532473Y-77810115D01*
X109360335Y-77925134D01*
X109360334Y-77925135D01*
X109360333Y-77925135D01*
X109169064Y-78004361D01*
X108966016Y-78044750D01*
X108758984Y-78044750D01*
X108555936Y-78004361D01*
X108364667Y-77925135D01*
X108364666Y-77925135D01*
X108364665Y-77925134D01*
X108192527Y-77810115D01*
X108046135Y-77663723D01*
X107931116Y-77491585D01*
X107924453Y-77475500D01*
X107851889Y-77300314D01*
X107811500Y-77097266D01*
X107811500Y-76890234D01*
X107851889Y-76687186D01*
X107931115Y-76495917D01*
X107955467Y-76459472D01*
X108046135Y-76323777D01*
X108192527Y-76177385D01*
X108364665Y-76062366D01*
X108364667Y-76062365D01*
X108555936Y-75983139D01*
X108758984Y-75942750D01*
X108966016Y-75942750D01*
X109169064Y-75983139D01*
X109169064Y-75983139D01*
G37*
G36*
X126631564Y-75983139D02*
G01*
X126822833Y-76062365D01*
X126822835Y-76062366D01*
X126994973Y-76177385D01*
X127141365Y-76323777D01*
X127232034Y-76459472D01*
X127256385Y-76495917D01*
X127335611Y-76687186D01*
X127376000Y-76890234D01*
X127376000Y-77097266D01*
X127335611Y-77300314D01*
X127263047Y-77475500D01*
X127256384Y-77491585D01*
X127141365Y-77663723D01*
X126994973Y-77810115D01*
X126822835Y-77925134D01*
X126822834Y-77925135D01*
X126822833Y-77925135D01*
X126631564Y-78004361D01*
X126428516Y-78044750D01*
X126221484Y-78044750D01*
X126018436Y-78004361D01*
X125827167Y-77925135D01*
X125827166Y-77925135D01*
X125827165Y-77925134D01*
X125655027Y-77810115D01*
X125508635Y-77663723D01*
X125393616Y-77491585D01*
X125386953Y-77475500D01*
X125314389Y-77300314D01*
X125274000Y-77097266D01*
X125274000Y-76890234D01*
X125314389Y-76687186D01*
X125393615Y-76495917D01*
X125417967Y-76459472D01*
X125508635Y-76323777D01*
X125655027Y-76177385D01*
X125827165Y-76062366D01*
X125827167Y-76062365D01*
X126018436Y-75983139D01*
X126221484Y-75942750D01*
X126428516Y-75942750D01*
X126631564Y-75983139D01*
X126631564Y-75983139D01*
G37*
G36*
X124876000Y-78044750D02*
G01*
X122774000Y-78044750D01*
X122774000Y-75942750D01*
X124876000Y-75942750D01*
X124876000Y-78044750D01*
X124876000Y-78044750D01*
G37*
G36*
X111669064Y-75983139D02*
G01*
X111860333Y-76062365D01*
X111860335Y-76062366D01*
X112032473Y-76177385D01*
X112178865Y-76323777D01*
X112269534Y-76459472D01*
X112293885Y-76495917D01*
X112373111Y-76687186D01*
X112413500Y-76890234D01*
X112413500Y-77097266D01*
X112373111Y-77300314D01*
X112300547Y-77475500D01*
X112293884Y-77491585D01*
X112178865Y-77663723D01*
X112032473Y-77810115D01*
X111860335Y-77925134D01*
X111860334Y-77925135D01*
X111860333Y-77925135D01*
X111669064Y-78004361D01*
X111466016Y-78044750D01*
X111258984Y-78044750D01*
X111055936Y-78004361D01*
X110864667Y-77925135D01*
X110864666Y-77925135D01*
X110864665Y-77925134D01*
X110692527Y-77810115D01*
X110546135Y-77663723D01*
X110431116Y-77491585D01*
X110424453Y-77475500D01*
X110351889Y-77300314D01*
X110311500Y-77097266D01*
X110311500Y-76890234D01*
X110351889Y-76687186D01*
X110431115Y-76495917D01*
X110455467Y-76459472D01*
X110546135Y-76323777D01*
X110692527Y-76177385D01*
X110864665Y-76062366D01*
X110864667Y-76062365D01*
X111055936Y-75983139D01*
X111258984Y-75942750D01*
X111466016Y-75942750D01*
X111669064Y-75983139D01*
X111669064Y-75983139D01*
G37*
G36*
X63871968Y-76247315D02*
G01*
X63910638Y-76259046D01*
X63946277Y-76278096D01*
X63977517Y-76303733D01*
X64003154Y-76334973D01*
X64022204Y-76370612D01*
X64033935Y-76409282D01*
X64038500Y-76455638D01*
X64038500Y-77531862D01*
X64033935Y-77578218D01*
X64022204Y-77616888D01*
X64003154Y-77652527D01*
X63977517Y-77683767D01*
X63946277Y-77709404D01*
X63910638Y-77728454D01*
X63871968Y-77740185D01*
X63825612Y-77744750D01*
X63174388Y-77744750D01*
X63128032Y-77740185D01*
X63089362Y-77728454D01*
X63053723Y-77709404D01*
X63022483Y-77683767D01*
X62996846Y-77652527D01*
X62977796Y-77616888D01*
X62966065Y-77578218D01*
X62961500Y-77531862D01*
X62961500Y-76455638D01*
X62966065Y-76409282D01*
X62977796Y-76370612D01*
X62996846Y-76334973D01*
X63022483Y-76303733D01*
X63053723Y-76278096D01*
X63089362Y-76259046D01*
X63128032Y-76247315D01*
X63174388Y-76242750D01*
X63825612Y-76242750D01*
X63871968Y-76247315D01*
X63871968Y-76247315D01*
G37*
G36*
X61996968Y-76247315D02*
G01*
X62035638Y-76259046D01*
X62071277Y-76278096D01*
X62102517Y-76303733D01*
X62128154Y-76334973D01*
X62147204Y-76370612D01*
X62158935Y-76409282D01*
X62163500Y-76455638D01*
X62163500Y-77531862D01*
X62158935Y-77578218D01*
X62147204Y-77616888D01*
X62128154Y-77652527D01*
X62102517Y-77683767D01*
X62071277Y-77709404D01*
X62035638Y-77728454D01*
X61996968Y-77740185D01*
X61950612Y-77744750D01*
X61299388Y-77744750D01*
X61253032Y-77740185D01*
X61214362Y-77728454D01*
X61178723Y-77709404D01*
X61147483Y-77683767D01*
X61121846Y-77652527D01*
X61102796Y-77616888D01*
X61091065Y-77578218D01*
X61086500Y-77531862D01*
X61086500Y-76455638D01*
X61091065Y-76409282D01*
X61102796Y-76370612D01*
X61121846Y-76334973D01*
X61147483Y-76303733D01*
X61178723Y-76278096D01*
X61214362Y-76259046D01*
X61253032Y-76247315D01*
X61299388Y-76242750D01*
X61950612Y-76242750D01*
X61996968Y-76247315D01*
X61996968Y-76247315D01*
G37*
G36*
X72801000Y-77724750D02*
G01*
X71299000Y-77724750D01*
X71299000Y-76622750D01*
X72801000Y-76622750D01*
X72801000Y-77724750D01*
X72801000Y-77724750D01*
G37*
G36*
X70601000Y-77644750D02*
G01*
X69099000Y-77644750D01*
X69099000Y-76342750D01*
X70601000Y-76342750D01*
X70601000Y-77644750D01*
X70601000Y-77644750D01*
G37*
G36*
X101178218Y-75453565D02*
G01*
X101216888Y-75465296D01*
X101252527Y-75484346D01*
X101283767Y-75509983D01*
X101309404Y-75541223D01*
X101328454Y-75576862D01*
X101340185Y-75615532D01*
X101344750Y-75661888D01*
X101344750Y-76738112D01*
X101340185Y-76784468D01*
X101328454Y-76823138D01*
X101309404Y-76858777D01*
X101283767Y-76890017D01*
X101252527Y-76915654D01*
X101216888Y-76934704D01*
X101178218Y-76946435D01*
X101131862Y-76951000D01*
X100480638Y-76951000D01*
X100434282Y-76946435D01*
X100395612Y-76934704D01*
X100359973Y-76915654D01*
X100328733Y-76890017D01*
X100303096Y-76858777D01*
X100284046Y-76823138D01*
X100272315Y-76784468D01*
X100267750Y-76738112D01*
X100267750Y-75661888D01*
X100272315Y-75615532D01*
X100284046Y-75576862D01*
X100303096Y-75541223D01*
X100328733Y-75509983D01*
X100359973Y-75484346D01*
X100395612Y-75465296D01*
X100434282Y-75453565D01*
X100480638Y-75449000D01*
X101131862Y-75449000D01*
X101178218Y-75453565D01*
X101178218Y-75453565D01*
G37*
G36*
X99303218Y-75453565D02*
G01*
X99341888Y-75465296D01*
X99377527Y-75484346D01*
X99408767Y-75509983D01*
X99434404Y-75541223D01*
X99453454Y-75576862D01*
X99465185Y-75615532D01*
X99469750Y-75661888D01*
X99469750Y-76738112D01*
X99465185Y-76784468D01*
X99453454Y-76823138D01*
X99434404Y-76858777D01*
X99408767Y-76890017D01*
X99377527Y-76915654D01*
X99341888Y-76934704D01*
X99303218Y-76946435D01*
X99256862Y-76951000D01*
X98605638Y-76951000D01*
X98559282Y-76946435D01*
X98520612Y-76934704D01*
X98484973Y-76915654D01*
X98453733Y-76890017D01*
X98428096Y-76858777D01*
X98409046Y-76823138D01*
X98397315Y-76784468D01*
X98392750Y-76738112D01*
X98392750Y-75661888D01*
X98397315Y-75615532D01*
X98409046Y-75576862D01*
X98428096Y-75541223D01*
X98453733Y-75509983D01*
X98484973Y-75484346D01*
X98520612Y-75465296D01*
X98559282Y-75453565D01*
X98605638Y-75449000D01*
X99256862Y-75449000D01*
X99303218Y-75453565D01*
X99303218Y-75453565D01*
G37*
G36*
X72801000Y-75824750D02*
G01*
X71299000Y-75824750D01*
X71299000Y-74722750D01*
X72801000Y-74722750D01*
X72801000Y-75824750D01*
X72801000Y-75824750D01*
G37*
G36*
X70601000Y-75824750D02*
G01*
X69099000Y-75824750D01*
X69099000Y-74722750D01*
X70601000Y-74722750D01*
X70601000Y-75824750D01*
X70601000Y-75824750D01*
G37*
G36*
X63871968Y-73866065D02*
G01*
X63910638Y-73877796D01*
X63946277Y-73896846D01*
X63977517Y-73922483D01*
X64003154Y-73953723D01*
X64022204Y-73989362D01*
X64033935Y-74028032D01*
X64038500Y-74074388D01*
X64038500Y-75150612D01*
X64033935Y-75196968D01*
X64022204Y-75235638D01*
X64003154Y-75271277D01*
X63977517Y-75302517D01*
X63946277Y-75328154D01*
X63910638Y-75347204D01*
X63871968Y-75358935D01*
X63825612Y-75363500D01*
X63174388Y-75363500D01*
X63128032Y-75358935D01*
X63089362Y-75347204D01*
X63053723Y-75328154D01*
X63022483Y-75302517D01*
X62996846Y-75271277D01*
X62977796Y-75235638D01*
X62966065Y-75196968D01*
X62961500Y-75150612D01*
X62961500Y-74074388D01*
X62966065Y-74028032D01*
X62977796Y-73989362D01*
X62996846Y-73953723D01*
X63022483Y-73922483D01*
X63053723Y-73896846D01*
X63089362Y-73877796D01*
X63128032Y-73866065D01*
X63174388Y-73861500D01*
X63825612Y-73861500D01*
X63871968Y-73866065D01*
X63871968Y-73866065D01*
G37*
G36*
X61996968Y-73866065D02*
G01*
X62035638Y-73877796D01*
X62071277Y-73896846D01*
X62102517Y-73922483D01*
X62128154Y-73953723D01*
X62147204Y-73989362D01*
X62158935Y-74028032D01*
X62163500Y-74074388D01*
X62163500Y-75150612D01*
X62158935Y-75196968D01*
X62147204Y-75235638D01*
X62128154Y-75271277D01*
X62102517Y-75302517D01*
X62071277Y-75328154D01*
X62035638Y-75347204D01*
X61996968Y-75358935D01*
X61950612Y-75363500D01*
X61299388Y-75363500D01*
X61253032Y-75358935D01*
X61214362Y-75347204D01*
X61178723Y-75328154D01*
X61147483Y-75302517D01*
X61121846Y-75271277D01*
X61102796Y-75235638D01*
X61091065Y-75196968D01*
X61086500Y-75150612D01*
X61086500Y-74074388D01*
X61091065Y-74028032D01*
X61102796Y-73989362D01*
X61121846Y-73953723D01*
X61147483Y-73922483D01*
X61178723Y-73896846D01*
X61214362Y-73877796D01*
X61253032Y-73866065D01*
X61299388Y-73861500D01*
X61950612Y-73861500D01*
X61996968Y-73866065D01*
X61996968Y-73866065D01*
G37*
G36*
X61996968Y-71484815D02*
G01*
X62035638Y-71496546D01*
X62071277Y-71515596D01*
X62102517Y-71541233D01*
X62128154Y-71572473D01*
X62147204Y-71608112D01*
X62158935Y-71646782D01*
X62163500Y-71693138D01*
X62163500Y-72769362D01*
X62158935Y-72815718D01*
X62147204Y-72854388D01*
X62128154Y-72890027D01*
X62102517Y-72921267D01*
X62071277Y-72946904D01*
X62035638Y-72965954D01*
X61996968Y-72977685D01*
X61950612Y-72982250D01*
X61299388Y-72982250D01*
X61253032Y-72977685D01*
X61214362Y-72965954D01*
X61178723Y-72946904D01*
X61147483Y-72921267D01*
X61121846Y-72890027D01*
X61102796Y-72854388D01*
X61091065Y-72815718D01*
X61086500Y-72769362D01*
X61086500Y-71693138D01*
X61091065Y-71646782D01*
X61102796Y-71608112D01*
X61121846Y-71572473D01*
X61147483Y-71541233D01*
X61178723Y-71515596D01*
X61214362Y-71496546D01*
X61253032Y-71484815D01*
X61299388Y-71480250D01*
X61950612Y-71480250D01*
X61996968Y-71484815D01*
X61996968Y-71484815D01*
G37*
G36*
X63871968Y-71484815D02*
G01*
X63910638Y-71496546D01*
X63946277Y-71515596D01*
X63977517Y-71541233D01*
X64003154Y-71572473D01*
X64022204Y-71608112D01*
X64033935Y-71646782D01*
X64038500Y-71693138D01*
X64038500Y-72769362D01*
X64033935Y-72815718D01*
X64022204Y-72854388D01*
X64003154Y-72890027D01*
X63977517Y-72921267D01*
X63946277Y-72946904D01*
X63910638Y-72965954D01*
X63871968Y-72977685D01*
X63825612Y-72982250D01*
X63174388Y-72982250D01*
X63128032Y-72977685D01*
X63089362Y-72965954D01*
X63053723Y-72946904D01*
X63022483Y-72921267D01*
X62996846Y-72890027D01*
X62977796Y-72854388D01*
X62966065Y-72815718D01*
X62961500Y-72769362D01*
X62961500Y-71693138D01*
X62966065Y-71646782D01*
X62977796Y-71608112D01*
X62996846Y-71572473D01*
X63022483Y-71541233D01*
X63053723Y-71515596D01*
X63089362Y-71496546D01*
X63128032Y-71484815D01*
X63174388Y-71480250D01*
X63825612Y-71480250D01*
X63871968Y-71484815D01*
X63871968Y-71484815D01*
G37*
G36*
X72021968Y-70397315D02*
G01*
X72060638Y-70409046D01*
X72096277Y-70428096D01*
X72127517Y-70453733D01*
X72153154Y-70484973D01*
X72172204Y-70520612D01*
X72183935Y-70559282D01*
X72188500Y-70605638D01*
X72188500Y-71256862D01*
X72183935Y-71303218D01*
X72172204Y-71341888D01*
X72153154Y-71377527D01*
X72127517Y-71408767D01*
X72096277Y-71434404D01*
X72060638Y-71453454D01*
X72021968Y-71465185D01*
X71975612Y-71469750D01*
X70899388Y-71469750D01*
X70853032Y-71465185D01*
X70814362Y-71453454D01*
X70778723Y-71434404D01*
X70747483Y-71408767D01*
X70721846Y-71377527D01*
X70702796Y-71341888D01*
X70691065Y-71303218D01*
X70686500Y-71256862D01*
X70686500Y-70605638D01*
X70691065Y-70559282D01*
X70702796Y-70520612D01*
X70721846Y-70484973D01*
X70747483Y-70453733D01*
X70778723Y-70428096D01*
X70814362Y-70409046D01*
X70853032Y-70397315D01*
X70899388Y-70392750D01*
X71975612Y-70392750D01*
X72021968Y-70397315D01*
X72021968Y-70397315D01*
G37*
G36*
X69640718Y-70397315D02*
G01*
X69679388Y-70409046D01*
X69715027Y-70428096D01*
X69746267Y-70453733D01*
X69771904Y-70484973D01*
X69790954Y-70520612D01*
X69802685Y-70559282D01*
X69807250Y-70605638D01*
X69807250Y-71256862D01*
X69802685Y-71303218D01*
X69790954Y-71341888D01*
X69771904Y-71377527D01*
X69746267Y-71408767D01*
X69715027Y-71434404D01*
X69679388Y-71453454D01*
X69640718Y-71465185D01*
X69594362Y-71469750D01*
X68518138Y-71469750D01*
X68471782Y-71465185D01*
X68433112Y-71453454D01*
X68397473Y-71434404D01*
X68366233Y-71408767D01*
X68340596Y-71377527D01*
X68321546Y-71341888D01*
X68309815Y-71303218D01*
X68305250Y-71256862D01*
X68305250Y-70605638D01*
X68309815Y-70559282D01*
X68321546Y-70520612D01*
X68340596Y-70484973D01*
X68366233Y-70453733D01*
X68397473Y-70428096D01*
X68433112Y-70409046D01*
X68471782Y-70397315D01*
X68518138Y-70392750D01*
X69594362Y-70392750D01*
X69640718Y-70397315D01*
X69640718Y-70397315D01*
G37*
G36*
X115513500Y-71144750D02*
G01*
X113411500Y-71144750D01*
X113411500Y-67842750D01*
X115513500Y-67842750D01*
X115513500Y-71144750D01*
X115513500Y-71144750D01*
G37*
G36*
X121776000Y-71144750D02*
G01*
X119674000Y-71144750D01*
X119674000Y-67842750D01*
X121776000Y-67842750D01*
X121776000Y-71144750D01*
X121776000Y-71144750D01*
G37*
G36*
X132976000Y-71144750D02*
G01*
X130874000Y-71144750D01*
X130874000Y-67842750D01*
X132976000Y-67842750D01*
X132976000Y-71144750D01*
X132976000Y-71144750D01*
G37*
G36*
X104313500Y-71144750D02*
G01*
X102211500Y-71144750D01*
X102211500Y-67842750D01*
X104313500Y-67842750D01*
X104313500Y-71144750D01*
X104313500Y-71144750D01*
G37*
G36*
X63481812Y-68096931D02*
G01*
X63516731Y-68107524D01*
X63548913Y-68124726D01*
X63577123Y-68147877D01*
X63600274Y-68176087D01*
X63617476Y-68208269D01*
X63628069Y-68243188D01*
X63632250Y-68285645D01*
X63632250Y-69426855D01*
X63628069Y-69469312D01*
X63617476Y-69504231D01*
X63600274Y-69536413D01*
X63577123Y-69564623D01*
X63548913Y-69587774D01*
X63516731Y-69604976D01*
X63481812Y-69615569D01*
X63439355Y-69619750D01*
X61973145Y-69619750D01*
X61930688Y-69615569D01*
X61895769Y-69604976D01*
X61863587Y-69587774D01*
X61835377Y-69564623D01*
X61812226Y-69536413D01*
X61795024Y-69504231D01*
X61784431Y-69469312D01*
X61780250Y-69426855D01*
X61780250Y-68285645D01*
X61784431Y-68243188D01*
X61795024Y-68208269D01*
X61812226Y-68176087D01*
X61835377Y-68147877D01*
X61863587Y-68124726D01*
X61895769Y-68107524D01*
X61930688Y-68096931D01*
X61973145Y-68092750D01*
X63439355Y-68092750D01*
X63481812Y-68096931D01*
X63481812Y-68096931D01*
G37*
G36*
X72021968Y-68522315D02*
G01*
X72060638Y-68534046D01*
X72096277Y-68553096D01*
X72127517Y-68578733D01*
X72153154Y-68609973D01*
X72172204Y-68645612D01*
X72183935Y-68684282D01*
X72188500Y-68730638D01*
X72188500Y-69381862D01*
X72183935Y-69428218D01*
X72172204Y-69466888D01*
X72153154Y-69502527D01*
X72127517Y-69533767D01*
X72096277Y-69559404D01*
X72060638Y-69578454D01*
X72021968Y-69590185D01*
X71975612Y-69594750D01*
X70899388Y-69594750D01*
X70853032Y-69590185D01*
X70814362Y-69578454D01*
X70778723Y-69559404D01*
X70747483Y-69533767D01*
X70721846Y-69502527D01*
X70702796Y-69466888D01*
X70691065Y-69428218D01*
X70686500Y-69381862D01*
X70686500Y-68730638D01*
X70691065Y-68684282D01*
X70702796Y-68645612D01*
X70721846Y-68609973D01*
X70747483Y-68578733D01*
X70778723Y-68553096D01*
X70814362Y-68534046D01*
X70853032Y-68522315D01*
X70899388Y-68517750D01*
X71975612Y-68517750D01*
X72021968Y-68522315D01*
X72021968Y-68522315D01*
G37*
G36*
X69640718Y-68522315D02*
G01*
X69679388Y-68534046D01*
X69715027Y-68553096D01*
X69746267Y-68578733D01*
X69771904Y-68609973D01*
X69790954Y-68645612D01*
X69802685Y-68684282D01*
X69807250Y-68730638D01*
X69807250Y-69381862D01*
X69802685Y-69428218D01*
X69790954Y-69466888D01*
X69771904Y-69502527D01*
X69746267Y-69533767D01*
X69715027Y-69559404D01*
X69679388Y-69578454D01*
X69640718Y-69590185D01*
X69594362Y-69594750D01*
X68518138Y-69594750D01*
X68471782Y-69590185D01*
X68433112Y-69578454D01*
X68397473Y-69559404D01*
X68366233Y-69533767D01*
X68340596Y-69502527D01*
X68321546Y-69466888D01*
X68309815Y-69428218D01*
X68305250Y-69381862D01*
X68305250Y-68730638D01*
X68309815Y-68684282D01*
X68321546Y-68645612D01*
X68340596Y-68609973D01*
X68366233Y-68578733D01*
X68397473Y-68553096D01*
X68433112Y-68534046D01*
X68471782Y-68522315D01*
X68518138Y-68517750D01*
X69594362Y-68517750D01*
X69640718Y-68522315D01*
X69640718Y-68522315D01*
G37*
G36*
X63481812Y-65121931D02*
G01*
X63516731Y-65132524D01*
X63548913Y-65149726D01*
X63577123Y-65172877D01*
X63600274Y-65201087D01*
X63617476Y-65233269D01*
X63628069Y-65268188D01*
X63632250Y-65310645D01*
X63632250Y-66451855D01*
X63628069Y-66494312D01*
X63617476Y-66529231D01*
X63600274Y-66561413D01*
X63577123Y-66589623D01*
X63548913Y-66612774D01*
X63516731Y-66629976D01*
X63481812Y-66640569D01*
X63439355Y-66644750D01*
X61973145Y-66644750D01*
X61930688Y-66640569D01*
X61895769Y-66629976D01*
X61863587Y-66612774D01*
X61835377Y-66589623D01*
X61812226Y-66561413D01*
X61795024Y-66529231D01*
X61784431Y-66494312D01*
X61780250Y-66451855D01*
X61780250Y-65310645D01*
X61784431Y-65268188D01*
X61795024Y-65233269D01*
X61812226Y-65201087D01*
X61835377Y-65172877D01*
X61863587Y-65149726D01*
X61895769Y-65132524D01*
X61930688Y-65121931D01*
X61973145Y-65117750D01*
X63439355Y-65117750D01*
X63481812Y-65121931D01*
X63481812Y-65121931D01*
G37*
G36*
X72890718Y-65134815D02*
G01*
X72929388Y-65146546D01*
X72965027Y-65165596D01*
X72996267Y-65191233D01*
X73021904Y-65222473D01*
X73040954Y-65258112D01*
X73052685Y-65296782D01*
X73057250Y-65343138D01*
X73057250Y-66419362D01*
X73052685Y-66465718D01*
X73040954Y-66504388D01*
X73021904Y-66540027D01*
X72996267Y-66571267D01*
X72965027Y-66596904D01*
X72929388Y-66615954D01*
X72890718Y-66627685D01*
X72844362Y-66632250D01*
X72193138Y-66632250D01*
X72146782Y-66627685D01*
X72108112Y-66615954D01*
X72072473Y-66596904D01*
X72041233Y-66571267D01*
X72015596Y-66540027D01*
X71996546Y-66504388D01*
X71984815Y-66465718D01*
X71980250Y-66419362D01*
X71980250Y-65343138D01*
X71984815Y-65296782D01*
X71996546Y-65258112D01*
X72015596Y-65222473D01*
X72041233Y-65191233D01*
X72072473Y-65165596D01*
X72108112Y-65146546D01*
X72146782Y-65134815D01*
X72193138Y-65130250D01*
X72844362Y-65130250D01*
X72890718Y-65134815D01*
X72890718Y-65134815D01*
G37*
G36*
X71015718Y-65134815D02*
G01*
X71054388Y-65146546D01*
X71090027Y-65165596D01*
X71121267Y-65191233D01*
X71146904Y-65222473D01*
X71165954Y-65258112D01*
X71177685Y-65296782D01*
X71182250Y-65343138D01*
X71182250Y-66419362D01*
X71177685Y-66465718D01*
X71165954Y-66504388D01*
X71146904Y-66540027D01*
X71121267Y-66571267D01*
X71090027Y-66596904D01*
X71054388Y-66615954D01*
X71015718Y-66627685D01*
X70969362Y-66632250D01*
X70318138Y-66632250D01*
X70271782Y-66627685D01*
X70233112Y-66615954D01*
X70197473Y-66596904D01*
X70166233Y-66571267D01*
X70140596Y-66540027D01*
X70121546Y-66504388D01*
X70109815Y-66465718D01*
X70105250Y-66419362D01*
X70105250Y-65343138D01*
X70109815Y-65296782D01*
X70121546Y-65258112D01*
X70140596Y-65222473D01*
X70166233Y-65191233D01*
X70197473Y-65165596D01*
X70233112Y-65146546D01*
X70271782Y-65134815D01*
X70318138Y-65130250D01*
X70969362Y-65130250D01*
X71015718Y-65134815D01*
X71015718Y-65134815D01*
G37*
G36*
X92051000Y-65332250D02*
G01*
X79399000Y-65332250D01*
X79399000Y-63730250D01*
X92051000Y-63730250D01*
X92051000Y-65332250D01*
X92051000Y-65332250D01*
G37*
G36*
X74190718Y-62753565D02*
G01*
X74229388Y-62765296D01*
X74265027Y-62784346D01*
X74296267Y-62809983D01*
X74321904Y-62841223D01*
X74340954Y-62876862D01*
X74352685Y-62915532D01*
X74357250Y-62961888D01*
X74357250Y-64038112D01*
X74352685Y-64084468D01*
X74340954Y-64123138D01*
X74321904Y-64158777D01*
X74296267Y-64190017D01*
X74265027Y-64215654D01*
X74229388Y-64234704D01*
X74190718Y-64246435D01*
X74144362Y-64251000D01*
X73493138Y-64251000D01*
X73446782Y-64246435D01*
X73408112Y-64234704D01*
X73372473Y-64215654D01*
X73341233Y-64190017D01*
X73315596Y-64158777D01*
X73296546Y-64123138D01*
X73284815Y-64084468D01*
X73280250Y-64038112D01*
X73280250Y-62961888D01*
X73284815Y-62915532D01*
X73296546Y-62876862D01*
X73315596Y-62841223D01*
X73341233Y-62809983D01*
X73372473Y-62784346D01*
X73408112Y-62765296D01*
X73446782Y-62753565D01*
X73493138Y-62749000D01*
X74144362Y-62749000D01*
X74190718Y-62753565D01*
X74190718Y-62753565D01*
G37*
G36*
X72315718Y-62753565D02*
G01*
X72354388Y-62765296D01*
X72390027Y-62784346D01*
X72421267Y-62809983D01*
X72446904Y-62841223D01*
X72465954Y-62876862D01*
X72477685Y-62915532D01*
X72482250Y-62961888D01*
X72482250Y-64038112D01*
X72477685Y-64084468D01*
X72465954Y-64123138D01*
X72446904Y-64158777D01*
X72421267Y-64190017D01*
X72390027Y-64215654D01*
X72354388Y-64234704D01*
X72315718Y-64246435D01*
X72269362Y-64251000D01*
X71618138Y-64251000D01*
X71571782Y-64246435D01*
X71533112Y-64234704D01*
X71497473Y-64215654D01*
X71466233Y-64190017D01*
X71440596Y-64158777D01*
X71421546Y-64123138D01*
X71409815Y-64084468D01*
X71405250Y-64038112D01*
X71405250Y-62961888D01*
X71409815Y-62915532D01*
X71421546Y-62876862D01*
X71440596Y-62841223D01*
X71466233Y-62809983D01*
X71497473Y-62784346D01*
X71533112Y-62765296D01*
X71571782Y-62753565D01*
X71618138Y-62749000D01*
X72269362Y-62749000D01*
X72315718Y-62753565D01*
X72315718Y-62753565D01*
G37*
G36*
X129131564Y-61483139D02*
G01*
X129322833Y-61562365D01*
X129322835Y-61562366D01*
X129494973Y-61677385D01*
X129641365Y-61823777D01*
X129756385Y-61995917D01*
X129835611Y-62187186D01*
X129876000Y-62390234D01*
X129876000Y-62597266D01*
X129835611Y-62800314D01*
X129787886Y-62915532D01*
X129756384Y-62991585D01*
X129641365Y-63163723D01*
X129494973Y-63310115D01*
X129322835Y-63425134D01*
X129322834Y-63425135D01*
X129322833Y-63425135D01*
X129131564Y-63504361D01*
X128928516Y-63544750D01*
X128721484Y-63544750D01*
X128518436Y-63504361D01*
X128327167Y-63425135D01*
X128327166Y-63425135D01*
X128327165Y-63425134D01*
X128155027Y-63310115D01*
X128008635Y-63163723D01*
X127893616Y-62991585D01*
X127862114Y-62915532D01*
X127814389Y-62800314D01*
X127774000Y-62597266D01*
X127774000Y-62390234D01*
X127814389Y-62187186D01*
X127893615Y-61995917D01*
X128008635Y-61823777D01*
X128155027Y-61677385D01*
X128327165Y-61562366D01*
X128327167Y-61562365D01*
X128518436Y-61483139D01*
X128721484Y-61442750D01*
X128928516Y-61442750D01*
X129131564Y-61483139D01*
X129131564Y-61483139D01*
G37*
G36*
X106669064Y-61483139D02*
G01*
X106860333Y-61562365D01*
X106860335Y-61562366D01*
X107032473Y-61677385D01*
X107178865Y-61823777D01*
X107293885Y-61995917D01*
X107373111Y-62187186D01*
X107413500Y-62390234D01*
X107413500Y-62597266D01*
X107373111Y-62800314D01*
X107325386Y-62915532D01*
X107293884Y-62991585D01*
X107178865Y-63163723D01*
X107032473Y-63310115D01*
X106860335Y-63425134D01*
X106860334Y-63425135D01*
X106860333Y-63425135D01*
X106669064Y-63504361D01*
X106466016Y-63544750D01*
X106258984Y-63544750D01*
X106055936Y-63504361D01*
X105864667Y-63425135D01*
X105864666Y-63425135D01*
X105864665Y-63425134D01*
X105692527Y-63310115D01*
X105546135Y-63163723D01*
X105431116Y-62991585D01*
X105399614Y-62915532D01*
X105351889Y-62800314D01*
X105311500Y-62597266D01*
X105311500Y-62390234D01*
X105351889Y-62187186D01*
X105431115Y-61995917D01*
X105546135Y-61823777D01*
X105692527Y-61677385D01*
X105864665Y-61562366D01*
X105864667Y-61562365D01*
X106055936Y-61483139D01*
X106258984Y-61442750D01*
X106466016Y-61442750D01*
X106669064Y-61483139D01*
X106669064Y-61483139D01*
G37*
G36*
X111669064Y-61483139D02*
G01*
X111860333Y-61562365D01*
X111860335Y-61562366D01*
X112032473Y-61677385D01*
X112178865Y-61823777D01*
X112293885Y-61995917D01*
X112373111Y-62187186D01*
X112413500Y-62390234D01*
X112413500Y-62597266D01*
X112373111Y-62800314D01*
X112325386Y-62915532D01*
X112293884Y-62991585D01*
X112178865Y-63163723D01*
X112032473Y-63310115D01*
X111860335Y-63425134D01*
X111860334Y-63425135D01*
X111860333Y-63425135D01*
X111669064Y-63504361D01*
X111466016Y-63544750D01*
X111258984Y-63544750D01*
X111055936Y-63504361D01*
X110864667Y-63425135D01*
X110864666Y-63425135D01*
X110864665Y-63425134D01*
X110692527Y-63310115D01*
X110546135Y-63163723D01*
X110431116Y-62991585D01*
X110399614Y-62915532D01*
X110351889Y-62800314D01*
X110311500Y-62597266D01*
X110311500Y-62390234D01*
X110351889Y-62187186D01*
X110431115Y-61995917D01*
X110546135Y-61823777D01*
X110692527Y-61677385D01*
X110864665Y-61562366D01*
X110864667Y-61562365D01*
X111055936Y-61483139D01*
X111258984Y-61442750D01*
X111466016Y-61442750D01*
X111669064Y-61483139D01*
X111669064Y-61483139D01*
G37*
G36*
X124131564Y-61483139D02*
G01*
X124322833Y-61562365D01*
X124322835Y-61562366D01*
X124494973Y-61677385D01*
X124641365Y-61823777D01*
X124756385Y-61995917D01*
X124835611Y-62187186D01*
X124876000Y-62390234D01*
X124876000Y-62597266D01*
X124835611Y-62800314D01*
X124787886Y-62915532D01*
X124756384Y-62991585D01*
X124641365Y-63163723D01*
X124494973Y-63310115D01*
X124322835Y-63425134D01*
X124322834Y-63425135D01*
X124322833Y-63425135D01*
X124131564Y-63504361D01*
X123928516Y-63544750D01*
X123721484Y-63544750D01*
X123518436Y-63504361D01*
X123327167Y-63425135D01*
X123327166Y-63425135D01*
X123327165Y-63425134D01*
X123155027Y-63310115D01*
X123008635Y-63163723D01*
X122893616Y-62991585D01*
X122862114Y-62915532D01*
X122814389Y-62800314D01*
X122774000Y-62597266D01*
X122774000Y-62390234D01*
X122814389Y-62187186D01*
X122893615Y-61995917D01*
X123008635Y-61823777D01*
X123155027Y-61677385D01*
X123327165Y-61562366D01*
X123327167Y-61562365D01*
X123518436Y-61483139D01*
X123721484Y-61442750D01*
X123928516Y-61442750D01*
X124131564Y-61483139D01*
X124131564Y-61483139D01*
G37*
G36*
X69457250Y-63446000D02*
G01*
X62305250Y-63446000D01*
X62305250Y-60894000D01*
X69457250Y-60894000D01*
X69457250Y-63446000D01*
X69457250Y-63446000D01*
G37*
G36*
X84221968Y-61166065D02*
G01*
X84260638Y-61177796D01*
X84296277Y-61196846D01*
X84327517Y-61222483D01*
X84353154Y-61253723D01*
X84372204Y-61289362D01*
X84383935Y-61328032D01*
X84388500Y-61374388D01*
X84388500Y-62450612D01*
X84383935Y-62496968D01*
X84372204Y-62535638D01*
X84353154Y-62571277D01*
X84327517Y-62602517D01*
X84296277Y-62628154D01*
X84260638Y-62647204D01*
X84221968Y-62658935D01*
X84175612Y-62663500D01*
X83524388Y-62663500D01*
X83478032Y-62658935D01*
X83439362Y-62647204D01*
X83403723Y-62628154D01*
X83372483Y-62602517D01*
X83346846Y-62571277D01*
X83327796Y-62535638D01*
X83316065Y-62496968D01*
X83311500Y-62450612D01*
X83311500Y-61374388D01*
X83316065Y-61328032D01*
X83327796Y-61289362D01*
X83346846Y-61253723D01*
X83372483Y-61222483D01*
X83403723Y-61196846D01*
X83439362Y-61177796D01*
X83478032Y-61166065D01*
X83524388Y-61161500D01*
X84175612Y-61161500D01*
X84221968Y-61166065D01*
X84221968Y-61166065D01*
G37*
G36*
X86096968Y-61166065D02*
G01*
X86135638Y-61177796D01*
X86171277Y-61196846D01*
X86202517Y-61222483D01*
X86228154Y-61253723D01*
X86247204Y-61289362D01*
X86258935Y-61328032D01*
X86263500Y-61374388D01*
X86263500Y-62450612D01*
X86258935Y-62496968D01*
X86247204Y-62535638D01*
X86228154Y-62571277D01*
X86202517Y-62602517D01*
X86171277Y-62628154D01*
X86135638Y-62647204D01*
X86096968Y-62658935D01*
X86050612Y-62663500D01*
X85399388Y-62663500D01*
X85353032Y-62658935D01*
X85314362Y-62647204D01*
X85278723Y-62628154D01*
X85247483Y-62602517D01*
X85221846Y-62571277D01*
X85202796Y-62535638D01*
X85191065Y-62496968D01*
X85186500Y-62450612D01*
X85186500Y-61374388D01*
X85191065Y-61328032D01*
X85202796Y-61289362D01*
X85221846Y-61253723D01*
X85247483Y-61222483D01*
X85278723Y-61196846D01*
X85314362Y-61177796D01*
X85353032Y-61166065D01*
X85399388Y-61161500D01*
X86050612Y-61161500D01*
X86096968Y-61166065D01*
X86096968Y-61166065D01*
G37*
G36*
X68880922Y-59863449D02*
G01*
X68880924Y-59863450D01*
X68880925Y-59863450D01*
X68949353Y-59891793D01*
X69010936Y-59932942D01*
X69063308Y-59985314D01*
X69104457Y-60046897D01*
X69132800Y-60115325D01*
X69147250Y-60187967D01*
X69147250Y-60262033D01*
X69132800Y-60334675D01*
X69104457Y-60403103D01*
X69063308Y-60464686D01*
X69010936Y-60517058D01*
X68949353Y-60558207D01*
X68880925Y-60586550D01*
X68880924Y-60586550D01*
X68880922Y-60586551D01*
X68808284Y-60601000D01*
X68734216Y-60601000D01*
X68661578Y-60586551D01*
X68661576Y-60586550D01*
X68661575Y-60586550D01*
X68593147Y-60558207D01*
X68531564Y-60517058D01*
X68479192Y-60464686D01*
X68438043Y-60403103D01*
X68409700Y-60334675D01*
X68395250Y-60262033D01*
X68395250Y-60187967D01*
X68409700Y-60115325D01*
X68438043Y-60046897D01*
X68479192Y-59985314D01*
X68531564Y-59932942D01*
X68593147Y-59891793D01*
X68661575Y-59863450D01*
X68661576Y-59863450D01*
X68661578Y-59863449D01*
X68734216Y-59849000D01*
X68808284Y-59849000D01*
X68880922Y-59863449D01*
X68880922Y-59863449D01*
G37*
G36*
X63100922Y-59863449D02*
G01*
X63100924Y-59863450D01*
X63100925Y-59863450D01*
X63169353Y-59891793D01*
X63230936Y-59932942D01*
X63283308Y-59985314D01*
X63324457Y-60046897D01*
X63352800Y-60115325D01*
X63367250Y-60187967D01*
X63367250Y-60262033D01*
X63352800Y-60334675D01*
X63324457Y-60403103D01*
X63283308Y-60464686D01*
X63230936Y-60517058D01*
X63169353Y-60558207D01*
X63100925Y-60586550D01*
X63100924Y-60586550D01*
X63100922Y-60586551D01*
X63028284Y-60601000D01*
X62954216Y-60601000D01*
X62881578Y-60586551D01*
X62881576Y-60586550D01*
X62881575Y-60586550D01*
X62813147Y-60558207D01*
X62751564Y-60517058D01*
X62699192Y-60464686D01*
X62658043Y-60403103D01*
X62629700Y-60334675D01*
X62615250Y-60262033D01*
X62615250Y-60187967D01*
X62629700Y-60115325D01*
X62658043Y-60046897D01*
X62699192Y-59985314D01*
X62751564Y-59932942D01*
X62813147Y-59891793D01*
X62881575Y-59863450D01*
X62881576Y-59863450D01*
X62881578Y-59863449D01*
X62954216Y-59849000D01*
X63028284Y-59849000D01*
X63100922Y-59863449D01*
X63100922Y-59863449D01*
G37*
M02*
