M48
; DRILL file {KiCad (5.1.4)-1} date 2024-03-23 1:05:05 AM
; FORMAT={-:-/ absolute / metric / decimal}
; #@! TF.CreationDate,2024-03-23T01:05:05-07:00
; #@! TF.GenerationSoftware,Kicad,Pcbnew,(5.1.4)-1
; #@! TF.FileFunction,Plated,1,2,PTH
FMAT,2
METRIC
T1C0.400
T2C0.600
T3C1.000
T4C1.470
T5C1.500
T6C2.200
%
G90
G05
T1
X61.119Y-69.85
X63.5Y-70.644
X65.087Y-67.469
X65.881Y-76.994
X67.469Y-64.294
X69.85Y-67.469
X72.231Y-81.756
X72.231Y-102.394
X72.936Y-84.117
X74.612Y-137.319
X75.522Y-79.491
X76.787Y-79.375
X76.994Y-84.438
X76.994Y-95.25
X77.644Y-112.063
X77.787Y-79.375
X78.581Y-80.169
X78.581Y-84.438
X80.962Y-77.787
X82.55Y-119.856
X82.57Y-123.011
X86.93Y-75.024
X87.312Y-72.99
X88.106Y-76.994
X88.45Y-72.231
X89.45Y-72.231
X91.281Y-67.469
X95.25Y-74.281
X95.25Y-77.356
X95.25Y-78.581
X95.837Y-75.731
X96.456Y-77.375
X96.837Y-75.406
X114.733Y-87.745
X115.094Y-85.725
X121.444Y-121.444
X121.512Y-103.119
X122.237Y-84.138
X128.588Y-114.3
X129.239Y-95.339
T3
X114.935Y-79.692
X114.935Y-82.233
X117.475Y-79.692
X117.475Y-82.233
X120.015Y-79.692
X120.015Y-82.233
X106.362Y-62.494
X106.362Y-76.994
X108.862Y-76.994
X111.362Y-62.494
X111.362Y-76.994
X123.825Y-62.494
X123.825Y-76.994
X126.325Y-76.994
X128.825Y-62.494
X128.825Y-76.994
T4
X124.46Y-116.205
X130.81Y-113.665
X124.46Y-135.255
X130.81Y-132.715
X67.31Y-97.155
X73.66Y-94.615
X105.41Y-116.205
X111.76Y-113.665
X86.36Y-116.205
X92.71Y-113.665
X124.46Y-97.155
X130.81Y-94.615
X105.41Y-135.255
X111.76Y-132.715
X67.31Y-116.205
X73.66Y-113.665
X86.36Y-135.255
X92.71Y-132.715
X67.31Y-135.255
X73.66Y-132.715
X86.36Y-97.155
X92.71Y-94.615
X105.41Y-97.155
X111.76Y-94.615
T6
X79.375Y-128.588
X79.375Y-90.487
X117.475Y-128.588
X117.475Y-90.487
T2
G00X61.561Y-56.275
M15
G01X61.561Y-56.875
M16
G05
G00X61.561Y-60.205
M15
G01X61.561Y-61.305
M16
G05
G00X70.201Y-56.275
M15
G01X70.201Y-56.875
M16
G05
G00X70.201Y-60.205
M15
G01X70.201Y-61.305
M16
G05
T5
G00X103.262Y-70.144
M15
G01X103.262Y-68.844
M16
G05
G00X114.462Y-70.144
M15
G01X114.462Y-68.844
M16
G05
G00X120.725Y-70.144
M15
G01X120.725Y-68.844
M16
G05
G00X131.925Y-70.144
M15
G01X131.925Y-68.844
M16
G05
T0
M30
