%TF.GenerationSoftware,KiCad,Pcbnew,(5.1.4)-1*%
%TF.CreationDate,2024-03-23T01:04:34-07:00*%
%TF.ProjectId,macropad,6d616372-6f70-4616-942e-6b696361645f,rev?*%
%TF.SameCoordinates,Original*%
%TF.FileFunction,Legend,Top*%
%TF.FilePolarity,Positive*%
%FSLAX46Y46*%
G04 Gerber Fmt 4.6, Leading zero omitted, Abs format (unit mm)*
G04 Created by KiCad (PCBNEW (5.1.4)-1) date 2024-03-23 01:04:34*
%MOMM*%
%LPD*%
G04 APERTURE LIST*
%ADD10C,0.120000*%
%ADD11C,0.250000*%
%ADD12C,0.150000*%
G04 APERTURE END LIST*
D10*
%TO.C,SW3*%
X111862500Y-69493750D02*
G75*
G03X111862500Y-69493750I-3000000J0D01*
G01*
X102962500Y-67493750D02*
X102962500Y-63393750D01*
X114762500Y-63393750D02*
X114762500Y-67493750D01*
X114762500Y-71493750D02*
X114762500Y-75593750D01*
X102962500Y-71493750D02*
X102962500Y-75593750D01*
X102962500Y-75593750D02*
X114762500Y-75593750D01*
X105062500Y-76993750D02*
X104762500Y-77293750D01*
X104762500Y-77293750D02*
X104762500Y-76693750D01*
X104762500Y-76693750D02*
X105062500Y-76993750D01*
X102962500Y-63393750D02*
X105362500Y-63393750D01*
X107562500Y-63393750D02*
X110162500Y-63393750D01*
X112362500Y-63393750D02*
X114762500Y-63393750D01*
X108362500Y-69493750D02*
X109362500Y-69493750D01*
X108862500Y-69993750D02*
X108862500Y-68993750D01*
%TO.C,SW2*%
X129325000Y-69493750D02*
G75*
G03X129325000Y-69493750I-3000000J0D01*
G01*
X120425000Y-67493750D02*
X120425000Y-63393750D01*
X132225000Y-63393750D02*
X132225000Y-67493750D01*
X132225000Y-71493750D02*
X132225000Y-75593750D01*
X120425000Y-71493750D02*
X120425000Y-75593750D01*
X120425000Y-75593750D02*
X132225000Y-75593750D01*
X122525000Y-76993750D02*
X122225000Y-77293750D01*
X122225000Y-77293750D02*
X122225000Y-76693750D01*
X122225000Y-76693750D02*
X122525000Y-76993750D01*
X120425000Y-63393750D02*
X122825000Y-63393750D01*
X125025000Y-63393750D02*
X127625000Y-63393750D01*
X129825000Y-63393750D02*
X132225000Y-63393750D01*
X125825000Y-69493750D02*
X126825000Y-69493750D01*
X126325000Y-69993750D02*
X126325000Y-68993750D01*
D11*
%TO.C,J1*%
X118725000Y-83462500D02*
X118725000Y-78462500D01*
X118725000Y-78462500D02*
X121225000Y-78462500D01*
X121225000Y-78462500D02*
X121225000Y-83462500D01*
X121225000Y-83462500D02*
X118725000Y-83462500D01*
%TD*%
%TO.C,H4*%
D12*
X78613095Y-126139880D02*
X78613095Y-125139880D01*
X78613095Y-125616071D02*
X79184523Y-125616071D01*
X79184523Y-126139880D02*
X79184523Y-125139880D01*
X80089285Y-125473214D02*
X80089285Y-126139880D01*
X79851190Y-125092261D02*
X79613095Y-125806547D01*
X80232142Y-125806547D01*
%TO.C,H3*%
X116713095Y-126139880D02*
X116713095Y-125139880D01*
X116713095Y-125616071D02*
X117284523Y-125616071D01*
X117284523Y-126139880D02*
X117284523Y-125139880D01*
X117665476Y-125139880D02*
X118284523Y-125139880D01*
X117951190Y-125520833D01*
X118094047Y-125520833D01*
X118189285Y-125568452D01*
X118236904Y-125616071D01*
X118284523Y-125711309D01*
X118284523Y-125949404D01*
X118236904Y-126044642D01*
X118189285Y-126092261D01*
X118094047Y-126139880D01*
X117808333Y-126139880D01*
X117713095Y-126092261D01*
X117665476Y-126044642D01*
%TO.C,H2*%
X78613095Y-88039880D02*
X78613095Y-87039880D01*
X78613095Y-87516071D02*
X79184523Y-87516071D01*
X79184523Y-88039880D02*
X79184523Y-87039880D01*
X79613095Y-87135119D02*
X79660714Y-87087500D01*
X79755952Y-87039880D01*
X79994047Y-87039880D01*
X80089285Y-87087500D01*
X80136904Y-87135119D01*
X80184523Y-87230357D01*
X80184523Y-87325595D01*
X80136904Y-87468452D01*
X79565476Y-88039880D01*
X80184523Y-88039880D01*
%TO.C,H1*%
X116713095Y-88039880D02*
X116713095Y-87039880D01*
X116713095Y-87516071D02*
X117284523Y-87516071D01*
X117284523Y-88039880D02*
X117284523Y-87039880D01*
X118284523Y-88039880D02*
X117713095Y-88039880D01*
X117998809Y-88039880D02*
X117998809Y-87039880D01*
X117903571Y-87182738D01*
X117808333Y-87277976D01*
X117713095Y-87325595D01*
%TO.C,SW3*%
X102067261Y-75527083D02*
X102114880Y-75384226D01*
X102114880Y-75146130D01*
X102067261Y-75050892D01*
X102019642Y-75003273D01*
X101924404Y-74955654D01*
X101829166Y-74955654D01*
X101733928Y-75003273D01*
X101686309Y-75050892D01*
X101638690Y-75146130D01*
X101591071Y-75336607D01*
X101543452Y-75431845D01*
X101495833Y-75479464D01*
X101400595Y-75527083D01*
X101305357Y-75527083D01*
X101210119Y-75479464D01*
X101162500Y-75431845D01*
X101114880Y-75336607D01*
X101114880Y-75098511D01*
X101162500Y-74955654D01*
X101114880Y-74622321D02*
X102114880Y-74384226D01*
X101400595Y-74193750D01*
X102114880Y-74003273D01*
X101114880Y-73765178D01*
X101114880Y-73479464D02*
X101114880Y-72860416D01*
X101495833Y-73193750D01*
X101495833Y-73050892D01*
X101543452Y-72955654D01*
X101591071Y-72908035D01*
X101686309Y-72860416D01*
X101924404Y-72860416D01*
X102019642Y-72908035D01*
X102067261Y-72955654D01*
X102114880Y-73050892D01*
X102114880Y-73336607D01*
X102067261Y-73431845D01*
X102019642Y-73479464D01*
%TO.C,SW2*%
X119529761Y-75527083D02*
X119577380Y-75384226D01*
X119577380Y-75146130D01*
X119529761Y-75050892D01*
X119482142Y-75003273D01*
X119386904Y-74955654D01*
X119291666Y-74955654D01*
X119196428Y-75003273D01*
X119148809Y-75050892D01*
X119101190Y-75146130D01*
X119053571Y-75336607D01*
X119005952Y-75431845D01*
X118958333Y-75479464D01*
X118863095Y-75527083D01*
X118767857Y-75527083D01*
X118672619Y-75479464D01*
X118625000Y-75431845D01*
X118577380Y-75336607D01*
X118577380Y-75098511D01*
X118625000Y-74955654D01*
X118577380Y-74622321D02*
X119577380Y-74384226D01*
X118863095Y-74193750D01*
X119577380Y-74003273D01*
X118577380Y-73765178D01*
X118672619Y-73431845D02*
X118625000Y-73384226D01*
X118577380Y-73288988D01*
X118577380Y-73050892D01*
X118625000Y-72955654D01*
X118672619Y-72908035D01*
X118767857Y-72860416D01*
X118863095Y-72860416D01*
X119005952Y-72908035D01*
X119577380Y-73479464D01*
X119577380Y-72860416D01*
%TO.C,J1*%
X115427380Y-86783928D02*
X114427380Y-86783928D01*
X115141666Y-86450595D01*
X114427380Y-86117261D01*
X115427380Y-86117261D01*
X115427380Y-85641071D02*
X114427380Y-85641071D01*
X115379761Y-85212500D02*
X115427380Y-85069642D01*
X115427380Y-84831547D01*
X115379761Y-84736309D01*
X115332142Y-84688690D01*
X115236904Y-84641071D01*
X115141666Y-84641071D01*
X115046428Y-84688690D01*
X114998809Y-84736309D01*
X114951190Y-84831547D01*
X114903571Y-85022023D01*
X114855952Y-85117261D01*
X114808333Y-85164880D01*
X114713095Y-85212500D01*
X114617857Y-85212500D01*
X114522619Y-85164880D01*
X114475000Y-85117261D01*
X114427380Y-85022023D01*
X114427380Y-84783928D01*
X114475000Y-84641071D01*
X114427380Y-84022023D02*
X114427380Y-83831547D01*
X114475000Y-83736309D01*
X114570238Y-83641071D01*
X114760714Y-83593452D01*
X115094047Y-83593452D01*
X115284523Y-83641071D01*
X115379761Y-83736309D01*
X115427380Y-83831547D01*
X115427380Y-84022023D01*
X115379761Y-84117261D01*
X115284523Y-84212500D01*
X115094047Y-84260119D01*
X114760714Y-84260119D01*
X114570238Y-84212500D01*
X114475000Y-84117261D01*
X114427380Y-84022023D01*
X114427380Y-78295833D02*
X115427380Y-77962500D01*
X114427380Y-77629166D01*
X115332142Y-76724404D02*
X115379761Y-76772023D01*
X115427380Y-76914880D01*
X115427380Y-77010119D01*
X115379761Y-77152976D01*
X115284523Y-77248214D01*
X115189285Y-77295833D01*
X114998809Y-77343452D01*
X114855952Y-77343452D01*
X114665476Y-77295833D01*
X114570238Y-77248214D01*
X114475000Y-77152976D01*
X114427380Y-77010119D01*
X114427380Y-76914880D01*
X114475000Y-76772023D01*
X114522619Y-76724404D01*
X115332142Y-75724404D02*
X115379761Y-75772023D01*
X115427380Y-75914880D01*
X115427380Y-76010119D01*
X115379761Y-76152976D01*
X115284523Y-76248214D01*
X115189285Y-76295833D01*
X114998809Y-76343452D01*
X114855952Y-76343452D01*
X114665476Y-76295833D01*
X114570238Y-76248214D01*
X114475000Y-76152976D01*
X114427380Y-76010119D01*
X114427380Y-75914880D01*
X114475000Y-75772023D01*
X114522619Y-75724404D01*
X117879761Y-86248214D02*
X117927380Y-86105357D01*
X117927380Y-85867261D01*
X117879761Y-85772023D01*
X117832142Y-85724404D01*
X117736904Y-85676785D01*
X117641666Y-85676785D01*
X117546428Y-85724404D01*
X117498809Y-85772023D01*
X117451190Y-85867261D01*
X117403571Y-86057738D01*
X117355952Y-86152976D01*
X117308333Y-86200595D01*
X117213095Y-86248214D01*
X117117857Y-86248214D01*
X117022619Y-86200595D01*
X116975000Y-86152976D01*
X116927380Y-86057738D01*
X116927380Y-85819642D01*
X116975000Y-85676785D01*
X117832142Y-84676785D02*
X117879761Y-84724404D01*
X117927380Y-84867261D01*
X117927380Y-84962500D01*
X117879761Y-85105357D01*
X117784523Y-85200595D01*
X117689285Y-85248214D01*
X117498809Y-85295833D01*
X117355952Y-85295833D01*
X117165476Y-85248214D01*
X117070238Y-85200595D01*
X116975000Y-85105357D01*
X116927380Y-84962500D01*
X116927380Y-84867261D01*
X116975000Y-84724404D01*
X117022619Y-84676785D01*
X117927380Y-84248214D02*
X116927380Y-84248214D01*
X117927380Y-83676785D02*
X117355952Y-84105357D01*
X116927380Y-83676785D02*
X117498809Y-84248214D01*
X117927380Y-78283928D02*
X116927380Y-78283928D01*
X117641666Y-77950595D01*
X116927380Y-77617261D01*
X117927380Y-77617261D01*
X116927380Y-76950595D02*
X116927380Y-76760119D01*
X116975000Y-76664880D01*
X117070238Y-76569642D01*
X117260714Y-76522023D01*
X117594047Y-76522023D01*
X117784523Y-76569642D01*
X117879761Y-76664880D01*
X117927380Y-76760119D01*
X117927380Y-76950595D01*
X117879761Y-77045833D01*
X117784523Y-77141071D01*
X117594047Y-77188690D01*
X117260714Y-77188690D01*
X117070238Y-77141071D01*
X116975000Y-77045833D01*
X116927380Y-76950595D01*
X117879761Y-76141071D02*
X117927380Y-75998214D01*
X117927380Y-75760119D01*
X117879761Y-75664880D01*
X117832142Y-75617261D01*
X117736904Y-75569642D01*
X117641666Y-75569642D01*
X117546428Y-75617261D01*
X117498809Y-75664880D01*
X117451190Y-75760119D01*
X117403571Y-75950595D01*
X117355952Y-76045833D01*
X117308333Y-76093452D01*
X117213095Y-76141071D01*
X117117857Y-76141071D01*
X117022619Y-76093452D01*
X116975000Y-76045833D01*
X116927380Y-75950595D01*
X116927380Y-75712500D01*
X116975000Y-75569642D01*
X117927380Y-75141071D02*
X116927380Y-75141071D01*
X120427380Y-85760119D02*
X119951190Y-86093452D01*
X120427380Y-86331547D02*
X119427380Y-86331547D01*
X119427380Y-85950595D01*
X119475000Y-85855357D01*
X119522619Y-85807738D01*
X119617857Y-85760119D01*
X119760714Y-85760119D01*
X119855952Y-85807738D01*
X119903571Y-85855357D01*
X119951190Y-85950595D01*
X119951190Y-86331547D01*
X120379761Y-85379166D02*
X120427380Y-85236309D01*
X120427380Y-84998214D01*
X120379761Y-84902976D01*
X120332142Y-84855357D01*
X120236904Y-84807738D01*
X120141666Y-84807738D01*
X120046428Y-84855357D01*
X119998809Y-84902976D01*
X119951190Y-84998214D01*
X119903571Y-85188690D01*
X119855952Y-85283928D01*
X119808333Y-85331547D01*
X119713095Y-85379166D01*
X119617857Y-85379166D01*
X119522619Y-85331547D01*
X119475000Y-85283928D01*
X119427380Y-85188690D01*
X119427380Y-84950595D01*
X119475000Y-84807738D01*
X119427380Y-84522023D02*
X119427380Y-83950595D01*
X120427380Y-84236309D02*
X119427380Y-84236309D01*
X119475000Y-77474404D02*
X119427380Y-77569642D01*
X119427380Y-77712500D01*
X119475000Y-77855357D01*
X119570238Y-77950595D01*
X119665476Y-77998214D01*
X119855952Y-78045833D01*
X119998809Y-78045833D01*
X120189285Y-77998214D01*
X120284523Y-77950595D01*
X120379761Y-77855357D01*
X120427380Y-77712500D01*
X120427380Y-77617261D01*
X120379761Y-77474404D01*
X120332142Y-77426785D01*
X119998809Y-77426785D01*
X119998809Y-77617261D01*
X120427380Y-76998214D02*
X119427380Y-76998214D01*
X120427380Y-76426785D01*
X119427380Y-76426785D01*
X120427380Y-75950595D02*
X119427380Y-75950595D01*
X119427380Y-75712500D01*
X119475000Y-75569642D01*
X119570238Y-75474404D01*
X119665476Y-75426785D01*
X119855952Y-75379166D01*
X119998809Y-75379166D01*
X120189285Y-75426785D01*
X120284523Y-75474404D01*
X120379761Y-75569642D01*
X120427380Y-75712500D01*
X120427380Y-75950595D01*
%TD*%
M02*
