G04 #@! TF.GenerationSoftware,KiCad,Pcbnew,(5.1.4)-1*
G04 #@! TF.CreationDate,2024-03-23T00:37:29-07:00*
G04 #@! TF.ProjectId,macropad,6d616372-6f70-4616-942e-6b696361645f,rev?*
G04 #@! TF.SameCoordinates,Original*
G04 #@! TF.FileFunction,Soldermask,Top*
G04 #@! TF.FilePolarity,Negative*
%FSLAX46Y46*%
G04 Gerber Fmt 4.6, Leading zero omitted, Abs format (unit mm)*
G04 Created by KiCad (PCBNEW (5.1.4)-1) date 2024-03-23 00:37:29*
%MOMM*%
%LPD*%
G04 APERTURE LIST*
%ADD10C,0.100000*%
G04 APERTURE END LIST*
D10*
G36*
X127596474Y-128208684D02*
G01*
X127814474Y-128298983D01*
X127968623Y-128362833D01*
X128303548Y-128586623D01*
X128588377Y-128871452D01*
X128812167Y-129206377D01*
X128844562Y-129284586D01*
X128966316Y-129578526D01*
X129044900Y-129973594D01*
X129044900Y-130376406D01*
X128966316Y-130771474D01*
X128915451Y-130894272D01*
X128812167Y-131143623D01*
X128588377Y-131478548D01*
X128303548Y-131763377D01*
X127968623Y-131987167D01*
X127814474Y-132051017D01*
X127596474Y-132141316D01*
X127201406Y-132219900D01*
X126798594Y-132219900D01*
X126403526Y-132141316D01*
X126185526Y-132051017D01*
X126031377Y-131987167D01*
X125696452Y-131763377D01*
X125411623Y-131478548D01*
X125187833Y-131143623D01*
X125084549Y-130894272D01*
X125033684Y-130771474D01*
X124955100Y-130376406D01*
X124955100Y-129973594D01*
X125033684Y-129578526D01*
X125155438Y-129284586D01*
X125187833Y-129206377D01*
X125411623Y-128871452D01*
X125696452Y-128586623D01*
X126031377Y-128362833D01*
X126185526Y-128298983D01*
X126403526Y-128208684D01*
X126798594Y-128130100D01*
X127201406Y-128130100D01*
X127596474Y-128208684D01*
X127596474Y-128208684D01*
G37*
G36*
X108546474Y-128208684D02*
G01*
X108764474Y-128298983D01*
X108918623Y-128362833D01*
X109253548Y-128586623D01*
X109538377Y-128871452D01*
X109762167Y-129206377D01*
X109794562Y-129284586D01*
X109916316Y-129578526D01*
X109994900Y-129973594D01*
X109994900Y-130376406D01*
X109916316Y-130771474D01*
X109865451Y-130894272D01*
X109762167Y-131143623D01*
X109538377Y-131478548D01*
X109253548Y-131763377D01*
X108918623Y-131987167D01*
X108764474Y-132051017D01*
X108546474Y-132141316D01*
X108151406Y-132219900D01*
X107748594Y-132219900D01*
X107353526Y-132141316D01*
X107135526Y-132051017D01*
X106981377Y-131987167D01*
X106646452Y-131763377D01*
X106361623Y-131478548D01*
X106137833Y-131143623D01*
X106034549Y-130894272D01*
X105983684Y-130771474D01*
X105905100Y-130376406D01*
X105905100Y-129973594D01*
X105983684Y-129578526D01*
X106105438Y-129284586D01*
X106137833Y-129206377D01*
X106361623Y-128871452D01*
X106646452Y-128586623D01*
X106981377Y-128362833D01*
X107135526Y-128298983D01*
X107353526Y-128208684D01*
X107748594Y-128130100D01*
X108151406Y-128130100D01*
X108546474Y-128208684D01*
X108546474Y-128208684D01*
G37*
G36*
X70446474Y-128208684D02*
G01*
X70664474Y-128298983D01*
X70818623Y-128362833D01*
X71153548Y-128586623D01*
X71438377Y-128871452D01*
X71662167Y-129206377D01*
X71694562Y-129284586D01*
X71816316Y-129578526D01*
X71894900Y-129973594D01*
X71894900Y-130376406D01*
X71816316Y-130771474D01*
X71765451Y-130894272D01*
X71662167Y-131143623D01*
X71438377Y-131478548D01*
X71153548Y-131763377D01*
X70818623Y-131987167D01*
X70664474Y-132051017D01*
X70446474Y-132141316D01*
X70051406Y-132219900D01*
X69648594Y-132219900D01*
X69253526Y-132141316D01*
X69035526Y-132051017D01*
X68881377Y-131987167D01*
X68546452Y-131763377D01*
X68261623Y-131478548D01*
X68037833Y-131143623D01*
X67934549Y-130894272D01*
X67883684Y-130771474D01*
X67805100Y-130376406D01*
X67805100Y-129973594D01*
X67883684Y-129578526D01*
X68005438Y-129284586D01*
X68037833Y-129206377D01*
X68261623Y-128871452D01*
X68546452Y-128586623D01*
X68881377Y-128362833D01*
X69035526Y-128298983D01*
X69253526Y-128208684D01*
X69648594Y-128130100D01*
X70051406Y-128130100D01*
X70446474Y-128208684D01*
X70446474Y-128208684D01*
G37*
G36*
X89496474Y-128208684D02*
G01*
X89714474Y-128298983D01*
X89868623Y-128362833D01*
X90203548Y-128586623D01*
X90488377Y-128871452D01*
X90712167Y-129206377D01*
X90744562Y-129284586D01*
X90866316Y-129578526D01*
X90944900Y-129973594D01*
X90944900Y-130376406D01*
X90866316Y-130771474D01*
X90815451Y-130894272D01*
X90712167Y-131143623D01*
X90488377Y-131478548D01*
X90203548Y-131763377D01*
X89868623Y-131987167D01*
X89714474Y-132051017D01*
X89496474Y-132141316D01*
X89101406Y-132219900D01*
X88698594Y-132219900D01*
X88303526Y-132141316D01*
X88085526Y-132051017D01*
X87931377Y-131987167D01*
X87596452Y-131763377D01*
X87311623Y-131478548D01*
X87087833Y-131143623D01*
X86984549Y-130894272D01*
X86933684Y-130771474D01*
X86855100Y-130376406D01*
X86855100Y-129973594D01*
X86933684Y-129578526D01*
X87055438Y-129284586D01*
X87087833Y-129206377D01*
X87311623Y-128871452D01*
X87596452Y-128586623D01*
X87931377Y-128362833D01*
X88085526Y-128298983D01*
X88303526Y-128208684D01*
X88698594Y-128130100D01*
X89101406Y-128130100D01*
X89496474Y-128208684D01*
X89496474Y-128208684D01*
G37*
G36*
X103140104Y-129284585D02*
G01*
X103308626Y-129354389D01*
X103460291Y-129455728D01*
X103589272Y-129584709D01*
X103690611Y-129736374D01*
X103760415Y-129904896D01*
X103796000Y-130083797D01*
X103796000Y-130266203D01*
X103760415Y-130445104D01*
X103690611Y-130613626D01*
X103589272Y-130765291D01*
X103460291Y-130894272D01*
X103308626Y-130995611D01*
X103140104Y-131065415D01*
X102961203Y-131101000D01*
X102778797Y-131101000D01*
X102599896Y-131065415D01*
X102431374Y-130995611D01*
X102279709Y-130894272D01*
X102150728Y-130765291D01*
X102049389Y-130613626D01*
X101979585Y-130445104D01*
X101944000Y-130266203D01*
X101944000Y-130083797D01*
X101979585Y-129904896D01*
X102049389Y-129736374D01*
X102150728Y-129584709D01*
X102279709Y-129455728D01*
X102431374Y-129354389D01*
X102599896Y-129284585D01*
X102778797Y-129249000D01*
X102961203Y-129249000D01*
X103140104Y-129284585D01*
X103140104Y-129284585D01*
G37*
G36*
X65040104Y-129284585D02*
G01*
X65208626Y-129354389D01*
X65360291Y-129455728D01*
X65489272Y-129584709D01*
X65590611Y-129736374D01*
X65660415Y-129904896D01*
X65696000Y-130083797D01*
X65696000Y-130266203D01*
X65660415Y-130445104D01*
X65590611Y-130613626D01*
X65489272Y-130765291D01*
X65360291Y-130894272D01*
X65208626Y-130995611D01*
X65040104Y-131065415D01*
X64861203Y-131101000D01*
X64678797Y-131101000D01*
X64499896Y-131065415D01*
X64331374Y-130995611D01*
X64179709Y-130894272D01*
X64050728Y-130765291D01*
X63949389Y-130613626D01*
X63879585Y-130445104D01*
X63844000Y-130266203D01*
X63844000Y-130083797D01*
X63879585Y-129904896D01*
X63949389Y-129736374D01*
X64050728Y-129584709D01*
X64179709Y-129455728D01*
X64331374Y-129354389D01*
X64499896Y-129284585D01*
X64678797Y-129249000D01*
X64861203Y-129249000D01*
X65040104Y-129284585D01*
X65040104Y-129284585D01*
G37*
G36*
X75200104Y-129284585D02*
G01*
X75368626Y-129354389D01*
X75520291Y-129455728D01*
X75649272Y-129584709D01*
X75750611Y-129736374D01*
X75820415Y-129904896D01*
X75856000Y-130083797D01*
X75856000Y-130266203D01*
X75820415Y-130445104D01*
X75750611Y-130613626D01*
X75649272Y-130765291D01*
X75520291Y-130894272D01*
X75368626Y-130995611D01*
X75200104Y-131065415D01*
X75021203Y-131101000D01*
X74838797Y-131101000D01*
X74659896Y-131065415D01*
X74491374Y-130995611D01*
X74339709Y-130894272D01*
X74210728Y-130765291D01*
X74109389Y-130613626D01*
X74039585Y-130445104D01*
X74004000Y-130266203D01*
X74004000Y-130083797D01*
X74039585Y-129904896D01*
X74109389Y-129736374D01*
X74210728Y-129584709D01*
X74339709Y-129455728D01*
X74491374Y-129354389D01*
X74659896Y-129284585D01*
X74838797Y-129249000D01*
X75021203Y-129249000D01*
X75200104Y-129284585D01*
X75200104Y-129284585D01*
G37*
G36*
X113300104Y-129284585D02*
G01*
X113468626Y-129354389D01*
X113620291Y-129455728D01*
X113749272Y-129584709D01*
X113850611Y-129736374D01*
X113920415Y-129904896D01*
X113956000Y-130083797D01*
X113956000Y-130266203D01*
X113920415Y-130445104D01*
X113850611Y-130613626D01*
X113749272Y-130765291D01*
X113620291Y-130894272D01*
X113468626Y-130995611D01*
X113300104Y-131065415D01*
X113121203Y-131101000D01*
X112938797Y-131101000D01*
X112759896Y-131065415D01*
X112591374Y-130995611D01*
X112439709Y-130894272D01*
X112310728Y-130765291D01*
X112209389Y-130613626D01*
X112139585Y-130445104D01*
X112104000Y-130266203D01*
X112104000Y-130083797D01*
X112139585Y-129904896D01*
X112209389Y-129736374D01*
X112310728Y-129584709D01*
X112439709Y-129455728D01*
X112591374Y-129354389D01*
X112759896Y-129284585D01*
X112938797Y-129249000D01*
X113121203Y-129249000D01*
X113300104Y-129284585D01*
X113300104Y-129284585D01*
G37*
G36*
X122190104Y-129284585D02*
G01*
X122358626Y-129354389D01*
X122510291Y-129455728D01*
X122639272Y-129584709D01*
X122740611Y-129736374D01*
X122810415Y-129904896D01*
X122846000Y-130083797D01*
X122846000Y-130266203D01*
X122810415Y-130445104D01*
X122740611Y-130613626D01*
X122639272Y-130765291D01*
X122510291Y-130894272D01*
X122358626Y-130995611D01*
X122190104Y-131065415D01*
X122011203Y-131101000D01*
X121828797Y-131101000D01*
X121649896Y-131065415D01*
X121481374Y-130995611D01*
X121329709Y-130894272D01*
X121200728Y-130765291D01*
X121099389Y-130613626D01*
X121029585Y-130445104D01*
X120994000Y-130266203D01*
X120994000Y-130083797D01*
X121029585Y-129904896D01*
X121099389Y-129736374D01*
X121200728Y-129584709D01*
X121329709Y-129455728D01*
X121481374Y-129354389D01*
X121649896Y-129284585D01*
X121828797Y-129249000D01*
X122011203Y-129249000D01*
X122190104Y-129284585D01*
X122190104Y-129284585D01*
G37*
G36*
X84090104Y-129284585D02*
G01*
X84258626Y-129354389D01*
X84410291Y-129455728D01*
X84539272Y-129584709D01*
X84640611Y-129736374D01*
X84710415Y-129904896D01*
X84746000Y-130083797D01*
X84746000Y-130266203D01*
X84710415Y-130445104D01*
X84640611Y-130613626D01*
X84539272Y-130765291D01*
X84410291Y-130894272D01*
X84258626Y-130995611D01*
X84090104Y-131065415D01*
X83911203Y-131101000D01*
X83728797Y-131101000D01*
X83549896Y-131065415D01*
X83381374Y-130995611D01*
X83229709Y-130894272D01*
X83100728Y-130765291D01*
X82999389Y-130613626D01*
X82929585Y-130445104D01*
X82894000Y-130266203D01*
X82894000Y-130083797D01*
X82929585Y-129904896D01*
X82999389Y-129736374D01*
X83100728Y-129584709D01*
X83229709Y-129455728D01*
X83381374Y-129354389D01*
X83549896Y-129284585D01*
X83728797Y-129249000D01*
X83911203Y-129249000D01*
X84090104Y-129284585D01*
X84090104Y-129284585D01*
G37*
G36*
X94250104Y-129284585D02*
G01*
X94418626Y-129354389D01*
X94570291Y-129455728D01*
X94699272Y-129584709D01*
X94800611Y-129736374D01*
X94870415Y-129904896D01*
X94906000Y-130083797D01*
X94906000Y-130266203D01*
X94870415Y-130445104D01*
X94800611Y-130613626D01*
X94699272Y-130765291D01*
X94570291Y-130894272D01*
X94418626Y-130995611D01*
X94250104Y-131065415D01*
X94071203Y-131101000D01*
X93888797Y-131101000D01*
X93709896Y-131065415D01*
X93541374Y-130995611D01*
X93389709Y-130894272D01*
X93260728Y-130765291D01*
X93159389Y-130613626D01*
X93089585Y-130445104D01*
X93054000Y-130266203D01*
X93054000Y-130083797D01*
X93089585Y-129904896D01*
X93159389Y-129736374D01*
X93260728Y-129584709D01*
X93389709Y-129455728D01*
X93541374Y-129354389D01*
X93709896Y-129284585D01*
X93888797Y-129249000D01*
X94071203Y-129249000D01*
X94250104Y-129284585D01*
X94250104Y-129284585D01*
G37*
G36*
X132350104Y-129284585D02*
G01*
X132518626Y-129354389D01*
X132670291Y-129455728D01*
X132799272Y-129584709D01*
X132900611Y-129736374D01*
X132970415Y-129904896D01*
X133006000Y-130083797D01*
X133006000Y-130266203D01*
X132970415Y-130445104D01*
X132900611Y-130613626D01*
X132799272Y-130765291D01*
X132670291Y-130894272D01*
X132518626Y-130995611D01*
X132350104Y-131065415D01*
X132171203Y-131101000D01*
X131988797Y-131101000D01*
X131809896Y-131065415D01*
X131641374Y-130995611D01*
X131489709Y-130894272D01*
X131360728Y-130765291D01*
X131259389Y-130613626D01*
X131189585Y-130445104D01*
X131154000Y-130266203D01*
X131154000Y-130083797D01*
X131189585Y-129904896D01*
X131259389Y-129736374D01*
X131360728Y-129584709D01*
X131489709Y-129455728D01*
X131641374Y-129354389D01*
X131809896Y-129284585D01*
X131988797Y-129249000D01*
X132171203Y-129249000D01*
X132350104Y-129284585D01*
X132350104Y-129284585D01*
G37*
G36*
X79944085Y-126711475D02*
G01*
X80299143Y-126858545D01*
X80299145Y-126858546D01*
X80618690Y-127072059D01*
X80890441Y-127343810D01*
X81103954Y-127663355D01*
X81103955Y-127663357D01*
X81251025Y-128018415D01*
X81326000Y-128395342D01*
X81326000Y-128779658D01*
X81251025Y-129156585D01*
X81127116Y-129455728D01*
X81103954Y-129511645D01*
X80890441Y-129831190D01*
X80618690Y-130102941D01*
X80299145Y-130316454D01*
X80299144Y-130316455D01*
X80299143Y-130316455D01*
X79944085Y-130463525D01*
X79567158Y-130538500D01*
X79182842Y-130538500D01*
X78805915Y-130463525D01*
X78450857Y-130316455D01*
X78450856Y-130316455D01*
X78450855Y-130316454D01*
X78131310Y-130102941D01*
X77859559Y-129831190D01*
X77646046Y-129511645D01*
X77622884Y-129455728D01*
X77498975Y-129156585D01*
X77424000Y-128779658D01*
X77424000Y-128395342D01*
X77498975Y-128018415D01*
X77646045Y-127663357D01*
X77646046Y-127663355D01*
X77859559Y-127343810D01*
X78131310Y-127072059D01*
X78450855Y-126858546D01*
X78450857Y-126858545D01*
X78805915Y-126711475D01*
X79182842Y-126636500D01*
X79567158Y-126636500D01*
X79944085Y-126711475D01*
X79944085Y-126711475D01*
G37*
G36*
X118044085Y-126711475D02*
G01*
X118399143Y-126858545D01*
X118399145Y-126858546D01*
X118718690Y-127072059D01*
X118990441Y-127343810D01*
X119203954Y-127663355D01*
X119203955Y-127663357D01*
X119351025Y-128018415D01*
X119426000Y-128395342D01*
X119426000Y-128779658D01*
X119351025Y-129156585D01*
X119227116Y-129455728D01*
X119203954Y-129511645D01*
X118990441Y-129831190D01*
X118718690Y-130102941D01*
X118399145Y-130316454D01*
X118399144Y-130316455D01*
X118399143Y-130316455D01*
X118044085Y-130463525D01*
X117667158Y-130538500D01*
X117282842Y-130538500D01*
X116905915Y-130463525D01*
X116550857Y-130316455D01*
X116550856Y-130316455D01*
X116550855Y-130316454D01*
X116231310Y-130102941D01*
X115959559Y-129831190D01*
X115746046Y-129511645D01*
X115722884Y-129455728D01*
X115598975Y-129156585D01*
X115524000Y-128779658D01*
X115524000Y-128395342D01*
X115598975Y-128018415D01*
X115746045Y-127663357D01*
X115746046Y-127663355D01*
X115959559Y-127343810D01*
X116231310Y-127072059D01*
X116550855Y-126858546D01*
X116550857Y-126858545D01*
X116905915Y-126711475D01*
X117282842Y-126636500D01*
X117667158Y-126636500D01*
X118044085Y-126711475D01*
X118044085Y-126711475D01*
G37*
G36*
X127596474Y-109158684D02*
G01*
X127814474Y-109248983D01*
X127968623Y-109312833D01*
X128303548Y-109536623D01*
X128588377Y-109821452D01*
X128812167Y-110156377D01*
X128844562Y-110234586D01*
X128966316Y-110528526D01*
X129044900Y-110923594D01*
X129044900Y-111326406D01*
X128966316Y-111721474D01*
X128915451Y-111844272D01*
X128812167Y-112093623D01*
X128588377Y-112428548D01*
X128303548Y-112713377D01*
X127968623Y-112937167D01*
X127814474Y-113001017D01*
X127596474Y-113091316D01*
X127201406Y-113169900D01*
X126798594Y-113169900D01*
X126403526Y-113091316D01*
X126185526Y-113001017D01*
X126031377Y-112937167D01*
X125696452Y-112713377D01*
X125411623Y-112428548D01*
X125187833Y-112093623D01*
X125084549Y-111844272D01*
X125033684Y-111721474D01*
X124955100Y-111326406D01*
X124955100Y-110923594D01*
X125033684Y-110528526D01*
X125155438Y-110234586D01*
X125187833Y-110156377D01*
X125411623Y-109821452D01*
X125696452Y-109536623D01*
X126031377Y-109312833D01*
X126185526Y-109248983D01*
X126403526Y-109158684D01*
X126798594Y-109080100D01*
X127201406Y-109080100D01*
X127596474Y-109158684D01*
X127596474Y-109158684D01*
G37*
G36*
X108546474Y-109158684D02*
G01*
X108764474Y-109248983D01*
X108918623Y-109312833D01*
X109253548Y-109536623D01*
X109538377Y-109821452D01*
X109762167Y-110156377D01*
X109794562Y-110234586D01*
X109916316Y-110528526D01*
X109994900Y-110923594D01*
X109994900Y-111326406D01*
X109916316Y-111721474D01*
X109865451Y-111844272D01*
X109762167Y-112093623D01*
X109538377Y-112428548D01*
X109253548Y-112713377D01*
X108918623Y-112937167D01*
X108764474Y-113001017D01*
X108546474Y-113091316D01*
X108151406Y-113169900D01*
X107748594Y-113169900D01*
X107353526Y-113091316D01*
X107135526Y-113001017D01*
X106981377Y-112937167D01*
X106646452Y-112713377D01*
X106361623Y-112428548D01*
X106137833Y-112093623D01*
X106034549Y-111844272D01*
X105983684Y-111721474D01*
X105905100Y-111326406D01*
X105905100Y-110923594D01*
X105983684Y-110528526D01*
X106105438Y-110234586D01*
X106137833Y-110156377D01*
X106361623Y-109821452D01*
X106646452Y-109536623D01*
X106981377Y-109312833D01*
X107135526Y-109248983D01*
X107353526Y-109158684D01*
X107748594Y-109080100D01*
X108151406Y-109080100D01*
X108546474Y-109158684D01*
X108546474Y-109158684D01*
G37*
G36*
X89496474Y-109158684D02*
G01*
X89714474Y-109248983D01*
X89868623Y-109312833D01*
X90203548Y-109536623D01*
X90488377Y-109821452D01*
X90712167Y-110156377D01*
X90744562Y-110234586D01*
X90866316Y-110528526D01*
X90944900Y-110923594D01*
X90944900Y-111326406D01*
X90866316Y-111721474D01*
X90815451Y-111844272D01*
X90712167Y-112093623D01*
X90488377Y-112428548D01*
X90203548Y-112713377D01*
X89868623Y-112937167D01*
X89714474Y-113001017D01*
X89496474Y-113091316D01*
X89101406Y-113169900D01*
X88698594Y-113169900D01*
X88303526Y-113091316D01*
X88085526Y-113001017D01*
X87931377Y-112937167D01*
X87596452Y-112713377D01*
X87311623Y-112428548D01*
X87087833Y-112093623D01*
X86984549Y-111844272D01*
X86933684Y-111721474D01*
X86855100Y-111326406D01*
X86855100Y-110923594D01*
X86933684Y-110528526D01*
X87055438Y-110234586D01*
X87087833Y-110156377D01*
X87311623Y-109821452D01*
X87596452Y-109536623D01*
X87931377Y-109312833D01*
X88085526Y-109248983D01*
X88303526Y-109158684D01*
X88698594Y-109080100D01*
X89101406Y-109080100D01*
X89496474Y-109158684D01*
X89496474Y-109158684D01*
G37*
G36*
X70446474Y-109158684D02*
G01*
X70664474Y-109248983D01*
X70818623Y-109312833D01*
X71153548Y-109536623D01*
X71438377Y-109821452D01*
X71662167Y-110156377D01*
X71694562Y-110234586D01*
X71816316Y-110528526D01*
X71894900Y-110923594D01*
X71894900Y-111326406D01*
X71816316Y-111721474D01*
X71765451Y-111844272D01*
X71662167Y-112093623D01*
X71438377Y-112428548D01*
X71153548Y-112713377D01*
X70818623Y-112937167D01*
X70664474Y-113001017D01*
X70446474Y-113091316D01*
X70051406Y-113169900D01*
X69648594Y-113169900D01*
X69253526Y-113091316D01*
X69035526Y-113001017D01*
X68881377Y-112937167D01*
X68546452Y-112713377D01*
X68261623Y-112428548D01*
X68037833Y-112093623D01*
X67934549Y-111844272D01*
X67883684Y-111721474D01*
X67805100Y-111326406D01*
X67805100Y-110923594D01*
X67883684Y-110528526D01*
X68005438Y-110234586D01*
X68037833Y-110156377D01*
X68261623Y-109821452D01*
X68546452Y-109536623D01*
X68881377Y-109312833D01*
X69035526Y-109248983D01*
X69253526Y-109158684D01*
X69648594Y-109080100D01*
X70051406Y-109080100D01*
X70446474Y-109158684D01*
X70446474Y-109158684D01*
G37*
G36*
X84090104Y-110234585D02*
G01*
X84258626Y-110304389D01*
X84410291Y-110405728D01*
X84539272Y-110534709D01*
X84640611Y-110686374D01*
X84710415Y-110854896D01*
X84746000Y-111033797D01*
X84746000Y-111216203D01*
X84710415Y-111395104D01*
X84640611Y-111563626D01*
X84539272Y-111715291D01*
X84410291Y-111844272D01*
X84258626Y-111945611D01*
X84090104Y-112015415D01*
X83911203Y-112051000D01*
X83728797Y-112051000D01*
X83549896Y-112015415D01*
X83381374Y-111945611D01*
X83229709Y-111844272D01*
X83100728Y-111715291D01*
X82999389Y-111563626D01*
X82929585Y-111395104D01*
X82894000Y-111216203D01*
X82894000Y-111033797D01*
X82929585Y-110854896D01*
X82999389Y-110686374D01*
X83100728Y-110534709D01*
X83229709Y-110405728D01*
X83381374Y-110304389D01*
X83549896Y-110234585D01*
X83728797Y-110199000D01*
X83911203Y-110199000D01*
X84090104Y-110234585D01*
X84090104Y-110234585D01*
G37*
G36*
X65040104Y-110234585D02*
G01*
X65208626Y-110304389D01*
X65360291Y-110405728D01*
X65489272Y-110534709D01*
X65590611Y-110686374D01*
X65660415Y-110854896D01*
X65696000Y-111033797D01*
X65696000Y-111216203D01*
X65660415Y-111395104D01*
X65590611Y-111563626D01*
X65489272Y-111715291D01*
X65360291Y-111844272D01*
X65208626Y-111945611D01*
X65040104Y-112015415D01*
X64861203Y-112051000D01*
X64678797Y-112051000D01*
X64499896Y-112015415D01*
X64331374Y-111945611D01*
X64179709Y-111844272D01*
X64050728Y-111715291D01*
X63949389Y-111563626D01*
X63879585Y-111395104D01*
X63844000Y-111216203D01*
X63844000Y-111033797D01*
X63879585Y-110854896D01*
X63949389Y-110686374D01*
X64050728Y-110534709D01*
X64179709Y-110405728D01*
X64331374Y-110304389D01*
X64499896Y-110234585D01*
X64678797Y-110199000D01*
X64861203Y-110199000D01*
X65040104Y-110234585D01*
X65040104Y-110234585D01*
G37*
G36*
X75200104Y-110234585D02*
G01*
X75368626Y-110304389D01*
X75520291Y-110405728D01*
X75649272Y-110534709D01*
X75750611Y-110686374D01*
X75820415Y-110854896D01*
X75856000Y-111033797D01*
X75856000Y-111216203D01*
X75820415Y-111395104D01*
X75750611Y-111563626D01*
X75649272Y-111715291D01*
X75520291Y-111844272D01*
X75368626Y-111945611D01*
X75200104Y-112015415D01*
X75021203Y-112051000D01*
X74838797Y-112051000D01*
X74659896Y-112015415D01*
X74491374Y-111945611D01*
X74339709Y-111844272D01*
X74210728Y-111715291D01*
X74109389Y-111563626D01*
X74039585Y-111395104D01*
X74004000Y-111216203D01*
X74004000Y-111033797D01*
X74039585Y-110854896D01*
X74109389Y-110686374D01*
X74210728Y-110534709D01*
X74339709Y-110405728D01*
X74491374Y-110304389D01*
X74659896Y-110234585D01*
X74838797Y-110199000D01*
X75021203Y-110199000D01*
X75200104Y-110234585D01*
X75200104Y-110234585D01*
G37*
G36*
X94250104Y-110234585D02*
G01*
X94418626Y-110304389D01*
X94570291Y-110405728D01*
X94699272Y-110534709D01*
X94800611Y-110686374D01*
X94870415Y-110854896D01*
X94906000Y-111033797D01*
X94906000Y-111216203D01*
X94870415Y-111395104D01*
X94800611Y-111563626D01*
X94699272Y-111715291D01*
X94570291Y-111844272D01*
X94418626Y-111945611D01*
X94250104Y-112015415D01*
X94071203Y-112051000D01*
X93888797Y-112051000D01*
X93709896Y-112015415D01*
X93541374Y-111945611D01*
X93389709Y-111844272D01*
X93260728Y-111715291D01*
X93159389Y-111563626D01*
X93089585Y-111395104D01*
X93054000Y-111216203D01*
X93054000Y-111033797D01*
X93089585Y-110854896D01*
X93159389Y-110686374D01*
X93260728Y-110534709D01*
X93389709Y-110405728D01*
X93541374Y-110304389D01*
X93709896Y-110234585D01*
X93888797Y-110199000D01*
X94071203Y-110199000D01*
X94250104Y-110234585D01*
X94250104Y-110234585D01*
G37*
G36*
X103140104Y-110234585D02*
G01*
X103308626Y-110304389D01*
X103460291Y-110405728D01*
X103589272Y-110534709D01*
X103690611Y-110686374D01*
X103760415Y-110854896D01*
X103796000Y-111033797D01*
X103796000Y-111216203D01*
X103760415Y-111395104D01*
X103690611Y-111563626D01*
X103589272Y-111715291D01*
X103460291Y-111844272D01*
X103308626Y-111945611D01*
X103140104Y-112015415D01*
X102961203Y-112051000D01*
X102778797Y-112051000D01*
X102599896Y-112015415D01*
X102431374Y-111945611D01*
X102279709Y-111844272D01*
X102150728Y-111715291D01*
X102049389Y-111563626D01*
X101979585Y-111395104D01*
X101944000Y-111216203D01*
X101944000Y-111033797D01*
X101979585Y-110854896D01*
X102049389Y-110686374D01*
X102150728Y-110534709D01*
X102279709Y-110405728D01*
X102431374Y-110304389D01*
X102599896Y-110234585D01*
X102778797Y-110199000D01*
X102961203Y-110199000D01*
X103140104Y-110234585D01*
X103140104Y-110234585D01*
G37*
G36*
X122190104Y-110234585D02*
G01*
X122358626Y-110304389D01*
X122510291Y-110405728D01*
X122639272Y-110534709D01*
X122740611Y-110686374D01*
X122810415Y-110854896D01*
X122846000Y-111033797D01*
X122846000Y-111216203D01*
X122810415Y-111395104D01*
X122740611Y-111563626D01*
X122639272Y-111715291D01*
X122510291Y-111844272D01*
X122358626Y-111945611D01*
X122190104Y-112015415D01*
X122011203Y-112051000D01*
X121828797Y-112051000D01*
X121649896Y-112015415D01*
X121481374Y-111945611D01*
X121329709Y-111844272D01*
X121200728Y-111715291D01*
X121099389Y-111563626D01*
X121029585Y-111395104D01*
X120994000Y-111216203D01*
X120994000Y-111033797D01*
X121029585Y-110854896D01*
X121099389Y-110686374D01*
X121200728Y-110534709D01*
X121329709Y-110405728D01*
X121481374Y-110304389D01*
X121649896Y-110234585D01*
X121828797Y-110199000D01*
X122011203Y-110199000D01*
X122190104Y-110234585D01*
X122190104Y-110234585D01*
G37*
G36*
X113300104Y-110234585D02*
G01*
X113468626Y-110304389D01*
X113620291Y-110405728D01*
X113749272Y-110534709D01*
X113850611Y-110686374D01*
X113920415Y-110854896D01*
X113956000Y-111033797D01*
X113956000Y-111216203D01*
X113920415Y-111395104D01*
X113850611Y-111563626D01*
X113749272Y-111715291D01*
X113620291Y-111844272D01*
X113468626Y-111945611D01*
X113300104Y-112015415D01*
X113121203Y-112051000D01*
X112938797Y-112051000D01*
X112759896Y-112015415D01*
X112591374Y-111945611D01*
X112439709Y-111844272D01*
X112310728Y-111715291D01*
X112209389Y-111563626D01*
X112139585Y-111395104D01*
X112104000Y-111216203D01*
X112104000Y-111033797D01*
X112139585Y-110854896D01*
X112209389Y-110686374D01*
X112310728Y-110534709D01*
X112439709Y-110405728D01*
X112591374Y-110304389D01*
X112759896Y-110234585D01*
X112938797Y-110199000D01*
X113121203Y-110199000D01*
X113300104Y-110234585D01*
X113300104Y-110234585D01*
G37*
G36*
X132350104Y-110234585D02*
G01*
X132518626Y-110304389D01*
X132670291Y-110405728D01*
X132799272Y-110534709D01*
X132900611Y-110686374D01*
X132970415Y-110854896D01*
X133006000Y-111033797D01*
X133006000Y-111216203D01*
X132970415Y-111395104D01*
X132900611Y-111563626D01*
X132799272Y-111715291D01*
X132670291Y-111844272D01*
X132518626Y-111945611D01*
X132350104Y-112015415D01*
X132171203Y-112051000D01*
X131988797Y-112051000D01*
X131809896Y-112015415D01*
X131641374Y-111945611D01*
X131489709Y-111844272D01*
X131360728Y-111715291D01*
X131259389Y-111563626D01*
X131189585Y-111395104D01*
X131154000Y-111216203D01*
X131154000Y-111033797D01*
X131189585Y-110854896D01*
X131259389Y-110686374D01*
X131360728Y-110534709D01*
X131489709Y-110405728D01*
X131641374Y-110304389D01*
X131809896Y-110234585D01*
X131988797Y-110199000D01*
X132171203Y-110199000D01*
X132350104Y-110234585D01*
X132350104Y-110234585D01*
G37*
G36*
X70446474Y-90108684D02*
G01*
X70664474Y-90198983D01*
X70818623Y-90262833D01*
X71153548Y-90486623D01*
X71438377Y-90771452D01*
X71662167Y-91106377D01*
X71694562Y-91184586D01*
X71816316Y-91478526D01*
X71894900Y-91873594D01*
X71894900Y-92276406D01*
X71816316Y-92671474D01*
X71765451Y-92794272D01*
X71662167Y-93043623D01*
X71438377Y-93378548D01*
X71153548Y-93663377D01*
X70818623Y-93887167D01*
X70664474Y-93951017D01*
X70446474Y-94041316D01*
X70051406Y-94119900D01*
X69648594Y-94119900D01*
X69253526Y-94041316D01*
X69035526Y-93951017D01*
X68881377Y-93887167D01*
X68546452Y-93663377D01*
X68261623Y-93378548D01*
X68037833Y-93043623D01*
X67934549Y-92794272D01*
X67883684Y-92671474D01*
X67805100Y-92276406D01*
X67805100Y-91873594D01*
X67883684Y-91478526D01*
X68005438Y-91184586D01*
X68037833Y-91106377D01*
X68261623Y-90771452D01*
X68546452Y-90486623D01*
X68881377Y-90262833D01*
X69035526Y-90198983D01*
X69253526Y-90108684D01*
X69648594Y-90030100D01*
X70051406Y-90030100D01*
X70446474Y-90108684D01*
X70446474Y-90108684D01*
G37*
G36*
X108546474Y-90108684D02*
G01*
X108764474Y-90198983D01*
X108918623Y-90262833D01*
X109253548Y-90486623D01*
X109538377Y-90771452D01*
X109762167Y-91106377D01*
X109794562Y-91184586D01*
X109916316Y-91478526D01*
X109994900Y-91873594D01*
X109994900Y-92276406D01*
X109916316Y-92671474D01*
X109865451Y-92794272D01*
X109762167Y-93043623D01*
X109538377Y-93378548D01*
X109253548Y-93663377D01*
X108918623Y-93887167D01*
X108764474Y-93951017D01*
X108546474Y-94041316D01*
X108151406Y-94119900D01*
X107748594Y-94119900D01*
X107353526Y-94041316D01*
X107135526Y-93951017D01*
X106981377Y-93887167D01*
X106646452Y-93663377D01*
X106361623Y-93378548D01*
X106137833Y-93043623D01*
X106034549Y-92794272D01*
X105983684Y-92671474D01*
X105905100Y-92276406D01*
X105905100Y-91873594D01*
X105983684Y-91478526D01*
X106105438Y-91184586D01*
X106137833Y-91106377D01*
X106361623Y-90771452D01*
X106646452Y-90486623D01*
X106981377Y-90262833D01*
X107135526Y-90198983D01*
X107353526Y-90108684D01*
X107748594Y-90030100D01*
X108151406Y-90030100D01*
X108546474Y-90108684D01*
X108546474Y-90108684D01*
G37*
G36*
X89496474Y-90108684D02*
G01*
X89714474Y-90198983D01*
X89868623Y-90262833D01*
X90203548Y-90486623D01*
X90488377Y-90771452D01*
X90712167Y-91106377D01*
X90744562Y-91184586D01*
X90866316Y-91478526D01*
X90944900Y-91873594D01*
X90944900Y-92276406D01*
X90866316Y-92671474D01*
X90815451Y-92794272D01*
X90712167Y-93043623D01*
X90488377Y-93378548D01*
X90203548Y-93663377D01*
X89868623Y-93887167D01*
X89714474Y-93951017D01*
X89496474Y-94041316D01*
X89101406Y-94119900D01*
X88698594Y-94119900D01*
X88303526Y-94041316D01*
X88085526Y-93951017D01*
X87931377Y-93887167D01*
X87596452Y-93663377D01*
X87311623Y-93378548D01*
X87087833Y-93043623D01*
X86984549Y-92794272D01*
X86933684Y-92671474D01*
X86855100Y-92276406D01*
X86855100Y-91873594D01*
X86933684Y-91478526D01*
X87055438Y-91184586D01*
X87087833Y-91106377D01*
X87311623Y-90771452D01*
X87596452Y-90486623D01*
X87931377Y-90262833D01*
X88085526Y-90198983D01*
X88303526Y-90108684D01*
X88698594Y-90030100D01*
X89101406Y-90030100D01*
X89496474Y-90108684D01*
X89496474Y-90108684D01*
G37*
G36*
X127596474Y-90108684D02*
G01*
X127814474Y-90198983D01*
X127968623Y-90262833D01*
X128303548Y-90486623D01*
X128588377Y-90771452D01*
X128812167Y-91106377D01*
X128844562Y-91184586D01*
X128966316Y-91478526D01*
X129044900Y-91873594D01*
X129044900Y-92276406D01*
X128966316Y-92671474D01*
X128915451Y-92794272D01*
X128812167Y-93043623D01*
X128588377Y-93378548D01*
X128303548Y-93663377D01*
X127968623Y-93887167D01*
X127814474Y-93951017D01*
X127596474Y-94041316D01*
X127201406Y-94119900D01*
X126798594Y-94119900D01*
X126403526Y-94041316D01*
X126185526Y-93951017D01*
X126031377Y-93887167D01*
X125696452Y-93663377D01*
X125411623Y-93378548D01*
X125187833Y-93043623D01*
X125084549Y-92794272D01*
X125033684Y-92671474D01*
X124955100Y-92276406D01*
X124955100Y-91873594D01*
X125033684Y-91478526D01*
X125155438Y-91184586D01*
X125187833Y-91106377D01*
X125411623Y-90771452D01*
X125696452Y-90486623D01*
X126031377Y-90262833D01*
X126185526Y-90198983D01*
X126403526Y-90108684D01*
X126798594Y-90030100D01*
X127201406Y-90030100D01*
X127596474Y-90108684D01*
X127596474Y-90108684D01*
G37*
G36*
X65040104Y-91184585D02*
G01*
X65208626Y-91254389D01*
X65360291Y-91355728D01*
X65489272Y-91484709D01*
X65590611Y-91636374D01*
X65660415Y-91804896D01*
X65696000Y-91983797D01*
X65696000Y-92166203D01*
X65660415Y-92345104D01*
X65590611Y-92513626D01*
X65489272Y-92665291D01*
X65360291Y-92794272D01*
X65208626Y-92895611D01*
X65040104Y-92965415D01*
X64861203Y-93001000D01*
X64678797Y-93001000D01*
X64499896Y-92965415D01*
X64331374Y-92895611D01*
X64179709Y-92794272D01*
X64050728Y-92665291D01*
X63949389Y-92513626D01*
X63879585Y-92345104D01*
X63844000Y-92166203D01*
X63844000Y-91983797D01*
X63879585Y-91804896D01*
X63949389Y-91636374D01*
X64050728Y-91484709D01*
X64179709Y-91355728D01*
X64331374Y-91254389D01*
X64499896Y-91184585D01*
X64678797Y-91149000D01*
X64861203Y-91149000D01*
X65040104Y-91184585D01*
X65040104Y-91184585D01*
G37*
G36*
X75200104Y-91184585D02*
G01*
X75368626Y-91254389D01*
X75520291Y-91355728D01*
X75649272Y-91484709D01*
X75750611Y-91636374D01*
X75820415Y-91804896D01*
X75856000Y-91983797D01*
X75856000Y-92166203D01*
X75820415Y-92345104D01*
X75750611Y-92513626D01*
X75649272Y-92665291D01*
X75520291Y-92794272D01*
X75368626Y-92895611D01*
X75200104Y-92965415D01*
X75021203Y-93001000D01*
X74838797Y-93001000D01*
X74659896Y-92965415D01*
X74491374Y-92895611D01*
X74339709Y-92794272D01*
X74210728Y-92665291D01*
X74109389Y-92513626D01*
X74039585Y-92345104D01*
X74004000Y-92166203D01*
X74004000Y-91983797D01*
X74039585Y-91804896D01*
X74109389Y-91636374D01*
X74210728Y-91484709D01*
X74339709Y-91355728D01*
X74491374Y-91254389D01*
X74659896Y-91184585D01*
X74838797Y-91149000D01*
X75021203Y-91149000D01*
X75200104Y-91184585D01*
X75200104Y-91184585D01*
G37*
G36*
X84090104Y-91184585D02*
G01*
X84258626Y-91254389D01*
X84410291Y-91355728D01*
X84539272Y-91484709D01*
X84640611Y-91636374D01*
X84710415Y-91804896D01*
X84746000Y-91983797D01*
X84746000Y-92166203D01*
X84710415Y-92345104D01*
X84640611Y-92513626D01*
X84539272Y-92665291D01*
X84410291Y-92794272D01*
X84258626Y-92895611D01*
X84090104Y-92965415D01*
X83911203Y-93001000D01*
X83728797Y-93001000D01*
X83549896Y-92965415D01*
X83381374Y-92895611D01*
X83229709Y-92794272D01*
X83100728Y-92665291D01*
X82999389Y-92513626D01*
X82929585Y-92345104D01*
X82894000Y-92166203D01*
X82894000Y-91983797D01*
X82929585Y-91804896D01*
X82999389Y-91636374D01*
X83100728Y-91484709D01*
X83229709Y-91355728D01*
X83381374Y-91254389D01*
X83549896Y-91184585D01*
X83728797Y-91149000D01*
X83911203Y-91149000D01*
X84090104Y-91184585D01*
X84090104Y-91184585D01*
G37*
G36*
X132350104Y-91184585D02*
G01*
X132518626Y-91254389D01*
X132670291Y-91355728D01*
X132799272Y-91484709D01*
X132900611Y-91636374D01*
X132970415Y-91804896D01*
X133006000Y-91983797D01*
X133006000Y-92166203D01*
X132970415Y-92345104D01*
X132900611Y-92513626D01*
X132799272Y-92665291D01*
X132670291Y-92794272D01*
X132518626Y-92895611D01*
X132350104Y-92965415D01*
X132171203Y-93001000D01*
X131988797Y-93001000D01*
X131809896Y-92965415D01*
X131641374Y-92895611D01*
X131489709Y-92794272D01*
X131360728Y-92665291D01*
X131259389Y-92513626D01*
X131189585Y-92345104D01*
X131154000Y-92166203D01*
X131154000Y-91983797D01*
X131189585Y-91804896D01*
X131259389Y-91636374D01*
X131360728Y-91484709D01*
X131489709Y-91355728D01*
X131641374Y-91254389D01*
X131809896Y-91184585D01*
X131988797Y-91149000D01*
X132171203Y-91149000D01*
X132350104Y-91184585D01*
X132350104Y-91184585D01*
G37*
G36*
X113300104Y-91184585D02*
G01*
X113468626Y-91254389D01*
X113620291Y-91355728D01*
X113749272Y-91484709D01*
X113850611Y-91636374D01*
X113920415Y-91804896D01*
X113956000Y-91983797D01*
X113956000Y-92166203D01*
X113920415Y-92345104D01*
X113850611Y-92513626D01*
X113749272Y-92665291D01*
X113620291Y-92794272D01*
X113468626Y-92895611D01*
X113300104Y-92965415D01*
X113121203Y-93001000D01*
X112938797Y-93001000D01*
X112759896Y-92965415D01*
X112591374Y-92895611D01*
X112439709Y-92794272D01*
X112310728Y-92665291D01*
X112209389Y-92513626D01*
X112139585Y-92345104D01*
X112104000Y-92166203D01*
X112104000Y-91983797D01*
X112139585Y-91804896D01*
X112209389Y-91636374D01*
X112310728Y-91484709D01*
X112439709Y-91355728D01*
X112591374Y-91254389D01*
X112759896Y-91184585D01*
X112938797Y-91149000D01*
X113121203Y-91149000D01*
X113300104Y-91184585D01*
X113300104Y-91184585D01*
G37*
G36*
X122190104Y-91184585D02*
G01*
X122358626Y-91254389D01*
X122510291Y-91355728D01*
X122639272Y-91484709D01*
X122740611Y-91636374D01*
X122810415Y-91804896D01*
X122846000Y-91983797D01*
X122846000Y-92166203D01*
X122810415Y-92345104D01*
X122740611Y-92513626D01*
X122639272Y-92665291D01*
X122510291Y-92794272D01*
X122358626Y-92895611D01*
X122190104Y-92965415D01*
X122011203Y-93001000D01*
X121828797Y-93001000D01*
X121649896Y-92965415D01*
X121481374Y-92895611D01*
X121329709Y-92794272D01*
X121200728Y-92665291D01*
X121099389Y-92513626D01*
X121029585Y-92345104D01*
X120994000Y-92166203D01*
X120994000Y-91983797D01*
X121029585Y-91804896D01*
X121099389Y-91636374D01*
X121200728Y-91484709D01*
X121329709Y-91355728D01*
X121481374Y-91254389D01*
X121649896Y-91184585D01*
X121828797Y-91149000D01*
X122011203Y-91149000D01*
X122190104Y-91184585D01*
X122190104Y-91184585D01*
G37*
G36*
X94250104Y-91184585D02*
G01*
X94418626Y-91254389D01*
X94570291Y-91355728D01*
X94699272Y-91484709D01*
X94800611Y-91636374D01*
X94870415Y-91804896D01*
X94906000Y-91983797D01*
X94906000Y-92166203D01*
X94870415Y-92345104D01*
X94800611Y-92513626D01*
X94699272Y-92665291D01*
X94570291Y-92794272D01*
X94418626Y-92895611D01*
X94250104Y-92965415D01*
X94071203Y-93001000D01*
X93888797Y-93001000D01*
X93709896Y-92965415D01*
X93541374Y-92895611D01*
X93389709Y-92794272D01*
X93260728Y-92665291D01*
X93159389Y-92513626D01*
X93089585Y-92345104D01*
X93054000Y-92166203D01*
X93054000Y-91983797D01*
X93089585Y-91804896D01*
X93159389Y-91636374D01*
X93260728Y-91484709D01*
X93389709Y-91355728D01*
X93541374Y-91254389D01*
X93709896Y-91184585D01*
X93888797Y-91149000D01*
X94071203Y-91149000D01*
X94250104Y-91184585D01*
X94250104Y-91184585D01*
G37*
G36*
X103140104Y-91184585D02*
G01*
X103308626Y-91254389D01*
X103460291Y-91355728D01*
X103589272Y-91484709D01*
X103690611Y-91636374D01*
X103760415Y-91804896D01*
X103796000Y-91983797D01*
X103796000Y-92166203D01*
X103760415Y-92345104D01*
X103690611Y-92513626D01*
X103589272Y-92665291D01*
X103460291Y-92794272D01*
X103308626Y-92895611D01*
X103140104Y-92965415D01*
X102961203Y-93001000D01*
X102778797Y-93001000D01*
X102599896Y-92965415D01*
X102431374Y-92895611D01*
X102279709Y-92794272D01*
X102150728Y-92665291D01*
X102049389Y-92513626D01*
X101979585Y-92345104D01*
X101944000Y-92166203D01*
X101944000Y-91983797D01*
X101979585Y-91804896D01*
X102049389Y-91636374D01*
X102150728Y-91484709D01*
X102279709Y-91355728D01*
X102431374Y-91254389D01*
X102599896Y-91184585D01*
X102778797Y-91149000D01*
X102961203Y-91149000D01*
X103140104Y-91184585D01*
X103140104Y-91184585D01*
G37*
G36*
X79944085Y-88611475D02*
G01*
X80299143Y-88758545D01*
X80299145Y-88758546D01*
X80618690Y-88972059D01*
X80890441Y-89243810D01*
X81103954Y-89563355D01*
X81103955Y-89563357D01*
X81251025Y-89918415D01*
X81326000Y-90295342D01*
X81326000Y-90679658D01*
X81251025Y-91056585D01*
X81127116Y-91355728D01*
X81103954Y-91411645D01*
X80890441Y-91731190D01*
X80618690Y-92002941D01*
X80299145Y-92216454D01*
X80299144Y-92216455D01*
X80299143Y-92216455D01*
X79944085Y-92363525D01*
X79567158Y-92438500D01*
X79182842Y-92438500D01*
X78805915Y-92363525D01*
X78450857Y-92216455D01*
X78450856Y-92216455D01*
X78450855Y-92216454D01*
X78131310Y-92002941D01*
X77859559Y-91731190D01*
X77646046Y-91411645D01*
X77622884Y-91355728D01*
X77498975Y-91056585D01*
X77424000Y-90679658D01*
X77424000Y-90295342D01*
X77498975Y-89918415D01*
X77646045Y-89563357D01*
X77646046Y-89563355D01*
X77859559Y-89243810D01*
X78131310Y-88972059D01*
X78450855Y-88758546D01*
X78450857Y-88758545D01*
X78805915Y-88611475D01*
X79182842Y-88536500D01*
X79567158Y-88536500D01*
X79944085Y-88611475D01*
X79944085Y-88611475D01*
G37*
G36*
X118044085Y-88611475D02*
G01*
X118399143Y-88758545D01*
X118399145Y-88758546D01*
X118718690Y-88972059D01*
X118990441Y-89243810D01*
X119203954Y-89563355D01*
X119203955Y-89563357D01*
X119351025Y-89918415D01*
X119426000Y-90295342D01*
X119426000Y-90679658D01*
X119351025Y-91056585D01*
X119227116Y-91355728D01*
X119203954Y-91411645D01*
X118990441Y-91731190D01*
X118718690Y-92002941D01*
X118399145Y-92216454D01*
X118399144Y-92216455D01*
X118399143Y-92216455D01*
X118044085Y-92363525D01*
X117667158Y-92438500D01*
X117282842Y-92438500D01*
X116905915Y-92363525D01*
X116550857Y-92216455D01*
X116550856Y-92216455D01*
X116550855Y-92216454D01*
X116231310Y-92002941D01*
X115959559Y-91731190D01*
X115746046Y-91411645D01*
X115722884Y-91355728D01*
X115598975Y-91056585D01*
X115524000Y-90679658D01*
X115524000Y-90295342D01*
X115598975Y-89918415D01*
X115746045Y-89563357D01*
X115746046Y-89563355D01*
X115959559Y-89243810D01*
X116231310Y-88972059D01*
X116550855Y-88758546D01*
X116550857Y-88758545D01*
X116905915Y-88611475D01*
X117282842Y-88536500D01*
X117667158Y-88536500D01*
X118044085Y-88611475D01*
X118044085Y-88611475D01*
G37*
G36*
X115048512Y-81336427D02*
G01*
X115197812Y-81366124D01*
X115361784Y-81434044D01*
X115509354Y-81532647D01*
X115634853Y-81658146D01*
X115733456Y-81805716D01*
X115801376Y-81969688D01*
X115836000Y-82143759D01*
X115836000Y-82321241D01*
X115801376Y-82495312D01*
X115733456Y-82659284D01*
X115634853Y-82806854D01*
X115509354Y-82932353D01*
X115361784Y-83030956D01*
X115197812Y-83098876D01*
X115048512Y-83128573D01*
X115023742Y-83133500D01*
X114846258Y-83133500D01*
X114821488Y-83128573D01*
X114672188Y-83098876D01*
X114508216Y-83030956D01*
X114360646Y-82932353D01*
X114235147Y-82806854D01*
X114136544Y-82659284D01*
X114068624Y-82495312D01*
X114034000Y-82321241D01*
X114034000Y-82143759D01*
X114068624Y-81969688D01*
X114136544Y-81805716D01*
X114235147Y-81658146D01*
X114360646Y-81532647D01*
X114508216Y-81434044D01*
X114672188Y-81366124D01*
X114821488Y-81336427D01*
X114846258Y-81331500D01*
X115023742Y-81331500D01*
X115048512Y-81336427D01*
X115048512Y-81336427D01*
G37*
G36*
X117588512Y-81336427D02*
G01*
X117737812Y-81366124D01*
X117901784Y-81434044D01*
X118049354Y-81532647D01*
X118174853Y-81658146D01*
X118273456Y-81805716D01*
X118341376Y-81969688D01*
X118376000Y-82143759D01*
X118376000Y-82321241D01*
X118341376Y-82495312D01*
X118273456Y-82659284D01*
X118174853Y-82806854D01*
X118049354Y-82932353D01*
X117901784Y-83030956D01*
X117737812Y-83098876D01*
X117588512Y-83128573D01*
X117563742Y-83133500D01*
X117386258Y-83133500D01*
X117361488Y-83128573D01*
X117212188Y-83098876D01*
X117048216Y-83030956D01*
X116900646Y-82932353D01*
X116775147Y-82806854D01*
X116676544Y-82659284D01*
X116608624Y-82495312D01*
X116574000Y-82321241D01*
X116574000Y-82143759D01*
X116608624Y-81969688D01*
X116676544Y-81805716D01*
X116775147Y-81658146D01*
X116900646Y-81532647D01*
X117048216Y-81434044D01*
X117212188Y-81366124D01*
X117361488Y-81336427D01*
X117386258Y-81331500D01*
X117563742Y-81331500D01*
X117588512Y-81336427D01*
X117588512Y-81336427D01*
G37*
G36*
X120128512Y-81336427D02*
G01*
X120277812Y-81366124D01*
X120441784Y-81434044D01*
X120589354Y-81532647D01*
X120714853Y-81658146D01*
X120813456Y-81805716D01*
X120881376Y-81969688D01*
X120916000Y-82143759D01*
X120916000Y-82321241D01*
X120881376Y-82495312D01*
X120813456Y-82659284D01*
X120714853Y-82806854D01*
X120589354Y-82932353D01*
X120441784Y-83030956D01*
X120277812Y-83098876D01*
X120128512Y-83128573D01*
X120103742Y-83133500D01*
X119926258Y-83133500D01*
X119901488Y-83128573D01*
X119752188Y-83098876D01*
X119588216Y-83030956D01*
X119440646Y-82932353D01*
X119315147Y-82806854D01*
X119216544Y-82659284D01*
X119148624Y-82495312D01*
X119114000Y-82321241D01*
X119114000Y-82143759D01*
X119148624Y-81969688D01*
X119216544Y-81805716D01*
X119315147Y-81658146D01*
X119440646Y-81532647D01*
X119588216Y-81434044D01*
X119752188Y-81366124D01*
X119901488Y-81336427D01*
X119926258Y-81331500D01*
X120103742Y-81331500D01*
X120128512Y-81336427D01*
X120128512Y-81336427D01*
G37*
G36*
X120916000Y-80593500D02*
G01*
X119114000Y-80593500D01*
X119114000Y-78791500D01*
X120916000Y-78791500D01*
X120916000Y-80593500D01*
X120916000Y-80593500D01*
G37*
G36*
X115048512Y-78796427D02*
G01*
X115197812Y-78826124D01*
X115361784Y-78894044D01*
X115509354Y-78992647D01*
X115634853Y-79118146D01*
X115733456Y-79265716D01*
X115801376Y-79429688D01*
X115836000Y-79603759D01*
X115836000Y-79781241D01*
X115801376Y-79955312D01*
X115733456Y-80119284D01*
X115634853Y-80266854D01*
X115509354Y-80392353D01*
X115361784Y-80490956D01*
X115197812Y-80558876D01*
X115048512Y-80588573D01*
X115023742Y-80593500D01*
X114846258Y-80593500D01*
X114821488Y-80588573D01*
X114672188Y-80558876D01*
X114508216Y-80490956D01*
X114360646Y-80392353D01*
X114235147Y-80266854D01*
X114136544Y-80119284D01*
X114068624Y-79955312D01*
X114034000Y-79781241D01*
X114034000Y-79603759D01*
X114068624Y-79429688D01*
X114136544Y-79265716D01*
X114235147Y-79118146D01*
X114360646Y-78992647D01*
X114508216Y-78894044D01*
X114672188Y-78826124D01*
X114821488Y-78796427D01*
X114846258Y-78791500D01*
X115023742Y-78791500D01*
X115048512Y-78796427D01*
X115048512Y-78796427D01*
G37*
G36*
X117588512Y-78796427D02*
G01*
X117737812Y-78826124D01*
X117901784Y-78894044D01*
X118049354Y-78992647D01*
X118174853Y-79118146D01*
X118273456Y-79265716D01*
X118341376Y-79429688D01*
X118376000Y-79603759D01*
X118376000Y-79781241D01*
X118341376Y-79955312D01*
X118273456Y-80119284D01*
X118174853Y-80266854D01*
X118049354Y-80392353D01*
X117901784Y-80490956D01*
X117737812Y-80558876D01*
X117588512Y-80588573D01*
X117563742Y-80593500D01*
X117386258Y-80593500D01*
X117361488Y-80588573D01*
X117212188Y-80558876D01*
X117048216Y-80490956D01*
X116900646Y-80392353D01*
X116775147Y-80266854D01*
X116676544Y-80119284D01*
X116608624Y-79955312D01*
X116574000Y-79781241D01*
X116574000Y-79603759D01*
X116608624Y-79429688D01*
X116676544Y-79265716D01*
X116775147Y-79118146D01*
X116900646Y-78992647D01*
X117048216Y-78894044D01*
X117212188Y-78826124D01*
X117361488Y-78796427D01*
X117386258Y-78791500D01*
X117563742Y-78791500D01*
X117588512Y-78796427D01*
X117588512Y-78796427D01*
G37*
G36*
X109169064Y-75983139D02*
G01*
X109360333Y-76062365D01*
X109360335Y-76062366D01*
X109532473Y-76177385D01*
X109678865Y-76323777D01*
X109793885Y-76495917D01*
X109873111Y-76687186D01*
X109913500Y-76890234D01*
X109913500Y-77097266D01*
X109873111Y-77300314D01*
X109793885Y-77491583D01*
X109793884Y-77491585D01*
X109678865Y-77663723D01*
X109532473Y-77810115D01*
X109360335Y-77925134D01*
X109360334Y-77925135D01*
X109360333Y-77925135D01*
X109169064Y-78004361D01*
X108966016Y-78044750D01*
X108758984Y-78044750D01*
X108555936Y-78004361D01*
X108364667Y-77925135D01*
X108364666Y-77925135D01*
X108364665Y-77925134D01*
X108192527Y-77810115D01*
X108046135Y-77663723D01*
X107931116Y-77491585D01*
X107931115Y-77491583D01*
X107851889Y-77300314D01*
X107811500Y-77097266D01*
X107811500Y-76890234D01*
X107851889Y-76687186D01*
X107931115Y-76495917D01*
X108046135Y-76323777D01*
X108192527Y-76177385D01*
X108364665Y-76062366D01*
X108364667Y-76062365D01*
X108555936Y-75983139D01*
X108758984Y-75942750D01*
X108966016Y-75942750D01*
X109169064Y-75983139D01*
X109169064Y-75983139D01*
G37*
G36*
X107413500Y-78044750D02*
G01*
X105311500Y-78044750D01*
X105311500Y-75942750D01*
X107413500Y-75942750D01*
X107413500Y-78044750D01*
X107413500Y-78044750D01*
G37*
G36*
X124876000Y-78044750D02*
G01*
X122774000Y-78044750D01*
X122774000Y-75942750D01*
X124876000Y-75942750D01*
X124876000Y-78044750D01*
X124876000Y-78044750D01*
G37*
G36*
X129131564Y-75983139D02*
G01*
X129322833Y-76062365D01*
X129322835Y-76062366D01*
X129494973Y-76177385D01*
X129641365Y-76323777D01*
X129756385Y-76495917D01*
X129835611Y-76687186D01*
X129876000Y-76890234D01*
X129876000Y-77097266D01*
X129835611Y-77300314D01*
X129756385Y-77491583D01*
X129756384Y-77491585D01*
X129641365Y-77663723D01*
X129494973Y-77810115D01*
X129322835Y-77925134D01*
X129322834Y-77925135D01*
X129322833Y-77925135D01*
X129131564Y-78004361D01*
X128928516Y-78044750D01*
X128721484Y-78044750D01*
X128518436Y-78004361D01*
X128327167Y-77925135D01*
X128327166Y-77925135D01*
X128327165Y-77925134D01*
X128155027Y-77810115D01*
X128008635Y-77663723D01*
X127893616Y-77491585D01*
X127893615Y-77491583D01*
X127814389Y-77300314D01*
X127774000Y-77097266D01*
X127774000Y-76890234D01*
X127814389Y-76687186D01*
X127893615Y-76495917D01*
X128008635Y-76323777D01*
X128155027Y-76177385D01*
X128327165Y-76062366D01*
X128327167Y-76062365D01*
X128518436Y-75983139D01*
X128721484Y-75942750D01*
X128928516Y-75942750D01*
X129131564Y-75983139D01*
X129131564Y-75983139D01*
G37*
G36*
X111669064Y-75983139D02*
G01*
X111860333Y-76062365D01*
X111860335Y-76062366D01*
X112032473Y-76177385D01*
X112178865Y-76323777D01*
X112293885Y-76495917D01*
X112373111Y-76687186D01*
X112413500Y-76890234D01*
X112413500Y-77097266D01*
X112373111Y-77300314D01*
X112293885Y-77491583D01*
X112293884Y-77491585D01*
X112178865Y-77663723D01*
X112032473Y-77810115D01*
X111860335Y-77925134D01*
X111860334Y-77925135D01*
X111860333Y-77925135D01*
X111669064Y-78004361D01*
X111466016Y-78044750D01*
X111258984Y-78044750D01*
X111055936Y-78004361D01*
X110864667Y-77925135D01*
X110864666Y-77925135D01*
X110864665Y-77925134D01*
X110692527Y-77810115D01*
X110546135Y-77663723D01*
X110431116Y-77491585D01*
X110431115Y-77491583D01*
X110351889Y-77300314D01*
X110311500Y-77097266D01*
X110311500Y-76890234D01*
X110351889Y-76687186D01*
X110431115Y-76495917D01*
X110546135Y-76323777D01*
X110692527Y-76177385D01*
X110864665Y-76062366D01*
X110864667Y-76062365D01*
X111055936Y-75983139D01*
X111258984Y-75942750D01*
X111466016Y-75942750D01*
X111669064Y-75983139D01*
X111669064Y-75983139D01*
G37*
G36*
X126631564Y-75983139D02*
G01*
X126822833Y-76062365D01*
X126822835Y-76062366D01*
X126994973Y-76177385D01*
X127141365Y-76323777D01*
X127256385Y-76495917D01*
X127335611Y-76687186D01*
X127376000Y-76890234D01*
X127376000Y-77097266D01*
X127335611Y-77300314D01*
X127256385Y-77491583D01*
X127256384Y-77491585D01*
X127141365Y-77663723D01*
X126994973Y-77810115D01*
X126822835Y-77925134D01*
X126822834Y-77925135D01*
X126822833Y-77925135D01*
X126631564Y-78004361D01*
X126428516Y-78044750D01*
X126221484Y-78044750D01*
X126018436Y-78004361D01*
X125827167Y-77925135D01*
X125827166Y-77925135D01*
X125827165Y-77925134D01*
X125655027Y-77810115D01*
X125508635Y-77663723D01*
X125393616Y-77491585D01*
X125393615Y-77491583D01*
X125314389Y-77300314D01*
X125274000Y-77097266D01*
X125274000Y-76890234D01*
X125314389Y-76687186D01*
X125393615Y-76495917D01*
X125508635Y-76323777D01*
X125655027Y-76177385D01*
X125827165Y-76062366D01*
X125827167Y-76062365D01*
X126018436Y-75983139D01*
X126221484Y-75942750D01*
X126428516Y-75942750D01*
X126631564Y-75983139D01*
X126631564Y-75983139D01*
G37*
G36*
X104313500Y-71144750D02*
G01*
X102211500Y-71144750D01*
X102211500Y-67842750D01*
X104313500Y-67842750D01*
X104313500Y-71144750D01*
X104313500Y-71144750D01*
G37*
G36*
X115513500Y-71144750D02*
G01*
X113411500Y-71144750D01*
X113411500Y-67842750D01*
X115513500Y-67842750D01*
X115513500Y-71144750D01*
X115513500Y-71144750D01*
G37*
G36*
X121776000Y-71144750D02*
G01*
X119674000Y-71144750D01*
X119674000Y-67842750D01*
X121776000Y-67842750D01*
X121776000Y-71144750D01*
X121776000Y-71144750D01*
G37*
G36*
X132976000Y-71144750D02*
G01*
X130874000Y-71144750D01*
X130874000Y-67842750D01*
X132976000Y-67842750D01*
X132976000Y-71144750D01*
X132976000Y-71144750D01*
G37*
G36*
X129131564Y-61483139D02*
G01*
X129322833Y-61562365D01*
X129322835Y-61562366D01*
X129398015Y-61612600D01*
X129494973Y-61677385D01*
X129641365Y-61823777D01*
X129756385Y-61995917D01*
X129835611Y-62187186D01*
X129876000Y-62390234D01*
X129876000Y-62597266D01*
X129835611Y-62800314D01*
X129756385Y-62991583D01*
X129756384Y-62991585D01*
X129641365Y-63163723D01*
X129494973Y-63310115D01*
X129322835Y-63425134D01*
X129322834Y-63425135D01*
X129322833Y-63425135D01*
X129131564Y-63504361D01*
X128928516Y-63544750D01*
X128721484Y-63544750D01*
X128518436Y-63504361D01*
X128327167Y-63425135D01*
X128327166Y-63425135D01*
X128327165Y-63425134D01*
X128155027Y-63310115D01*
X128008635Y-63163723D01*
X127893616Y-62991585D01*
X127893615Y-62991583D01*
X127814389Y-62800314D01*
X127774000Y-62597266D01*
X127774000Y-62390234D01*
X127814389Y-62187186D01*
X127893615Y-61995917D01*
X128008635Y-61823777D01*
X128155027Y-61677385D01*
X128251985Y-61612600D01*
X128327165Y-61562366D01*
X128327167Y-61562365D01*
X128518436Y-61483139D01*
X128721484Y-61442750D01*
X128928516Y-61442750D01*
X129131564Y-61483139D01*
X129131564Y-61483139D01*
G37*
G36*
X106669064Y-61483139D02*
G01*
X106860333Y-61562365D01*
X106860335Y-61562366D01*
X106935515Y-61612600D01*
X107032473Y-61677385D01*
X107178865Y-61823777D01*
X107293885Y-61995917D01*
X107373111Y-62187186D01*
X107413500Y-62390234D01*
X107413500Y-62597266D01*
X107373111Y-62800314D01*
X107293885Y-62991583D01*
X107293884Y-62991585D01*
X107178865Y-63163723D01*
X107032473Y-63310115D01*
X106860335Y-63425134D01*
X106860334Y-63425135D01*
X106860333Y-63425135D01*
X106669064Y-63504361D01*
X106466016Y-63544750D01*
X106258984Y-63544750D01*
X106055936Y-63504361D01*
X105864667Y-63425135D01*
X105864666Y-63425135D01*
X105864665Y-63425134D01*
X105692527Y-63310115D01*
X105546135Y-63163723D01*
X105431116Y-62991585D01*
X105431115Y-62991583D01*
X105351889Y-62800314D01*
X105311500Y-62597266D01*
X105311500Y-62390234D01*
X105351889Y-62187186D01*
X105431115Y-61995917D01*
X105546135Y-61823777D01*
X105692527Y-61677385D01*
X105789485Y-61612600D01*
X105864665Y-61562366D01*
X105864667Y-61562365D01*
X106055936Y-61483139D01*
X106258984Y-61442750D01*
X106466016Y-61442750D01*
X106669064Y-61483139D01*
X106669064Y-61483139D01*
G37*
G36*
X111669064Y-61483139D02*
G01*
X111860333Y-61562365D01*
X111860335Y-61562366D01*
X111935515Y-61612600D01*
X112032473Y-61677385D01*
X112178865Y-61823777D01*
X112293885Y-61995917D01*
X112373111Y-62187186D01*
X112413500Y-62390234D01*
X112413500Y-62597266D01*
X112373111Y-62800314D01*
X112293885Y-62991583D01*
X112293884Y-62991585D01*
X112178865Y-63163723D01*
X112032473Y-63310115D01*
X111860335Y-63425134D01*
X111860334Y-63425135D01*
X111860333Y-63425135D01*
X111669064Y-63504361D01*
X111466016Y-63544750D01*
X111258984Y-63544750D01*
X111055936Y-63504361D01*
X110864667Y-63425135D01*
X110864666Y-63425135D01*
X110864665Y-63425134D01*
X110692527Y-63310115D01*
X110546135Y-63163723D01*
X110431116Y-62991585D01*
X110431115Y-62991583D01*
X110351889Y-62800314D01*
X110311500Y-62597266D01*
X110311500Y-62390234D01*
X110351889Y-62187186D01*
X110431115Y-61995917D01*
X110546135Y-61823777D01*
X110692527Y-61677385D01*
X110789485Y-61612600D01*
X110864665Y-61562366D01*
X110864667Y-61562365D01*
X111055936Y-61483139D01*
X111258984Y-61442750D01*
X111466016Y-61442750D01*
X111669064Y-61483139D01*
X111669064Y-61483139D01*
G37*
G36*
X124131564Y-61483139D02*
G01*
X124322833Y-61562365D01*
X124322835Y-61562366D01*
X124398015Y-61612600D01*
X124494973Y-61677385D01*
X124641365Y-61823777D01*
X124756385Y-61995917D01*
X124835611Y-62187186D01*
X124876000Y-62390234D01*
X124876000Y-62597266D01*
X124835611Y-62800314D01*
X124756385Y-62991583D01*
X124756384Y-62991585D01*
X124641365Y-63163723D01*
X124494973Y-63310115D01*
X124322835Y-63425134D01*
X124322834Y-63425135D01*
X124322833Y-63425135D01*
X124131564Y-63504361D01*
X123928516Y-63544750D01*
X123721484Y-63544750D01*
X123518436Y-63504361D01*
X123327167Y-63425135D01*
X123327166Y-63425135D01*
X123327165Y-63425134D01*
X123155027Y-63310115D01*
X123008635Y-63163723D01*
X122893616Y-62991585D01*
X122893615Y-62991583D01*
X122814389Y-62800314D01*
X122774000Y-62597266D01*
X122774000Y-62390234D01*
X122814389Y-62187186D01*
X122893615Y-61995917D01*
X123008635Y-61823777D01*
X123155027Y-61677385D01*
X123251985Y-61612600D01*
X123327165Y-61562366D01*
X123327167Y-61562365D01*
X123518436Y-61483139D01*
X123721484Y-61442750D01*
X123928516Y-61442750D01*
X124131564Y-61483139D01*
X124131564Y-61483139D01*
G37*
G36*
X70309264Y-59661973D02*
G01*
X70413128Y-59693479D01*
X70457157Y-59717013D01*
X70508849Y-59744643D01*
X70508851Y-59744644D01*
X70508850Y-59744644D01*
X70592751Y-59813499D01*
X70661606Y-59897400D01*
X70712771Y-59993121D01*
X70744277Y-60096985D01*
X70752250Y-60177933D01*
X70752250Y-61332067D01*
X70744277Y-61413015D01*
X70712771Y-61516879D01*
X70712769Y-61516882D01*
X70661607Y-61612600D01*
X70592751Y-61696501D01*
X70508850Y-61765357D01*
X70440305Y-61801995D01*
X70413129Y-61816521D01*
X70309265Y-61848027D01*
X70201250Y-61858666D01*
X70093236Y-61848027D01*
X69989372Y-61816521D01*
X69962196Y-61801995D01*
X69893651Y-61765357D01*
X69809750Y-61696501D01*
X69740894Y-61612600D01*
X69689732Y-61516882D01*
X69689730Y-61516879D01*
X69658224Y-61413015D01*
X69650251Y-61332067D01*
X69650250Y-60177934D01*
X69658223Y-60096986D01*
X69689729Y-59993122D01*
X69740894Y-59897400D01*
X69809749Y-59813499D01*
X69893650Y-59744644D01*
X69893649Y-59744644D01*
X69893651Y-59744643D01*
X69945343Y-59717013D01*
X69989371Y-59693479D01*
X70093235Y-59661973D01*
X70201250Y-59651334D01*
X70309264Y-59661973D01*
X70309264Y-59661973D01*
G37*
G36*
X61669264Y-59661973D02*
G01*
X61773128Y-59693479D01*
X61817157Y-59717013D01*
X61868849Y-59744643D01*
X61868851Y-59744644D01*
X61868850Y-59744644D01*
X61952751Y-59813499D01*
X62021606Y-59897400D01*
X62072771Y-59993121D01*
X62104277Y-60096985D01*
X62112250Y-60177933D01*
X62112250Y-61332067D01*
X62104277Y-61413015D01*
X62072771Y-61516879D01*
X62072769Y-61516882D01*
X62021607Y-61612600D01*
X61952751Y-61696501D01*
X61868850Y-61765357D01*
X61800305Y-61801995D01*
X61773129Y-61816521D01*
X61669265Y-61848027D01*
X61561250Y-61858666D01*
X61453236Y-61848027D01*
X61349372Y-61816521D01*
X61322196Y-61801995D01*
X61253651Y-61765357D01*
X61169750Y-61696501D01*
X61100894Y-61612600D01*
X61049732Y-61516882D01*
X61049730Y-61516879D01*
X61018224Y-61413015D01*
X61010251Y-61332067D01*
X61010250Y-60177934D01*
X61018223Y-60096986D01*
X61049729Y-59993122D01*
X61100894Y-59897400D01*
X61169749Y-59813499D01*
X61253650Y-59744644D01*
X61253649Y-59744644D01*
X61253651Y-59744643D01*
X61305343Y-59717013D01*
X61349371Y-59693479D01*
X61453235Y-59661973D01*
X61561250Y-59651334D01*
X61669264Y-59661973D01*
X61669264Y-59661973D01*
G37*
G36*
X63100922Y-59863449D02*
G01*
X63100924Y-59863450D01*
X63100925Y-59863450D01*
X63169353Y-59891793D01*
X63230936Y-59932942D01*
X63283308Y-59985314D01*
X63324457Y-60046897D01*
X63352800Y-60115325D01*
X63352801Y-60115328D01*
X63367250Y-60187966D01*
X63367250Y-60262033D01*
X63352800Y-60334675D01*
X63324457Y-60403103D01*
X63283308Y-60464686D01*
X63230936Y-60517058D01*
X63169353Y-60558207D01*
X63100925Y-60586550D01*
X63100924Y-60586550D01*
X63100922Y-60586551D01*
X63028284Y-60601000D01*
X62954216Y-60601000D01*
X62881578Y-60586551D01*
X62881576Y-60586550D01*
X62881575Y-60586550D01*
X62813147Y-60558207D01*
X62751564Y-60517058D01*
X62699192Y-60464686D01*
X62658043Y-60403103D01*
X62629700Y-60334675D01*
X62615250Y-60262033D01*
X62615250Y-60187966D01*
X62629699Y-60115328D01*
X62629700Y-60115325D01*
X62658043Y-60046897D01*
X62699192Y-59985314D01*
X62751564Y-59932942D01*
X62813147Y-59891793D01*
X62881575Y-59863450D01*
X62881576Y-59863450D01*
X62881578Y-59863449D01*
X62954216Y-59849000D01*
X63028284Y-59849000D01*
X63100922Y-59863449D01*
X63100922Y-59863449D01*
G37*
G36*
X68880922Y-59863449D02*
G01*
X68880924Y-59863450D01*
X68880925Y-59863450D01*
X68949353Y-59891793D01*
X69010936Y-59932942D01*
X69063308Y-59985314D01*
X69104457Y-60046897D01*
X69132800Y-60115325D01*
X69132801Y-60115328D01*
X69147250Y-60187966D01*
X69147250Y-60262033D01*
X69132800Y-60334675D01*
X69104457Y-60403103D01*
X69063308Y-60464686D01*
X69010936Y-60517058D01*
X68949353Y-60558207D01*
X68880925Y-60586550D01*
X68880924Y-60586550D01*
X68880922Y-60586551D01*
X68808284Y-60601000D01*
X68734216Y-60601000D01*
X68661578Y-60586551D01*
X68661576Y-60586550D01*
X68661575Y-60586550D01*
X68593147Y-60558207D01*
X68531564Y-60517058D01*
X68479192Y-60464686D01*
X68438043Y-60403103D01*
X68409700Y-60334675D01*
X68395250Y-60262033D01*
X68395250Y-60187966D01*
X68409699Y-60115328D01*
X68409700Y-60115325D01*
X68438043Y-60046897D01*
X68479192Y-59985314D01*
X68531564Y-59932942D01*
X68593147Y-59891793D01*
X68661575Y-59863450D01*
X68661576Y-59863450D01*
X68661578Y-59863449D01*
X68734216Y-59849000D01*
X68808284Y-59849000D01*
X68880922Y-59863449D01*
X68880922Y-59863449D01*
G37*
G36*
X70309264Y-55731973D02*
G01*
X70413128Y-55763479D01*
X70457157Y-55787013D01*
X70508849Y-55814643D01*
X70508851Y-55814644D01*
X70508850Y-55814644D01*
X70592751Y-55883499D01*
X70661606Y-55967400D01*
X70712771Y-56063121D01*
X70744277Y-56166985D01*
X70752250Y-56247933D01*
X70752250Y-56902067D01*
X70744277Y-56983015D01*
X70712771Y-57086879D01*
X70712769Y-57086882D01*
X70661607Y-57182600D01*
X70592751Y-57266501D01*
X70508850Y-57335357D01*
X70440305Y-57371995D01*
X70413129Y-57386521D01*
X70309265Y-57418027D01*
X70201250Y-57428666D01*
X70093236Y-57418027D01*
X69989372Y-57386521D01*
X69962196Y-57371995D01*
X69893651Y-57335357D01*
X69809750Y-57266501D01*
X69740895Y-57182601D01*
X69689730Y-57086879D01*
X69658223Y-56983015D01*
X69650250Y-56902067D01*
X69650250Y-56247934D01*
X69658223Y-56166986D01*
X69689729Y-56063122D01*
X69740894Y-55967400D01*
X69809749Y-55883499D01*
X69893650Y-55814644D01*
X69893649Y-55814644D01*
X69893651Y-55814643D01*
X69945343Y-55787013D01*
X69989371Y-55763479D01*
X70093235Y-55731973D01*
X70201250Y-55721334D01*
X70309264Y-55731973D01*
X70309264Y-55731973D01*
G37*
G36*
X61669264Y-55731973D02*
G01*
X61773128Y-55763479D01*
X61817157Y-55787013D01*
X61868849Y-55814643D01*
X61868851Y-55814644D01*
X61868850Y-55814644D01*
X61952751Y-55883499D01*
X62021606Y-55967400D01*
X62072771Y-56063121D01*
X62104277Y-56166985D01*
X62112250Y-56247933D01*
X62112250Y-56902067D01*
X62104277Y-56983015D01*
X62072771Y-57086879D01*
X62072769Y-57086882D01*
X62021607Y-57182600D01*
X61952751Y-57266501D01*
X61868850Y-57335357D01*
X61800305Y-57371995D01*
X61773129Y-57386521D01*
X61669265Y-57418027D01*
X61561250Y-57428666D01*
X61453236Y-57418027D01*
X61349372Y-57386521D01*
X61322196Y-57371995D01*
X61253651Y-57335357D01*
X61169750Y-57266501D01*
X61100895Y-57182601D01*
X61049730Y-57086879D01*
X61018223Y-56983015D01*
X61010250Y-56902067D01*
X61010250Y-56247934D01*
X61018223Y-56166986D01*
X61049729Y-56063122D01*
X61100894Y-55967400D01*
X61169749Y-55883499D01*
X61253650Y-55814644D01*
X61253649Y-55814644D01*
X61253651Y-55814643D01*
X61305343Y-55787013D01*
X61349371Y-55763479D01*
X61453235Y-55731973D01*
X61561250Y-55721334D01*
X61669264Y-55731973D01*
X61669264Y-55731973D01*
G37*
M02*
