G04 #@! TF.GenerationSoftware,KiCad,Pcbnew,(5.1.4)-1*
G04 #@! TF.CreationDate,2024-03-23T00:37:28-07:00*
G04 #@! TF.ProjectId,macropad,6d616372-6f70-4616-942e-6b696361645f,rev?*
G04 #@! TF.SameCoordinates,Original*
G04 #@! TF.FileFunction,Copper,L1,Top*
G04 #@! TF.FilePolarity,Positive*
%FSLAX46Y46*%
G04 Gerber Fmt 4.6, Leading zero omitted, Abs format (unit mm)*
G04 Created by KiCad (PCBNEW (5.1.4)-1) date 2024-03-23 00:37:28*
%MOMM*%
%LPD*%
G04 APERTURE LIST*
%ADD10C,2.250000*%
%ADD11C,3.800000*%
%ADD12O,1.000000X2.100000*%
%ADD13O,1.000000X1.600000*%
%ADD14R,2.000000X2.000000*%
%ADD15C,2.000000*%
%ADD16R,2.000000X3.200000*%
%ADD17R,1.700000X1.700000*%
%ADD18C,1.700000*%
%ADD19C,0.800000*%
%ADD20C,0.350000*%
%ADD21C,0.385000*%
%ADD22C,0.250000*%
G04 APERTURE END LIST*
D10*
X124460000Y-97155000D03*
X130810000Y-94615000D03*
X86360000Y-97155000D03*
X92710000Y-94615000D03*
D11*
X79375000Y-128587500D03*
X117475000Y-128587500D03*
X79375000Y-90487500D03*
X117475000Y-90487500D03*
D12*
X61561250Y-60755000D03*
X70201250Y-60755000D03*
D13*
X61561250Y-56575000D03*
X70201250Y-56575000D03*
D14*
X106362500Y-76993750D03*
D15*
X108862500Y-76993750D03*
X111362500Y-76993750D03*
D16*
X103262500Y-69493750D03*
X114462500Y-69493750D03*
D15*
X106362500Y-62493750D03*
X111362500Y-62493750D03*
D14*
X123825000Y-76993750D03*
D15*
X126325000Y-76993750D03*
X128825000Y-76993750D03*
D16*
X120725000Y-69493750D03*
X131925000Y-69493750D03*
D15*
X123825000Y-62493750D03*
X128825000Y-62493750D03*
D10*
X124460000Y-135255000D03*
X130810000Y-132715000D03*
X105410000Y-135255000D03*
X111760000Y-132715000D03*
X86360000Y-135255000D03*
X92710000Y-132715000D03*
X67310000Y-135255000D03*
X73660000Y-132715000D03*
X124460000Y-116205000D03*
X130810000Y-113665000D03*
X105410000Y-116205000D03*
X111760000Y-113665000D03*
X86360000Y-116205000D03*
X92710000Y-113665000D03*
X67310000Y-116205000D03*
X73660000Y-113665000D03*
X105410000Y-97155000D03*
X111760000Y-94615000D03*
X67310000Y-97155000D03*
X73660000Y-94615000D03*
D17*
X120015000Y-79692500D03*
D18*
X120015000Y-82232500D03*
X117475000Y-79692500D03*
X117475000Y-82232500D03*
X114935000Y-79692500D03*
X114935000Y-82232500D03*
D19*
X65881250Y-76993750D03*
X65087500Y-67468750D03*
X122237500Y-84137500D03*
X82570285Y-123010965D03*
X82550000Y-119856250D03*
X86929999Y-75023749D03*
X88106250Y-76993750D03*
X61118750Y-69850000D03*
X63500000Y-70643750D03*
X114732501Y-87745001D03*
X115093750Y-85725000D03*
X67468750Y-64293750D03*
X69850000Y-67468750D03*
X129239369Y-95339000D03*
X121512499Y-103118751D03*
X128587500Y-114300000D03*
X121443750Y-121443750D03*
X78581250Y-84437510D03*
X76993750Y-95250000D03*
X76993750Y-84437510D03*
X77643626Y-112062624D03*
X72231250Y-102393750D03*
X72936000Y-84116703D03*
X74612500Y-137318750D03*
X91281250Y-67468750D03*
X88450000Y-72231250D03*
X87312500Y-72989572D03*
X89450003Y-72231250D03*
X75522028Y-79490778D03*
X76787497Y-79375000D03*
X77787500Y-79375000D03*
X78581250Y-80168750D03*
X80962500Y-77787500D03*
X72231250Y-81756250D03*
X95250000Y-77356250D03*
X95250000Y-78581250D03*
X96456095Y-77375155D03*
X96837500Y-75406250D03*
X95837497Y-75731251D03*
X95250000Y-74281251D03*
D20*
X65881250Y-76993750D02*
X65087500Y-76200000D01*
X65087500Y-76200000D02*
X65087500Y-67468750D01*
D21*
X122237500Y-85725000D02*
X117475000Y-90487500D01*
X122237500Y-84137500D02*
X122237500Y-85725000D01*
X82570285Y-123010965D02*
X82570285Y-119876535D01*
X82570285Y-119876535D02*
X82550000Y-119856250D01*
X86929999Y-75023749D02*
X86929999Y-75817499D01*
X86929999Y-75817499D02*
X88106250Y-76993750D01*
X61118750Y-69850000D02*
X62706250Y-69850000D01*
X62706250Y-69850000D02*
X63500000Y-70643750D01*
X114732501Y-87745001D02*
X114732501Y-86086249D01*
X114732501Y-86086249D02*
X115093750Y-85725000D01*
D22*
X67468750Y-64293750D02*
X69850000Y-66675000D01*
X69850000Y-66675000D02*
X69850000Y-67468750D01*
X129239369Y-95339000D02*
X121512499Y-103065870D01*
X121512499Y-103065870D02*
X121512499Y-103118751D01*
X128587500Y-114300000D02*
X121443750Y-121443750D01*
X77149999Y-85868761D02*
X77149999Y-95296247D01*
X78581250Y-84437510D02*
X77149999Y-85868761D01*
X86740000Y-96775000D02*
X86360000Y-97155000D01*
X105790000Y-96775000D02*
X105410000Y-97155000D01*
X124840000Y-96775000D02*
X124460000Y-97155000D01*
X76130001Y-95319999D02*
X75406250Y-96043750D01*
X76993750Y-84437510D02*
X76130001Y-85301259D01*
X76130001Y-85301259D02*
X76130001Y-95319999D01*
X75406250Y-98425000D02*
X75406250Y-109825248D01*
X75406250Y-96043750D02*
X75406250Y-98425000D01*
X77643626Y-112062624D02*
X77918751Y-112337749D01*
X75406250Y-109825248D02*
X77643626Y-112062624D01*
X86740000Y-115825000D02*
X86360000Y-116205000D01*
X105790000Y-115825000D02*
X105410000Y-116205000D01*
X124840000Y-115825000D02*
X124460000Y-116205000D01*
X72209999Y-115458749D02*
X72231250Y-115480000D01*
X72209999Y-102980686D02*
X72209999Y-115458749D01*
X72231250Y-102393750D02*
X72231250Y-102959435D01*
X72231250Y-102959435D02*
X72209999Y-102980686D01*
X72210999Y-101807814D02*
X72210999Y-84951501D01*
X72231250Y-102393750D02*
X72231250Y-101828065D01*
X72231250Y-101828065D02*
X72210999Y-101807814D01*
X72210999Y-84951501D02*
X73025000Y-84137500D01*
X73606468Y-134805990D02*
X72209999Y-133409521D01*
X72209999Y-133409521D02*
X72209999Y-115458749D01*
X73606468Y-134805990D02*
X73606468Y-136312718D01*
X73606468Y-136312718D02*
X74612500Y-137318750D01*
X86740000Y-134875000D02*
X86360000Y-135255000D01*
X124777500Y-134937500D02*
X124460000Y-135255000D01*
X86587499Y-72162501D02*
X90487500Y-68262500D01*
X86587499Y-73337573D02*
X86587499Y-72162501D01*
X97557445Y-84307519D02*
X86587499Y-73337573D01*
X120015000Y-82232500D02*
X117939981Y-84307519D01*
X117939981Y-84307519D02*
X97557445Y-84307519D01*
X90487500Y-68262500D02*
X91281250Y-67468750D01*
X116110001Y-81057499D02*
X116110001Y-82796501D01*
X117475000Y-79692500D02*
X116110001Y-81057499D01*
X116110001Y-82796501D02*
X115499001Y-83407501D01*
X115499001Y-83407501D02*
X98366839Y-83407501D01*
X98366839Y-83407501D02*
X88512299Y-73552961D01*
X88512299Y-73552961D02*
X88512299Y-72293549D01*
X88512299Y-72293549D02*
X88450000Y-72231250D01*
X98180438Y-83857510D02*
X87312500Y-72989572D01*
X117475000Y-82232500D02*
X115849990Y-83857510D01*
X115849990Y-83857510D02*
X98180438Y-83857510D01*
X114935000Y-82232500D02*
X97828248Y-82232500D01*
X97828248Y-82232500D02*
X89861770Y-74266022D01*
X89861770Y-74266022D02*
X89861770Y-72643017D01*
X89861770Y-72643017D02*
X89450003Y-72231250D01*
X73418751Y-132473751D02*
X73660000Y-132715000D01*
X73418751Y-118668749D02*
X73418751Y-132473751D01*
X73660000Y-93024010D02*
X73660000Y-94615000D01*
X73660000Y-81918491D02*
X73660000Y-93024010D01*
X75522028Y-80056463D02*
X73660000Y-81918491D01*
X75522028Y-79490778D02*
X75522028Y-80056463D01*
X73660000Y-99060000D02*
X73660000Y-94615000D01*
X73818750Y-99218750D02*
X73660000Y-99060000D01*
X73818750Y-110460248D02*
X73818750Y-99218750D01*
X73660000Y-113665000D02*
X73660000Y-110618998D01*
X73660000Y-110618998D02*
X73818750Y-110460248D01*
X73660000Y-118427500D02*
X73660000Y-113665000D01*
X73418751Y-118668749D02*
X73660000Y-118427500D01*
X76787497Y-80084409D02*
X78459338Y-81756250D01*
X76787497Y-79375000D02*
X76787497Y-80084409D01*
X78459338Y-81756250D02*
X90487500Y-81756250D01*
X92710000Y-83978750D02*
X92710000Y-94615000D01*
X90487500Y-81756250D02*
X92710000Y-83978750D01*
X92710000Y-102235000D02*
X92710000Y-94615000D01*
X92868750Y-102393750D02*
X92710000Y-102235000D01*
X92868750Y-110460248D02*
X92868750Y-102393750D01*
X92710000Y-113665000D02*
X92710000Y-110618998D01*
X92710000Y-110618998D02*
X92868750Y-110460248D01*
X92710000Y-120491250D02*
X92710000Y-113665000D01*
X92868750Y-120650000D02*
X92710000Y-120491250D01*
X92868750Y-129510248D02*
X92868750Y-120650000D01*
X92710000Y-132715000D02*
X92710000Y-129668998D01*
X92710000Y-129668998D02*
X92868750Y-129510248D01*
X111518751Y-113423751D02*
X111760000Y-113665000D01*
X111518751Y-101999999D02*
X111518751Y-113423751D01*
X77787500Y-80448002D02*
X78301998Y-80962500D01*
X77787500Y-79375000D02*
X77787500Y-80448002D01*
X78301998Y-80962500D02*
X92868750Y-80962500D01*
X110169010Y-94615000D02*
X111760000Y-94615000D01*
X107186002Y-94615000D02*
X110169010Y-94615000D01*
X102777111Y-90206109D02*
X107186002Y-94615000D01*
X102112359Y-90206109D02*
X102777111Y-90206109D01*
X92868750Y-80962500D02*
X102112359Y-90206109D01*
X111760000Y-101758750D02*
X111518751Y-101999999D01*
X111760000Y-94615000D02*
X111760000Y-101758750D01*
X111760000Y-120491250D02*
X111760000Y-113665000D01*
X111918750Y-120650000D02*
X111760000Y-120491250D01*
X111918750Y-129510248D02*
X111918750Y-120650000D01*
X111760000Y-132715000D02*
X111760000Y-129668998D01*
X111760000Y-129668998D02*
X111918750Y-129510248D01*
X129219010Y-94615000D02*
X130810000Y-94615000D01*
X118309498Y-94615000D02*
X129219010Y-94615000D01*
X113450597Y-89756099D02*
X118309498Y-94615000D01*
X102369615Y-89756099D02*
X113450597Y-89756099D01*
X92782266Y-80168750D02*
X102369615Y-89756099D01*
X78581250Y-80168750D02*
X92782266Y-80168750D01*
X130810000Y-101441250D02*
X130810000Y-94615000D01*
X130968750Y-101600000D02*
X130810000Y-101441250D01*
X130968750Y-110460248D02*
X130968750Y-101600000D01*
X130810000Y-113665000D02*
X130810000Y-110618998D01*
X130810000Y-110618998D02*
X130968750Y-110460248D01*
X130810000Y-120491250D02*
X130810000Y-113665000D01*
X130968750Y-120650000D02*
X130810000Y-120491250D01*
X130968750Y-129510248D02*
X130968750Y-120650000D01*
X130810000Y-132715000D02*
X130810000Y-129668998D01*
X130810000Y-129668998D02*
X130968750Y-129510248D01*
X80962500Y-77787500D02*
X76200000Y-77787500D01*
X76200000Y-77787500D02*
X72231250Y-81756250D01*
X97112521Y-79218771D02*
X95250000Y-77356250D01*
X111734891Y-79218771D02*
X97112521Y-79218771D01*
X123825000Y-76993750D02*
X113959912Y-76993750D01*
X113959912Y-76993750D02*
X111734891Y-79218771D01*
X96337531Y-79668781D02*
X95250000Y-78581250D01*
X111921291Y-79668781D02*
X96337531Y-79668781D01*
X113271321Y-78318751D02*
X111921291Y-79668781D01*
X128825000Y-76993750D02*
X127499999Y-78318751D01*
X127499999Y-78318751D02*
X113271321Y-78318751D01*
X97849701Y-78768761D02*
X96456095Y-77375155D01*
X127499999Y-61168749D02*
X119602499Y-61168749D01*
X128825000Y-62493750D02*
X127499999Y-61168749D01*
X119602499Y-61168749D02*
X112687501Y-68083747D01*
X112687501Y-68083747D02*
X112687501Y-77629751D01*
X112687501Y-77629751D02*
X111548491Y-78768761D01*
X111548491Y-78768761D02*
X97849701Y-78768761D01*
X106362500Y-76993750D02*
X98425000Y-76993750D01*
X98425000Y-76993750D02*
X96837500Y-75406250D01*
X98424997Y-78318751D02*
X95837497Y-75731251D01*
X111362500Y-76993750D02*
X110037499Y-78318751D01*
X110037499Y-78318751D02*
X98424997Y-78318751D01*
X111362500Y-63907963D02*
X111362500Y-62493750D01*
X111362500Y-64578752D02*
X111362500Y-63907963D01*
X101660001Y-74281251D02*
X111362500Y-64578752D01*
X95250000Y-74281251D02*
X101660001Y-74281251D01*
M02*
