M48
; DRILL file {KiCad (5.1.4)-1} date 2024-03-23 12:38:17 AM
; FORMAT={-:-/ absolute / inch / decimal}
; #@! TF.CreationDate,2024-03-23T00:38:17-07:00
; #@! TF.GenerationSoftware,Kicad,Pcbnew,(5.1.4)-1
; #@! TF.FileFunction,NonPlated,1,2,NPTH
FMAT,2
INCH
T1C0.0256
T2C0.0689
T3C0.1570
%
G90
G05
T1
X2.48Y-2.3711
X2.7075Y-2.3711
T2
X4.8Y-4.375
X5.2Y-4.375
X4.8Y-5.125
X5.2Y-5.125
X2.55Y-3.625
X2.95Y-3.625
X4.05Y-4.375
X4.45Y-4.375
X3.3Y-4.375
X3.7Y-4.375
X4.8Y-3.625
X5.2Y-3.625
X4.05Y-5.125
X4.45Y-5.125
X2.55Y-4.375
X2.95Y-4.375
X3.3Y-5.125
X3.7Y-5.125
X2.55Y-5.125
X2.95Y-5.125
X3.3Y-3.625
X3.7Y-3.625
X4.05Y-3.625
X4.45Y-3.625
T3
X5.0Y-4.375
X5.0Y-5.125
X2.75Y-3.625
X4.25Y-4.375
X3.5Y-4.375
X5.0Y-3.625
X4.25Y-5.125
X2.75Y-4.375
X3.5Y-5.125
X2.75Y-5.125
X3.5Y-3.625
X4.25Y-3.625
T0
M30
