M48
; DRILL file {KiCad (5.1.4)-1} date 2024-04-11 10:00:24 PM
; FORMAT={-:-/ absolute / metric / decimal}
; #@! TF.CreationDate,2024-04-11T22:00:24-07:00
; #@! TF.GenerationSoftware,Kicad,Pcbnew,(5.1.4)-1
; #@! TF.FileFunction,NonPlated,1,4,NPTH
FMAT,2
METRIC
T1C0.650
T2C1.750
T3C3.048
T4C3.988
%
G90
G05
T1
X387.635Y-41.969
X393.415Y-41.969
T2
X362.426Y-107.156
X372.586Y-107.156
X244.951Y-126.206
X255.111Y-126.206
X297.339Y-50.006
X307.499Y-50.006
X140.176Y-107.156
X150.336Y-107.156
X187.801Y-126.206
X197.961Y-126.206
X183.039Y-50.006
X193.199Y-50.006
X264.001Y-145.256
X274.161Y-145.256
X235.426Y-107.156
X245.586Y-107.156
X254.476Y-107.156
X264.636Y-107.156
X87.789Y-69.056
X97.949Y-69.056
X240.189Y-69.056
X250.349Y-69.056
X221.139Y-50.006
X231.299Y-50.006
X144.939Y-50.006
X155.099Y-50.006
X159.226Y-107.156
X169.386Y-107.156
X97.314Y-88.106
X107.474Y-88.106
X92.551Y-126.206
X102.711Y-126.206
X240.189Y-50.006
X250.349Y-50.006
X211.614Y-88.106
X221.774Y-88.106
X83.026Y-107.156
X93.186Y-107.156
X22.701Y-88.106
X32.861Y-88.106
X273.526Y-107.156
X283.686Y-107.156
X116.364Y-88.106
X126.524Y-88.106
X68.739Y-50.006
X78.899Y-50.006
X287.814Y-88.106
X297.974Y-88.106
X324.326Y-153.194
X334.486Y-153.194
X259.239Y-50.006
X269.399Y-50.006
X240.189Y-145.256
X250.349Y-145.256
X278.289Y-69.056
X288.449Y-69.056
X206.851Y-126.206
X217.011Y-126.206
X144.939Y-69.056
X155.099Y-69.056
X97.314Y-145.256
X107.474Y-145.256
X343.376Y-88.106
X353.536Y-88.106
X168.751Y-126.206
X178.911Y-126.206
X106.839Y-69.056
X116.999Y-69.056
X61.595Y-126.206
X71.755Y-126.206
X230.664Y-88.106
X240.824Y-88.106
X278.289Y-50.006
X288.449Y-50.006
X56.832Y-107.156
X66.992Y-107.156
X135.414Y-88.106
X145.574Y-88.106
X362.426Y-153.194
X372.586Y-153.194
X183.039Y-69.056
X193.199Y-69.056
X52.07Y-145.256
X62.23Y-145.256
X197.326Y-107.156
X207.486Y-107.156
X22.701Y-145.256
X32.861Y-145.256
X106.839Y-50.006
X116.999Y-50.006
X287.814Y-145.256
X297.974Y-145.256
X87.789Y-50.006
X97.949Y-50.006
X121.126Y-107.156
X131.286Y-107.156
X202.089Y-50.006
X212.249Y-50.006
X249.714Y-88.106
X259.874Y-88.106
X343.376Y-50.006
X353.536Y-50.006
X102.076Y-107.156
X112.236Y-107.156
X311.626Y-88.106
X321.786Y-88.106
X173.514Y-88.106
X183.674Y-88.106
X125.889Y-69.056
X136.049Y-69.056
X22.701Y-107.156
X32.861Y-107.156
X306.864Y-69.056
X317.024Y-69.056
X362.426Y-69.056
X372.586Y-69.056
X343.376Y-69.056
X353.536Y-69.056
X22.701Y-69.056
X32.861Y-69.056
X168.751Y-145.256
X178.911Y-145.256
X178.276Y-107.156
X188.436Y-107.156
X225.901Y-126.206
X236.061Y-126.206
X362.426Y-50.006
X372.586Y-50.006
X73.501Y-145.256
X83.661Y-145.256
X22.701Y-126.206
X32.861Y-126.206
X149.701Y-126.206
X159.861Y-126.206
X22.701Y-50.006
X32.861Y-50.006
X299.72Y-126.206
X309.88Y-126.206
X362.426Y-88.106
X372.586Y-88.106
X49.689Y-69.056
X59.849Y-69.056
X78.264Y-88.106
X88.424Y-88.106
X259.239Y-69.056
X269.399Y-69.056
X343.376Y-153.194
X353.536Y-153.194
X316.389Y-50.006
X326.549Y-50.006
X49.689Y-50.006
X59.849Y-50.006
X221.139Y-69.056
X231.299Y-69.056
X343.376Y-134.144
X353.536Y-134.144
X202.089Y-69.056
X212.249Y-69.056
X343.376Y-107.156
X353.536Y-107.156
X163.989Y-50.006
X174.149Y-50.006
X268.764Y-88.106
X278.924Y-88.106
X125.889Y-50.006
X136.049Y-50.006
X192.564Y-88.106
X202.724Y-88.106
X163.989Y-69.056
X174.149Y-69.056
X216.376Y-107.156
X226.536Y-107.156
X304.482Y-107.156
X314.642Y-107.156
X154.464Y-88.106
X164.624Y-88.106
X68.739Y-69.056
X78.899Y-69.056
X130.651Y-126.206
X140.811Y-126.206
X54.451Y-88.106
X64.611Y-88.106
X111.601Y-126.206
X121.761Y-126.206
X264.001Y-126.206
X274.161Y-126.206
T3
X54.769Y-119.221
X78.581Y-119.221
X300.037Y-62.071
X323.85Y-62.071
X123.831Y-138.271
X223.831Y-138.271
X292.894Y-119.221
X316.706Y-119.221
X297.656Y-100.171
X321.469Y-100.171
T4
X235.744Y-88.106
X283.369Y-50.006
X61.912Y-107.156
X140.494Y-88.106
X367.506Y-153.194
X188.119Y-69.056
X57.15Y-145.256
X202.406Y-107.156
X27.781Y-145.256
X111.919Y-50.006
X292.894Y-145.256
X92.869Y-50.006
X126.206Y-107.156
X207.169Y-50.006
X254.794Y-88.106
X348.456Y-50.006
X107.156Y-107.156
X316.706Y-88.106
X178.594Y-88.106
X130.969Y-69.056
X27.781Y-107.156
X300.037Y-77.311
X311.944Y-69.056
X323.85Y-77.311
X367.506Y-69.056
X348.456Y-69.056
X27.781Y-69.056
X123.831Y-153.511
X173.831Y-145.256
X223.831Y-153.511
X183.356Y-107.156
X230.981Y-126.206
X367.506Y-50.006
X78.581Y-145.256
X27.781Y-126.206
X154.781Y-126.206
X27.781Y-50.006
X292.894Y-134.461
X304.8Y-126.206
X316.706Y-134.461
X367.506Y-88.106
X54.769Y-69.056
X83.344Y-88.106
X264.319Y-69.056
X348.456Y-153.194
X321.469Y-50.006
X54.769Y-50.006
X226.219Y-69.056
X348.456Y-134.144
X207.169Y-69.056
X348.456Y-107.156
X169.069Y-50.006
X273.844Y-88.106
X130.969Y-50.006
X197.644Y-88.106
X169.069Y-69.056
X221.456Y-107.156
X297.656Y-115.411
X309.562Y-107.156
X321.469Y-115.411
X159.544Y-88.106
X73.819Y-69.056
X135.731Y-126.206
X59.531Y-88.106
X116.681Y-126.206
X269.081Y-126.206
X367.506Y-107.156
X250.031Y-126.206
X302.419Y-50.006
X145.256Y-107.156
X192.881Y-126.206
X188.119Y-50.006
X269.081Y-145.256
X240.506Y-107.156
X259.556Y-107.156
X92.869Y-69.056
X245.269Y-69.056
X226.219Y-50.006
X150.019Y-50.006
X164.306Y-107.156
X102.394Y-88.106
X97.631Y-126.206
X245.269Y-50.006
X216.694Y-88.106
X88.106Y-107.156
X27.781Y-88.106
X278.606Y-107.156
X121.444Y-88.106
X73.819Y-50.006
X292.894Y-88.106
X329.406Y-153.194
X264.319Y-50.006
X245.269Y-145.256
X283.369Y-69.056
X211.931Y-126.206
X150.019Y-69.056
X102.394Y-145.256
X348.456Y-88.106
X173.831Y-126.206
X111.919Y-69.056
X54.769Y-134.461
X66.675Y-126.206
X78.581Y-134.461
T0
M30
