G04 #@! TF.GenerationSoftware,KiCad,Pcbnew,(5.1.4)-1*
G04 #@! TF.CreationDate,2024-04-11T21:59:36-07:00*
G04 #@! TF.ProjectId,keeb,6b656562-2e6b-4696-9361-645f70636258,rev?*
G04 #@! TF.SameCoordinates,Original*
G04 #@! TF.FileFunction,Legend,Top*
G04 #@! TF.FilePolarity,Positive*
%FSLAX46Y46*%
G04 Gerber Fmt 4.6, Leading zero omitted, Abs format (unit mm)*
G04 Created by KiCad (PCBNEW (5.1.4)-1) date 2024-04-11 21:59:36*
%MOMM*%
%LPD*%
G04 APERTURE LIST*
%ADD10C,0.120000*%
%ADD11C,0.150000*%
G04 APERTURE END LIST*
D10*
X402612500Y-136643750D02*
G75*
G03X402612500Y-136643750I-3000000J0D01*
G01*
X401612500Y-130743750D02*
X405712500Y-130743750D01*
X405712500Y-142543750D02*
X401612500Y-142543750D01*
X397612500Y-142543750D02*
X393512500Y-142543750D01*
X397612500Y-130743750D02*
X393512500Y-130743750D01*
X393512500Y-130743750D02*
X393512500Y-142543750D01*
X392112500Y-132843750D02*
X391812500Y-132543750D01*
X391812500Y-132543750D02*
X392412500Y-132543750D01*
X392412500Y-132543750D02*
X392112500Y-132843750D01*
X405712500Y-130743750D02*
X405712500Y-133143750D01*
X405712500Y-135343750D02*
X405712500Y-137943750D01*
X405712500Y-140143750D02*
X405712500Y-142543750D01*
X399612500Y-136143750D02*
X399612500Y-137143750D01*
X399112500Y-136643750D02*
X400112500Y-136643750D01*
X402612500Y-108068750D02*
G75*
G03X402612500Y-108068750I-3000000J0D01*
G01*
X401612500Y-102168750D02*
X405712500Y-102168750D01*
X405712500Y-113968750D02*
X401612500Y-113968750D01*
X397612500Y-113968750D02*
X393512500Y-113968750D01*
X397612500Y-102168750D02*
X393512500Y-102168750D01*
X393512500Y-102168750D02*
X393512500Y-113968750D01*
X392112500Y-104268750D02*
X391812500Y-103968750D01*
X391812500Y-103968750D02*
X392412500Y-103968750D01*
X392412500Y-103968750D02*
X392112500Y-104268750D01*
X405712500Y-102168750D02*
X405712500Y-104568750D01*
X405712500Y-106768750D02*
X405712500Y-109368750D01*
X405712500Y-111568750D02*
X405712500Y-113968750D01*
X399612500Y-107568750D02*
X399612500Y-108568750D01*
X399112500Y-108068750D02*
X400112500Y-108068750D01*
X402612500Y-80287500D02*
G75*
G03X402612500Y-80287500I-3000000J0D01*
G01*
X401612500Y-74387500D02*
X405712500Y-74387500D01*
X405712500Y-86187500D02*
X401612500Y-86187500D01*
X397612500Y-86187500D02*
X393512500Y-86187500D01*
X397612500Y-74387500D02*
X393512500Y-74387500D01*
X393512500Y-74387500D02*
X393512500Y-86187500D01*
X392112500Y-76487500D02*
X391812500Y-76187500D01*
X391812500Y-76187500D02*
X392412500Y-76187500D01*
X392412500Y-76187500D02*
X392112500Y-76487500D01*
X405712500Y-74387500D02*
X405712500Y-76787500D01*
X405712500Y-78987500D02*
X405712500Y-81587500D01*
X405712500Y-83787500D02*
X405712500Y-86187500D01*
X399612500Y-79787500D02*
X399612500Y-80787500D01*
X399112500Y-80287500D02*
X400112500Y-80287500D01*
D11*
X393579166Y-129848511D02*
X393722023Y-129896130D01*
X393960119Y-129896130D01*
X394055357Y-129848511D01*
X394102976Y-129800892D01*
X394150595Y-129705654D01*
X394150595Y-129610416D01*
X394102976Y-129515178D01*
X394055357Y-129467559D01*
X393960119Y-129419940D01*
X393769642Y-129372321D01*
X393674404Y-129324702D01*
X393626785Y-129277083D01*
X393579166Y-129181845D01*
X393579166Y-129086607D01*
X393626785Y-128991369D01*
X393674404Y-128943750D01*
X393769642Y-128896130D01*
X394007738Y-128896130D01*
X394150595Y-128943750D01*
X394483928Y-128896130D02*
X394722023Y-129896130D01*
X394912500Y-129181845D01*
X395102976Y-129896130D01*
X395341071Y-128896130D01*
X396198214Y-128896130D02*
X395722023Y-128896130D01*
X395674404Y-129372321D01*
X395722023Y-129324702D01*
X395817261Y-129277083D01*
X396055357Y-129277083D01*
X396150595Y-129324702D01*
X396198214Y-129372321D01*
X396245833Y-129467559D01*
X396245833Y-129705654D01*
X396198214Y-129800892D01*
X396150595Y-129848511D01*
X396055357Y-129896130D01*
X395817261Y-129896130D01*
X395722023Y-129848511D01*
X395674404Y-129800892D01*
X393579166Y-101273511D02*
X393722023Y-101321130D01*
X393960119Y-101321130D01*
X394055357Y-101273511D01*
X394102976Y-101225892D01*
X394150595Y-101130654D01*
X394150595Y-101035416D01*
X394102976Y-100940178D01*
X394055357Y-100892559D01*
X393960119Y-100844940D01*
X393769642Y-100797321D01*
X393674404Y-100749702D01*
X393626785Y-100702083D01*
X393579166Y-100606845D01*
X393579166Y-100511607D01*
X393626785Y-100416369D01*
X393674404Y-100368750D01*
X393769642Y-100321130D01*
X394007738Y-100321130D01*
X394150595Y-100368750D01*
X394483928Y-100321130D02*
X394722023Y-101321130D01*
X394912500Y-100606845D01*
X395102976Y-101321130D01*
X395341071Y-100321130D01*
X396150595Y-100654464D02*
X396150595Y-101321130D01*
X395912500Y-100273511D02*
X395674404Y-100987797D01*
X396293452Y-100987797D01*
X393579166Y-73492261D02*
X393722023Y-73539880D01*
X393960119Y-73539880D01*
X394055357Y-73492261D01*
X394102976Y-73444642D01*
X394150595Y-73349404D01*
X394150595Y-73254166D01*
X394102976Y-73158928D01*
X394055357Y-73111309D01*
X393960119Y-73063690D01*
X393769642Y-73016071D01*
X393674404Y-72968452D01*
X393626785Y-72920833D01*
X393579166Y-72825595D01*
X393579166Y-72730357D01*
X393626785Y-72635119D01*
X393674404Y-72587500D01*
X393769642Y-72539880D01*
X394007738Y-72539880D01*
X394150595Y-72587500D01*
X394483928Y-72539880D02*
X394722023Y-73539880D01*
X394912500Y-72825595D01*
X395102976Y-73539880D01*
X395341071Y-72539880D01*
X395626785Y-72539880D02*
X396245833Y-72539880D01*
X395912500Y-72920833D01*
X396055357Y-72920833D01*
X396150595Y-72968452D01*
X396198214Y-73016071D01*
X396245833Y-73111309D01*
X396245833Y-73349404D01*
X396198214Y-73444642D01*
X396150595Y-73492261D01*
X396055357Y-73539880D01*
X395769642Y-73539880D01*
X395674404Y-73492261D01*
X395626785Y-73444642D01*
X40036904Y-135664880D02*
X40036904Y-134664880D01*
X40036904Y-135141071D02*
X40608333Y-135141071D01*
X40608333Y-135664880D02*
X40608333Y-134664880D01*
X41608333Y-135664880D02*
X41036904Y-135664880D01*
X41322619Y-135664880D02*
X41322619Y-134664880D01*
X41227380Y-134807738D01*
X41132142Y-134902976D01*
X41036904Y-134950595D01*
X41989285Y-134760119D02*
X42036904Y-134712500D01*
X42132142Y-134664880D01*
X42370238Y-134664880D01*
X42465476Y-134712500D01*
X42513095Y-134760119D01*
X42560714Y-134855357D01*
X42560714Y-134950595D01*
X42513095Y-135093452D01*
X41941666Y-135664880D01*
X42560714Y-135664880D01*
X253555654Y-57083630D02*
X253555654Y-56083630D01*
X253555654Y-56559821D02*
X254127083Y-56559821D01*
X254127083Y-57083630D02*
X254127083Y-56083630D01*
X255127083Y-57083630D02*
X254555654Y-57083630D01*
X254841369Y-57083630D02*
X254841369Y-56083630D01*
X254746130Y-56226488D01*
X254650892Y-56321726D01*
X254555654Y-56369345D01*
X256079464Y-57083630D02*
X255508035Y-57083630D01*
X255793750Y-57083630D02*
X255793750Y-56083630D01*
X255698511Y-56226488D01*
X255603273Y-56321726D01*
X255508035Y-56369345D01*
X329755654Y-136458630D02*
X329755654Y-135458630D01*
X329755654Y-135934821D02*
X330327083Y-135934821D01*
X330327083Y-136458630D02*
X330327083Y-135458630D01*
X331327083Y-136458630D02*
X330755654Y-136458630D01*
X331041369Y-136458630D02*
X331041369Y-135458630D01*
X330946130Y-135601488D01*
X330850892Y-135696726D01*
X330755654Y-135744345D01*
X331946130Y-135458630D02*
X332041369Y-135458630D01*
X332136607Y-135506250D01*
X332184226Y-135553869D01*
X332231845Y-135649107D01*
X332279464Y-135839583D01*
X332279464Y-136077678D01*
X332231845Y-136268154D01*
X332184226Y-136363392D01*
X332136607Y-136411011D01*
X332041369Y-136458630D01*
X331946130Y-136458630D01*
X331850892Y-136411011D01*
X331803273Y-136363392D01*
X331755654Y-136268154D01*
X331708035Y-136077678D01*
X331708035Y-135839583D01*
X331755654Y-135649107D01*
X331803273Y-135553869D01*
X331850892Y-135506250D01*
X331946130Y-135458630D01*
X334200595Y-57083630D02*
X334200595Y-56083630D01*
X334200595Y-56559821D02*
X334772023Y-56559821D01*
X334772023Y-57083630D02*
X334772023Y-56083630D01*
X335295833Y-57083630D02*
X335486309Y-57083630D01*
X335581547Y-57036011D01*
X335629166Y-56988392D01*
X335724404Y-56845535D01*
X335772023Y-56655059D01*
X335772023Y-56274107D01*
X335724404Y-56178869D01*
X335676785Y-56131250D01*
X335581547Y-56083630D01*
X335391071Y-56083630D01*
X335295833Y-56131250D01*
X335248214Y-56178869D01*
X335200595Y-56274107D01*
X335200595Y-56512202D01*
X335248214Y-56607440D01*
X335295833Y-56655059D01*
X335391071Y-56702678D01*
X335581547Y-56702678D01*
X335676785Y-56655059D01*
X335724404Y-56607440D01*
X335772023Y-56512202D01*
X383413095Y-137252380D02*
X383413095Y-136252380D01*
X383413095Y-136728571D02*
X383984523Y-136728571D01*
X383984523Y-137252380D02*
X383984523Y-136252380D01*
X384603571Y-136680952D02*
X384508333Y-136633333D01*
X384460714Y-136585714D01*
X384413095Y-136490476D01*
X384413095Y-136442857D01*
X384460714Y-136347619D01*
X384508333Y-136300000D01*
X384603571Y-136252380D01*
X384794047Y-136252380D01*
X384889285Y-136300000D01*
X384936904Y-136347619D01*
X384984523Y-136442857D01*
X384984523Y-136490476D01*
X384936904Y-136585714D01*
X384889285Y-136633333D01*
X384794047Y-136680952D01*
X384603571Y-136680952D01*
X384508333Y-136728571D01*
X384460714Y-136776190D01*
X384413095Y-136871428D01*
X384413095Y-137061904D01*
X384460714Y-137157142D01*
X384508333Y-137204761D01*
X384603571Y-137252380D01*
X384794047Y-137252380D01*
X384889285Y-137204761D01*
X384936904Y-137157142D01*
X384984523Y-137061904D01*
X384984523Y-136871428D01*
X384936904Y-136776190D01*
X384889285Y-136728571D01*
X384794047Y-136680952D01*
X380238095Y-41208630D02*
X380238095Y-40208630D01*
X380238095Y-40684821D02*
X380809523Y-40684821D01*
X380809523Y-41208630D02*
X380809523Y-40208630D01*
X381190476Y-40208630D02*
X381857142Y-40208630D01*
X381428571Y-41208630D01*
X138938095Y-135664880D02*
X138938095Y-134664880D01*
X138938095Y-135141071D02*
X139509523Y-135141071D01*
X139509523Y-135664880D02*
X139509523Y-134664880D01*
X140414285Y-134664880D02*
X140223809Y-134664880D01*
X140128571Y-134712500D01*
X140080952Y-134760119D01*
X139985714Y-134902976D01*
X139938095Y-135093452D01*
X139938095Y-135474404D01*
X139985714Y-135569642D01*
X140033333Y-135617261D01*
X140128571Y-135664880D01*
X140319047Y-135664880D01*
X140414285Y-135617261D01*
X140461904Y-135569642D01*
X140509523Y-135474404D01*
X140509523Y-135236309D01*
X140461904Y-135141071D01*
X140414285Y-135093452D01*
X140319047Y-135045833D01*
X140128571Y-135045833D01*
X140033333Y-135093452D01*
X139985714Y-135141071D01*
X139938095Y-135236309D01*
X40513095Y-57083630D02*
X40513095Y-56083630D01*
X40513095Y-56559821D02*
X41084523Y-56559821D01*
X41084523Y-57083630D02*
X41084523Y-56083630D01*
X42036904Y-56083630D02*
X41560714Y-56083630D01*
X41513095Y-56559821D01*
X41560714Y-56512202D01*
X41655952Y-56464583D01*
X41894047Y-56464583D01*
X41989285Y-56512202D01*
X42036904Y-56559821D01*
X42084523Y-56655059D01*
X42084523Y-56893154D01*
X42036904Y-56988392D01*
X41989285Y-57036011D01*
X41894047Y-57083630D01*
X41655952Y-57083630D01*
X41560714Y-57036011D01*
X41513095Y-56988392D01*
X205613095Y-135664880D02*
X205613095Y-134664880D01*
X205613095Y-135141071D02*
X206184523Y-135141071D01*
X206184523Y-135664880D02*
X206184523Y-134664880D01*
X207089285Y-134998214D02*
X207089285Y-135664880D01*
X206851190Y-134617261D02*
X206613095Y-135331547D01*
X207232142Y-135331547D01*
X254031845Y-136458630D02*
X254031845Y-135458630D01*
X254031845Y-135934821D02*
X254603273Y-135934821D01*
X254603273Y-136458630D02*
X254603273Y-135458630D01*
X254984226Y-135458630D02*
X255603273Y-135458630D01*
X255269940Y-135839583D01*
X255412797Y-135839583D01*
X255508035Y-135887202D01*
X255555654Y-135934821D01*
X255603273Y-136030059D01*
X255603273Y-136268154D01*
X255555654Y-136363392D01*
X255508035Y-136411011D01*
X255412797Y-136458630D01*
X255127083Y-136458630D01*
X255031845Y-136411011D01*
X254984226Y-136363392D01*
X196881845Y-57083630D02*
X196881845Y-56083630D01*
X196881845Y-56559821D02*
X197453273Y-56559821D01*
X197453273Y-57083630D02*
X197453273Y-56083630D01*
X197881845Y-56178869D02*
X197929464Y-56131250D01*
X198024702Y-56083630D01*
X198262797Y-56083630D01*
X198358035Y-56131250D01*
X198405654Y-56178869D01*
X198453273Y-56274107D01*
X198453273Y-56369345D01*
X198405654Y-56512202D01*
X197834226Y-57083630D01*
X198453273Y-57083630D01*
X139731845Y-57083630D02*
X139731845Y-56083630D01*
X139731845Y-56559821D02*
X140303273Y-56559821D01*
X140303273Y-57083630D02*
X140303273Y-56083630D01*
X141303273Y-57083630D02*
X140731845Y-57083630D01*
X141017559Y-57083630D02*
X141017559Y-56083630D01*
X140922321Y-56226488D01*
X140827083Y-56321726D01*
X140731845Y-56369345D01*
M02*
