M48
; DRILL file {KiCad (5.1.4)-1} date 2024-04-11 10:00:24 PM
; FORMAT={-:-/ absolute / metric / decimal}
; #@! TF.CreationDate,2024-04-11T22:00:24-07:00
; #@! TF.GenerationSoftware,Kicad,Pcbnew,(5.1.4)-1
; #@! TF.FileFunction,Plated,1,4,PTH
FMAT,2
METRIC
T1C0.400
T2C0.600
T3C1.000
T4C1.470
T5C1.500
T6C2.200
%
G90
G05
T1
X21.431Y-153.194
X23.019Y-92.869
X23.019Y-114.3
X23.019Y-130.969
X24.606Y-148.431
X25.4Y-72.231
X25.4Y-110.331
X31.714Y-95.269
X32.544Y-75.003
X32.817Y-132.036
X49.212Y-53.975
X268.287Y-92.075
X302.419Y-84.931
X342.9Y-89.694
X342.9Y-125.412
X361.95Y-143.669
X362.744Y-44.202
X374.65Y-62.706
X374.65Y-101.6
X376.238Y-53.975
X377.031Y-62.706
X377.031Y-81.756
X378.619Y-80.169
X378.619Y-100.806
X381.794Y-55.562
X382.587Y-76.994
X384.175Y-68.263
X385.762Y-65.881
X385.762Y-70.055
X385.762Y-71.054
X385.762Y-72.053
X385.762Y-73.052
X385.772Y-66.898
X385.776Y-67.917
X386.449Y-58.305
X386.556Y-52.387
X387.079Y-46.561
X387.35Y-58.737
X388.53Y-112.409
X388.822Y-74.497
X388.938Y-52.387
X388.938Y-76.994
X390.064Y-107.95
X390.525Y-70.644
X391.319Y-52.387
X391.319Y-71.438
X391.482Y-54.138
X392.112Y-72.231
X392.832Y-73.045
X393.815Y-54.295
X394.494Y-73.819
X395.287Y-74.612
X395.333Y-54.018
X395.521Y-56.59
X396.081Y-53.33
X396.081Y-54.769
X396.875Y-55.562
X396.875Y-56.945
X396.875Y-69.85
X397.669Y-57.944
X397.75Y-70.332
X398.462Y-42.862
X398.462Y-58.737
X398.462Y-105.569
X398.462Y-139.7
X398.842Y-69.772
X399.141Y-64.409
X399.256Y-59.531
X399.256Y-73.025
X399.271Y-70.674
X400.05Y-60.325
X400.05Y-72.231
X400.269Y-70.635
X400.844Y-61.119
X400.993Y-69.829
X401.637Y-61.912
X401.637Y-83.344
X401.866Y-71.209
T3
X392.112Y-134.144
X392.112Y-136.644
X392.112Y-139.144
X406.612Y-134.144
X406.612Y-139.144
X392.112Y-77.787
X392.112Y-80.287
X392.112Y-82.787
X406.612Y-77.787
X406.612Y-82.787
X392.112Y-105.569
X392.112Y-108.069
X392.112Y-110.569
X406.612Y-105.569
X406.612Y-110.569
X395.922Y-121.285
X395.922Y-123.825
X398.462Y-121.285
X398.462Y-123.825
X401.002Y-121.285
X401.002Y-123.825
T4
X84.296Y-104.616
X90.646Y-102.076
X23.971Y-85.566
X30.321Y-83.026
X274.796Y-104.616
X281.146Y-102.076
X117.634Y-85.566
X123.984Y-83.026
X70.009Y-47.466
X76.359Y-44.926
X289.084Y-85.566
X295.434Y-83.026
X325.596Y-150.654
X331.946Y-148.114
X260.509Y-47.466
X266.859Y-44.926
X241.459Y-142.716
X247.809Y-140.176
X279.559Y-66.516
X285.909Y-63.976
X208.121Y-123.666
X214.471Y-121.126
X146.209Y-66.516
X152.559Y-63.976
X98.584Y-142.716
X104.934Y-140.176
X344.646Y-85.566
X350.996Y-83.026
X170.021Y-123.666
X176.371Y-121.126
X108.109Y-66.516
X114.459Y-63.976
X62.865Y-123.666
X69.215Y-121.126
X231.934Y-85.566
X238.284Y-83.026
X279.559Y-47.466
X285.909Y-44.926
X58.102Y-104.616
X64.453Y-102.076
X136.684Y-85.566
X143.034Y-83.026
X363.696Y-150.654
X370.046Y-148.114
X184.309Y-66.516
X190.659Y-63.976
X53.34Y-142.716
X59.69Y-140.176
X198.596Y-104.616
X204.946Y-102.076
X23.971Y-142.716
X30.321Y-140.176
X108.109Y-47.466
X114.459Y-44.926
X289.084Y-142.716
X295.434Y-140.176
X89.059Y-47.466
X95.409Y-44.926
X122.396Y-104.616
X128.746Y-102.076
X203.359Y-47.466
X209.709Y-44.926
X250.984Y-85.566
X257.334Y-83.026
X344.646Y-47.466
X350.996Y-44.926
X103.346Y-104.616
X109.696Y-102.076
X312.896Y-85.566
X319.246Y-83.026
X174.784Y-85.566
X181.134Y-83.026
X127.159Y-66.516
X133.509Y-63.976
X23.971Y-104.616
X30.321Y-102.076
X308.134Y-66.516
X314.484Y-63.976
X363.696Y-66.516
X370.046Y-63.976
X344.646Y-66.516
X350.996Y-63.976
X23.971Y-66.516
X30.321Y-63.976
X170.021Y-142.716
X176.371Y-140.176
X179.546Y-104.616
X185.896Y-102.076
X227.171Y-123.666
X233.521Y-121.126
X363.696Y-47.466
X370.046Y-44.926
X74.771Y-142.716
X81.121Y-140.176
X23.971Y-123.666
X30.321Y-121.126
X150.971Y-123.666
X157.321Y-121.126
X23.971Y-47.466
X30.321Y-44.926
X300.99Y-123.666
X307.34Y-121.126
X363.696Y-85.566
X370.046Y-83.026
X50.959Y-66.516
X57.309Y-63.976
X79.534Y-85.566
X85.884Y-83.026
X260.509Y-66.516
X266.859Y-63.976
X344.646Y-150.654
X350.996Y-148.114
X317.659Y-47.466
X324.009Y-44.926
X50.959Y-47.466
X57.309Y-44.926
X222.409Y-66.516
X228.759Y-63.976
X344.646Y-131.604
X350.996Y-129.064
X203.359Y-66.516
X209.709Y-63.976
X344.646Y-104.616
X350.996Y-102.076
X165.259Y-47.466
X171.609Y-44.926
X270.034Y-85.566
X276.384Y-83.026
X127.159Y-47.466
X133.509Y-44.926
X193.834Y-85.566
X200.184Y-83.026
X165.259Y-66.516
X171.609Y-63.976
X217.646Y-104.616
X223.996Y-102.076
X305.752Y-104.616
X312.102Y-102.076
X155.734Y-85.566
X162.084Y-83.026
X70.009Y-66.516
X76.359Y-63.976
X131.921Y-123.666
X138.271Y-121.126
X55.721Y-85.566
X62.071Y-83.026
X112.871Y-123.666
X119.221Y-121.126
X265.271Y-123.666
X271.621Y-121.126
X363.696Y-104.616
X370.046Y-102.076
X246.221Y-123.666
X252.571Y-121.126
X298.609Y-47.466
X304.959Y-44.926
X141.446Y-104.616
X147.796Y-102.076
X189.071Y-123.666
X195.421Y-121.126
X184.309Y-47.466
X190.659Y-44.926
X265.271Y-142.716
X271.621Y-140.176
X236.696Y-104.616
X243.046Y-102.076
X255.746Y-104.616
X262.096Y-102.076
X89.059Y-66.516
X95.409Y-63.976
X241.459Y-66.516
X247.809Y-63.976
X222.409Y-47.466
X228.759Y-44.926
X146.209Y-47.466
X152.559Y-44.926
X160.496Y-104.616
X166.846Y-102.076
X98.584Y-85.566
X104.934Y-83.026
X93.821Y-123.666
X100.171Y-121.126
X241.459Y-47.466
X247.809Y-44.926
X212.884Y-85.566
X219.234Y-83.026
T6
X41.275Y-138.112
X330.994Y-138.906
X254.794Y-59.531
X334.962Y-59.531
X384.175Y-139.7
X381.0Y-43.656
X139.7Y-138.112
X41.275Y-59.531
X197.644Y-59.531
X206.375Y-138.112
X254.794Y-138.906
X140.494Y-59.531
T2
G00X386.205Y-38.019
M15
G01X386.205Y-38.619
M16
G05
G00X386.205Y-41.949
M15
G01X386.205Y-43.049
M16
G05
G00X394.845Y-38.019
M15
G01X394.845Y-38.619
M16
G05
G00X394.845Y-41.949
M15
G01X394.845Y-43.049
M16
G05
T5
G00X398.962Y-131.044
M15
G01X400.262Y-131.044
M16
G05
G00X398.962Y-142.244
M15
G01X400.262Y-142.244
M16
G05
G00X398.962Y-74.688
M15
G01X400.262Y-74.688
M16
G05
G00X398.962Y-85.888
M15
G01X400.262Y-85.888
M16
G05
G00X398.962Y-102.469
M15
G01X400.262Y-102.469
M16
G05
G00X398.962Y-113.669
M15
G01X400.262Y-113.669
M16
G05
T0
M30
