G04 #@! TF.GenerationSoftware,KiCad,Pcbnew,(5.1.4)-1*
G04 #@! TF.CreationDate,2024-04-11T21:59:36-07:00*
G04 #@! TF.ProjectId,keeb,6b656562-2e6b-4696-9361-645f70636258,rev?*
G04 #@! TF.SameCoordinates,Original*
G04 #@! TF.FileFunction,Copper,L1,Top*
G04 #@! TF.FilePolarity,Positive*
%FSLAX46Y46*%
G04 Gerber Fmt 4.6, Leading zero omitted, Abs format (unit mm)*
G04 Created by KiCad (PCBNEW (5.1.4)-1) date 2024-04-11 21:59:36*
%MOMM*%
%LPD*%
G04 APERTURE LIST*
%ADD10C,2.250000*%
%ADD11O,1.000000X2.100000*%
%ADD12O,1.000000X1.600000*%
%ADD13R,2.000000X2.000000*%
%ADD14C,2.000000*%
%ADD15R,3.200000X2.000000*%
%ADD16R,1.700000X1.700000*%
%ADD17C,1.700000*%
%ADD18C,3.800000*%
%ADD19C,0.800000*%
%ADD20C,0.385000*%
%ADD21C,0.250000*%
G04 APERTURE END LIST*
D10*
X295433750Y-140176250D03*
X289083750Y-142716250D03*
X271621250Y-140176250D03*
X265271250Y-142716250D03*
X59690000Y-140176250D03*
X53340000Y-142716250D03*
X104933750Y-140176250D03*
X98583750Y-142716250D03*
X247808750Y-140176250D03*
X241458750Y-142716250D03*
X176371250Y-140176250D03*
X170021250Y-142716250D03*
X81121250Y-140176250D03*
X74771250Y-142716250D03*
X307340000Y-121126250D03*
X300990000Y-123666250D03*
X69215000Y-121126250D03*
X62865000Y-123666250D03*
X312102500Y-102076250D03*
X305752500Y-104616250D03*
X64452500Y-102076250D03*
X58102500Y-104616250D03*
X319246250Y-83026250D03*
X312896250Y-85566250D03*
X314483750Y-63976250D03*
X308133750Y-66516250D03*
X62071250Y-83026250D03*
X55721250Y-85566250D03*
D11*
X386205000Y-42498750D03*
X394845000Y-42498750D03*
D12*
X386205000Y-38318750D03*
X394845000Y-38318750D03*
D13*
X392112500Y-134143750D03*
D14*
X392112500Y-136643750D03*
X392112500Y-139143750D03*
D15*
X399612500Y-131043750D03*
X399612500Y-142243750D03*
D14*
X406612500Y-134143750D03*
X406612500Y-139143750D03*
D13*
X392112500Y-105568750D03*
D14*
X392112500Y-108068750D03*
X392112500Y-110568750D03*
D15*
X399612500Y-102468750D03*
X399612500Y-113668750D03*
D14*
X406612500Y-105568750D03*
X406612500Y-110568750D03*
D13*
X392112500Y-77787500D03*
D14*
X392112500Y-80287500D03*
X392112500Y-82787500D03*
D15*
X399612500Y-74687500D03*
X399612500Y-85887500D03*
D14*
X406612500Y-77787500D03*
X406612500Y-82787500D03*
D10*
X370046250Y-148113750D03*
X363696250Y-150653750D03*
X350996250Y-148113750D03*
X344646250Y-150653750D03*
X331946250Y-148113750D03*
X325596250Y-150653750D03*
X30321250Y-140176250D03*
X23971250Y-142716250D03*
X350996250Y-129063750D03*
X344646250Y-131603750D03*
X271621250Y-121126250D03*
X265271250Y-123666250D03*
X252571250Y-121126250D03*
X246221250Y-123666250D03*
X233521250Y-121126250D03*
X227171250Y-123666250D03*
X214471250Y-121126250D03*
X208121250Y-123666250D03*
X195421250Y-121126250D03*
X189071250Y-123666250D03*
X176371250Y-121126250D03*
X170021250Y-123666250D03*
X157321250Y-121126250D03*
X150971250Y-123666250D03*
X138271250Y-121126250D03*
X131921250Y-123666250D03*
X119221250Y-121126250D03*
X112871250Y-123666250D03*
X100171250Y-121126250D03*
X93821250Y-123666250D03*
X30321250Y-121126250D03*
X23971250Y-123666250D03*
X370046250Y-102076250D03*
X363696250Y-104616250D03*
X344646250Y-104616250D03*
X350996250Y-102076250D03*
X281146250Y-102076250D03*
X274796250Y-104616250D03*
X262096250Y-102076250D03*
X255746250Y-104616250D03*
X243046250Y-102076250D03*
X236696250Y-104616250D03*
X223996250Y-102076250D03*
X217646250Y-104616250D03*
X204946250Y-102076250D03*
X198596250Y-104616250D03*
X185896250Y-102076250D03*
X179546250Y-104616250D03*
X166846250Y-102076250D03*
X160496250Y-104616250D03*
X147796250Y-102076250D03*
X141446250Y-104616250D03*
X128746250Y-102076250D03*
X122396250Y-104616250D03*
X109696250Y-102076250D03*
X103346250Y-104616250D03*
X90646250Y-102076250D03*
X84296250Y-104616250D03*
X30321250Y-102076250D03*
X23971250Y-104616250D03*
X370046250Y-83026250D03*
X363696250Y-85566250D03*
X350996250Y-83026250D03*
X344646250Y-85566250D03*
X295433750Y-83026250D03*
X289083750Y-85566250D03*
X276383750Y-83026250D03*
X270033750Y-85566250D03*
X257333750Y-83026250D03*
X250983750Y-85566250D03*
X238283750Y-83026250D03*
X231933750Y-85566250D03*
X219233750Y-83026250D03*
X212883750Y-85566250D03*
X200183750Y-83026250D03*
X193833750Y-85566250D03*
X181133750Y-83026250D03*
X174783750Y-85566250D03*
X162083750Y-83026250D03*
X155733750Y-85566250D03*
X143033750Y-83026250D03*
X136683750Y-85566250D03*
X123983750Y-83026250D03*
X117633750Y-85566250D03*
X370046250Y-63976250D03*
X363696250Y-66516250D03*
X350996250Y-63976250D03*
X344646250Y-66516250D03*
X285908750Y-63976250D03*
X279558750Y-66516250D03*
X266858750Y-63976250D03*
X260508750Y-66516250D03*
X247808750Y-63976250D03*
X241458750Y-66516250D03*
X228758750Y-63976250D03*
X222408750Y-66516250D03*
X209708750Y-63976250D03*
X203358750Y-66516250D03*
X190658750Y-63976250D03*
X184308750Y-66516250D03*
X171608750Y-63976250D03*
X165258750Y-66516250D03*
X152558750Y-63976250D03*
X146208750Y-66516250D03*
X133508750Y-63976250D03*
X127158750Y-66516250D03*
X114458750Y-63976250D03*
X108108750Y-66516250D03*
X370046250Y-44926250D03*
X363696250Y-47466250D03*
X350996250Y-44926250D03*
X344646250Y-47466250D03*
X324008750Y-44926250D03*
X317658750Y-47466250D03*
X304958750Y-44926250D03*
X298608750Y-47466250D03*
X285908750Y-44926250D03*
X279558750Y-47466250D03*
X266858750Y-44926250D03*
X260508750Y-47466250D03*
X247808750Y-44926250D03*
X241458750Y-47466250D03*
X228758750Y-44926250D03*
X222408750Y-47466250D03*
X209708750Y-44926250D03*
X203358750Y-47466250D03*
X190658750Y-44926250D03*
X184308750Y-47466250D03*
X171608750Y-44926250D03*
X165258750Y-47466250D03*
X152558750Y-44926250D03*
X146208750Y-47466250D03*
X133508750Y-44926250D03*
X127158750Y-47466250D03*
X114458750Y-44926250D03*
X108108750Y-47466250D03*
X104933750Y-83026250D03*
X98583750Y-85566250D03*
X85883750Y-83026250D03*
X79533750Y-85566250D03*
X30321250Y-83026250D03*
X23971250Y-85566250D03*
X95408750Y-63976250D03*
X89058750Y-66516250D03*
X76358750Y-63976250D03*
X70008750Y-66516250D03*
X57308750Y-63976250D03*
X50958750Y-66516250D03*
X30321250Y-63976250D03*
X23971250Y-66516250D03*
X95408750Y-44926250D03*
X89058750Y-47466250D03*
X76358750Y-44926250D03*
X70008750Y-47466250D03*
X57308750Y-44926250D03*
X50958750Y-47466250D03*
X30321250Y-44926250D03*
X23971250Y-47466250D03*
D16*
X395922500Y-121285000D03*
D17*
X395922500Y-123825000D03*
X398462500Y-121285000D03*
X398462500Y-123825000D03*
X401002500Y-121285000D03*
X401002500Y-123825000D03*
D18*
X41275000Y-138112500D03*
X254793750Y-59531250D03*
X330993750Y-138906250D03*
X334962500Y-59531250D03*
X384175000Y-139700000D03*
X381000000Y-43656250D03*
X139700000Y-138112500D03*
X41275000Y-59531250D03*
X206375000Y-138112500D03*
X254793750Y-138906250D03*
X197643750Y-59531250D03*
X140493750Y-59531250D03*
D19*
X386556250Y-52387500D03*
X388937500Y-52387500D03*
X391481551Y-54137801D03*
X381793750Y-55562500D03*
X25400000Y-72231250D03*
X25400000Y-110331250D03*
X31714274Y-95269273D03*
X398462500Y-139700000D03*
X24606250Y-148431250D03*
X32817499Y-132036249D03*
X401637500Y-83343750D03*
X390064499Y-107950000D03*
X388529559Y-112409261D03*
X49212500Y-53975000D03*
X32543750Y-75003011D03*
X23018750Y-92868750D03*
X23018750Y-114300000D03*
X23018750Y-130968750D03*
X21431250Y-153193750D03*
X393815071Y-54295076D03*
X386449377Y-58305201D03*
X396081250Y-53330250D03*
X398462500Y-105568750D03*
X382587500Y-76993750D03*
X268287500Y-92075000D03*
X302418750Y-84931250D03*
X342900000Y-89693750D03*
X387079304Y-46560554D03*
X391318750Y-52387500D03*
X390525000Y-70643750D03*
X362743750Y-44202250D03*
X391318750Y-71437500D03*
X374650000Y-62706250D03*
X385762500Y-65881250D03*
X377031250Y-62706250D03*
X378618750Y-80168750D03*
X392832279Y-73044972D03*
X374650000Y-101600000D03*
X378618750Y-100806250D03*
X394493750Y-73818750D03*
X342900000Y-125412500D03*
X395287500Y-74612500D03*
X361950000Y-143668750D03*
X401637500Y-61912500D03*
X398462500Y-42862500D03*
X400050000Y-72231250D03*
X387350000Y-58737500D03*
X401866389Y-71208612D03*
X399256250Y-73025000D03*
X388822429Y-74497429D03*
X388937500Y-76993750D03*
X376237500Y-53975000D03*
X399141179Y-64408821D03*
X400993034Y-69829030D03*
X400269034Y-70635149D03*
X399256250Y-59531250D03*
X399270801Y-70674348D03*
X398841760Y-69772168D03*
X397750090Y-70331893D03*
X396875000Y-69850000D03*
X384175000Y-68262500D03*
X385762500Y-73052262D03*
X395520900Y-56589649D03*
X392112500Y-72231250D03*
X377031250Y-81756250D03*
X385771619Y-66897513D03*
X385776155Y-67916869D03*
X385762500Y-70055253D03*
X385762500Y-71054256D03*
X385762500Y-72053259D03*
X395333094Y-54018314D03*
X396081250Y-54768750D03*
X396875000Y-55562500D03*
X396875000Y-56944747D03*
X397668750Y-57943750D03*
X398462500Y-58737500D03*
X400050000Y-60325000D03*
X400843750Y-61118750D03*
D20*
X386556250Y-52387500D02*
X388937500Y-52387500D01*
X388937500Y-52387500D02*
X389731250Y-52387500D01*
X389731250Y-52387500D02*
X391481551Y-54137801D01*
X384968750Y-52387500D02*
X386556250Y-52387500D01*
X381793750Y-55562500D02*
X384968750Y-52387500D01*
X25414550Y-72216700D02*
X25400000Y-72231250D01*
X31575222Y-72216700D02*
X25414550Y-72216700D01*
X34135401Y-69656521D02*
X31575222Y-72216700D01*
X41275000Y-59531250D02*
X34135401Y-66670849D01*
X34135401Y-66670849D02*
X34135401Y-69656521D01*
X31837751Y-95392750D02*
X31714274Y-95269273D01*
X31837751Y-102804171D02*
X31837751Y-95392750D01*
X30166651Y-104475271D02*
X31837751Y-102804171D01*
X30166651Y-108301243D02*
X30166651Y-104475271D01*
X28926243Y-109541651D02*
X30166651Y-108301243D01*
X26189599Y-109541651D02*
X28926243Y-109541651D01*
X25400000Y-110331250D02*
X26189599Y-109541651D01*
X395406250Y-136643750D02*
X392112500Y-136643750D01*
X398462500Y-139700000D02*
X395406250Y-136643750D01*
X32817499Y-140220001D02*
X32817499Y-132036249D01*
X30166651Y-142870849D02*
X32817499Y-140220001D01*
X30166651Y-146401243D02*
X30166651Y-142870849D01*
X28926243Y-147641651D02*
X30166651Y-146401243D01*
X25395849Y-147641651D02*
X28926243Y-147641651D01*
X24606250Y-148431250D02*
X25395849Y-147641651D01*
X395168750Y-83343750D02*
X392112500Y-80287500D01*
X401637500Y-83343750D02*
X395168750Y-83343750D01*
X49212500Y-53975000D02*
X49212500Y-58334261D01*
X49212500Y-58334261D02*
X32543750Y-75003011D01*
X21434749Y-112715999D02*
X23018750Y-114300000D01*
X23018750Y-92868750D02*
X21434749Y-94452751D01*
X21434749Y-94452751D02*
X21434749Y-112715999D01*
X23018750Y-130968750D02*
X21431250Y-132556250D01*
X21431250Y-132556250D02*
X21431250Y-153193750D01*
X389825276Y-54929302D02*
X386449377Y-58305201D01*
X393815071Y-54295076D02*
X393180845Y-54929302D01*
X393180845Y-54929302D02*
X389825276Y-54929302D01*
D21*
X396045313Y-53294313D02*
X396081250Y-53330250D01*
X393815071Y-54295076D02*
X394815834Y-53294313D01*
X394815834Y-53294313D02*
X396045313Y-53294313D01*
D20*
X387079304Y-46560554D02*
X391318750Y-50800000D01*
X391318750Y-50800000D02*
X391318750Y-52387500D01*
D21*
X23971250Y-47466250D02*
X23971250Y-66516250D01*
X23971250Y-66516250D02*
X23971250Y-85566250D01*
X23971250Y-85566250D02*
X23971250Y-104616250D01*
X23971250Y-104616250D02*
X23971250Y-123666250D01*
X23971250Y-123666250D02*
X23971250Y-142716250D01*
X406612500Y-105568750D02*
X381212500Y-80168750D01*
X381212500Y-80168750D02*
X378618750Y-80168750D01*
X379721272Y-100806250D02*
X378618750Y-100806250D01*
X399636501Y-120721479D02*
X379721272Y-100806250D01*
X406612500Y-134143750D02*
X399636501Y-127167751D01*
X399636501Y-127167751D02*
X399636501Y-120721479D01*
X401637500Y-61912500D02*
X401637500Y-46037500D01*
X401637500Y-46037500D02*
X398462500Y-42862500D01*
X388822429Y-74497429D02*
X388822429Y-76878679D01*
X388822429Y-76878679D02*
X388937500Y-76993750D01*
X392112500Y-76537500D02*
X392112500Y-77787500D01*
X393556280Y-75093720D02*
X392112500Y-76537500D01*
X393556280Y-72097198D02*
X393556280Y-75093720D01*
X396605311Y-69048167D02*
X393556280Y-72097198D01*
X400212171Y-69048167D02*
X396605311Y-69048167D01*
X400993034Y-69829030D02*
X400212171Y-69048167D01*
X393112499Y-83787499D02*
X392112500Y-82787500D01*
X393392751Y-84067751D02*
X393112499Y-83787499D01*
X401985021Y-84067751D02*
X393392751Y-84067751D01*
X402431250Y-83621522D02*
X401985021Y-84067751D01*
X402431250Y-72797365D02*
X402431250Y-83621522D01*
X400269034Y-70635149D02*
X402431250Y-72797365D01*
X317658750Y-47466250D02*
X319150849Y-48958349D01*
X325596250Y-149062760D02*
X325596250Y-150653750D01*
X325596250Y-82487994D02*
X325596250Y-149062760D01*
X319150849Y-76042593D02*
X325596250Y-82487994D01*
X319150849Y-68992901D02*
X319150849Y-76042593D01*
X319150849Y-68992901D02*
X319150849Y-69181605D01*
X319150849Y-48958349D02*
X319150849Y-68992901D01*
X89058750Y-54956717D02*
X89058750Y-66516250D01*
X89058750Y-47466250D02*
X89058750Y-54956717D01*
X89058750Y-76041250D02*
X98583750Y-85566250D01*
X89058750Y-66516250D02*
X89058750Y-76041250D01*
X84296250Y-103025260D02*
X84296250Y-104616250D01*
X84296250Y-99349228D02*
X84296250Y-103025260D01*
X96738229Y-86907249D02*
X84296250Y-99349228D01*
X97242751Y-86907249D02*
X96738229Y-86907249D01*
X98583750Y-85566250D02*
X97242751Y-86907249D01*
X84296250Y-114141250D02*
X93821250Y-123666250D01*
X84296250Y-104616250D02*
X84296250Y-114141250D01*
X93821250Y-140335000D02*
X96202500Y-142716250D01*
X93821250Y-123666250D02*
X93821250Y-140335000D01*
X96202500Y-142716250D02*
X98583750Y-142716250D01*
X165258750Y-49057240D02*
X165258750Y-66516250D01*
X165258750Y-47466250D02*
X165258750Y-49057240D01*
X165258750Y-76041250D02*
X174783750Y-85566250D01*
X165258750Y-66516250D02*
X165258750Y-76041250D01*
X160496250Y-103025260D02*
X160496250Y-104616250D01*
X160496250Y-99349228D02*
X160496250Y-103025260D01*
X172938229Y-86907249D02*
X160496250Y-99349228D01*
X173442751Y-86907249D02*
X172938229Y-86907249D01*
X174783750Y-85566250D02*
X173442751Y-86907249D01*
X160496250Y-114141250D02*
X170021250Y-123666250D01*
X160496250Y-104616250D02*
X160496250Y-114141250D01*
X170021250Y-123666250D02*
X170021250Y-140335000D01*
X170021250Y-140335000D02*
X170021250Y-142716250D01*
X241458750Y-49057240D02*
X241458750Y-66516250D01*
X241458750Y-47466250D02*
X241458750Y-49057240D01*
X241458750Y-76041250D02*
X250983750Y-85566250D01*
X241458750Y-66516250D02*
X241458750Y-76041250D01*
X236696250Y-103025260D02*
X236696250Y-104616250D01*
X236696250Y-99349228D02*
X236696250Y-103025260D01*
X249138229Y-86907249D02*
X236696250Y-99349228D01*
X249642751Y-86907249D02*
X249138229Y-86907249D01*
X250983750Y-85566250D02*
X249642751Y-86907249D01*
X236696250Y-114141250D02*
X246221250Y-123666250D01*
X236696250Y-104616250D02*
X236696250Y-114141250D01*
X241458750Y-141125260D02*
X241458750Y-142716250D01*
X241458750Y-127924228D02*
X241458750Y-141125260D01*
X244375729Y-125007249D02*
X241458750Y-127924228D01*
X244880251Y-125007249D02*
X244375729Y-125007249D01*
X246221250Y-123666250D02*
X244880251Y-125007249D01*
X50958750Y-66516250D02*
X50958750Y-47466250D01*
X50958750Y-80803750D02*
X55721250Y-85566250D01*
X50958750Y-66516250D02*
X50958750Y-80803750D01*
X55721250Y-102235000D02*
X58102500Y-104616250D01*
X55721250Y-85566250D02*
X55721250Y-102235000D01*
X58102500Y-118903750D02*
X62865000Y-123666250D01*
X58102500Y-104616250D02*
X58102500Y-118903750D01*
X57150000Y-138906250D02*
X53340000Y-142716250D01*
X57150000Y-128876728D02*
X57150000Y-138906250D01*
X61019479Y-125007249D02*
X57150000Y-128876728D01*
X62865000Y-123666250D02*
X61524001Y-125007249D01*
X61524001Y-125007249D02*
X61019479Y-125007249D01*
X70008750Y-68107240D02*
X70008750Y-66516250D01*
X70008750Y-68551728D02*
X70008750Y-68107240D01*
X73740369Y-72283347D02*
X70008750Y-68551728D01*
X75487564Y-72283347D02*
X73740369Y-72283347D01*
X78408751Y-75204534D02*
X75487564Y-72283347D01*
X78408751Y-84441251D02*
X78408751Y-75204534D01*
X79533750Y-85566250D02*
X78408751Y-84441251D01*
X70008750Y-47466250D02*
X70008750Y-66516250D01*
X72390000Y-142716250D02*
X74771250Y-142716250D01*
X70555999Y-140882249D02*
X72390000Y-142716250D01*
X70555999Y-121929773D02*
X70555999Y-140882249D01*
X79533750Y-85566250D02*
X79533750Y-112952022D01*
X79533750Y-112952022D02*
X70555999Y-121929773D01*
X103346250Y-114141250D02*
X103346250Y-104616250D01*
X112871250Y-123666250D02*
X103346250Y-114141250D01*
X117633750Y-90328750D02*
X117633750Y-85566250D01*
X103346250Y-104616250D02*
X117633750Y-90328750D01*
X108108750Y-76041250D02*
X117633750Y-85566250D01*
X108108750Y-66516250D02*
X108108750Y-76041250D01*
X108108750Y-47466250D02*
X108108750Y-66516250D01*
X127158750Y-47466250D02*
X127158750Y-66516250D01*
X127158750Y-76041250D02*
X136683750Y-85566250D01*
X127158750Y-66516250D02*
X127158750Y-76041250D01*
X122396250Y-103025260D02*
X122396250Y-104616250D01*
X122396250Y-99349228D02*
X122396250Y-103025260D01*
X134838229Y-86907249D02*
X122396250Y-99349228D01*
X135342751Y-86907249D02*
X134838229Y-86907249D01*
X136683750Y-85566250D02*
X135342751Y-86907249D01*
X122396250Y-114141250D02*
X131921250Y-123666250D01*
X122396250Y-104616250D02*
X122396250Y-114141250D01*
X154142760Y-85566250D02*
X155733750Y-85566250D01*
X153264749Y-86444261D02*
X154142760Y-85566250D01*
X141446250Y-104616250D02*
X153264749Y-92797751D01*
X153264749Y-92797751D02*
X153264749Y-86444261D01*
X146208750Y-68676744D02*
X146208750Y-68107240D01*
X148906157Y-71374151D02*
X146208750Y-68676744D01*
X154608751Y-75204534D02*
X150778368Y-71374151D01*
X146208750Y-68107240D02*
X146208750Y-66516250D01*
X150778368Y-71374151D02*
X148906157Y-71374151D01*
X154608751Y-84441251D02*
X154608751Y-75204534D01*
X155733750Y-85566250D02*
X154608751Y-84441251D01*
X146208750Y-47466250D02*
X146208750Y-66516250D01*
X141446250Y-114141250D02*
X150971250Y-123666250D01*
X141446250Y-104616250D02*
X141446250Y-114141250D01*
X179546250Y-114141250D02*
X189071250Y-123666250D01*
X179546250Y-104616250D02*
X179546250Y-114141250D01*
X179546250Y-103025260D02*
X179546250Y-104616250D01*
X179546250Y-98262760D02*
X179546250Y-103025260D01*
X192242760Y-85566250D02*
X179546250Y-98262760D01*
X193833750Y-85566250D02*
X192242760Y-85566250D01*
X184308750Y-76041250D02*
X193833750Y-85566250D01*
X184308750Y-66516250D02*
X184308750Y-76041250D01*
X184308750Y-50510772D02*
X184308750Y-66516250D01*
X184308750Y-47466250D02*
X184308750Y-50510772D01*
X203358750Y-47466250D02*
X203358750Y-66516250D01*
X203358750Y-76041250D02*
X212883750Y-85566250D01*
X203358750Y-66516250D02*
X203358750Y-76041250D01*
X198596250Y-103025260D02*
X198596250Y-104616250D01*
X198596250Y-99349228D02*
X198596250Y-103025260D01*
X211038229Y-86907249D02*
X198596250Y-99349228D01*
X211542751Y-86907249D02*
X211038229Y-86907249D01*
X212883750Y-85566250D02*
X211542751Y-86907249D01*
X198596250Y-114141250D02*
X208121250Y-123666250D01*
X198596250Y-104616250D02*
X198596250Y-114141250D01*
X222408750Y-47466250D02*
X222408750Y-66516250D01*
X222408750Y-76041250D02*
X231933750Y-85566250D01*
X222408750Y-66516250D02*
X222408750Y-76041250D01*
X217646250Y-103025260D02*
X217646250Y-104616250D01*
X217646250Y-98262760D02*
X217646250Y-103025260D01*
X230342760Y-85566250D02*
X217646250Y-98262760D01*
X231933750Y-85566250D02*
X230342760Y-85566250D01*
X217646250Y-114141250D02*
X227171250Y-123666250D01*
X217646250Y-104616250D02*
X217646250Y-114141250D01*
X260508750Y-47466250D02*
X260508750Y-66516250D01*
X260508750Y-76041250D02*
X270033750Y-85566250D01*
X260508750Y-66516250D02*
X260508750Y-76041250D01*
X255746250Y-103025260D02*
X255746250Y-104616250D01*
X255746250Y-99349228D02*
X255746250Y-103025260D01*
X268188229Y-86907249D02*
X255746250Y-99349228D01*
X268692751Y-86907249D02*
X268188229Y-86907249D01*
X270033750Y-85566250D02*
X268692751Y-86907249D01*
X255746250Y-114141250D02*
X265271250Y-123666250D01*
X255746250Y-104616250D02*
X255746250Y-114141250D01*
X266396249Y-124791249D02*
X266396249Y-139210001D01*
X265271250Y-123666250D02*
X266396249Y-124791249D01*
X265271250Y-140335000D02*
X265271250Y-142716250D01*
X266396249Y-139210001D02*
X265271250Y-140335000D01*
X279558750Y-54956717D02*
X279558750Y-66516250D01*
X279558750Y-47466250D02*
X279558750Y-54956717D01*
X279558750Y-76041250D02*
X289083750Y-85566250D01*
X279558750Y-66516250D02*
X279558750Y-76041250D01*
X274796250Y-103025260D02*
X274796250Y-104616250D01*
X274796250Y-99349228D02*
X274796250Y-103025260D01*
X287454229Y-86691249D02*
X274796250Y-99349228D01*
X287958751Y-86691249D02*
X287454229Y-86691249D01*
X289083750Y-85566250D02*
X287958751Y-86691249D01*
X299865001Y-122541251D02*
X300990000Y-123666250D01*
X286967611Y-109643861D02*
X299865001Y-122541251D01*
X277663367Y-109643861D02*
X286967611Y-109643861D01*
X274796250Y-106776744D02*
X277663367Y-109643861D01*
X274796250Y-104616250D02*
X274796250Y-106776744D01*
X296068750Y-135731250D02*
X289083750Y-142716250D01*
X296068750Y-124618750D02*
X296068750Y-135731250D01*
X300990000Y-123666250D02*
X297021250Y-123666250D01*
X297021250Y-123666250D02*
X296068750Y-124618750D01*
X298608750Y-56991250D02*
X308133750Y-66516250D01*
X298608750Y-47466250D02*
X298608750Y-56991250D01*
X308133750Y-80803750D02*
X312896250Y-85566250D01*
X308133750Y-66516250D02*
X308133750Y-80803750D01*
X312896250Y-97472500D02*
X305752500Y-104616250D01*
X312896250Y-85566250D02*
X312896250Y-97472500D01*
X344646250Y-47466250D02*
X344646250Y-66516250D01*
X344646250Y-68107240D02*
X344646250Y-85566250D01*
X344646250Y-66516250D02*
X344646250Y-68107240D01*
X344646250Y-87157240D02*
X344646250Y-104616250D01*
X344646250Y-85566250D02*
X344646250Y-87157240D01*
X344646250Y-104616250D02*
X344646250Y-128428750D01*
X344646250Y-131603750D02*
X344646250Y-150653750D01*
X344646250Y-128428750D02*
X344646250Y-131603750D01*
X363696250Y-47466250D02*
X363696250Y-66516250D01*
X363696250Y-66516250D02*
X363696250Y-85566250D01*
X363696250Y-85566250D02*
X363696250Y-104616250D01*
X363696250Y-104616250D02*
X363696250Y-147478750D01*
X363696250Y-147478750D02*
X363696250Y-150653750D01*
M02*
