G04 #@! TF.GenerationSoftware,KiCad,Pcbnew,(5.1.4)-1*
G04 #@! TF.CreationDate,2024-04-11T21:59:36-07:00*
G04 #@! TF.ProjectId,keeb,6b656562-2e6b-4696-9361-645f70636258,rev?*
G04 #@! TF.SameCoordinates,Original*
G04 #@! TF.FileFunction,Profile,NP*
%FSLAX46Y46*%
G04 Gerber Fmt 4.6, Leading zero omitted, Abs format (unit mm)*
G04 Created by KiCad (PCBNEW (5.1.4)-1) date 2024-04-11 21:59:36*
%MOMM*%
%LPD*%
G04 APERTURE LIST*
%ADD10C,0.050000*%
%ADD11C,0.100000*%
G04 APERTURE END LIST*
D10*
X319087500Y-157162500D02*
X19050000Y-157162500D01*
X381000000Y-143668750D02*
X377825000Y-143668750D01*
X384175000Y-40481250D02*
X19050000Y-40481250D01*
X408781250Y-41275000D02*
X408781250Y-134143750D01*
X396875000Y-40481250D02*
X407987500Y-40481250D01*
X407987500Y-40481250D02*
G75*
G02X408781250Y-41275000I0J-793750D01*
G01*
X396081250Y-37306250D02*
X396081250Y-39687500D01*
X396875000Y-40481250D02*
G75*
G02X396081250Y-39687500I0J793750D01*
G01*
X319881250Y-157956250D02*
X319881250Y-161925000D01*
X18256250Y-153987500D02*
X18256250Y-156368750D01*
X381000000Y-143668750D02*
X407987500Y-143668750D01*
X377031250Y-144462500D02*
X377031250Y-161925000D01*
X408781250Y-134143750D02*
X408781250Y-142875000D01*
X18256250Y-41275000D02*
X18256250Y-153987500D01*
X18256250Y-41275000D02*
G75*
G02X19050000Y-40481250I793750J0D01*
G01*
X19050000Y-157162500D02*
G75*
G02X18256250Y-156368750I0J793750D01*
G01*
X319087500Y-157162500D02*
G75*
G02X319881250Y-157956250I0J-793750D01*
G01*
X320675000Y-162718750D02*
X376237500Y-162718750D01*
X320675000Y-162718750D02*
G75*
G02X319881250Y-161925000I0J793750D01*
G01*
X384968750Y-37306250D02*
X384968750Y-39687500D01*
X395287500Y-36512500D02*
X385762500Y-36512500D01*
X377031250Y-161925000D02*
G75*
G02X376237500Y-162718750I-793750J0D01*
G01*
X377031250Y-144462500D02*
G75*
G02X377825000Y-143668750I793750J0D01*
G01*
X408781250Y-142875000D02*
G75*
G02X407987500Y-143668750I-793750J0D01*
G01*
X395287500Y-36512500D02*
G75*
G02X396081250Y-37306250I0J-793750D01*
G01*
X384968750Y-37306250D02*
G75*
G02X385762500Y-36512500I793750J0D01*
G01*
X384968750Y-39687500D02*
G75*
G02X384175000Y-40481250I-793750J0D01*
G01*
D11*
X146302960Y-110826702D02*
G75*
G02X146050702Y-110895001I-252258J431701D01*
G01*
X144461798Y-110895001D02*
G75*
G02X144209539Y-110826702I0J500000D01*
G01*
X143506766Y-111475282D02*
G75*
G02X144209539Y-110826702I450515J216879D01*
G01*
X143506766Y-111475281D02*
G75*
G02X143556251Y-111692159I-450515J-216878D01*
G01*
X143556251Y-113097844D02*
G75*
G02X143506766Y-113314721I-500000J1D01*
G01*
X144209539Y-113963298D02*
G75*
G02X143506766Y-113314721I-252258J431700D01*
G01*
X144209539Y-113963299D02*
G75*
G02X144461797Y-113895000I252258J-431701D01*
G01*
X146050703Y-113895001D02*
G75*
G02X146302961Y-113963300I-1J-499999D01*
G01*
X147005734Y-113314721D02*
G75*
G02X146302961Y-113963300I-450515J-216878D01*
G01*
X147005734Y-113314721D02*
G75*
G02X146956249Y-113097843I450515J216878D01*
G01*
X146956249Y-111692158D02*
G75*
G02X147005734Y-111475281I500000J-1D01*
G01*
X146302961Y-110826704D02*
G75*
G02X147005734Y-111475281I252258J-431700D01*
G01*
X146956249Y-111692159D02*
X146956249Y-113097843D01*
X146050702Y-113895000D02*
X144461797Y-113895000D01*
X143556251Y-113097843D02*
X143556251Y-111692159D01*
X144461798Y-110895001D02*
X146050702Y-110895001D01*
X368552960Y-156864202D02*
G75*
G02X368300702Y-156932501I-252258J431701D01*
G01*
X366711798Y-156932501D02*
G75*
G02X366459539Y-156864202I0J500000D01*
G01*
X365756766Y-157512782D02*
G75*
G02X366459539Y-156864202I450515J216879D01*
G01*
X365756766Y-157512781D02*
G75*
G02X365806251Y-157729659I-450515J-216878D01*
G01*
X365806251Y-159135344D02*
G75*
G02X365756766Y-159352221I-500000J1D01*
G01*
X366459539Y-160000798D02*
G75*
G02X365756766Y-159352221I-252258J431700D01*
G01*
X366459539Y-160000799D02*
G75*
G02X366711797Y-159932500I252258J-431701D01*
G01*
X368300703Y-159932501D02*
G75*
G02X368552961Y-160000800I-1J-499999D01*
G01*
X369255734Y-159352221D02*
G75*
G02X368552961Y-160000800I-450515J-216878D01*
G01*
X369255734Y-159352221D02*
G75*
G02X369206249Y-159135343I450515J216878D01*
G01*
X369206249Y-157729658D02*
G75*
G02X369255734Y-157512781I500000J-1D01*
G01*
X368552961Y-156864204D02*
G75*
G02X369255734Y-157512781I252258J-431700D01*
G01*
X369206249Y-157729659D02*
X369206249Y-159135343D01*
X368300702Y-159932500D02*
X366711797Y-159932500D01*
X365806251Y-159135343D02*
X365806251Y-157729659D01*
X366711798Y-156932501D02*
X368300702Y-156932501D01*
X349502960Y-156864202D02*
G75*
G02X349250702Y-156932501I-252258J431701D01*
G01*
X347661798Y-156932501D02*
G75*
G02X347409539Y-156864202I0J500000D01*
G01*
X346706766Y-157512782D02*
G75*
G02X347409539Y-156864202I450515J216879D01*
G01*
X346706766Y-157512781D02*
G75*
G02X346756251Y-157729659I-450515J-216878D01*
G01*
X346756251Y-159135344D02*
G75*
G02X346706766Y-159352221I-500000J1D01*
G01*
X347409539Y-160000798D02*
G75*
G02X346706766Y-159352221I-252258J431700D01*
G01*
X347409539Y-160000799D02*
G75*
G02X347661797Y-159932500I252258J-431701D01*
G01*
X349250703Y-159932501D02*
G75*
G02X349502961Y-160000800I-1J-499999D01*
G01*
X350205734Y-159352221D02*
G75*
G02X349502961Y-160000800I-450515J-216878D01*
G01*
X350205734Y-159352221D02*
G75*
G02X350156249Y-159135343I450515J216878D01*
G01*
X350156249Y-157729658D02*
G75*
G02X350205734Y-157512781I500000J-1D01*
G01*
X349502961Y-156864204D02*
G75*
G02X350205734Y-157512781I252258J-431700D01*
G01*
X350156249Y-157729659D02*
X350156249Y-159135343D01*
X349250702Y-159932500D02*
X347661797Y-159932500D01*
X346756251Y-159135343D02*
X346756251Y-157729659D01*
X347661798Y-156932501D02*
X349250702Y-156932501D01*
X330452960Y-156864202D02*
G75*
G02X330200702Y-156932501I-252258J431701D01*
G01*
X328611798Y-156932501D02*
G75*
G02X328359539Y-156864202I0J500000D01*
G01*
X327656766Y-157512782D02*
G75*
G02X328359539Y-156864202I450515J216879D01*
G01*
X327656766Y-157512781D02*
G75*
G02X327706251Y-157729659I-450515J-216878D01*
G01*
X327706251Y-159135344D02*
G75*
G02X327656766Y-159352221I-500000J1D01*
G01*
X328359539Y-160000798D02*
G75*
G02X327656766Y-159352221I-252258J431700D01*
G01*
X328359539Y-160000799D02*
G75*
G02X328611797Y-159932500I252258J-431701D01*
G01*
X330200703Y-159932501D02*
G75*
G02X330452961Y-160000800I-1J-499999D01*
G01*
X331155734Y-159352221D02*
G75*
G02X330452961Y-160000800I-450515J-216878D01*
G01*
X331155734Y-159352221D02*
G75*
G02X331106249Y-159135343I450515J216878D01*
G01*
X331106249Y-157729658D02*
G75*
G02X331155734Y-157512781I500000J-1D01*
G01*
X330452961Y-156864204D02*
G75*
G02X331155734Y-157512781I252258J-431700D01*
G01*
X331106249Y-157729659D02*
X331106249Y-159135343D01*
X330200702Y-159932500D02*
X328611797Y-159932500D01*
X327706251Y-159135343D02*
X327706251Y-157729659D01*
X328611798Y-156932501D02*
X330200702Y-156932501D01*
X292099298Y-148995001D02*
X293688202Y-148995001D01*
X291193751Y-151197843D02*
X291193751Y-149792159D01*
X293688202Y-151995000D02*
X292099297Y-151995000D01*
X294593749Y-149792159D02*
X294593749Y-151197843D01*
X293940461Y-148926704D02*
G75*
G02X294643234Y-149575281I252258J-431700D01*
G01*
X294593749Y-149792158D02*
G75*
G02X294643234Y-149575281I500000J-1D01*
G01*
X294643234Y-151414721D02*
G75*
G02X294593749Y-151197843I450515J216878D01*
G01*
X294643234Y-151414721D02*
G75*
G02X293940461Y-152063300I-450515J-216878D01*
G01*
X293688203Y-151995001D02*
G75*
G02X293940461Y-152063300I-1J-499999D01*
G01*
X291847039Y-152063299D02*
G75*
G02X292099297Y-151995000I252258J-431701D01*
G01*
X291847039Y-152063298D02*
G75*
G02X291144266Y-151414721I-252258J431700D01*
G01*
X291193751Y-151197844D02*
G75*
G02X291144266Y-151414721I-500000J1D01*
G01*
X291144266Y-149575281D02*
G75*
G02X291193751Y-149792159I-450515J-216878D01*
G01*
X291144266Y-149575282D02*
G75*
G02X291847039Y-148926702I450515J216879D01*
G01*
X292099298Y-148995001D02*
G75*
G02X291847039Y-148926702I0J500000D01*
G01*
X293940460Y-148926702D02*
G75*
G02X293688202Y-148995001I-252258J431701D01*
G01*
X270127960Y-148926702D02*
G75*
G02X269875702Y-148995001I-252258J431701D01*
G01*
X268286798Y-148995001D02*
G75*
G02X268034539Y-148926702I0J500000D01*
G01*
X267331766Y-149575282D02*
G75*
G02X268034539Y-148926702I450515J216879D01*
G01*
X267331766Y-149575281D02*
G75*
G02X267381251Y-149792159I-450515J-216878D01*
G01*
X267381251Y-151197844D02*
G75*
G02X267331766Y-151414721I-500000J1D01*
G01*
X268034539Y-152063298D02*
G75*
G02X267331766Y-151414721I-252258J431700D01*
G01*
X268034539Y-152063299D02*
G75*
G02X268286797Y-151995000I252258J-431701D01*
G01*
X269875703Y-151995001D02*
G75*
G02X270127961Y-152063300I-1J-499999D01*
G01*
X270830734Y-151414721D02*
G75*
G02X270127961Y-152063300I-450515J-216878D01*
G01*
X270830734Y-151414721D02*
G75*
G02X270781249Y-151197843I450515J216878D01*
G01*
X270781249Y-149792158D02*
G75*
G02X270830734Y-149575281I500000J-1D01*
G01*
X270127961Y-148926704D02*
G75*
G02X270830734Y-149575281I252258J-431700D01*
G01*
X270781249Y-149792159D02*
X270781249Y-151197843D01*
X269875702Y-151995000D02*
X268286797Y-151995000D01*
X267381251Y-151197843D02*
X267381251Y-149792159D01*
X268286798Y-148995001D02*
X269875702Y-148995001D01*
X246315460Y-148926702D02*
G75*
G02X246063202Y-148995001I-252258J431701D01*
G01*
X244474298Y-148995001D02*
G75*
G02X244222039Y-148926702I0J500000D01*
G01*
X243519266Y-149575282D02*
G75*
G02X244222039Y-148926702I450515J216879D01*
G01*
X243519266Y-149575281D02*
G75*
G02X243568751Y-149792159I-450515J-216878D01*
G01*
X243568751Y-151197844D02*
G75*
G02X243519266Y-151414721I-500000J1D01*
G01*
X244222039Y-152063298D02*
G75*
G02X243519266Y-151414721I-252258J431700D01*
G01*
X244222039Y-152063299D02*
G75*
G02X244474297Y-151995000I252258J-431701D01*
G01*
X246063203Y-151995001D02*
G75*
G02X246315461Y-152063300I-1J-499999D01*
G01*
X247018234Y-151414721D02*
G75*
G02X246315461Y-152063300I-450515J-216878D01*
G01*
X247018234Y-151414721D02*
G75*
G02X246968749Y-151197843I450515J216878D01*
G01*
X246968749Y-149792158D02*
G75*
G02X247018234Y-149575281I500000J-1D01*
G01*
X246315461Y-148926704D02*
G75*
G02X247018234Y-149575281I252258J-431700D01*
G01*
X246968749Y-149792159D02*
X246968749Y-151197843D01*
X246063202Y-151995000D02*
X244474297Y-151995000D01*
X243568751Y-151197843D02*
X243568751Y-149792159D01*
X244474298Y-148995001D02*
X246063202Y-148995001D01*
X220661798Y-144232501D02*
X222250702Y-144232501D01*
X219756251Y-146435343D02*
X219756251Y-145029659D01*
X222250702Y-147232500D02*
X220661797Y-147232500D01*
X223156249Y-145029659D02*
X223156249Y-146435343D01*
X222502961Y-144164204D02*
G75*
G02X223205734Y-144812781I252258J-431700D01*
G01*
X223156249Y-145029658D02*
G75*
G02X223205734Y-144812781I500000J-1D01*
G01*
X223205734Y-146652221D02*
G75*
G02X223156249Y-146435343I450515J216878D01*
G01*
X223205734Y-146652221D02*
G75*
G02X222502961Y-147300800I-450515J-216878D01*
G01*
X222250703Y-147232501D02*
G75*
G02X222502961Y-147300800I-1J-499999D01*
G01*
X220409539Y-147300799D02*
G75*
G02X220661797Y-147232500I252258J-431701D01*
G01*
X220409539Y-147300798D02*
G75*
G02X219706766Y-146652221I-252258J431700D01*
G01*
X219756251Y-146435344D02*
G75*
G02X219706766Y-146652221I-500000J1D01*
G01*
X219706766Y-144812781D02*
G75*
G02X219756251Y-145029659I-450515J-216878D01*
G01*
X219706766Y-144812782D02*
G75*
G02X220409539Y-144164202I450515J216879D01*
G01*
X220661798Y-144232501D02*
G75*
G02X220409539Y-144164202I0J500000D01*
G01*
X222502960Y-144164202D02*
G75*
G02X222250702Y-144232501I-252258J431701D01*
G01*
X198690460Y-144164202D02*
G75*
G02X198438202Y-144232501I-252258J431701D01*
G01*
X196849298Y-144232501D02*
G75*
G02X196597039Y-144164202I0J500000D01*
G01*
X195894266Y-144812782D02*
G75*
G02X196597039Y-144164202I450515J216879D01*
G01*
X195894266Y-144812781D02*
G75*
G02X195943751Y-145029659I-450515J-216878D01*
G01*
X195943751Y-146435344D02*
G75*
G02X195894266Y-146652221I-500000J1D01*
G01*
X196597039Y-147300798D02*
G75*
G02X195894266Y-146652221I-252258J431700D01*
G01*
X196597039Y-147300799D02*
G75*
G02X196849297Y-147232500I252258J-431701D01*
G01*
X198438203Y-147232501D02*
G75*
G02X198690461Y-147300800I-1J-499999D01*
G01*
X199393234Y-146652221D02*
G75*
G02X198690461Y-147300800I-450515J-216878D01*
G01*
X199393234Y-146652221D02*
G75*
G02X199343749Y-146435343I450515J216878D01*
G01*
X199343749Y-145029658D02*
G75*
G02X199393234Y-144812781I500000J-1D01*
G01*
X198690461Y-144164204D02*
G75*
G02X199393234Y-144812781I252258J-431700D01*
G01*
X199343749Y-145029659D02*
X199343749Y-146435343D01*
X198438202Y-147232500D02*
X196849297Y-147232500D01*
X195943751Y-146435343D02*
X195943751Y-145029659D01*
X196849298Y-144232501D02*
X198438202Y-144232501D01*
X174877960Y-148926702D02*
G75*
G02X174625702Y-148995001I-252258J431701D01*
G01*
X173036798Y-148995001D02*
G75*
G02X172784539Y-148926702I0J500000D01*
G01*
X172081766Y-149575282D02*
G75*
G02X172784539Y-148926702I450515J216879D01*
G01*
X172081766Y-149575281D02*
G75*
G02X172131251Y-149792159I-450515J-216878D01*
G01*
X172131251Y-151197844D02*
G75*
G02X172081766Y-151414721I-500000J1D01*
G01*
X172784539Y-152063298D02*
G75*
G02X172081766Y-151414721I-252258J431700D01*
G01*
X172784539Y-152063299D02*
G75*
G02X173036797Y-151995000I252258J-431701D01*
G01*
X174625703Y-151995001D02*
G75*
G02X174877961Y-152063300I-1J-499999D01*
G01*
X175580734Y-151414721D02*
G75*
G02X174877961Y-152063300I-450515J-216878D01*
G01*
X175580734Y-151414721D02*
G75*
G02X175531249Y-151197843I450515J216878D01*
G01*
X175531249Y-149792158D02*
G75*
G02X175580734Y-149575281I500000J-1D01*
G01*
X174877961Y-148926704D02*
G75*
G02X175580734Y-149575281I252258J-431700D01*
G01*
X175531249Y-149792159D02*
X175531249Y-151197843D01*
X174625702Y-151995000D02*
X173036797Y-151995000D01*
X172131251Y-151197843D02*
X172131251Y-149792159D01*
X173036798Y-148995001D02*
X174625702Y-148995001D01*
X151859210Y-144164202D02*
G75*
G02X151606952Y-144232501I-252258J431701D01*
G01*
X150018048Y-144232501D02*
G75*
G02X149765789Y-144164202I0J500000D01*
G01*
X149063016Y-144812782D02*
G75*
G02X149765789Y-144164202I450515J216879D01*
G01*
X149063016Y-144812781D02*
G75*
G02X149112501Y-145029659I-450515J-216878D01*
G01*
X149112501Y-146435344D02*
G75*
G02X149063016Y-146652221I-500000J1D01*
G01*
X149765789Y-147300798D02*
G75*
G02X149063016Y-146652221I-252258J431700D01*
G01*
X149765789Y-147300799D02*
G75*
G02X150018047Y-147232500I252258J-431701D01*
G01*
X151606953Y-147232501D02*
G75*
G02X151859211Y-147300800I-1J-499999D01*
G01*
X152561984Y-146652221D02*
G75*
G02X151859211Y-147300800I-450515J-216878D01*
G01*
X152561984Y-146652221D02*
G75*
G02X152512499Y-146435343I450515J216878D01*
G01*
X152512499Y-145029658D02*
G75*
G02X152561984Y-144812781I500000J-1D01*
G01*
X151859211Y-144164204D02*
G75*
G02X152561984Y-144812781I252258J-431700D01*
G01*
X152512499Y-145029659D02*
X152512499Y-146435343D01*
X151606952Y-147232500D02*
X150018047Y-147232500D01*
X149112501Y-146435343D02*
X149112501Y-145029659D01*
X150018048Y-144232501D02*
X151606952Y-144232501D01*
X127252960Y-144164202D02*
G75*
G02X127000702Y-144232501I-252258J431701D01*
G01*
X125411798Y-144232501D02*
G75*
G02X125159539Y-144164202I0J500000D01*
G01*
X124456766Y-144812782D02*
G75*
G02X125159539Y-144164202I450515J216879D01*
G01*
X124456766Y-144812781D02*
G75*
G02X124506251Y-145029659I-450515J-216878D01*
G01*
X124506251Y-146435344D02*
G75*
G02X124456766Y-146652221I-500000J1D01*
G01*
X125159539Y-147300798D02*
G75*
G02X124456766Y-146652221I-252258J431700D01*
G01*
X125159539Y-147300799D02*
G75*
G02X125411797Y-147232500I252258J-431701D01*
G01*
X127000703Y-147232501D02*
G75*
G02X127252961Y-147300800I-1J-499999D01*
G01*
X127955734Y-146652221D02*
G75*
G02X127252961Y-147300800I-450515J-216878D01*
G01*
X127955734Y-146652221D02*
G75*
G02X127906249Y-146435343I450515J216878D01*
G01*
X127906249Y-145029658D02*
G75*
G02X127955734Y-144812781I500000J-1D01*
G01*
X127252961Y-144164204D02*
G75*
G02X127955734Y-144812781I252258J-431700D01*
G01*
X127906249Y-145029659D02*
X127906249Y-146435343D01*
X127000702Y-147232500D02*
X125411797Y-147232500D01*
X124506251Y-146435343D02*
X124506251Y-145029659D01*
X125411798Y-144232501D02*
X127000702Y-144232501D01*
X103440460Y-148926702D02*
G75*
G02X103188202Y-148995001I-252258J431701D01*
G01*
X101599298Y-148995001D02*
G75*
G02X101347039Y-148926702I0J500000D01*
G01*
X100644266Y-149575282D02*
G75*
G02X101347039Y-148926702I450515J216879D01*
G01*
X100644266Y-149575281D02*
G75*
G02X100693751Y-149792159I-450515J-216878D01*
G01*
X100693751Y-151197844D02*
G75*
G02X100644266Y-151414721I-500000J1D01*
G01*
X101347039Y-152063298D02*
G75*
G02X100644266Y-151414721I-252258J431700D01*
G01*
X101347039Y-152063299D02*
G75*
G02X101599297Y-151995000I252258J-431701D01*
G01*
X103188203Y-151995001D02*
G75*
G02X103440461Y-152063300I-1J-499999D01*
G01*
X104143234Y-151414721D02*
G75*
G02X103440461Y-152063300I-450515J-216878D01*
G01*
X104143234Y-151414721D02*
G75*
G02X104093749Y-151197843I450515J216878D01*
G01*
X104093749Y-149792158D02*
G75*
G02X104143234Y-149575281I500000J-1D01*
G01*
X103440461Y-148926704D02*
G75*
G02X104143234Y-149575281I252258J-431700D01*
G01*
X104093749Y-149792159D02*
X104093749Y-151197843D01*
X103188202Y-151995000D02*
X101599297Y-151995000D01*
X100693751Y-151197843D02*
X100693751Y-149792159D01*
X101599298Y-148995001D02*
X103188202Y-148995001D01*
X79627960Y-148926702D02*
G75*
G02X79375702Y-148995001I-252258J431701D01*
G01*
X77786798Y-148995001D02*
G75*
G02X77534539Y-148926702I0J500000D01*
G01*
X76831766Y-149575282D02*
G75*
G02X77534539Y-148926702I450515J216879D01*
G01*
X76831766Y-149575281D02*
G75*
G02X76881251Y-149792159I-450515J-216878D01*
G01*
X76881251Y-151197844D02*
G75*
G02X76831766Y-151414721I-500000J1D01*
G01*
X77534539Y-152063298D02*
G75*
G02X76831766Y-151414721I-252258J431700D01*
G01*
X77534539Y-152063299D02*
G75*
G02X77786797Y-151995000I252258J-431701D01*
G01*
X79375703Y-151995001D02*
G75*
G02X79627961Y-152063300I-1J-499999D01*
G01*
X80330734Y-151414721D02*
G75*
G02X79627961Y-152063300I-450515J-216878D01*
G01*
X80330734Y-151414721D02*
G75*
G02X80281249Y-151197843I450515J216878D01*
G01*
X80281249Y-149792158D02*
G75*
G02X80330734Y-149575281I500000J-1D01*
G01*
X79627961Y-148926704D02*
G75*
G02X80330734Y-149575281I252258J-431700D01*
G01*
X80281249Y-149792159D02*
X80281249Y-151197843D01*
X79375702Y-151995000D02*
X77786797Y-151995000D01*
X76881251Y-151197843D02*
X76881251Y-149792159D01*
X77786798Y-148995001D02*
X79375702Y-148995001D01*
X58196710Y-148926702D02*
G75*
G02X57944452Y-148995001I-252258J431701D01*
G01*
X56355548Y-148995001D02*
G75*
G02X56103289Y-148926702I0J500000D01*
G01*
X55400516Y-149575282D02*
G75*
G02X56103289Y-148926702I450515J216879D01*
G01*
X55400516Y-149575281D02*
G75*
G02X55450001Y-149792159I-450515J-216878D01*
G01*
X55450001Y-151197844D02*
G75*
G02X55400516Y-151414721I-500000J1D01*
G01*
X56103289Y-152063298D02*
G75*
G02X55400516Y-151414721I-252258J431700D01*
G01*
X56103289Y-152063299D02*
G75*
G02X56355547Y-151995000I252258J-431701D01*
G01*
X57944453Y-151995001D02*
G75*
G02X58196711Y-152063300I-1J-499999D01*
G01*
X58899484Y-151414721D02*
G75*
G02X58196711Y-152063300I-450515J-216878D01*
G01*
X58899484Y-151414721D02*
G75*
G02X58849999Y-151197843I450515J216878D01*
G01*
X58849999Y-149792158D02*
G75*
G02X58899484Y-149575281I500000J-1D01*
G01*
X58196711Y-148926704D02*
G75*
G02X58899484Y-149575281I252258J-431700D01*
G01*
X58849999Y-149792159D02*
X58849999Y-151197843D01*
X57944452Y-151995000D02*
X56355547Y-151995000D01*
X55450001Y-151197843D02*
X55450001Y-149792159D01*
X56355548Y-148995001D02*
X57944452Y-148995001D01*
X28827960Y-148926702D02*
G75*
G02X28575702Y-148995001I-252258J431701D01*
G01*
X26986798Y-148995001D02*
G75*
G02X26734539Y-148926702I0J500000D01*
G01*
X26031766Y-149575282D02*
G75*
G02X26734539Y-148926702I450515J216879D01*
G01*
X26031766Y-149575281D02*
G75*
G02X26081251Y-149792159I-450515J-216878D01*
G01*
X26081251Y-151197844D02*
G75*
G02X26031766Y-151414721I-500000J1D01*
G01*
X26734539Y-152063298D02*
G75*
G02X26031766Y-151414721I-252258J431700D01*
G01*
X26734539Y-152063299D02*
G75*
G02X26986797Y-151995000I252258J-431701D01*
G01*
X28575703Y-151995001D02*
G75*
G02X28827961Y-152063300I-1J-499999D01*
G01*
X29530734Y-151414721D02*
G75*
G02X28827961Y-152063300I-450515J-216878D01*
G01*
X29530734Y-151414721D02*
G75*
G02X29481249Y-151197843I450515J216878D01*
G01*
X29481249Y-149792158D02*
G75*
G02X29530734Y-149575281I500000J-1D01*
G01*
X28827961Y-148926704D02*
G75*
G02X29530734Y-149575281I252258J-431700D01*
G01*
X29481249Y-149792159D02*
X29481249Y-151197843D01*
X28575702Y-151995000D02*
X26986797Y-151995000D01*
X26081251Y-151197843D02*
X26081251Y-149792159D01*
X26986798Y-148995001D02*
X28575702Y-148995001D01*
X347409540Y-140792048D02*
G75*
G02X347661798Y-140723749I252258J-431701D01*
G01*
X349250702Y-140723749D02*
G75*
G02X349502961Y-140792048I0J-500000D01*
G01*
X350205734Y-140143468D02*
G75*
G02X349502961Y-140792048I-450515J-216879D01*
G01*
X350205734Y-140143469D02*
G75*
G02X350156249Y-139926591I450515J216878D01*
G01*
X350156249Y-138520906D02*
G75*
G02X350205734Y-138304029I500000J-1D01*
G01*
X349502961Y-137655452D02*
G75*
G02X350205734Y-138304029I252258J-431700D01*
G01*
X349502961Y-137655451D02*
G75*
G02X349250703Y-137723750I-252258J431701D01*
G01*
X347661797Y-137723749D02*
G75*
G02X347409539Y-137655450I1J499999D01*
G01*
X346706766Y-138304029D02*
G75*
G02X347409539Y-137655450I450515J216878D01*
G01*
X346706766Y-138304029D02*
G75*
G02X346756251Y-138520907I-450515J-216878D01*
G01*
X346756251Y-139926592D02*
G75*
G02X346706766Y-140143469I-500000J1D01*
G01*
X347409539Y-140792046D02*
G75*
G02X346706766Y-140143469I-252258J431700D01*
G01*
X346756251Y-139926591D02*
X346756251Y-138520907D01*
X347661798Y-137723750D02*
X349250703Y-137723750D01*
X350156249Y-138520907D02*
X350156249Y-139926591D01*
X349250702Y-140723749D02*
X347661798Y-140723749D01*
X303753290Y-132854548D02*
G75*
G02X304005548Y-132786249I252258J-431701D01*
G01*
X305594452Y-132786249D02*
G75*
G02X305846711Y-132854548I0J-500000D01*
G01*
X306549484Y-132205968D02*
G75*
G02X305846711Y-132854548I-450515J-216879D01*
G01*
X306549484Y-132205969D02*
G75*
G02X306499999Y-131989091I450515J216878D01*
G01*
X306499999Y-130583406D02*
G75*
G02X306549484Y-130366529I500000J-1D01*
G01*
X305846711Y-129717952D02*
G75*
G02X306549484Y-130366529I252258J-431700D01*
G01*
X305846711Y-129717951D02*
G75*
G02X305594453Y-129786250I-252258J431701D01*
G01*
X304005547Y-129786249D02*
G75*
G02X303753289Y-129717950I1J499999D01*
G01*
X303050516Y-130366529D02*
G75*
G02X303753289Y-129717950I450515J216878D01*
G01*
X303050516Y-130366529D02*
G75*
G02X303100001Y-130583407I-450515J-216878D01*
G01*
X303100001Y-131989092D02*
G75*
G02X303050516Y-132205969I-500000J1D01*
G01*
X303753289Y-132854546D02*
G75*
G02X303050516Y-132205969I-252258J431700D01*
G01*
X303100001Y-131989091D02*
X303100001Y-130583407D01*
X304005548Y-129786250D02*
X305594453Y-129786250D01*
X306499999Y-130583407D02*
X306499999Y-131989091D01*
X305594452Y-132786249D02*
X304005548Y-132786249D01*
X268034540Y-132854548D02*
G75*
G02X268286798Y-132786249I252258J-431701D01*
G01*
X269875702Y-132786249D02*
G75*
G02X270127961Y-132854548I0J-500000D01*
G01*
X270830734Y-132205968D02*
G75*
G02X270127961Y-132854548I-450515J-216879D01*
G01*
X270830734Y-132205969D02*
G75*
G02X270781249Y-131989091I450515J216878D01*
G01*
X270781249Y-130583406D02*
G75*
G02X270830734Y-130366529I500000J-1D01*
G01*
X270127961Y-129717952D02*
G75*
G02X270830734Y-130366529I252258J-431700D01*
G01*
X270127961Y-129717951D02*
G75*
G02X269875703Y-129786250I-252258J431701D01*
G01*
X268286797Y-129786249D02*
G75*
G02X268034539Y-129717950I1J499999D01*
G01*
X267331766Y-130366529D02*
G75*
G02X268034539Y-129717950I450515J216878D01*
G01*
X267331766Y-130366529D02*
G75*
G02X267381251Y-130583407I-450515J-216878D01*
G01*
X267381251Y-131989092D02*
G75*
G02X267331766Y-132205969I-500000J1D01*
G01*
X268034539Y-132854546D02*
G75*
G02X267331766Y-132205969I-252258J431700D01*
G01*
X267381251Y-131989091D02*
X267381251Y-130583407D01*
X268286798Y-129786250D02*
X269875703Y-129786250D01*
X270781249Y-130583407D02*
X270781249Y-131989091D01*
X269875702Y-132786249D02*
X268286798Y-132786249D01*
X248984540Y-132854548D02*
G75*
G02X249236798Y-132786249I252258J-431701D01*
G01*
X250825702Y-132786249D02*
G75*
G02X251077961Y-132854548I0J-500000D01*
G01*
X251780734Y-132205968D02*
G75*
G02X251077961Y-132854548I-450515J-216879D01*
G01*
X251780734Y-132205969D02*
G75*
G02X251731249Y-131989091I450515J216878D01*
G01*
X251731249Y-130583406D02*
G75*
G02X251780734Y-130366529I500000J-1D01*
G01*
X251077961Y-129717952D02*
G75*
G02X251780734Y-130366529I252258J-431700D01*
G01*
X251077961Y-129717951D02*
G75*
G02X250825703Y-129786250I-252258J431701D01*
G01*
X249236797Y-129786249D02*
G75*
G02X248984539Y-129717950I1J499999D01*
G01*
X248281766Y-130366529D02*
G75*
G02X248984539Y-129717950I450515J216878D01*
G01*
X248281766Y-130366529D02*
G75*
G02X248331251Y-130583407I-450515J-216878D01*
G01*
X248331251Y-131989092D02*
G75*
G02X248281766Y-132205969I-500000J1D01*
G01*
X248984539Y-132854546D02*
G75*
G02X248281766Y-132205969I-252258J431700D01*
G01*
X248331251Y-131989091D02*
X248331251Y-130583407D01*
X249236798Y-129786250D02*
X250825703Y-129786250D01*
X251731249Y-130583407D02*
X251731249Y-131989091D01*
X250825702Y-132786249D02*
X249236798Y-132786249D01*
X229934540Y-132854548D02*
G75*
G02X230186798Y-132786249I252258J-431701D01*
G01*
X231775702Y-132786249D02*
G75*
G02X232027961Y-132854548I0J-500000D01*
G01*
X232730734Y-132205968D02*
G75*
G02X232027961Y-132854548I-450515J-216879D01*
G01*
X232730734Y-132205969D02*
G75*
G02X232681249Y-131989091I450515J216878D01*
G01*
X232681249Y-130583406D02*
G75*
G02X232730734Y-130366529I500000J-1D01*
G01*
X232027961Y-129717952D02*
G75*
G02X232730734Y-130366529I252258J-431700D01*
G01*
X232027961Y-129717951D02*
G75*
G02X231775703Y-129786250I-252258J431701D01*
G01*
X230186797Y-129786249D02*
G75*
G02X229934539Y-129717950I1J499999D01*
G01*
X229231766Y-130366529D02*
G75*
G02X229934539Y-129717950I450515J216878D01*
G01*
X229231766Y-130366529D02*
G75*
G02X229281251Y-130583407I-450515J-216878D01*
G01*
X229281251Y-131989092D02*
G75*
G02X229231766Y-132205969I-500000J1D01*
G01*
X229934539Y-132854546D02*
G75*
G02X229231766Y-132205969I-252258J431700D01*
G01*
X229281251Y-131989091D02*
X229281251Y-130583407D01*
X230186798Y-129786250D02*
X231775703Y-129786250D01*
X232681249Y-130583407D02*
X232681249Y-131989091D01*
X231775702Y-132786249D02*
X230186798Y-132786249D01*
X210884540Y-132854548D02*
G75*
G02X211136798Y-132786249I252258J-431701D01*
G01*
X212725702Y-132786249D02*
G75*
G02X212977961Y-132854548I0J-500000D01*
G01*
X213680734Y-132205968D02*
G75*
G02X212977961Y-132854548I-450515J-216879D01*
G01*
X213680734Y-132205969D02*
G75*
G02X213631249Y-131989091I450515J216878D01*
G01*
X213631249Y-130583406D02*
G75*
G02X213680734Y-130366529I500000J-1D01*
G01*
X212977961Y-129717952D02*
G75*
G02X213680734Y-130366529I252258J-431700D01*
G01*
X212977961Y-129717951D02*
G75*
G02X212725703Y-129786250I-252258J431701D01*
G01*
X211136797Y-129786249D02*
G75*
G02X210884539Y-129717950I1J499999D01*
G01*
X210181766Y-130366529D02*
G75*
G02X210884539Y-129717950I450515J216878D01*
G01*
X210181766Y-130366529D02*
G75*
G02X210231251Y-130583407I-450515J-216878D01*
G01*
X210231251Y-131989092D02*
G75*
G02X210181766Y-132205969I-500000J1D01*
G01*
X210884539Y-132854546D02*
G75*
G02X210181766Y-132205969I-252258J431700D01*
G01*
X210231251Y-131989091D02*
X210231251Y-130583407D01*
X211136798Y-129786250D02*
X212725703Y-129786250D01*
X213631249Y-130583407D02*
X213631249Y-131989091D01*
X212725702Y-132786249D02*
X211136798Y-132786249D01*
X191834540Y-132854548D02*
G75*
G02X192086798Y-132786249I252258J-431701D01*
G01*
X193675702Y-132786249D02*
G75*
G02X193927961Y-132854548I0J-500000D01*
G01*
X194630734Y-132205968D02*
G75*
G02X193927961Y-132854548I-450515J-216879D01*
G01*
X194630734Y-132205969D02*
G75*
G02X194581249Y-131989091I450515J216878D01*
G01*
X194581249Y-130583406D02*
G75*
G02X194630734Y-130366529I500000J-1D01*
G01*
X193927961Y-129717952D02*
G75*
G02X194630734Y-130366529I252258J-431700D01*
G01*
X193927961Y-129717951D02*
G75*
G02X193675703Y-129786250I-252258J431701D01*
G01*
X192086797Y-129786249D02*
G75*
G02X191834539Y-129717950I1J499999D01*
G01*
X191131766Y-130366529D02*
G75*
G02X191834539Y-129717950I450515J216878D01*
G01*
X191131766Y-130366529D02*
G75*
G02X191181251Y-130583407I-450515J-216878D01*
G01*
X191181251Y-131989092D02*
G75*
G02X191131766Y-132205969I-500000J1D01*
G01*
X191834539Y-132854546D02*
G75*
G02X191131766Y-132205969I-252258J431700D01*
G01*
X191181251Y-131989091D02*
X191181251Y-130583407D01*
X192086798Y-129786250D02*
X193675703Y-129786250D01*
X194581249Y-130583407D02*
X194581249Y-131989091D01*
X193675702Y-132786249D02*
X192086798Y-132786249D01*
X172784540Y-132854548D02*
G75*
G02X173036798Y-132786249I252258J-431701D01*
G01*
X174625702Y-132786249D02*
G75*
G02X174877961Y-132854548I0J-500000D01*
G01*
X175580734Y-132205968D02*
G75*
G02X174877961Y-132854548I-450515J-216879D01*
G01*
X175580734Y-132205969D02*
G75*
G02X175531249Y-131989091I450515J216878D01*
G01*
X175531249Y-130583406D02*
G75*
G02X175580734Y-130366529I500000J-1D01*
G01*
X174877961Y-129717952D02*
G75*
G02X175580734Y-130366529I252258J-431700D01*
G01*
X174877961Y-129717951D02*
G75*
G02X174625703Y-129786250I-252258J431701D01*
G01*
X173036797Y-129786249D02*
G75*
G02X172784539Y-129717950I1J499999D01*
G01*
X172081766Y-130366529D02*
G75*
G02X172784539Y-129717950I450515J216878D01*
G01*
X172081766Y-130366529D02*
G75*
G02X172131251Y-130583407I-450515J-216878D01*
G01*
X172131251Y-131989092D02*
G75*
G02X172081766Y-132205969I-500000J1D01*
G01*
X172784539Y-132854546D02*
G75*
G02X172081766Y-132205969I-252258J431700D01*
G01*
X172131251Y-131989091D02*
X172131251Y-130583407D01*
X173036798Y-129786250D02*
X174625703Y-129786250D01*
X175531249Y-130583407D02*
X175531249Y-131989091D01*
X174625702Y-132786249D02*
X173036798Y-132786249D01*
X153734540Y-132854548D02*
G75*
G02X153986798Y-132786249I252258J-431701D01*
G01*
X155575702Y-132786249D02*
G75*
G02X155827961Y-132854548I0J-500000D01*
G01*
X156530734Y-132205968D02*
G75*
G02X155827961Y-132854548I-450515J-216879D01*
G01*
X156530734Y-132205969D02*
G75*
G02X156481249Y-131989091I450515J216878D01*
G01*
X156481249Y-130583406D02*
G75*
G02X156530734Y-130366529I500000J-1D01*
G01*
X155827961Y-129717952D02*
G75*
G02X156530734Y-130366529I252258J-431700D01*
G01*
X155827961Y-129717951D02*
G75*
G02X155575703Y-129786250I-252258J431701D01*
G01*
X153986797Y-129786249D02*
G75*
G02X153734539Y-129717950I1J499999D01*
G01*
X153031766Y-130366529D02*
G75*
G02X153734539Y-129717950I450515J216878D01*
G01*
X153031766Y-130366529D02*
G75*
G02X153081251Y-130583407I-450515J-216878D01*
G01*
X153081251Y-131989092D02*
G75*
G02X153031766Y-132205969I-500000J1D01*
G01*
X153734539Y-132854546D02*
G75*
G02X153031766Y-132205969I-252258J431700D01*
G01*
X153081251Y-131989091D02*
X153081251Y-130583407D01*
X153986798Y-129786250D02*
X155575703Y-129786250D01*
X156481249Y-130583407D02*
X156481249Y-131989091D01*
X155575702Y-132786249D02*
X153986798Y-132786249D01*
X134684540Y-132854548D02*
G75*
G02X134936798Y-132786249I252258J-431701D01*
G01*
X136525702Y-132786249D02*
G75*
G02X136777961Y-132854548I0J-500000D01*
G01*
X137480734Y-132205968D02*
G75*
G02X136777961Y-132854548I-450515J-216879D01*
G01*
X137480734Y-132205969D02*
G75*
G02X137431249Y-131989091I450515J216878D01*
G01*
X137431249Y-130583406D02*
G75*
G02X137480734Y-130366529I500000J-1D01*
G01*
X136777961Y-129717952D02*
G75*
G02X137480734Y-130366529I252258J-431700D01*
G01*
X136777961Y-129717951D02*
G75*
G02X136525703Y-129786250I-252258J431701D01*
G01*
X134936797Y-129786249D02*
G75*
G02X134684539Y-129717950I1J499999D01*
G01*
X133981766Y-130366529D02*
G75*
G02X134684539Y-129717950I450515J216878D01*
G01*
X133981766Y-130366529D02*
G75*
G02X134031251Y-130583407I-450515J-216878D01*
G01*
X134031251Y-131989092D02*
G75*
G02X133981766Y-132205969I-500000J1D01*
G01*
X134684539Y-132854546D02*
G75*
G02X133981766Y-132205969I-252258J431700D01*
G01*
X134031251Y-131989091D02*
X134031251Y-130583407D01*
X134936798Y-129786250D02*
X136525703Y-129786250D01*
X137431249Y-130583407D02*
X137431249Y-131989091D01*
X136525702Y-132786249D02*
X134936798Y-132786249D01*
X115634540Y-132854548D02*
G75*
G02X115886798Y-132786249I252258J-431701D01*
G01*
X117475702Y-132786249D02*
G75*
G02X117727961Y-132854548I0J-500000D01*
G01*
X118430734Y-132205968D02*
G75*
G02X117727961Y-132854548I-450515J-216879D01*
G01*
X118430734Y-132205969D02*
G75*
G02X118381249Y-131989091I450515J216878D01*
G01*
X118381249Y-130583406D02*
G75*
G02X118430734Y-130366529I500000J-1D01*
G01*
X117727961Y-129717952D02*
G75*
G02X118430734Y-130366529I252258J-431700D01*
G01*
X117727961Y-129717951D02*
G75*
G02X117475703Y-129786250I-252258J431701D01*
G01*
X115886797Y-129786249D02*
G75*
G02X115634539Y-129717950I1J499999D01*
G01*
X114931766Y-130366529D02*
G75*
G02X115634539Y-129717950I450515J216878D01*
G01*
X114931766Y-130366529D02*
G75*
G02X114981251Y-130583407I-450515J-216878D01*
G01*
X114981251Y-131989092D02*
G75*
G02X114931766Y-132205969I-500000J1D01*
G01*
X115634539Y-132854546D02*
G75*
G02X114931766Y-132205969I-252258J431700D01*
G01*
X114981251Y-131989091D02*
X114981251Y-130583407D01*
X115886798Y-129786250D02*
X117475703Y-129786250D01*
X118381249Y-130583407D02*
X118381249Y-131989091D01*
X117475702Y-132786249D02*
X115886798Y-132786249D01*
X96584540Y-132854548D02*
G75*
G02X96836798Y-132786249I252258J-431701D01*
G01*
X98425702Y-132786249D02*
G75*
G02X98677961Y-132854548I0J-500000D01*
G01*
X99380734Y-132205968D02*
G75*
G02X98677961Y-132854548I-450515J-216879D01*
G01*
X99380734Y-132205969D02*
G75*
G02X99331249Y-131989091I450515J216878D01*
G01*
X99331249Y-130583406D02*
G75*
G02X99380734Y-130366529I500000J-1D01*
G01*
X98677961Y-129717952D02*
G75*
G02X99380734Y-130366529I252258J-431700D01*
G01*
X98677961Y-129717951D02*
G75*
G02X98425703Y-129786250I-252258J431701D01*
G01*
X96836797Y-129786249D02*
G75*
G02X96584539Y-129717950I1J499999D01*
G01*
X95881766Y-130366529D02*
G75*
G02X96584539Y-129717950I450515J216878D01*
G01*
X95881766Y-130366529D02*
G75*
G02X95931251Y-130583407I-450515J-216878D01*
G01*
X95931251Y-131989092D02*
G75*
G02X95881766Y-132205969I-500000J1D01*
G01*
X96584539Y-132854546D02*
G75*
G02X95881766Y-132205969I-252258J431700D01*
G01*
X95931251Y-131989091D02*
X95931251Y-130583407D01*
X96836798Y-129786250D02*
X98425703Y-129786250D01*
X99331249Y-130583407D02*
X99331249Y-131989091D01*
X98425702Y-132786249D02*
X96836798Y-132786249D01*
X65628290Y-132854548D02*
G75*
G02X65880548Y-132786249I252258J-431701D01*
G01*
X67469452Y-132786249D02*
G75*
G02X67721711Y-132854548I0J-500000D01*
G01*
X68424484Y-132205968D02*
G75*
G02X67721711Y-132854548I-450515J-216879D01*
G01*
X68424484Y-132205969D02*
G75*
G02X68374999Y-131989091I450515J216878D01*
G01*
X68374999Y-130583406D02*
G75*
G02X68424484Y-130366529I500000J-1D01*
G01*
X67721711Y-129717952D02*
G75*
G02X68424484Y-130366529I252258J-431700D01*
G01*
X67721711Y-129717951D02*
G75*
G02X67469453Y-129786250I-252258J431701D01*
G01*
X65880547Y-129786249D02*
G75*
G02X65628289Y-129717950I1J499999D01*
G01*
X64925516Y-130366529D02*
G75*
G02X65628289Y-129717950I450515J216878D01*
G01*
X64925516Y-130366529D02*
G75*
G02X64975001Y-130583407I-450515J-216878D01*
G01*
X64975001Y-131989092D02*
G75*
G02X64925516Y-132205969I-500000J1D01*
G01*
X65628289Y-132854546D02*
G75*
G02X64925516Y-132205969I-252258J431700D01*
G01*
X64975001Y-131989091D02*
X64975001Y-130583407D01*
X65880548Y-129786250D02*
X67469453Y-129786250D01*
X68374999Y-130583407D02*
X68374999Y-131989091D01*
X67469452Y-132786249D02*
X65880548Y-132786249D01*
X26734540Y-132854548D02*
G75*
G02X26986798Y-132786249I252258J-431701D01*
G01*
X28575702Y-132786249D02*
G75*
G02X28827961Y-132854548I0J-500000D01*
G01*
X29530734Y-132205968D02*
G75*
G02X28827961Y-132854548I-450515J-216879D01*
G01*
X29530734Y-132205969D02*
G75*
G02X29481249Y-131989091I450515J216878D01*
G01*
X29481249Y-130583406D02*
G75*
G02X29530734Y-130366529I500000J-1D01*
G01*
X28827961Y-129717952D02*
G75*
G02X29530734Y-130366529I252258J-431700D01*
G01*
X28827961Y-129717951D02*
G75*
G02X28575703Y-129786250I-252258J431701D01*
G01*
X26986797Y-129786249D02*
G75*
G02X26734539Y-129717950I1J499999D01*
G01*
X26031766Y-130366529D02*
G75*
G02X26734539Y-129717950I450515J216878D01*
G01*
X26031766Y-130366529D02*
G75*
G02X26081251Y-130583407I-450515J-216878D01*
G01*
X26081251Y-131989092D02*
G75*
G02X26031766Y-132205969I-500000J1D01*
G01*
X26734539Y-132854546D02*
G75*
G02X26031766Y-132205969I-252258J431700D01*
G01*
X26081251Y-131989091D02*
X26081251Y-130583407D01*
X26986798Y-129786250D02*
X28575703Y-129786250D01*
X29481249Y-130583407D02*
X29481249Y-131989091D01*
X28575702Y-132786249D02*
X26986798Y-132786249D01*
X399003290Y-138410798D02*
G75*
G02X399255548Y-138342499I252258J-431701D01*
G01*
X400844452Y-138342499D02*
G75*
G02X401096711Y-138410798I0J-500000D01*
G01*
X401799484Y-137762218D02*
G75*
G02X401096711Y-138410798I-450515J-216879D01*
G01*
X401799484Y-137762219D02*
G75*
G02X401749999Y-137545341I450515J216878D01*
G01*
X401749999Y-136139656D02*
G75*
G02X401799484Y-135922779I500000J-1D01*
G01*
X401096711Y-135274202D02*
G75*
G02X401799484Y-135922779I252258J-431700D01*
G01*
X401096711Y-135274201D02*
G75*
G02X400844453Y-135342500I-252258J431701D01*
G01*
X399255547Y-135342499D02*
G75*
G02X399003289Y-135274200I1J499999D01*
G01*
X398300516Y-135922779D02*
G75*
G02X399003289Y-135274200I450515J216878D01*
G01*
X398300516Y-135922779D02*
G75*
G02X398350001Y-136139657I-450515J-216878D01*
G01*
X398350001Y-137545342D02*
G75*
G02X398300516Y-137762219I-500000J1D01*
G01*
X399003289Y-138410796D02*
G75*
G02X398300516Y-137762219I-252258J431700D01*
G01*
X398350001Y-137545341D02*
X398350001Y-136139657D01*
X399255548Y-135342500D02*
X400844453Y-135342500D01*
X401749999Y-136139657D02*
X401749999Y-137545341D01*
X400844452Y-138342499D02*
X399255548Y-138342499D01*
X368552960Y-110826702D02*
G75*
G02X368300702Y-110895001I-252258J431701D01*
G01*
X366711798Y-110895001D02*
G75*
G02X366459539Y-110826702I0J500000D01*
G01*
X365756766Y-111475282D02*
G75*
G02X366459539Y-110826702I450515J216879D01*
G01*
X365756766Y-111475281D02*
G75*
G02X365806251Y-111692159I-450515J-216878D01*
G01*
X365806251Y-113097844D02*
G75*
G02X365756766Y-113314721I-500000J1D01*
G01*
X366459539Y-113963298D02*
G75*
G02X365756766Y-113314721I-252258J431700D01*
G01*
X366459539Y-113963299D02*
G75*
G02X366711797Y-113895000I252258J-431701D01*
G01*
X368300703Y-113895001D02*
G75*
G02X368552961Y-113963300I-1J-499999D01*
G01*
X369255734Y-113314721D02*
G75*
G02X368552961Y-113963300I-450515J-216878D01*
G01*
X369255734Y-113314721D02*
G75*
G02X369206249Y-113097843I450515J216878D01*
G01*
X369206249Y-111692158D02*
G75*
G02X369255734Y-111475281I500000J-1D01*
G01*
X368552961Y-110826704D02*
G75*
G02X369255734Y-111475281I252258J-431700D01*
G01*
X369206249Y-111692159D02*
X369206249Y-113097843D01*
X368300702Y-113895000D02*
X366711797Y-113895000D01*
X365806251Y-113097843D02*
X365806251Y-111692159D01*
X366711798Y-110895001D02*
X368300702Y-110895001D01*
X349502960Y-110826702D02*
G75*
G02X349250702Y-110895001I-252258J431701D01*
G01*
X347661798Y-110895001D02*
G75*
G02X347409539Y-110826702I0J500000D01*
G01*
X346706766Y-111475282D02*
G75*
G02X347409539Y-110826702I450515J216879D01*
G01*
X346706766Y-111475281D02*
G75*
G02X346756251Y-111692159I-450515J-216878D01*
G01*
X346756251Y-113097844D02*
G75*
G02X346706766Y-113314721I-500000J1D01*
G01*
X347409539Y-113963298D02*
G75*
G02X346706766Y-113314721I-252258J431700D01*
G01*
X347409539Y-113963299D02*
G75*
G02X347661797Y-113895000I252258J-431701D01*
G01*
X349250703Y-113895001D02*
G75*
G02X349502961Y-113963300I-1J-499999D01*
G01*
X350205734Y-113314721D02*
G75*
G02X349502961Y-113963300I-450515J-216878D01*
G01*
X350205734Y-113314721D02*
G75*
G02X350156249Y-113097843I450515J216878D01*
G01*
X350156249Y-111692158D02*
G75*
G02X350205734Y-111475281I500000J-1D01*
G01*
X349502961Y-110826704D02*
G75*
G02X350205734Y-111475281I252258J-431700D01*
G01*
X350156249Y-111692159D02*
X350156249Y-113097843D01*
X349250702Y-113895000D02*
X347661797Y-113895000D01*
X346756251Y-113097843D02*
X346756251Y-111692159D01*
X347661798Y-110895001D02*
X349250702Y-110895001D01*
X310609210Y-110826702D02*
G75*
G02X310356952Y-110895001I-252258J431701D01*
G01*
X308768048Y-110895001D02*
G75*
G02X308515789Y-110826702I0J500000D01*
G01*
X307813016Y-111475282D02*
G75*
G02X308515789Y-110826702I450515J216879D01*
G01*
X307813016Y-111475281D02*
G75*
G02X307862501Y-111692159I-450515J-216878D01*
G01*
X307862501Y-113097844D02*
G75*
G02X307813016Y-113314721I-500000J1D01*
G01*
X308515789Y-113963298D02*
G75*
G02X307813016Y-113314721I-252258J431700D01*
G01*
X308515789Y-113963299D02*
G75*
G02X308768047Y-113895000I252258J-431701D01*
G01*
X310356953Y-113895001D02*
G75*
G02X310609211Y-113963300I-1J-499999D01*
G01*
X311311984Y-113314721D02*
G75*
G02X310609211Y-113963300I-450515J-216878D01*
G01*
X311311984Y-113314721D02*
G75*
G02X311262499Y-113097843I450515J216878D01*
G01*
X311262499Y-111692158D02*
G75*
G02X311311984Y-111475281I500000J-1D01*
G01*
X310609211Y-110826704D02*
G75*
G02X311311984Y-111475281I252258J-431700D01*
G01*
X311262499Y-111692159D02*
X311262499Y-113097843D01*
X310356952Y-113895000D02*
X308768047Y-113895000D01*
X307862501Y-113097843D02*
X307862501Y-111692159D01*
X308768048Y-110895001D02*
X310356952Y-110895001D01*
X279652960Y-110826702D02*
G75*
G02X279400702Y-110895001I-252258J431701D01*
G01*
X277811798Y-110895001D02*
G75*
G02X277559539Y-110826702I0J500000D01*
G01*
X276856766Y-111475282D02*
G75*
G02X277559539Y-110826702I450515J216879D01*
G01*
X276856766Y-111475281D02*
G75*
G02X276906251Y-111692159I-450515J-216878D01*
G01*
X276906251Y-113097844D02*
G75*
G02X276856766Y-113314721I-500000J1D01*
G01*
X277559539Y-113963298D02*
G75*
G02X276856766Y-113314721I-252258J431700D01*
G01*
X277559539Y-113963299D02*
G75*
G02X277811797Y-113895000I252258J-431701D01*
G01*
X279400703Y-113895001D02*
G75*
G02X279652961Y-113963300I-1J-499999D01*
G01*
X280355734Y-113314721D02*
G75*
G02X279652961Y-113963300I-450515J-216878D01*
G01*
X280355734Y-113314721D02*
G75*
G02X280306249Y-113097843I450515J216878D01*
G01*
X280306249Y-111692158D02*
G75*
G02X280355734Y-111475281I500000J-1D01*
G01*
X279652961Y-110826704D02*
G75*
G02X280355734Y-111475281I252258J-431700D01*
G01*
X280306249Y-111692159D02*
X280306249Y-113097843D01*
X279400702Y-113895000D02*
X277811797Y-113895000D01*
X276906251Y-113097843D02*
X276906251Y-111692159D01*
X277811798Y-110895001D02*
X279400702Y-110895001D01*
X260602960Y-110826702D02*
G75*
G02X260350702Y-110895001I-252258J431701D01*
G01*
X258761798Y-110895001D02*
G75*
G02X258509539Y-110826702I0J500000D01*
G01*
X257806766Y-111475282D02*
G75*
G02X258509539Y-110826702I450515J216879D01*
G01*
X257806766Y-111475281D02*
G75*
G02X257856251Y-111692159I-450515J-216878D01*
G01*
X257856251Y-113097844D02*
G75*
G02X257806766Y-113314721I-500000J1D01*
G01*
X258509539Y-113963298D02*
G75*
G02X257806766Y-113314721I-252258J431700D01*
G01*
X258509539Y-113963299D02*
G75*
G02X258761797Y-113895000I252258J-431701D01*
G01*
X260350703Y-113895001D02*
G75*
G02X260602961Y-113963300I-1J-499999D01*
G01*
X261305734Y-113314721D02*
G75*
G02X260602961Y-113963300I-450515J-216878D01*
G01*
X261305734Y-113314721D02*
G75*
G02X261256249Y-113097843I450515J216878D01*
G01*
X261256249Y-111692158D02*
G75*
G02X261305734Y-111475281I500000J-1D01*
G01*
X260602961Y-110826704D02*
G75*
G02X261305734Y-111475281I252258J-431700D01*
G01*
X261256249Y-111692159D02*
X261256249Y-113097843D01*
X260350702Y-113895000D02*
X258761797Y-113895000D01*
X257856251Y-113097843D02*
X257856251Y-111692159D01*
X258761798Y-110895001D02*
X260350702Y-110895001D01*
X241552960Y-110826702D02*
G75*
G02X241300702Y-110895001I-252258J431701D01*
G01*
X239711798Y-110895001D02*
G75*
G02X239459539Y-110826702I0J500000D01*
G01*
X238756766Y-111475282D02*
G75*
G02X239459539Y-110826702I450515J216879D01*
G01*
X238756766Y-111475281D02*
G75*
G02X238806251Y-111692159I-450515J-216878D01*
G01*
X238806251Y-113097844D02*
G75*
G02X238756766Y-113314721I-500000J1D01*
G01*
X239459539Y-113963298D02*
G75*
G02X238756766Y-113314721I-252258J431700D01*
G01*
X239459539Y-113963299D02*
G75*
G02X239711797Y-113895000I252258J-431701D01*
G01*
X241300703Y-113895001D02*
G75*
G02X241552961Y-113963300I-1J-499999D01*
G01*
X242255734Y-113314721D02*
G75*
G02X241552961Y-113963300I-450515J-216878D01*
G01*
X242255734Y-113314721D02*
G75*
G02X242206249Y-113097843I450515J216878D01*
G01*
X242206249Y-111692158D02*
G75*
G02X242255734Y-111475281I500000J-1D01*
G01*
X241552961Y-110826704D02*
G75*
G02X242255734Y-111475281I252258J-431700D01*
G01*
X242206249Y-111692159D02*
X242206249Y-113097843D01*
X241300702Y-113895000D02*
X239711797Y-113895000D01*
X238806251Y-113097843D02*
X238806251Y-111692159D01*
X239711798Y-110895001D02*
X241300702Y-110895001D01*
X222502960Y-110826702D02*
G75*
G02X222250702Y-110895001I-252258J431701D01*
G01*
X220661798Y-110895001D02*
G75*
G02X220409539Y-110826702I0J500000D01*
G01*
X219706766Y-111475282D02*
G75*
G02X220409539Y-110826702I450515J216879D01*
G01*
X219706766Y-111475281D02*
G75*
G02X219756251Y-111692159I-450515J-216878D01*
G01*
X219756251Y-113097844D02*
G75*
G02X219706766Y-113314721I-500000J1D01*
G01*
X220409539Y-113963298D02*
G75*
G02X219706766Y-113314721I-252258J431700D01*
G01*
X220409539Y-113963299D02*
G75*
G02X220661797Y-113895000I252258J-431701D01*
G01*
X222250703Y-113895001D02*
G75*
G02X222502961Y-113963300I-1J-499999D01*
G01*
X223205734Y-113314721D02*
G75*
G02X222502961Y-113963300I-450515J-216878D01*
G01*
X223205734Y-113314721D02*
G75*
G02X223156249Y-113097843I450515J216878D01*
G01*
X223156249Y-111692158D02*
G75*
G02X223205734Y-111475281I500000J-1D01*
G01*
X222502961Y-110826704D02*
G75*
G02X223205734Y-111475281I252258J-431700D01*
G01*
X223156249Y-111692159D02*
X223156249Y-113097843D01*
X222250702Y-113895000D02*
X220661797Y-113895000D01*
X219756251Y-113097843D02*
X219756251Y-111692159D01*
X220661798Y-110895001D02*
X222250702Y-110895001D01*
X203452960Y-110826702D02*
G75*
G02X203200702Y-110895001I-252258J431701D01*
G01*
X201611798Y-110895001D02*
G75*
G02X201359539Y-110826702I0J500000D01*
G01*
X200656766Y-111475282D02*
G75*
G02X201359539Y-110826702I450515J216879D01*
G01*
X200656766Y-111475281D02*
G75*
G02X200706251Y-111692159I-450515J-216878D01*
G01*
X200706251Y-113097844D02*
G75*
G02X200656766Y-113314721I-500000J1D01*
G01*
X201359539Y-113963298D02*
G75*
G02X200656766Y-113314721I-252258J431700D01*
G01*
X201359539Y-113963299D02*
G75*
G02X201611797Y-113895000I252258J-431701D01*
G01*
X203200703Y-113895001D02*
G75*
G02X203452961Y-113963300I-1J-499999D01*
G01*
X204155734Y-113314721D02*
G75*
G02X203452961Y-113963300I-450515J-216878D01*
G01*
X204155734Y-113314721D02*
G75*
G02X204106249Y-113097843I450515J216878D01*
G01*
X204106249Y-111692158D02*
G75*
G02X204155734Y-111475281I500000J-1D01*
G01*
X203452961Y-110826704D02*
G75*
G02X204155734Y-111475281I252258J-431700D01*
G01*
X204106249Y-111692159D02*
X204106249Y-113097843D01*
X203200702Y-113895000D02*
X201611797Y-113895000D01*
X200706251Y-113097843D02*
X200706251Y-111692159D01*
X201611798Y-110895001D02*
X203200702Y-110895001D01*
X184402960Y-110826702D02*
G75*
G02X184150702Y-110895001I-252258J431701D01*
G01*
X182561798Y-110895001D02*
G75*
G02X182309539Y-110826702I0J500000D01*
G01*
X181606766Y-111475282D02*
G75*
G02X182309539Y-110826702I450515J216879D01*
G01*
X181606766Y-111475281D02*
G75*
G02X181656251Y-111692159I-450515J-216878D01*
G01*
X181656251Y-113097844D02*
G75*
G02X181606766Y-113314721I-500000J1D01*
G01*
X182309539Y-113963298D02*
G75*
G02X181606766Y-113314721I-252258J431700D01*
G01*
X182309539Y-113963299D02*
G75*
G02X182561797Y-113895000I252258J-431701D01*
G01*
X184150703Y-113895001D02*
G75*
G02X184402961Y-113963300I-1J-499999D01*
G01*
X185105734Y-113314721D02*
G75*
G02X184402961Y-113963300I-450515J-216878D01*
G01*
X185105734Y-113314721D02*
G75*
G02X185056249Y-113097843I450515J216878D01*
G01*
X185056249Y-111692158D02*
G75*
G02X185105734Y-111475281I500000J-1D01*
G01*
X184402961Y-110826704D02*
G75*
G02X185105734Y-111475281I252258J-431700D01*
G01*
X185056249Y-111692159D02*
X185056249Y-113097843D01*
X184150702Y-113895000D02*
X182561797Y-113895000D01*
X181656251Y-113097843D02*
X181656251Y-111692159D01*
X182561798Y-110895001D02*
X184150702Y-110895001D01*
X165352960Y-110826702D02*
G75*
G02X165100702Y-110895001I-252258J431701D01*
G01*
X163511798Y-110895001D02*
G75*
G02X163259539Y-110826702I0J500000D01*
G01*
X162556766Y-111475282D02*
G75*
G02X163259539Y-110826702I450515J216879D01*
G01*
X162556766Y-111475281D02*
G75*
G02X162606251Y-111692159I-450515J-216878D01*
G01*
X162606251Y-113097844D02*
G75*
G02X162556766Y-113314721I-500000J1D01*
G01*
X163259539Y-113963298D02*
G75*
G02X162556766Y-113314721I-252258J431700D01*
G01*
X163259539Y-113963299D02*
G75*
G02X163511797Y-113895000I252258J-431701D01*
G01*
X165100703Y-113895001D02*
G75*
G02X165352961Y-113963300I-1J-499999D01*
G01*
X166055734Y-113314721D02*
G75*
G02X165352961Y-113963300I-450515J-216878D01*
G01*
X166055734Y-113314721D02*
G75*
G02X166006249Y-113097843I450515J216878D01*
G01*
X166006249Y-111692158D02*
G75*
G02X166055734Y-111475281I500000J-1D01*
G01*
X165352961Y-110826704D02*
G75*
G02X166055734Y-111475281I252258J-431700D01*
G01*
X166006249Y-111692159D02*
X166006249Y-113097843D01*
X165100702Y-113895000D02*
X163511797Y-113895000D01*
X162606251Y-113097843D02*
X162606251Y-111692159D01*
X163511798Y-110895001D02*
X165100702Y-110895001D01*
X127252960Y-110826702D02*
G75*
G02X127000702Y-110895001I-252258J431701D01*
G01*
X125411798Y-110895001D02*
G75*
G02X125159539Y-110826702I0J500000D01*
G01*
X124456766Y-111475282D02*
G75*
G02X125159539Y-110826702I450515J216879D01*
G01*
X124456766Y-111475281D02*
G75*
G02X124506251Y-111692159I-450515J-216878D01*
G01*
X124506251Y-113097844D02*
G75*
G02X124456766Y-113314721I-500000J1D01*
G01*
X125159539Y-113963298D02*
G75*
G02X124456766Y-113314721I-252258J431700D01*
G01*
X125159539Y-113963299D02*
G75*
G02X125411797Y-113895000I252258J-431701D01*
G01*
X127000703Y-113895001D02*
G75*
G02X127252961Y-113963300I-1J-499999D01*
G01*
X127955734Y-113314721D02*
G75*
G02X127252961Y-113963300I-450515J-216878D01*
G01*
X127955734Y-113314721D02*
G75*
G02X127906249Y-113097843I450515J216878D01*
G01*
X127906249Y-111692158D02*
G75*
G02X127955734Y-111475281I500000J-1D01*
G01*
X127252961Y-110826704D02*
G75*
G02X127955734Y-111475281I252258J-431700D01*
G01*
X127906249Y-111692159D02*
X127906249Y-113097843D01*
X127000702Y-113895000D02*
X125411797Y-113895000D01*
X124506251Y-113097843D02*
X124506251Y-111692159D01*
X125411798Y-110895001D02*
X127000702Y-110895001D01*
X108202960Y-110826702D02*
G75*
G02X107950702Y-110895001I-252258J431701D01*
G01*
X106361798Y-110895001D02*
G75*
G02X106109539Y-110826702I0J500000D01*
G01*
X105406766Y-111475282D02*
G75*
G02X106109539Y-110826702I450515J216879D01*
G01*
X105406766Y-111475281D02*
G75*
G02X105456251Y-111692159I-450515J-216878D01*
G01*
X105456251Y-113097844D02*
G75*
G02X105406766Y-113314721I-500000J1D01*
G01*
X106109539Y-113963298D02*
G75*
G02X105406766Y-113314721I-252258J431700D01*
G01*
X106109539Y-113963299D02*
G75*
G02X106361797Y-113895000I252258J-431701D01*
G01*
X107950703Y-113895001D02*
G75*
G02X108202961Y-113963300I-1J-499999D01*
G01*
X108905734Y-113314721D02*
G75*
G02X108202961Y-113963300I-450515J-216878D01*
G01*
X108905734Y-113314721D02*
G75*
G02X108856249Y-113097843I450515J216878D01*
G01*
X108856249Y-111692158D02*
G75*
G02X108905734Y-111475281I500000J-1D01*
G01*
X108202961Y-110826704D02*
G75*
G02X108905734Y-111475281I252258J-431700D01*
G01*
X108856249Y-111692159D02*
X108856249Y-113097843D01*
X107950702Y-113895000D02*
X106361797Y-113895000D01*
X105456251Y-113097843D02*
X105456251Y-111692159D01*
X106361798Y-110895001D02*
X107950702Y-110895001D01*
X89152960Y-110826702D02*
G75*
G02X88900702Y-110895001I-252258J431701D01*
G01*
X87311798Y-110895001D02*
G75*
G02X87059539Y-110826702I0J500000D01*
G01*
X86356766Y-111475282D02*
G75*
G02X87059539Y-110826702I450515J216879D01*
G01*
X86356766Y-111475281D02*
G75*
G02X86406251Y-111692159I-450515J-216878D01*
G01*
X86406251Y-113097844D02*
G75*
G02X86356766Y-113314721I-500000J1D01*
G01*
X87059539Y-113963298D02*
G75*
G02X86356766Y-113314721I-252258J431700D01*
G01*
X87059539Y-113963299D02*
G75*
G02X87311797Y-113895000I252258J-431701D01*
G01*
X88900703Y-113895001D02*
G75*
G02X89152961Y-113963300I-1J-499999D01*
G01*
X89855734Y-113314721D02*
G75*
G02X89152961Y-113963300I-450515J-216878D01*
G01*
X89855734Y-113314721D02*
G75*
G02X89806249Y-113097843I450515J216878D01*
G01*
X89806249Y-111692158D02*
G75*
G02X89855734Y-111475281I500000J-1D01*
G01*
X89152961Y-110826704D02*
G75*
G02X89855734Y-111475281I252258J-431700D01*
G01*
X89806249Y-111692159D02*
X89806249Y-113097843D01*
X88900702Y-113895000D02*
X87311797Y-113895000D01*
X86406251Y-113097843D02*
X86406251Y-111692159D01*
X87311798Y-110895001D02*
X88900702Y-110895001D01*
X62959210Y-110826702D02*
G75*
G02X62706952Y-110895001I-252258J431701D01*
G01*
X61118048Y-110895001D02*
G75*
G02X60865789Y-110826702I0J500000D01*
G01*
X60163016Y-111475282D02*
G75*
G02X60865789Y-110826702I450515J216879D01*
G01*
X60163016Y-111475281D02*
G75*
G02X60212501Y-111692159I-450515J-216878D01*
G01*
X60212501Y-113097844D02*
G75*
G02X60163016Y-113314721I-500000J1D01*
G01*
X60865789Y-113963298D02*
G75*
G02X60163016Y-113314721I-252258J431700D01*
G01*
X60865789Y-113963299D02*
G75*
G02X61118047Y-113895000I252258J-431701D01*
G01*
X62706953Y-113895001D02*
G75*
G02X62959211Y-113963300I-1J-499999D01*
G01*
X63661984Y-113314721D02*
G75*
G02X62959211Y-113963300I-450515J-216878D01*
G01*
X63661984Y-113314721D02*
G75*
G02X63612499Y-113097843I450515J216878D01*
G01*
X63612499Y-111692158D02*
G75*
G02X63661984Y-111475281I500000J-1D01*
G01*
X62959211Y-110826704D02*
G75*
G02X63661984Y-111475281I252258J-431700D01*
G01*
X63612499Y-111692159D02*
X63612499Y-113097843D01*
X62706952Y-113895000D02*
X61118047Y-113895000D01*
X60212501Y-113097843D02*
X60212501Y-111692159D01*
X61118048Y-110895001D02*
X62706952Y-110895001D01*
X28827960Y-110826702D02*
G75*
G02X28575702Y-110895001I-252258J431701D01*
G01*
X26986798Y-110895001D02*
G75*
G02X26734539Y-110826702I0J500000D01*
G01*
X26031766Y-111475282D02*
G75*
G02X26734539Y-110826702I450515J216879D01*
G01*
X26031766Y-111475281D02*
G75*
G02X26081251Y-111692159I-450515J-216878D01*
G01*
X26081251Y-113097844D02*
G75*
G02X26031766Y-113314721I-500000J1D01*
G01*
X26734539Y-113963298D02*
G75*
G02X26031766Y-113314721I-252258J431700D01*
G01*
X26734539Y-113963299D02*
G75*
G02X26986797Y-113895000I252258J-431701D01*
G01*
X28575703Y-113895001D02*
G75*
G02X28827961Y-113963300I-1J-499999D01*
G01*
X29530734Y-113314721D02*
G75*
G02X28827961Y-113963300I-450515J-216878D01*
G01*
X29530734Y-113314721D02*
G75*
G02X29481249Y-113097843I450515J216878D01*
G01*
X29481249Y-111692158D02*
G75*
G02X29530734Y-111475281I500000J-1D01*
G01*
X28827961Y-110826704D02*
G75*
G02X29530734Y-111475281I252258J-431700D01*
G01*
X29481249Y-111692159D02*
X29481249Y-113097843D01*
X28575702Y-113895000D02*
X26986797Y-113895000D01*
X26081251Y-113097843D02*
X26081251Y-111692159D01*
X26986798Y-110895001D02*
X28575702Y-110895001D01*
X399003290Y-109835798D02*
G75*
G02X399255548Y-109767499I252258J-431701D01*
G01*
X400844452Y-109767499D02*
G75*
G02X401096711Y-109835798I0J-500000D01*
G01*
X401799484Y-109187218D02*
G75*
G02X401096711Y-109835798I-450515J-216879D01*
G01*
X401799484Y-109187219D02*
G75*
G02X401749999Y-108970341I450515J216878D01*
G01*
X401749999Y-107564656D02*
G75*
G02X401799484Y-107347779I500000J-1D01*
G01*
X401096711Y-106699202D02*
G75*
G02X401799484Y-107347779I252258J-431700D01*
G01*
X401096711Y-106699201D02*
G75*
G02X400844453Y-106767500I-252258J431701D01*
G01*
X399255547Y-106767499D02*
G75*
G02X399003289Y-106699200I1J499999D01*
G01*
X398300516Y-107347779D02*
G75*
G02X399003289Y-106699200I450515J216878D01*
G01*
X398300516Y-107347779D02*
G75*
G02X398350001Y-107564657I-450515J-216878D01*
G01*
X398350001Y-108970342D02*
G75*
G02X398300516Y-109187219I-500000J1D01*
G01*
X399003289Y-109835796D02*
G75*
G02X398300516Y-109187219I-252258J431700D01*
G01*
X398350001Y-108970341D02*
X398350001Y-107564657D01*
X399255548Y-106767500D02*
X400844453Y-106767500D01*
X401749999Y-107564657D02*
X401749999Y-108970341D01*
X400844452Y-109767499D02*
X399255548Y-109767499D01*
X366459540Y-94754548D02*
G75*
G02X366711798Y-94686249I252258J-431701D01*
G01*
X368300702Y-94686249D02*
G75*
G02X368552961Y-94754548I0J-500000D01*
G01*
X369255734Y-94105968D02*
G75*
G02X368552961Y-94754548I-450515J-216879D01*
G01*
X369255734Y-94105969D02*
G75*
G02X369206249Y-93889091I450515J216878D01*
G01*
X369206249Y-92483406D02*
G75*
G02X369255734Y-92266529I500000J-1D01*
G01*
X368552961Y-91617952D02*
G75*
G02X369255734Y-92266529I252258J-431700D01*
G01*
X368552961Y-91617951D02*
G75*
G02X368300703Y-91686250I-252258J431701D01*
G01*
X366711797Y-91686249D02*
G75*
G02X366459539Y-91617950I1J499999D01*
G01*
X365756766Y-92266529D02*
G75*
G02X366459539Y-91617950I450515J216878D01*
G01*
X365756766Y-92266529D02*
G75*
G02X365806251Y-92483407I-450515J-216878D01*
G01*
X365806251Y-93889092D02*
G75*
G02X365756766Y-94105969I-500000J1D01*
G01*
X366459539Y-94754546D02*
G75*
G02X365756766Y-94105969I-252258J431700D01*
G01*
X365806251Y-93889091D02*
X365806251Y-92483407D01*
X366711798Y-91686250D02*
X368300703Y-91686250D01*
X369206249Y-92483407D02*
X369206249Y-93889091D01*
X368300702Y-94686249D02*
X366711798Y-94686249D01*
X347409540Y-94754548D02*
G75*
G02X347661798Y-94686249I252258J-431701D01*
G01*
X349250702Y-94686249D02*
G75*
G02X349502961Y-94754548I0J-500000D01*
G01*
X350205734Y-94105968D02*
G75*
G02X349502961Y-94754548I-450515J-216879D01*
G01*
X350205734Y-94105969D02*
G75*
G02X350156249Y-93889091I450515J216878D01*
G01*
X350156249Y-92483406D02*
G75*
G02X350205734Y-92266529I500000J-1D01*
G01*
X349502961Y-91617952D02*
G75*
G02X350205734Y-92266529I252258J-431700D01*
G01*
X349502961Y-91617951D02*
G75*
G02X349250703Y-91686250I-252258J431701D01*
G01*
X347661797Y-91686249D02*
G75*
G02X347409539Y-91617950I1J499999D01*
G01*
X346706766Y-92266529D02*
G75*
G02X347409539Y-91617950I450515J216878D01*
G01*
X346706766Y-92266529D02*
G75*
G02X346756251Y-92483407I-450515J-216878D01*
G01*
X346756251Y-93889092D02*
G75*
G02X346706766Y-94105969I-500000J1D01*
G01*
X347409539Y-94754546D02*
G75*
G02X346706766Y-94105969I-252258J431700D01*
G01*
X346756251Y-93889091D02*
X346756251Y-92483407D01*
X347661798Y-91686250D02*
X349250703Y-91686250D01*
X350156249Y-92483407D02*
X350156249Y-93889091D01*
X349250702Y-94686249D02*
X347661798Y-94686249D01*
X315659540Y-94754548D02*
G75*
G02X315911798Y-94686249I252258J-431701D01*
G01*
X317500702Y-94686249D02*
G75*
G02X317752961Y-94754548I0J-500000D01*
G01*
X318455734Y-94105968D02*
G75*
G02X317752961Y-94754548I-450515J-216879D01*
G01*
X318455734Y-94105969D02*
G75*
G02X318406249Y-93889091I450515J216878D01*
G01*
X318406249Y-92483406D02*
G75*
G02X318455734Y-92266529I500000J-1D01*
G01*
X317752961Y-91617952D02*
G75*
G02X318455734Y-92266529I252258J-431700D01*
G01*
X317752961Y-91617951D02*
G75*
G02X317500703Y-91686250I-252258J431701D01*
G01*
X315911797Y-91686249D02*
G75*
G02X315659539Y-91617950I1J499999D01*
G01*
X314956766Y-92266529D02*
G75*
G02X315659539Y-91617950I450515J216878D01*
G01*
X314956766Y-92266529D02*
G75*
G02X315006251Y-92483407I-450515J-216878D01*
G01*
X315006251Y-93889092D02*
G75*
G02X314956766Y-94105969I-500000J1D01*
G01*
X315659539Y-94754546D02*
G75*
G02X314956766Y-94105969I-252258J431700D01*
G01*
X315006251Y-93889091D02*
X315006251Y-92483407D01*
X315911798Y-91686250D02*
X317500703Y-91686250D01*
X318406249Y-92483407D02*
X318406249Y-93889091D01*
X317500702Y-94686249D02*
X315911798Y-94686249D01*
X291847040Y-94754548D02*
G75*
G02X292099298Y-94686249I252258J-431701D01*
G01*
X293688202Y-94686249D02*
G75*
G02X293940461Y-94754548I0J-500000D01*
G01*
X294643234Y-94105968D02*
G75*
G02X293940461Y-94754548I-450515J-216879D01*
G01*
X294643234Y-94105969D02*
G75*
G02X294593749Y-93889091I450515J216878D01*
G01*
X294593749Y-92483406D02*
G75*
G02X294643234Y-92266529I500000J-1D01*
G01*
X293940461Y-91617952D02*
G75*
G02X294643234Y-92266529I252258J-431700D01*
G01*
X293940461Y-91617951D02*
G75*
G02X293688203Y-91686250I-252258J431701D01*
G01*
X292099297Y-91686249D02*
G75*
G02X291847039Y-91617950I1J499999D01*
G01*
X291144266Y-92266529D02*
G75*
G02X291847039Y-91617950I450515J216878D01*
G01*
X291144266Y-92266529D02*
G75*
G02X291193751Y-92483407I-450515J-216878D01*
G01*
X291193751Y-93889092D02*
G75*
G02X291144266Y-94105969I-500000J1D01*
G01*
X291847039Y-94754546D02*
G75*
G02X291144266Y-94105969I-252258J431700D01*
G01*
X291193751Y-93889091D02*
X291193751Y-92483407D01*
X292099298Y-91686250D02*
X293688203Y-91686250D01*
X294593749Y-92483407D02*
X294593749Y-93889091D01*
X293688202Y-94686249D02*
X292099298Y-94686249D01*
X272797040Y-94754548D02*
G75*
G02X273049298Y-94686249I252258J-431701D01*
G01*
X274638202Y-94686249D02*
G75*
G02X274890461Y-94754548I0J-500000D01*
G01*
X275593234Y-94105968D02*
G75*
G02X274890461Y-94754548I-450515J-216879D01*
G01*
X275593234Y-94105969D02*
G75*
G02X275543749Y-93889091I450515J216878D01*
G01*
X275543749Y-92483406D02*
G75*
G02X275593234Y-92266529I500000J-1D01*
G01*
X274890461Y-91617952D02*
G75*
G02X275593234Y-92266529I252258J-431700D01*
G01*
X274890461Y-91617951D02*
G75*
G02X274638203Y-91686250I-252258J431701D01*
G01*
X273049297Y-91686249D02*
G75*
G02X272797039Y-91617950I1J499999D01*
G01*
X272094266Y-92266529D02*
G75*
G02X272797039Y-91617950I450515J216878D01*
G01*
X272094266Y-92266529D02*
G75*
G02X272143751Y-92483407I-450515J-216878D01*
G01*
X272143751Y-93889092D02*
G75*
G02X272094266Y-94105969I-500000J1D01*
G01*
X272797039Y-94754546D02*
G75*
G02X272094266Y-94105969I-252258J431700D01*
G01*
X272143751Y-93889091D02*
X272143751Y-92483407D01*
X273049298Y-91686250D02*
X274638203Y-91686250D01*
X275543749Y-92483407D02*
X275543749Y-93889091D01*
X274638202Y-94686249D02*
X273049298Y-94686249D01*
X253747040Y-94754548D02*
G75*
G02X253999298Y-94686249I252258J-431701D01*
G01*
X255588202Y-94686249D02*
G75*
G02X255840461Y-94754548I0J-500000D01*
G01*
X256543234Y-94105968D02*
G75*
G02X255840461Y-94754548I-450515J-216879D01*
G01*
X256543234Y-94105969D02*
G75*
G02X256493749Y-93889091I450515J216878D01*
G01*
X256493749Y-92483406D02*
G75*
G02X256543234Y-92266529I500000J-1D01*
G01*
X255840461Y-91617952D02*
G75*
G02X256543234Y-92266529I252258J-431700D01*
G01*
X255840461Y-91617951D02*
G75*
G02X255588203Y-91686250I-252258J431701D01*
G01*
X253999297Y-91686249D02*
G75*
G02X253747039Y-91617950I1J499999D01*
G01*
X253044266Y-92266529D02*
G75*
G02X253747039Y-91617950I450515J216878D01*
G01*
X253044266Y-92266529D02*
G75*
G02X253093751Y-92483407I-450515J-216878D01*
G01*
X253093751Y-93889092D02*
G75*
G02X253044266Y-94105969I-500000J1D01*
G01*
X253747039Y-94754546D02*
G75*
G02X253044266Y-94105969I-252258J431700D01*
G01*
X253093751Y-93889091D02*
X253093751Y-92483407D01*
X253999298Y-91686250D02*
X255588203Y-91686250D01*
X256493749Y-92483407D02*
X256493749Y-93889091D01*
X255588202Y-94686249D02*
X253999298Y-94686249D01*
X234697040Y-94754548D02*
G75*
G02X234949298Y-94686249I252258J-431701D01*
G01*
X236538202Y-94686249D02*
G75*
G02X236790461Y-94754548I0J-500000D01*
G01*
X237493234Y-94105968D02*
G75*
G02X236790461Y-94754548I-450515J-216879D01*
G01*
X237493234Y-94105969D02*
G75*
G02X237443749Y-93889091I450515J216878D01*
G01*
X237443749Y-92483406D02*
G75*
G02X237493234Y-92266529I500000J-1D01*
G01*
X236790461Y-91617952D02*
G75*
G02X237493234Y-92266529I252258J-431700D01*
G01*
X236790461Y-91617951D02*
G75*
G02X236538203Y-91686250I-252258J431701D01*
G01*
X234949297Y-91686249D02*
G75*
G02X234697039Y-91617950I1J499999D01*
G01*
X233994266Y-92266529D02*
G75*
G02X234697039Y-91617950I450515J216878D01*
G01*
X233994266Y-92266529D02*
G75*
G02X234043751Y-92483407I-450515J-216878D01*
G01*
X234043751Y-93889092D02*
G75*
G02X233994266Y-94105969I-500000J1D01*
G01*
X234697039Y-94754546D02*
G75*
G02X233994266Y-94105969I-252258J431700D01*
G01*
X234043751Y-93889091D02*
X234043751Y-92483407D01*
X234949298Y-91686250D02*
X236538203Y-91686250D01*
X237443749Y-92483407D02*
X237443749Y-93889091D01*
X236538202Y-94686249D02*
X234949298Y-94686249D01*
X215647040Y-94754548D02*
G75*
G02X215899298Y-94686249I252258J-431701D01*
G01*
X217488202Y-94686249D02*
G75*
G02X217740461Y-94754548I0J-500000D01*
G01*
X218443234Y-94105968D02*
G75*
G02X217740461Y-94754548I-450515J-216879D01*
G01*
X218443234Y-94105969D02*
G75*
G02X218393749Y-93889091I450515J216878D01*
G01*
X218393749Y-92483406D02*
G75*
G02X218443234Y-92266529I500000J-1D01*
G01*
X217740461Y-91617952D02*
G75*
G02X218443234Y-92266529I252258J-431700D01*
G01*
X217740461Y-91617951D02*
G75*
G02X217488203Y-91686250I-252258J431701D01*
G01*
X215899297Y-91686249D02*
G75*
G02X215647039Y-91617950I1J499999D01*
G01*
X214944266Y-92266529D02*
G75*
G02X215647039Y-91617950I450515J216878D01*
G01*
X214944266Y-92266529D02*
G75*
G02X214993751Y-92483407I-450515J-216878D01*
G01*
X214993751Y-93889092D02*
G75*
G02X214944266Y-94105969I-500000J1D01*
G01*
X215647039Y-94754546D02*
G75*
G02X214944266Y-94105969I-252258J431700D01*
G01*
X214993751Y-93889091D02*
X214993751Y-92483407D01*
X215899298Y-91686250D02*
X217488203Y-91686250D01*
X218393749Y-92483407D02*
X218393749Y-93889091D01*
X217488202Y-94686249D02*
X215899298Y-94686249D01*
X196597040Y-94754548D02*
G75*
G02X196849298Y-94686249I252258J-431701D01*
G01*
X198438202Y-94686249D02*
G75*
G02X198690461Y-94754548I0J-500000D01*
G01*
X199393234Y-94105968D02*
G75*
G02X198690461Y-94754548I-450515J-216879D01*
G01*
X199393234Y-94105969D02*
G75*
G02X199343749Y-93889091I450515J216878D01*
G01*
X199343749Y-92483406D02*
G75*
G02X199393234Y-92266529I500000J-1D01*
G01*
X198690461Y-91617952D02*
G75*
G02X199393234Y-92266529I252258J-431700D01*
G01*
X198690461Y-91617951D02*
G75*
G02X198438203Y-91686250I-252258J431701D01*
G01*
X196849297Y-91686249D02*
G75*
G02X196597039Y-91617950I1J499999D01*
G01*
X195894266Y-92266529D02*
G75*
G02X196597039Y-91617950I450515J216878D01*
G01*
X195894266Y-92266529D02*
G75*
G02X195943751Y-92483407I-450515J-216878D01*
G01*
X195943751Y-93889092D02*
G75*
G02X195894266Y-94105969I-500000J1D01*
G01*
X196597039Y-94754546D02*
G75*
G02X195894266Y-94105969I-252258J431700D01*
G01*
X195943751Y-93889091D02*
X195943751Y-92483407D01*
X196849298Y-91686250D02*
X198438203Y-91686250D01*
X199343749Y-92483407D02*
X199343749Y-93889091D01*
X198438202Y-94686249D02*
X196849298Y-94686249D01*
X177547040Y-94754548D02*
G75*
G02X177799298Y-94686249I252258J-431701D01*
G01*
X179388202Y-94686249D02*
G75*
G02X179640461Y-94754548I0J-500000D01*
G01*
X180343234Y-94105968D02*
G75*
G02X179640461Y-94754548I-450515J-216879D01*
G01*
X180343234Y-94105969D02*
G75*
G02X180293749Y-93889091I450515J216878D01*
G01*
X180293749Y-92483406D02*
G75*
G02X180343234Y-92266529I500000J-1D01*
G01*
X179640461Y-91617952D02*
G75*
G02X180343234Y-92266529I252258J-431700D01*
G01*
X179640461Y-91617951D02*
G75*
G02X179388203Y-91686250I-252258J431701D01*
G01*
X177799297Y-91686249D02*
G75*
G02X177547039Y-91617950I1J499999D01*
G01*
X176844266Y-92266529D02*
G75*
G02X177547039Y-91617950I450515J216878D01*
G01*
X176844266Y-92266529D02*
G75*
G02X176893751Y-92483407I-450515J-216878D01*
G01*
X176893751Y-93889092D02*
G75*
G02X176844266Y-94105969I-500000J1D01*
G01*
X177547039Y-94754546D02*
G75*
G02X176844266Y-94105969I-252258J431700D01*
G01*
X176893751Y-93889091D02*
X176893751Y-92483407D01*
X177799298Y-91686250D02*
X179388203Y-91686250D01*
X180293749Y-92483407D02*
X180293749Y-93889091D01*
X179388202Y-94686249D02*
X177799298Y-94686249D01*
X158497040Y-94754548D02*
G75*
G02X158749298Y-94686249I252258J-431701D01*
G01*
X160338202Y-94686249D02*
G75*
G02X160590461Y-94754548I0J-500000D01*
G01*
X161293234Y-94105968D02*
G75*
G02X160590461Y-94754548I-450515J-216879D01*
G01*
X161293234Y-94105969D02*
G75*
G02X161243749Y-93889091I450515J216878D01*
G01*
X161243749Y-92483406D02*
G75*
G02X161293234Y-92266529I500000J-1D01*
G01*
X160590461Y-91617952D02*
G75*
G02X161293234Y-92266529I252258J-431700D01*
G01*
X160590461Y-91617951D02*
G75*
G02X160338203Y-91686250I-252258J431701D01*
G01*
X158749297Y-91686249D02*
G75*
G02X158497039Y-91617950I1J499999D01*
G01*
X157794266Y-92266529D02*
G75*
G02X158497039Y-91617950I450515J216878D01*
G01*
X157794266Y-92266529D02*
G75*
G02X157843751Y-92483407I-450515J-216878D01*
G01*
X157843751Y-93889092D02*
G75*
G02X157794266Y-94105969I-500000J1D01*
G01*
X158497039Y-94754546D02*
G75*
G02X157794266Y-94105969I-252258J431700D01*
G01*
X157843751Y-93889091D02*
X157843751Y-92483407D01*
X158749298Y-91686250D02*
X160338203Y-91686250D01*
X161243749Y-92483407D02*
X161243749Y-93889091D01*
X160338202Y-94686249D02*
X158749298Y-94686249D01*
X139447040Y-94754548D02*
G75*
G02X139699298Y-94686249I252258J-431701D01*
G01*
X141288202Y-94686249D02*
G75*
G02X141540461Y-94754548I0J-500000D01*
G01*
X142243234Y-94105968D02*
G75*
G02X141540461Y-94754548I-450515J-216879D01*
G01*
X142243234Y-94105969D02*
G75*
G02X142193749Y-93889091I450515J216878D01*
G01*
X142193749Y-92483406D02*
G75*
G02X142243234Y-92266529I500000J-1D01*
G01*
X141540461Y-91617952D02*
G75*
G02X142243234Y-92266529I252258J-431700D01*
G01*
X141540461Y-91617951D02*
G75*
G02X141288203Y-91686250I-252258J431701D01*
G01*
X139699297Y-91686249D02*
G75*
G02X139447039Y-91617950I1J499999D01*
G01*
X138744266Y-92266529D02*
G75*
G02X139447039Y-91617950I450515J216878D01*
G01*
X138744266Y-92266529D02*
G75*
G02X138793751Y-92483407I-450515J-216878D01*
G01*
X138793751Y-93889092D02*
G75*
G02X138744266Y-94105969I-500000J1D01*
G01*
X139447039Y-94754546D02*
G75*
G02X138744266Y-94105969I-252258J431700D01*
G01*
X138793751Y-93889091D02*
X138793751Y-92483407D01*
X139699298Y-91686250D02*
X141288203Y-91686250D01*
X142193749Y-92483407D02*
X142193749Y-93889091D01*
X141288202Y-94686249D02*
X139699298Y-94686249D01*
X120397040Y-94754548D02*
G75*
G02X120649298Y-94686249I252258J-431701D01*
G01*
X122238202Y-94686249D02*
G75*
G02X122490461Y-94754548I0J-500000D01*
G01*
X123193234Y-94105968D02*
G75*
G02X122490461Y-94754548I-450515J-216879D01*
G01*
X123193234Y-94105969D02*
G75*
G02X123143749Y-93889091I450515J216878D01*
G01*
X123143749Y-92483406D02*
G75*
G02X123193234Y-92266529I500000J-1D01*
G01*
X122490461Y-91617952D02*
G75*
G02X123193234Y-92266529I252258J-431700D01*
G01*
X122490461Y-91617951D02*
G75*
G02X122238203Y-91686250I-252258J431701D01*
G01*
X120649297Y-91686249D02*
G75*
G02X120397039Y-91617950I1J499999D01*
G01*
X119694266Y-92266529D02*
G75*
G02X120397039Y-91617950I450515J216878D01*
G01*
X119694266Y-92266529D02*
G75*
G02X119743751Y-92483407I-450515J-216878D01*
G01*
X119743751Y-93889092D02*
G75*
G02X119694266Y-94105969I-500000J1D01*
G01*
X120397039Y-94754546D02*
G75*
G02X119694266Y-94105969I-252258J431700D01*
G01*
X119743751Y-93889091D02*
X119743751Y-92483407D01*
X120649298Y-91686250D02*
X122238203Y-91686250D01*
X123143749Y-92483407D02*
X123143749Y-93889091D01*
X122238202Y-94686249D02*
X120649298Y-94686249D01*
X101347040Y-94754548D02*
G75*
G02X101599298Y-94686249I252258J-431701D01*
G01*
X103188202Y-94686249D02*
G75*
G02X103440461Y-94754548I0J-500000D01*
G01*
X104143234Y-94105968D02*
G75*
G02X103440461Y-94754548I-450515J-216879D01*
G01*
X104143234Y-94105969D02*
G75*
G02X104093749Y-93889091I450515J216878D01*
G01*
X104093749Y-92483406D02*
G75*
G02X104143234Y-92266529I500000J-1D01*
G01*
X103440461Y-91617952D02*
G75*
G02X104143234Y-92266529I252258J-431700D01*
G01*
X103440461Y-91617951D02*
G75*
G02X103188203Y-91686250I-252258J431701D01*
G01*
X101599297Y-91686249D02*
G75*
G02X101347039Y-91617950I1J499999D01*
G01*
X100644266Y-92266529D02*
G75*
G02X101347039Y-91617950I450515J216878D01*
G01*
X100644266Y-92266529D02*
G75*
G02X100693751Y-92483407I-450515J-216878D01*
G01*
X100693751Y-93889092D02*
G75*
G02X100644266Y-94105969I-500000J1D01*
G01*
X101347039Y-94754546D02*
G75*
G02X100644266Y-94105969I-252258J431700D01*
G01*
X100693751Y-93889091D02*
X100693751Y-92483407D01*
X101599298Y-91686250D02*
X103188203Y-91686250D01*
X104093749Y-92483407D02*
X104093749Y-93889091D01*
X103188202Y-94686249D02*
X101599298Y-94686249D01*
X82297040Y-94754548D02*
G75*
G02X82549298Y-94686249I252258J-431701D01*
G01*
X84138202Y-94686249D02*
G75*
G02X84390461Y-94754548I0J-500000D01*
G01*
X85093234Y-94105968D02*
G75*
G02X84390461Y-94754548I-450515J-216879D01*
G01*
X85093234Y-94105969D02*
G75*
G02X85043749Y-93889091I450515J216878D01*
G01*
X85043749Y-92483406D02*
G75*
G02X85093234Y-92266529I500000J-1D01*
G01*
X84390461Y-91617952D02*
G75*
G02X85093234Y-92266529I252258J-431700D01*
G01*
X84390461Y-91617951D02*
G75*
G02X84138203Y-91686250I-252258J431701D01*
G01*
X82549297Y-91686249D02*
G75*
G02X82297039Y-91617950I1J499999D01*
G01*
X81594266Y-92266529D02*
G75*
G02X82297039Y-91617950I450515J216878D01*
G01*
X81594266Y-92266529D02*
G75*
G02X81643751Y-92483407I-450515J-216878D01*
G01*
X81643751Y-93889092D02*
G75*
G02X81594266Y-94105969I-500000J1D01*
G01*
X82297039Y-94754546D02*
G75*
G02X81594266Y-94105969I-252258J431700D01*
G01*
X81643751Y-93889091D02*
X81643751Y-92483407D01*
X82549298Y-91686250D02*
X84138203Y-91686250D01*
X85043749Y-92483407D02*
X85043749Y-93889091D01*
X84138202Y-94686249D02*
X82549298Y-94686249D01*
X58484540Y-94754548D02*
G75*
G02X58736798Y-94686249I252258J-431701D01*
G01*
X60325702Y-94686249D02*
G75*
G02X60577961Y-94754548I0J-500000D01*
G01*
X61280734Y-94105968D02*
G75*
G02X60577961Y-94754548I-450515J-216879D01*
G01*
X61280734Y-94105969D02*
G75*
G02X61231249Y-93889091I450515J216878D01*
G01*
X61231249Y-92483406D02*
G75*
G02X61280734Y-92266529I500000J-1D01*
G01*
X60577961Y-91617952D02*
G75*
G02X61280734Y-92266529I252258J-431700D01*
G01*
X60577961Y-91617951D02*
G75*
G02X60325703Y-91686250I-252258J431701D01*
G01*
X58736797Y-91686249D02*
G75*
G02X58484539Y-91617950I1J499999D01*
G01*
X57781766Y-92266529D02*
G75*
G02X58484539Y-91617950I450515J216878D01*
G01*
X57781766Y-92266529D02*
G75*
G02X57831251Y-92483407I-450515J-216878D01*
G01*
X57831251Y-93889092D02*
G75*
G02X57781766Y-94105969I-500000J1D01*
G01*
X58484539Y-94754546D02*
G75*
G02X57781766Y-94105969I-252258J431700D01*
G01*
X57831251Y-93889091D02*
X57831251Y-92483407D01*
X58736798Y-91686250D02*
X60325703Y-91686250D01*
X61231249Y-92483407D02*
X61231249Y-93889091D01*
X60325702Y-94686249D02*
X58736798Y-94686249D01*
X26734540Y-94754548D02*
G75*
G02X26986798Y-94686249I252258J-431701D01*
G01*
X28575702Y-94686249D02*
G75*
G02X28827961Y-94754548I0J-500000D01*
G01*
X29530734Y-94105968D02*
G75*
G02X28827961Y-94754548I-450515J-216879D01*
G01*
X29530734Y-94105969D02*
G75*
G02X29481249Y-93889091I450515J216878D01*
G01*
X29481249Y-92483406D02*
G75*
G02X29530734Y-92266529I500000J-1D01*
G01*
X28827961Y-91617952D02*
G75*
G02X29530734Y-92266529I252258J-431700D01*
G01*
X28827961Y-91617951D02*
G75*
G02X28575703Y-91686250I-252258J431701D01*
G01*
X26986797Y-91686249D02*
G75*
G02X26734539Y-91617950I1J499999D01*
G01*
X26031766Y-92266529D02*
G75*
G02X26734539Y-91617950I450515J216878D01*
G01*
X26031766Y-92266529D02*
G75*
G02X26081251Y-92483407I-450515J-216878D01*
G01*
X26081251Y-93889092D02*
G75*
G02X26031766Y-94105969I-500000J1D01*
G01*
X26734539Y-94754546D02*
G75*
G02X26031766Y-94105969I-252258J431700D01*
G01*
X26081251Y-93889091D02*
X26081251Y-92483407D01*
X26986798Y-91686250D02*
X28575703Y-91686250D01*
X29481249Y-92483407D02*
X29481249Y-93889091D01*
X28575702Y-94686249D02*
X26986798Y-94686249D01*
X399003290Y-82054548D02*
G75*
G02X399255548Y-81986249I252258J-431701D01*
G01*
X400844452Y-81986249D02*
G75*
G02X401096711Y-82054548I0J-500000D01*
G01*
X401799484Y-81405968D02*
G75*
G02X401096711Y-82054548I-450515J-216879D01*
G01*
X401799484Y-81405969D02*
G75*
G02X401749999Y-81189091I450515J216878D01*
G01*
X401749999Y-79783406D02*
G75*
G02X401799484Y-79566529I500000J-1D01*
G01*
X401096711Y-78917952D02*
G75*
G02X401799484Y-79566529I252258J-431700D01*
G01*
X401096711Y-78917951D02*
G75*
G02X400844453Y-78986250I-252258J431701D01*
G01*
X399255547Y-78986249D02*
G75*
G02X399003289Y-78917950I1J499999D01*
G01*
X398300516Y-79566529D02*
G75*
G02X399003289Y-78917950I450515J216878D01*
G01*
X398300516Y-79566529D02*
G75*
G02X398350001Y-79783407I-450515J-216878D01*
G01*
X398350001Y-81189092D02*
G75*
G02X398300516Y-81405969I-500000J1D01*
G01*
X399003289Y-82054546D02*
G75*
G02X398300516Y-81405969I-252258J431700D01*
G01*
X398350001Y-81189091D02*
X398350001Y-79783407D01*
X399255548Y-78986250D02*
X400844453Y-78986250D01*
X401749999Y-79783407D02*
X401749999Y-81189091D01*
X400844452Y-81986249D02*
X399255548Y-81986249D01*
X368552960Y-72726702D02*
G75*
G02X368300702Y-72795001I-252258J431701D01*
G01*
X366711798Y-72795001D02*
G75*
G02X366459539Y-72726702I0J500000D01*
G01*
X365756766Y-73375282D02*
G75*
G02X366459539Y-72726702I450515J216879D01*
G01*
X365756766Y-73375281D02*
G75*
G02X365806251Y-73592159I-450515J-216878D01*
G01*
X365806251Y-74997844D02*
G75*
G02X365756766Y-75214721I-500000J1D01*
G01*
X366459539Y-75863298D02*
G75*
G02X365756766Y-75214721I-252258J431700D01*
G01*
X366459539Y-75863299D02*
G75*
G02X366711797Y-75795000I252258J-431701D01*
G01*
X368300703Y-75795001D02*
G75*
G02X368552961Y-75863300I-1J-499999D01*
G01*
X369255734Y-75214721D02*
G75*
G02X368552961Y-75863300I-450515J-216878D01*
G01*
X369255734Y-75214721D02*
G75*
G02X369206249Y-74997843I450515J216878D01*
G01*
X369206249Y-73592158D02*
G75*
G02X369255734Y-73375281I500000J-1D01*
G01*
X368552961Y-72726704D02*
G75*
G02X369255734Y-73375281I252258J-431700D01*
G01*
X369206249Y-73592159D02*
X369206249Y-74997843D01*
X368300702Y-75795000D02*
X366711797Y-75795000D01*
X365806251Y-74997843D02*
X365806251Y-73592159D01*
X366711798Y-72795001D02*
X368300702Y-72795001D01*
X349502960Y-72726702D02*
G75*
G02X349250702Y-72795001I-252258J431701D01*
G01*
X347661798Y-72795001D02*
G75*
G02X347409539Y-72726702I0J500000D01*
G01*
X346706766Y-73375282D02*
G75*
G02X347409539Y-72726702I450515J216879D01*
G01*
X346706766Y-73375281D02*
G75*
G02X346756251Y-73592159I-450515J-216878D01*
G01*
X346756251Y-74997844D02*
G75*
G02X346706766Y-75214721I-500000J1D01*
G01*
X347409539Y-75863298D02*
G75*
G02X346706766Y-75214721I-252258J431700D01*
G01*
X347409539Y-75863299D02*
G75*
G02X347661797Y-75795000I252258J-431701D01*
G01*
X349250703Y-75795001D02*
G75*
G02X349502961Y-75863300I-1J-499999D01*
G01*
X350205734Y-75214721D02*
G75*
G02X349502961Y-75863300I-450515J-216878D01*
G01*
X350205734Y-75214721D02*
G75*
G02X350156249Y-74997843I450515J216878D01*
G01*
X350156249Y-73592158D02*
G75*
G02X350205734Y-73375281I500000J-1D01*
G01*
X349502961Y-72726704D02*
G75*
G02X350205734Y-73375281I252258J-431700D01*
G01*
X350156249Y-73592159D02*
X350156249Y-74997843D01*
X349250702Y-75795000D02*
X347661797Y-75795000D01*
X346756251Y-74997843D02*
X346756251Y-73592159D01*
X347661798Y-72795001D02*
X349250702Y-72795001D01*
X312990460Y-72726702D02*
G75*
G02X312738202Y-72795001I-252258J431701D01*
G01*
X311149298Y-72795001D02*
G75*
G02X310897039Y-72726702I0J500000D01*
G01*
X310194266Y-73375282D02*
G75*
G02X310897039Y-72726702I450515J216879D01*
G01*
X310194266Y-73375281D02*
G75*
G02X310243751Y-73592159I-450515J-216878D01*
G01*
X310243751Y-74997844D02*
G75*
G02X310194266Y-75214721I-500000J1D01*
G01*
X310897039Y-75863298D02*
G75*
G02X310194266Y-75214721I-252258J431700D01*
G01*
X310897039Y-75863299D02*
G75*
G02X311149297Y-75795000I252258J-431701D01*
G01*
X312738203Y-75795001D02*
G75*
G02X312990461Y-75863300I-1J-499999D01*
G01*
X313693234Y-75214721D02*
G75*
G02X312990461Y-75863300I-450515J-216878D01*
G01*
X313693234Y-75214721D02*
G75*
G02X313643749Y-74997843I450515J216878D01*
G01*
X313643749Y-73592158D02*
G75*
G02X313693234Y-73375281I500000J-1D01*
G01*
X312990461Y-72726704D02*
G75*
G02X313693234Y-73375281I252258J-431700D01*
G01*
X313643749Y-73592159D02*
X313643749Y-74997843D01*
X312738202Y-75795000D02*
X311149297Y-75795000D01*
X310243751Y-74997843D02*
X310243751Y-73592159D01*
X311149298Y-72795001D02*
X312738202Y-72795001D01*
X284415460Y-72726702D02*
G75*
G02X284163202Y-72795001I-252258J431701D01*
G01*
X282574298Y-72795001D02*
G75*
G02X282322039Y-72726702I0J500000D01*
G01*
X281619266Y-73375282D02*
G75*
G02X282322039Y-72726702I450515J216879D01*
G01*
X281619266Y-73375281D02*
G75*
G02X281668751Y-73592159I-450515J-216878D01*
G01*
X281668751Y-74997844D02*
G75*
G02X281619266Y-75214721I-500000J1D01*
G01*
X282322039Y-75863298D02*
G75*
G02X281619266Y-75214721I-252258J431700D01*
G01*
X282322039Y-75863299D02*
G75*
G02X282574297Y-75795000I252258J-431701D01*
G01*
X284163203Y-75795001D02*
G75*
G02X284415461Y-75863300I-1J-499999D01*
G01*
X285118234Y-75214721D02*
G75*
G02X284415461Y-75863300I-450515J-216878D01*
G01*
X285118234Y-75214721D02*
G75*
G02X285068749Y-74997843I450515J216878D01*
G01*
X285068749Y-73592158D02*
G75*
G02X285118234Y-73375281I500000J-1D01*
G01*
X284415461Y-72726704D02*
G75*
G02X285118234Y-73375281I252258J-431700D01*
G01*
X285068749Y-73592159D02*
X285068749Y-74997843D01*
X284163202Y-75795000D02*
X282574297Y-75795000D01*
X281668751Y-74997843D02*
X281668751Y-73592159D01*
X282574298Y-72795001D02*
X284163202Y-72795001D01*
X265365460Y-72726702D02*
G75*
G02X265113202Y-72795001I-252258J431701D01*
G01*
X263524298Y-72795001D02*
G75*
G02X263272039Y-72726702I0J500000D01*
G01*
X262569266Y-73375282D02*
G75*
G02X263272039Y-72726702I450515J216879D01*
G01*
X262569266Y-73375281D02*
G75*
G02X262618751Y-73592159I-450515J-216878D01*
G01*
X262618751Y-74997844D02*
G75*
G02X262569266Y-75214721I-500000J1D01*
G01*
X263272039Y-75863298D02*
G75*
G02X262569266Y-75214721I-252258J431700D01*
G01*
X263272039Y-75863299D02*
G75*
G02X263524297Y-75795000I252258J-431701D01*
G01*
X265113203Y-75795001D02*
G75*
G02X265365461Y-75863300I-1J-499999D01*
G01*
X266068234Y-75214721D02*
G75*
G02X265365461Y-75863300I-450515J-216878D01*
G01*
X266068234Y-75214721D02*
G75*
G02X266018749Y-74997843I450515J216878D01*
G01*
X266018749Y-73592158D02*
G75*
G02X266068234Y-73375281I500000J-1D01*
G01*
X265365461Y-72726704D02*
G75*
G02X266068234Y-73375281I252258J-431700D01*
G01*
X266018749Y-73592159D02*
X266018749Y-74997843D01*
X265113202Y-75795000D02*
X263524297Y-75795000D01*
X262618751Y-74997843D02*
X262618751Y-73592159D01*
X263524298Y-72795001D02*
X265113202Y-72795001D01*
X246315460Y-72726702D02*
G75*
G02X246063202Y-72795001I-252258J431701D01*
G01*
X244474298Y-72795001D02*
G75*
G02X244222039Y-72726702I0J500000D01*
G01*
X243519266Y-73375282D02*
G75*
G02X244222039Y-72726702I450515J216879D01*
G01*
X243519266Y-73375281D02*
G75*
G02X243568751Y-73592159I-450515J-216878D01*
G01*
X243568751Y-74997844D02*
G75*
G02X243519266Y-75214721I-500000J1D01*
G01*
X244222039Y-75863298D02*
G75*
G02X243519266Y-75214721I-252258J431700D01*
G01*
X244222039Y-75863299D02*
G75*
G02X244474297Y-75795000I252258J-431701D01*
G01*
X246063203Y-75795001D02*
G75*
G02X246315461Y-75863300I-1J-499999D01*
G01*
X247018234Y-75214721D02*
G75*
G02X246315461Y-75863300I-450515J-216878D01*
G01*
X247018234Y-75214721D02*
G75*
G02X246968749Y-74997843I450515J216878D01*
G01*
X246968749Y-73592158D02*
G75*
G02X247018234Y-73375281I500000J-1D01*
G01*
X246315461Y-72726704D02*
G75*
G02X247018234Y-73375281I252258J-431700D01*
G01*
X246968749Y-73592159D02*
X246968749Y-74997843D01*
X246063202Y-75795000D02*
X244474297Y-75795000D01*
X243568751Y-74997843D02*
X243568751Y-73592159D01*
X244474298Y-72795001D02*
X246063202Y-72795001D01*
X227265460Y-72726702D02*
G75*
G02X227013202Y-72795001I-252258J431701D01*
G01*
X225424298Y-72795001D02*
G75*
G02X225172039Y-72726702I0J500000D01*
G01*
X224469266Y-73375282D02*
G75*
G02X225172039Y-72726702I450515J216879D01*
G01*
X224469266Y-73375281D02*
G75*
G02X224518751Y-73592159I-450515J-216878D01*
G01*
X224518751Y-74997844D02*
G75*
G02X224469266Y-75214721I-500000J1D01*
G01*
X225172039Y-75863298D02*
G75*
G02X224469266Y-75214721I-252258J431700D01*
G01*
X225172039Y-75863299D02*
G75*
G02X225424297Y-75795000I252258J-431701D01*
G01*
X227013203Y-75795001D02*
G75*
G02X227265461Y-75863300I-1J-499999D01*
G01*
X227968234Y-75214721D02*
G75*
G02X227265461Y-75863300I-450515J-216878D01*
G01*
X227968234Y-75214721D02*
G75*
G02X227918749Y-74997843I450515J216878D01*
G01*
X227918749Y-73592158D02*
G75*
G02X227968234Y-73375281I500000J-1D01*
G01*
X227265461Y-72726704D02*
G75*
G02X227968234Y-73375281I252258J-431700D01*
G01*
X227918749Y-73592159D02*
X227918749Y-74997843D01*
X227013202Y-75795000D02*
X225424297Y-75795000D01*
X224518751Y-74997843D02*
X224518751Y-73592159D01*
X225424298Y-72795001D02*
X227013202Y-72795001D01*
X208215460Y-72726702D02*
G75*
G02X207963202Y-72795001I-252258J431701D01*
G01*
X206374298Y-72795001D02*
G75*
G02X206122039Y-72726702I0J500000D01*
G01*
X205419266Y-73375282D02*
G75*
G02X206122039Y-72726702I450515J216879D01*
G01*
X205419266Y-73375281D02*
G75*
G02X205468751Y-73592159I-450515J-216878D01*
G01*
X205468751Y-74997844D02*
G75*
G02X205419266Y-75214721I-500000J1D01*
G01*
X206122039Y-75863298D02*
G75*
G02X205419266Y-75214721I-252258J431700D01*
G01*
X206122039Y-75863299D02*
G75*
G02X206374297Y-75795000I252258J-431701D01*
G01*
X207963203Y-75795001D02*
G75*
G02X208215461Y-75863300I-1J-499999D01*
G01*
X208918234Y-75214721D02*
G75*
G02X208215461Y-75863300I-450515J-216878D01*
G01*
X208918234Y-75214721D02*
G75*
G02X208868749Y-74997843I450515J216878D01*
G01*
X208868749Y-73592158D02*
G75*
G02X208918234Y-73375281I500000J-1D01*
G01*
X208215461Y-72726704D02*
G75*
G02X208918234Y-73375281I252258J-431700D01*
G01*
X208868749Y-73592159D02*
X208868749Y-74997843D01*
X207963202Y-75795000D02*
X206374297Y-75795000D01*
X205468751Y-74997843D02*
X205468751Y-73592159D01*
X206374298Y-72795001D02*
X207963202Y-72795001D01*
X189165460Y-72726702D02*
G75*
G02X188913202Y-72795001I-252258J431701D01*
G01*
X187324298Y-72795001D02*
G75*
G02X187072039Y-72726702I0J500000D01*
G01*
X186369266Y-73375282D02*
G75*
G02X187072039Y-72726702I450515J216879D01*
G01*
X186369266Y-73375281D02*
G75*
G02X186418751Y-73592159I-450515J-216878D01*
G01*
X186418751Y-74997844D02*
G75*
G02X186369266Y-75214721I-500000J1D01*
G01*
X187072039Y-75863298D02*
G75*
G02X186369266Y-75214721I-252258J431700D01*
G01*
X187072039Y-75863299D02*
G75*
G02X187324297Y-75795000I252258J-431701D01*
G01*
X188913203Y-75795001D02*
G75*
G02X189165461Y-75863300I-1J-499999D01*
G01*
X189868234Y-75214721D02*
G75*
G02X189165461Y-75863300I-450515J-216878D01*
G01*
X189868234Y-75214721D02*
G75*
G02X189818749Y-74997843I450515J216878D01*
G01*
X189818749Y-73592158D02*
G75*
G02X189868234Y-73375281I500000J-1D01*
G01*
X189165461Y-72726704D02*
G75*
G02X189868234Y-73375281I252258J-431700D01*
G01*
X189818749Y-73592159D02*
X189818749Y-74997843D01*
X188913202Y-75795000D02*
X187324297Y-75795000D01*
X186418751Y-74997843D02*
X186418751Y-73592159D01*
X187324298Y-72795001D02*
X188913202Y-72795001D01*
X170115460Y-72726702D02*
G75*
G02X169863202Y-72795001I-252258J431701D01*
G01*
X168274298Y-72795001D02*
G75*
G02X168022039Y-72726702I0J500000D01*
G01*
X167319266Y-73375282D02*
G75*
G02X168022039Y-72726702I450515J216879D01*
G01*
X167319266Y-73375281D02*
G75*
G02X167368751Y-73592159I-450515J-216878D01*
G01*
X167368751Y-74997844D02*
G75*
G02X167319266Y-75214721I-500000J1D01*
G01*
X168022039Y-75863298D02*
G75*
G02X167319266Y-75214721I-252258J431700D01*
G01*
X168022039Y-75863299D02*
G75*
G02X168274297Y-75795000I252258J-431701D01*
G01*
X169863203Y-75795001D02*
G75*
G02X170115461Y-75863300I-1J-499999D01*
G01*
X170818234Y-75214721D02*
G75*
G02X170115461Y-75863300I-450515J-216878D01*
G01*
X170818234Y-75214721D02*
G75*
G02X170768749Y-74997843I450515J216878D01*
G01*
X170768749Y-73592158D02*
G75*
G02X170818234Y-73375281I500000J-1D01*
G01*
X170115461Y-72726704D02*
G75*
G02X170818234Y-73375281I252258J-431700D01*
G01*
X170768749Y-73592159D02*
X170768749Y-74997843D01*
X169863202Y-75795000D02*
X168274297Y-75795000D01*
X167368751Y-74997843D02*
X167368751Y-73592159D01*
X168274298Y-72795001D02*
X169863202Y-72795001D01*
X151065460Y-72726702D02*
G75*
G02X150813202Y-72795001I-252258J431701D01*
G01*
X149224298Y-72795001D02*
G75*
G02X148972039Y-72726702I0J500000D01*
G01*
X148269266Y-73375282D02*
G75*
G02X148972039Y-72726702I450515J216879D01*
G01*
X148269266Y-73375281D02*
G75*
G02X148318751Y-73592159I-450515J-216878D01*
G01*
X148318751Y-74997844D02*
G75*
G02X148269266Y-75214721I-500000J1D01*
G01*
X148972039Y-75863298D02*
G75*
G02X148269266Y-75214721I-252258J431700D01*
G01*
X148972039Y-75863299D02*
G75*
G02X149224297Y-75795000I252258J-431701D01*
G01*
X150813203Y-75795001D02*
G75*
G02X151065461Y-75863300I-1J-499999D01*
G01*
X151768234Y-75214721D02*
G75*
G02X151065461Y-75863300I-450515J-216878D01*
G01*
X151768234Y-75214721D02*
G75*
G02X151718749Y-74997843I450515J216878D01*
G01*
X151718749Y-73592158D02*
G75*
G02X151768234Y-73375281I500000J-1D01*
G01*
X151065461Y-72726704D02*
G75*
G02X151768234Y-73375281I252258J-431700D01*
G01*
X151718749Y-73592159D02*
X151718749Y-74997843D01*
X150813202Y-75795000D02*
X149224297Y-75795000D01*
X148318751Y-74997843D02*
X148318751Y-73592159D01*
X149224298Y-72795001D02*
X150813202Y-72795001D01*
X132015460Y-72726702D02*
G75*
G02X131763202Y-72795001I-252258J431701D01*
G01*
X130174298Y-72795001D02*
G75*
G02X129922039Y-72726702I0J500000D01*
G01*
X129219266Y-73375282D02*
G75*
G02X129922039Y-72726702I450515J216879D01*
G01*
X129219266Y-73375281D02*
G75*
G02X129268751Y-73592159I-450515J-216878D01*
G01*
X129268751Y-74997844D02*
G75*
G02X129219266Y-75214721I-500000J1D01*
G01*
X129922039Y-75863298D02*
G75*
G02X129219266Y-75214721I-252258J431700D01*
G01*
X129922039Y-75863299D02*
G75*
G02X130174297Y-75795000I252258J-431701D01*
G01*
X131763203Y-75795001D02*
G75*
G02X132015461Y-75863300I-1J-499999D01*
G01*
X132718234Y-75214721D02*
G75*
G02X132015461Y-75863300I-450515J-216878D01*
G01*
X132718234Y-75214721D02*
G75*
G02X132668749Y-74997843I450515J216878D01*
G01*
X132668749Y-73592158D02*
G75*
G02X132718234Y-73375281I500000J-1D01*
G01*
X132015461Y-72726704D02*
G75*
G02X132718234Y-73375281I252258J-431700D01*
G01*
X132668749Y-73592159D02*
X132668749Y-74997843D01*
X131763202Y-75795000D02*
X130174297Y-75795000D01*
X129268751Y-74997843D02*
X129268751Y-73592159D01*
X130174298Y-72795001D02*
X131763202Y-72795001D01*
X112965460Y-72726702D02*
G75*
G02X112713202Y-72795001I-252258J431701D01*
G01*
X111124298Y-72795001D02*
G75*
G02X110872039Y-72726702I0J500000D01*
G01*
X110169266Y-73375282D02*
G75*
G02X110872039Y-72726702I450515J216879D01*
G01*
X110169266Y-73375281D02*
G75*
G02X110218751Y-73592159I-450515J-216878D01*
G01*
X110218751Y-74997844D02*
G75*
G02X110169266Y-75214721I-500000J1D01*
G01*
X110872039Y-75863298D02*
G75*
G02X110169266Y-75214721I-252258J431700D01*
G01*
X110872039Y-75863299D02*
G75*
G02X111124297Y-75795000I252258J-431701D01*
G01*
X112713203Y-75795001D02*
G75*
G02X112965461Y-75863300I-1J-499999D01*
G01*
X113668234Y-75214721D02*
G75*
G02X112965461Y-75863300I-450515J-216878D01*
G01*
X113668234Y-75214721D02*
G75*
G02X113618749Y-74997843I450515J216878D01*
G01*
X113618749Y-73592158D02*
G75*
G02X113668234Y-73375281I500000J-1D01*
G01*
X112965461Y-72726704D02*
G75*
G02X113668234Y-73375281I252258J-431700D01*
G01*
X113618749Y-73592159D02*
X113618749Y-74997843D01*
X112713202Y-75795000D02*
X111124297Y-75795000D01*
X110218751Y-74997843D02*
X110218751Y-73592159D01*
X111124298Y-72795001D02*
X112713202Y-72795001D01*
X93915460Y-72726702D02*
G75*
G02X93663202Y-72795001I-252258J431701D01*
G01*
X92074298Y-72795001D02*
G75*
G02X91822039Y-72726702I0J500000D01*
G01*
X91119266Y-73375282D02*
G75*
G02X91822039Y-72726702I450515J216879D01*
G01*
X91119266Y-73375281D02*
G75*
G02X91168751Y-73592159I-450515J-216878D01*
G01*
X91168751Y-74997844D02*
G75*
G02X91119266Y-75214721I-500000J1D01*
G01*
X91822039Y-75863298D02*
G75*
G02X91119266Y-75214721I-252258J431700D01*
G01*
X91822039Y-75863299D02*
G75*
G02X92074297Y-75795000I252258J-431701D01*
G01*
X93663203Y-75795001D02*
G75*
G02X93915461Y-75863300I-1J-499999D01*
G01*
X94618234Y-75214721D02*
G75*
G02X93915461Y-75863300I-450515J-216878D01*
G01*
X94618234Y-75214721D02*
G75*
G02X94568749Y-74997843I450515J216878D01*
G01*
X94568749Y-73592158D02*
G75*
G02X94618234Y-73375281I500000J-1D01*
G01*
X93915461Y-72726704D02*
G75*
G02X94618234Y-73375281I252258J-431700D01*
G01*
X94568749Y-73592159D02*
X94568749Y-74997843D01*
X93663202Y-75795000D02*
X92074297Y-75795000D01*
X91168751Y-74997843D02*
X91168751Y-73592159D01*
X92074298Y-72795001D02*
X93663202Y-72795001D01*
X74865460Y-72726702D02*
G75*
G02X74613202Y-72795001I-252258J431701D01*
G01*
X73024298Y-72795001D02*
G75*
G02X72772039Y-72726702I0J500000D01*
G01*
X72069266Y-73375282D02*
G75*
G02X72772039Y-72726702I450515J216879D01*
G01*
X72069266Y-73375281D02*
G75*
G02X72118751Y-73592159I-450515J-216878D01*
G01*
X72118751Y-74997844D02*
G75*
G02X72069266Y-75214721I-500000J1D01*
G01*
X72772039Y-75863298D02*
G75*
G02X72069266Y-75214721I-252258J431700D01*
G01*
X72772039Y-75863299D02*
G75*
G02X73024297Y-75795000I252258J-431701D01*
G01*
X74613203Y-75795001D02*
G75*
G02X74865461Y-75863300I-1J-499999D01*
G01*
X75568234Y-75214721D02*
G75*
G02X74865461Y-75863300I-450515J-216878D01*
G01*
X75568234Y-75214721D02*
G75*
G02X75518749Y-74997843I450515J216878D01*
G01*
X75518749Y-73592158D02*
G75*
G02X75568234Y-73375281I500000J-1D01*
G01*
X74865461Y-72726704D02*
G75*
G02X75568234Y-73375281I252258J-431700D01*
G01*
X75518749Y-73592159D02*
X75518749Y-74997843D01*
X74613202Y-75795000D02*
X73024297Y-75795000D01*
X72118751Y-74997843D02*
X72118751Y-73592159D01*
X73024298Y-72795001D02*
X74613202Y-72795001D01*
X55815460Y-72726702D02*
G75*
G02X55563202Y-72795001I-252258J431701D01*
G01*
X53974298Y-72795001D02*
G75*
G02X53722039Y-72726702I0J500000D01*
G01*
X53019266Y-73375282D02*
G75*
G02X53722039Y-72726702I450515J216879D01*
G01*
X53019266Y-73375281D02*
G75*
G02X53068751Y-73592159I-450515J-216878D01*
G01*
X53068751Y-74997844D02*
G75*
G02X53019266Y-75214721I-500000J1D01*
G01*
X53722039Y-75863298D02*
G75*
G02X53019266Y-75214721I-252258J431700D01*
G01*
X53722039Y-75863299D02*
G75*
G02X53974297Y-75795000I252258J-431701D01*
G01*
X55563203Y-75795001D02*
G75*
G02X55815461Y-75863300I-1J-499999D01*
G01*
X56518234Y-75214721D02*
G75*
G02X55815461Y-75863300I-450515J-216878D01*
G01*
X56518234Y-75214721D02*
G75*
G02X56468749Y-74997843I450515J216878D01*
G01*
X56468749Y-73592158D02*
G75*
G02X56518234Y-73375281I500000J-1D01*
G01*
X55815461Y-72726704D02*
G75*
G02X56518234Y-73375281I252258J-431700D01*
G01*
X56468749Y-73592159D02*
X56468749Y-74997843D01*
X55563202Y-75795000D02*
X53974297Y-75795000D01*
X53068751Y-74997843D02*
X53068751Y-73592159D01*
X53974298Y-72795001D02*
X55563202Y-72795001D01*
X28827960Y-72726702D02*
G75*
G02X28575702Y-72795001I-252258J431701D01*
G01*
X26986798Y-72795001D02*
G75*
G02X26734539Y-72726702I0J500000D01*
G01*
X26031766Y-73375282D02*
G75*
G02X26734539Y-72726702I450515J216879D01*
G01*
X26031766Y-73375281D02*
G75*
G02X26081251Y-73592159I-450515J-216878D01*
G01*
X26081251Y-74997844D02*
G75*
G02X26031766Y-75214721I-500000J1D01*
G01*
X26734539Y-75863298D02*
G75*
G02X26031766Y-75214721I-252258J431700D01*
G01*
X26734539Y-75863299D02*
G75*
G02X26986797Y-75795000I252258J-431701D01*
G01*
X28575703Y-75795001D02*
G75*
G02X28827961Y-75863300I-1J-499999D01*
G01*
X29530734Y-75214721D02*
G75*
G02X28827961Y-75863300I-450515J-216878D01*
G01*
X29530734Y-75214721D02*
G75*
G02X29481249Y-74997843I450515J216878D01*
G01*
X29481249Y-73592158D02*
G75*
G02X29530734Y-73375281I500000J-1D01*
G01*
X28827961Y-72726704D02*
G75*
G02X29530734Y-73375281I252258J-431700D01*
G01*
X29481249Y-73592159D02*
X29481249Y-74997843D01*
X28575702Y-75795000D02*
X26986797Y-75795000D01*
X26081251Y-74997843D02*
X26081251Y-73592159D01*
X26986798Y-72795001D02*
X28575702Y-72795001D01*
X366459540Y-56654548D02*
G75*
G02X366711798Y-56586249I252258J-431701D01*
G01*
X368300702Y-56586249D02*
G75*
G02X368552961Y-56654548I0J-500000D01*
G01*
X369255734Y-56005968D02*
G75*
G02X368552961Y-56654548I-450515J-216879D01*
G01*
X369255734Y-56005969D02*
G75*
G02X369206249Y-55789091I450515J216878D01*
G01*
X369206249Y-54383406D02*
G75*
G02X369255734Y-54166529I500000J-1D01*
G01*
X368552961Y-53517952D02*
G75*
G02X369255734Y-54166529I252258J-431700D01*
G01*
X368552961Y-53517951D02*
G75*
G02X368300703Y-53586250I-252258J431701D01*
G01*
X366711797Y-53586249D02*
G75*
G02X366459539Y-53517950I1J499999D01*
G01*
X365756766Y-54166529D02*
G75*
G02X366459539Y-53517950I450515J216878D01*
G01*
X365756766Y-54166529D02*
G75*
G02X365806251Y-54383407I-450515J-216878D01*
G01*
X365806251Y-55789092D02*
G75*
G02X365756766Y-56005969I-500000J1D01*
G01*
X366459539Y-56654546D02*
G75*
G02X365756766Y-56005969I-252258J431700D01*
G01*
X365806251Y-55789091D02*
X365806251Y-54383407D01*
X366711798Y-53586250D02*
X368300703Y-53586250D01*
X369206249Y-54383407D02*
X369206249Y-55789091D01*
X368300702Y-56586249D02*
X366711798Y-56586249D01*
X347409540Y-56654548D02*
G75*
G02X347661798Y-56586249I252258J-431701D01*
G01*
X349250702Y-56586249D02*
G75*
G02X349502961Y-56654548I0J-500000D01*
G01*
X350205734Y-56005968D02*
G75*
G02X349502961Y-56654548I-450515J-216879D01*
G01*
X350205734Y-56005969D02*
G75*
G02X350156249Y-55789091I450515J216878D01*
G01*
X350156249Y-54383406D02*
G75*
G02X350205734Y-54166529I500000J-1D01*
G01*
X349502961Y-53517952D02*
G75*
G02X350205734Y-54166529I252258J-431700D01*
G01*
X349502961Y-53517951D02*
G75*
G02X349250703Y-53586250I-252258J431701D01*
G01*
X347661797Y-53586249D02*
G75*
G02X347409539Y-53517950I1J499999D01*
G01*
X346706766Y-54166529D02*
G75*
G02X347409539Y-53517950I450515J216878D01*
G01*
X346706766Y-54166529D02*
G75*
G02X346756251Y-54383407I-450515J-216878D01*
G01*
X346756251Y-55789092D02*
G75*
G02X346706766Y-56005969I-500000J1D01*
G01*
X347409539Y-56654546D02*
G75*
G02X346706766Y-56005969I-252258J431700D01*
G01*
X346756251Y-55789091D02*
X346756251Y-54383407D01*
X347661798Y-53586250D02*
X349250703Y-53586250D01*
X350156249Y-54383407D02*
X350156249Y-55789091D01*
X349250702Y-56586249D02*
X347661798Y-56586249D01*
X320422040Y-56654548D02*
G75*
G02X320674298Y-56586249I252258J-431701D01*
G01*
X322263202Y-56586249D02*
G75*
G02X322515461Y-56654548I0J-500000D01*
G01*
X323218234Y-56005968D02*
G75*
G02X322515461Y-56654548I-450515J-216879D01*
G01*
X323218234Y-56005969D02*
G75*
G02X323168749Y-55789091I450515J216878D01*
G01*
X323168749Y-54383406D02*
G75*
G02X323218234Y-54166529I500000J-1D01*
G01*
X322515461Y-53517952D02*
G75*
G02X323218234Y-54166529I252258J-431700D01*
G01*
X322515461Y-53517951D02*
G75*
G02X322263203Y-53586250I-252258J431701D01*
G01*
X320674297Y-53586249D02*
G75*
G02X320422039Y-53517950I1J499999D01*
G01*
X319719266Y-54166529D02*
G75*
G02X320422039Y-53517950I450515J216878D01*
G01*
X319719266Y-54166529D02*
G75*
G02X319768751Y-54383407I-450515J-216878D01*
G01*
X319768751Y-55789092D02*
G75*
G02X319719266Y-56005969I-500000J1D01*
G01*
X320422039Y-56654546D02*
G75*
G02X319719266Y-56005969I-252258J431700D01*
G01*
X319768751Y-55789091D02*
X319768751Y-54383407D01*
X320674298Y-53586250D02*
X322263203Y-53586250D01*
X323168749Y-54383407D02*
X323168749Y-55789091D01*
X322263202Y-56586249D02*
X320674298Y-56586249D01*
X301372040Y-56654548D02*
G75*
G02X301624298Y-56586249I252258J-431701D01*
G01*
X303213202Y-56586249D02*
G75*
G02X303465461Y-56654548I0J-500000D01*
G01*
X304168234Y-56005968D02*
G75*
G02X303465461Y-56654548I-450515J-216879D01*
G01*
X304168234Y-56005969D02*
G75*
G02X304118749Y-55789091I450515J216878D01*
G01*
X304118749Y-54383406D02*
G75*
G02X304168234Y-54166529I500000J-1D01*
G01*
X303465461Y-53517952D02*
G75*
G02X304168234Y-54166529I252258J-431700D01*
G01*
X303465461Y-53517951D02*
G75*
G02X303213203Y-53586250I-252258J431701D01*
G01*
X301624297Y-53586249D02*
G75*
G02X301372039Y-53517950I1J499999D01*
G01*
X300669266Y-54166529D02*
G75*
G02X301372039Y-53517950I450515J216878D01*
G01*
X300669266Y-54166529D02*
G75*
G02X300718751Y-54383407I-450515J-216878D01*
G01*
X300718751Y-55789092D02*
G75*
G02X300669266Y-56005969I-500000J1D01*
G01*
X301372039Y-56654546D02*
G75*
G02X300669266Y-56005969I-252258J431700D01*
G01*
X300718751Y-55789091D02*
X300718751Y-54383407D01*
X301624298Y-53586250D02*
X303213203Y-53586250D01*
X304118749Y-54383407D02*
X304118749Y-55789091D01*
X303213202Y-56586249D02*
X301624298Y-56586249D01*
X282322040Y-56654548D02*
G75*
G02X282574298Y-56586249I252258J-431701D01*
G01*
X284163202Y-56586249D02*
G75*
G02X284415461Y-56654548I0J-500000D01*
G01*
X285118234Y-56005968D02*
G75*
G02X284415461Y-56654548I-450515J-216879D01*
G01*
X285118234Y-56005969D02*
G75*
G02X285068749Y-55789091I450515J216878D01*
G01*
X285068749Y-54383406D02*
G75*
G02X285118234Y-54166529I500000J-1D01*
G01*
X284415461Y-53517952D02*
G75*
G02X285118234Y-54166529I252258J-431700D01*
G01*
X284415461Y-53517951D02*
G75*
G02X284163203Y-53586250I-252258J431701D01*
G01*
X282574297Y-53586249D02*
G75*
G02X282322039Y-53517950I1J499999D01*
G01*
X281619266Y-54166529D02*
G75*
G02X282322039Y-53517950I450515J216878D01*
G01*
X281619266Y-54166529D02*
G75*
G02X281668751Y-54383407I-450515J-216878D01*
G01*
X281668751Y-55789092D02*
G75*
G02X281619266Y-56005969I-500000J1D01*
G01*
X282322039Y-56654546D02*
G75*
G02X281619266Y-56005969I-252258J431700D01*
G01*
X281668751Y-55789091D02*
X281668751Y-54383407D01*
X282574298Y-53586250D02*
X284163203Y-53586250D01*
X285068749Y-54383407D02*
X285068749Y-55789091D01*
X284163202Y-56586249D02*
X282574298Y-56586249D01*
X263272040Y-56654548D02*
G75*
G02X263524298Y-56586249I252258J-431701D01*
G01*
X265113202Y-56586249D02*
G75*
G02X265365461Y-56654548I0J-500000D01*
G01*
X266068234Y-56005968D02*
G75*
G02X265365461Y-56654548I-450515J-216879D01*
G01*
X266068234Y-56005969D02*
G75*
G02X266018749Y-55789091I450515J216878D01*
G01*
X266018749Y-54383406D02*
G75*
G02X266068234Y-54166529I500000J-1D01*
G01*
X265365461Y-53517952D02*
G75*
G02X266068234Y-54166529I252258J-431700D01*
G01*
X265365461Y-53517951D02*
G75*
G02X265113203Y-53586250I-252258J431701D01*
G01*
X263524297Y-53586249D02*
G75*
G02X263272039Y-53517950I1J499999D01*
G01*
X262569266Y-54166529D02*
G75*
G02X263272039Y-53517950I450515J216878D01*
G01*
X262569266Y-54166529D02*
G75*
G02X262618751Y-54383407I-450515J-216878D01*
G01*
X262618751Y-55789092D02*
G75*
G02X262569266Y-56005969I-500000J1D01*
G01*
X263272039Y-56654546D02*
G75*
G02X262569266Y-56005969I-252258J431700D01*
G01*
X262618751Y-55789091D02*
X262618751Y-54383407D01*
X263524298Y-53586250D02*
X265113203Y-53586250D01*
X266018749Y-54383407D02*
X266018749Y-55789091D01*
X265113202Y-56586249D02*
X263524298Y-56586249D01*
X244222040Y-56654548D02*
G75*
G02X244474298Y-56586249I252258J-431701D01*
G01*
X246063202Y-56586249D02*
G75*
G02X246315461Y-56654548I0J-500000D01*
G01*
X247018234Y-56005968D02*
G75*
G02X246315461Y-56654548I-450515J-216879D01*
G01*
X247018234Y-56005969D02*
G75*
G02X246968749Y-55789091I450515J216878D01*
G01*
X246968749Y-54383406D02*
G75*
G02X247018234Y-54166529I500000J-1D01*
G01*
X246315461Y-53517952D02*
G75*
G02X247018234Y-54166529I252258J-431700D01*
G01*
X246315461Y-53517951D02*
G75*
G02X246063203Y-53586250I-252258J431701D01*
G01*
X244474297Y-53586249D02*
G75*
G02X244222039Y-53517950I1J499999D01*
G01*
X243519266Y-54166529D02*
G75*
G02X244222039Y-53517950I450515J216878D01*
G01*
X243519266Y-54166529D02*
G75*
G02X243568751Y-54383407I-450515J-216878D01*
G01*
X243568751Y-55789092D02*
G75*
G02X243519266Y-56005969I-500000J1D01*
G01*
X244222039Y-56654546D02*
G75*
G02X243519266Y-56005969I-252258J431700D01*
G01*
X243568751Y-55789091D02*
X243568751Y-54383407D01*
X244474298Y-53586250D02*
X246063203Y-53586250D01*
X246968749Y-54383407D02*
X246968749Y-55789091D01*
X246063202Y-56586249D02*
X244474298Y-56586249D01*
X225172040Y-56654548D02*
G75*
G02X225424298Y-56586249I252258J-431701D01*
G01*
X227013202Y-56586249D02*
G75*
G02X227265461Y-56654548I0J-500000D01*
G01*
X227968234Y-56005968D02*
G75*
G02X227265461Y-56654548I-450515J-216879D01*
G01*
X227968234Y-56005969D02*
G75*
G02X227918749Y-55789091I450515J216878D01*
G01*
X227918749Y-54383406D02*
G75*
G02X227968234Y-54166529I500000J-1D01*
G01*
X227265461Y-53517952D02*
G75*
G02X227968234Y-54166529I252258J-431700D01*
G01*
X227265461Y-53517951D02*
G75*
G02X227013203Y-53586250I-252258J431701D01*
G01*
X225424297Y-53586249D02*
G75*
G02X225172039Y-53517950I1J499999D01*
G01*
X224469266Y-54166529D02*
G75*
G02X225172039Y-53517950I450515J216878D01*
G01*
X224469266Y-54166529D02*
G75*
G02X224518751Y-54383407I-450515J-216878D01*
G01*
X224518751Y-55789092D02*
G75*
G02X224469266Y-56005969I-500000J1D01*
G01*
X225172039Y-56654546D02*
G75*
G02X224469266Y-56005969I-252258J431700D01*
G01*
X224518751Y-55789091D02*
X224518751Y-54383407D01*
X225424298Y-53586250D02*
X227013203Y-53586250D01*
X227918749Y-54383407D02*
X227918749Y-55789091D01*
X227013202Y-56586249D02*
X225424298Y-56586249D01*
X206122040Y-56654548D02*
G75*
G02X206374298Y-56586249I252258J-431701D01*
G01*
X207963202Y-56586249D02*
G75*
G02X208215461Y-56654548I0J-500000D01*
G01*
X208918234Y-56005968D02*
G75*
G02X208215461Y-56654548I-450515J-216879D01*
G01*
X208918234Y-56005969D02*
G75*
G02X208868749Y-55789091I450515J216878D01*
G01*
X208868749Y-54383406D02*
G75*
G02X208918234Y-54166529I500000J-1D01*
G01*
X208215461Y-53517952D02*
G75*
G02X208918234Y-54166529I252258J-431700D01*
G01*
X208215461Y-53517951D02*
G75*
G02X207963203Y-53586250I-252258J431701D01*
G01*
X206374297Y-53586249D02*
G75*
G02X206122039Y-53517950I1J499999D01*
G01*
X205419266Y-54166529D02*
G75*
G02X206122039Y-53517950I450515J216878D01*
G01*
X205419266Y-54166529D02*
G75*
G02X205468751Y-54383407I-450515J-216878D01*
G01*
X205468751Y-55789092D02*
G75*
G02X205419266Y-56005969I-500000J1D01*
G01*
X206122039Y-56654546D02*
G75*
G02X205419266Y-56005969I-252258J431700D01*
G01*
X205468751Y-55789091D02*
X205468751Y-54383407D01*
X206374298Y-53586250D02*
X207963203Y-53586250D01*
X208868749Y-54383407D02*
X208868749Y-55789091D01*
X207963202Y-56586249D02*
X206374298Y-56586249D01*
X187072040Y-56654548D02*
G75*
G02X187324298Y-56586249I252258J-431701D01*
G01*
X188913202Y-56586249D02*
G75*
G02X189165461Y-56654548I0J-500000D01*
G01*
X189868234Y-56005968D02*
G75*
G02X189165461Y-56654548I-450515J-216879D01*
G01*
X189868234Y-56005969D02*
G75*
G02X189818749Y-55789091I450515J216878D01*
G01*
X189818749Y-54383406D02*
G75*
G02X189868234Y-54166529I500000J-1D01*
G01*
X189165461Y-53517952D02*
G75*
G02X189868234Y-54166529I252258J-431700D01*
G01*
X189165461Y-53517951D02*
G75*
G02X188913203Y-53586250I-252258J431701D01*
G01*
X187324297Y-53586249D02*
G75*
G02X187072039Y-53517950I1J499999D01*
G01*
X186369266Y-54166529D02*
G75*
G02X187072039Y-53517950I450515J216878D01*
G01*
X186369266Y-54166529D02*
G75*
G02X186418751Y-54383407I-450515J-216878D01*
G01*
X186418751Y-55789092D02*
G75*
G02X186369266Y-56005969I-500000J1D01*
G01*
X187072039Y-56654546D02*
G75*
G02X186369266Y-56005969I-252258J431700D01*
G01*
X186418751Y-55789091D02*
X186418751Y-54383407D01*
X187324298Y-53586250D02*
X188913203Y-53586250D01*
X189818749Y-54383407D02*
X189818749Y-55789091D01*
X188913202Y-56586249D02*
X187324298Y-56586249D01*
X168022040Y-56654548D02*
G75*
G02X168274298Y-56586249I252258J-431701D01*
G01*
X169863202Y-56586249D02*
G75*
G02X170115461Y-56654548I0J-500000D01*
G01*
X170818234Y-56005968D02*
G75*
G02X170115461Y-56654548I-450515J-216879D01*
G01*
X170818234Y-56005969D02*
G75*
G02X170768749Y-55789091I450515J216878D01*
G01*
X170768749Y-54383406D02*
G75*
G02X170818234Y-54166529I500000J-1D01*
G01*
X170115461Y-53517952D02*
G75*
G02X170818234Y-54166529I252258J-431700D01*
G01*
X170115461Y-53517951D02*
G75*
G02X169863203Y-53586250I-252258J431701D01*
G01*
X168274297Y-53586249D02*
G75*
G02X168022039Y-53517950I1J499999D01*
G01*
X167319266Y-54166529D02*
G75*
G02X168022039Y-53517950I450515J216878D01*
G01*
X167319266Y-54166529D02*
G75*
G02X167368751Y-54383407I-450515J-216878D01*
G01*
X167368751Y-55789092D02*
G75*
G02X167319266Y-56005969I-500000J1D01*
G01*
X168022039Y-56654546D02*
G75*
G02X167319266Y-56005969I-252258J431700D01*
G01*
X167368751Y-55789091D02*
X167368751Y-54383407D01*
X168274298Y-53586250D02*
X169863203Y-53586250D01*
X170768749Y-54383407D02*
X170768749Y-55789091D01*
X169863202Y-56586249D02*
X168274298Y-56586249D01*
X148972040Y-56654548D02*
G75*
G02X149224298Y-56586249I252258J-431701D01*
G01*
X150813202Y-56586249D02*
G75*
G02X151065461Y-56654548I0J-500000D01*
G01*
X151768234Y-56005968D02*
G75*
G02X151065461Y-56654548I-450515J-216879D01*
G01*
X151768234Y-56005969D02*
G75*
G02X151718749Y-55789091I450515J216878D01*
G01*
X151718749Y-54383406D02*
G75*
G02X151768234Y-54166529I500000J-1D01*
G01*
X151065461Y-53517952D02*
G75*
G02X151768234Y-54166529I252258J-431700D01*
G01*
X151065461Y-53517951D02*
G75*
G02X150813203Y-53586250I-252258J431701D01*
G01*
X149224297Y-53586249D02*
G75*
G02X148972039Y-53517950I1J499999D01*
G01*
X148269266Y-54166529D02*
G75*
G02X148972039Y-53517950I450515J216878D01*
G01*
X148269266Y-54166529D02*
G75*
G02X148318751Y-54383407I-450515J-216878D01*
G01*
X148318751Y-55789092D02*
G75*
G02X148269266Y-56005969I-500000J1D01*
G01*
X148972039Y-56654546D02*
G75*
G02X148269266Y-56005969I-252258J431700D01*
G01*
X148318751Y-55789091D02*
X148318751Y-54383407D01*
X149224298Y-53586250D02*
X150813203Y-53586250D01*
X151718749Y-54383407D02*
X151718749Y-55789091D01*
X150813202Y-56586249D02*
X149224298Y-56586249D01*
X129949540Y-56654548D02*
G75*
G02X130201798Y-56586249I252258J-431701D01*
G01*
X131790702Y-56586249D02*
G75*
G02X132042961Y-56654548I0J-500000D01*
G01*
X132745734Y-56005968D02*
G75*
G02X132042961Y-56654548I-450515J-216879D01*
G01*
X132745734Y-56005969D02*
G75*
G02X132696249Y-55789091I450515J216878D01*
G01*
X132696249Y-54383406D02*
G75*
G02X132745734Y-54166529I500000J-1D01*
G01*
X132042961Y-53517952D02*
G75*
G02X132745734Y-54166529I252258J-431700D01*
G01*
X132042961Y-53517951D02*
G75*
G02X131790703Y-53586250I-252258J431701D01*
G01*
X130201797Y-53586249D02*
G75*
G02X129949539Y-53517950I1J499999D01*
G01*
X129246766Y-54166529D02*
G75*
G02X129949539Y-53517950I450515J216878D01*
G01*
X129246766Y-54166529D02*
G75*
G02X129296251Y-54383407I-450515J-216878D01*
G01*
X129296251Y-55789092D02*
G75*
G02X129246766Y-56005969I-500000J1D01*
G01*
X129949539Y-56654546D02*
G75*
G02X129246766Y-56005969I-252258J431700D01*
G01*
X129296251Y-55789091D02*
X129296251Y-54383407D01*
X130201798Y-53586250D02*
X131790703Y-53586250D01*
X132696249Y-54383407D02*
X132696249Y-55789091D01*
X131790702Y-56586249D02*
X130201798Y-56586249D01*
X110872040Y-56654548D02*
G75*
G02X111124298Y-56586249I252258J-431701D01*
G01*
X112713202Y-56586249D02*
G75*
G02X112965461Y-56654548I0J-500000D01*
G01*
X113668234Y-56005968D02*
G75*
G02X112965461Y-56654548I-450515J-216879D01*
G01*
X113668234Y-56005969D02*
G75*
G02X113618749Y-55789091I450515J216878D01*
G01*
X113618749Y-54383406D02*
G75*
G02X113668234Y-54166529I500000J-1D01*
G01*
X112965461Y-53517952D02*
G75*
G02X113668234Y-54166529I252258J-431700D01*
G01*
X112965461Y-53517951D02*
G75*
G02X112713203Y-53586250I-252258J431701D01*
G01*
X111124297Y-53586249D02*
G75*
G02X110872039Y-53517950I1J499999D01*
G01*
X110169266Y-54166529D02*
G75*
G02X110872039Y-53517950I450515J216878D01*
G01*
X110169266Y-54166529D02*
G75*
G02X110218751Y-54383407I-450515J-216878D01*
G01*
X110218751Y-55789092D02*
G75*
G02X110169266Y-56005969I-500000J1D01*
G01*
X110872039Y-56654546D02*
G75*
G02X110169266Y-56005969I-252258J431700D01*
G01*
X110218751Y-55789091D02*
X110218751Y-54383407D01*
X111124298Y-53586250D02*
X112713203Y-53586250D01*
X113618749Y-54383407D02*
X113618749Y-55789091D01*
X112713202Y-56586249D02*
X111124298Y-56586249D01*
X91822040Y-56654548D02*
G75*
G02X92074298Y-56586249I252258J-431701D01*
G01*
X93663202Y-56586249D02*
G75*
G02X93915461Y-56654548I0J-500000D01*
G01*
X94618234Y-56005968D02*
G75*
G02X93915461Y-56654548I-450515J-216879D01*
G01*
X94618234Y-56005969D02*
G75*
G02X94568749Y-55789091I450515J216878D01*
G01*
X94568749Y-54383406D02*
G75*
G02X94618234Y-54166529I500000J-1D01*
G01*
X93915461Y-53517952D02*
G75*
G02X94618234Y-54166529I252258J-431700D01*
G01*
X93915461Y-53517951D02*
G75*
G02X93663203Y-53586250I-252258J431701D01*
G01*
X92074297Y-53586249D02*
G75*
G02X91822039Y-53517950I1J499999D01*
G01*
X91119266Y-54166529D02*
G75*
G02X91822039Y-53517950I450515J216878D01*
G01*
X91119266Y-54166529D02*
G75*
G02X91168751Y-54383407I-450515J-216878D01*
G01*
X91168751Y-55789092D02*
G75*
G02X91119266Y-56005969I-500000J1D01*
G01*
X91822039Y-56654546D02*
G75*
G02X91119266Y-56005969I-252258J431700D01*
G01*
X91168751Y-55789091D02*
X91168751Y-54383407D01*
X92074298Y-53586250D02*
X93663203Y-53586250D01*
X94568749Y-54383407D02*
X94568749Y-55789091D01*
X93663202Y-56586249D02*
X92074298Y-56586249D01*
X72772040Y-56654548D02*
G75*
G02X73024298Y-56586249I252258J-431701D01*
G01*
X74613202Y-56586249D02*
G75*
G02X74865461Y-56654548I0J-500000D01*
G01*
X75568234Y-56005968D02*
G75*
G02X74865461Y-56654548I-450515J-216879D01*
G01*
X75568234Y-56005969D02*
G75*
G02X75518749Y-55789091I450515J216878D01*
G01*
X75518749Y-54383406D02*
G75*
G02X75568234Y-54166529I500000J-1D01*
G01*
X74865461Y-53517952D02*
G75*
G02X75568234Y-54166529I252258J-431700D01*
G01*
X74865461Y-53517951D02*
G75*
G02X74613203Y-53586250I-252258J431701D01*
G01*
X73024297Y-53586249D02*
G75*
G02X72772039Y-53517950I1J499999D01*
G01*
X72069266Y-54166529D02*
G75*
G02X72772039Y-53517950I450515J216878D01*
G01*
X72069266Y-54166529D02*
G75*
G02X72118751Y-54383407I-450515J-216878D01*
G01*
X72118751Y-55789092D02*
G75*
G02X72069266Y-56005969I-500000J1D01*
G01*
X72772039Y-56654546D02*
G75*
G02X72069266Y-56005969I-252258J431700D01*
G01*
X72118751Y-55789091D02*
X72118751Y-54383407D01*
X73024298Y-53586250D02*
X74613203Y-53586250D01*
X75518749Y-54383407D02*
X75518749Y-55789091D01*
X74613202Y-56586249D02*
X73024298Y-56586249D01*
X53722040Y-56654548D02*
G75*
G02X53974298Y-56586249I252258J-431701D01*
G01*
X55563202Y-56586249D02*
G75*
G02X55815461Y-56654548I0J-500000D01*
G01*
X56518234Y-56005968D02*
G75*
G02X55815461Y-56654548I-450515J-216879D01*
G01*
X56518234Y-56005969D02*
G75*
G02X56468749Y-55789091I450515J216878D01*
G01*
X56468749Y-54383406D02*
G75*
G02X56518234Y-54166529I500000J-1D01*
G01*
X55815461Y-53517952D02*
G75*
G02X56518234Y-54166529I252258J-431700D01*
G01*
X55815461Y-53517951D02*
G75*
G02X55563203Y-53586250I-252258J431701D01*
G01*
X53974297Y-53586249D02*
G75*
G02X53722039Y-53517950I1J499999D01*
G01*
X53019266Y-54166529D02*
G75*
G02X53722039Y-53517950I450515J216878D01*
G01*
X53019266Y-54166529D02*
G75*
G02X53068751Y-54383407I-450515J-216878D01*
G01*
X53068751Y-55789092D02*
G75*
G02X53019266Y-56005969I-500000J1D01*
G01*
X53722039Y-56654546D02*
G75*
G02X53019266Y-56005969I-252258J431700D01*
G01*
X53068751Y-55789091D02*
X53068751Y-54383407D01*
X53974298Y-53586250D02*
X55563203Y-53586250D01*
X56468749Y-54383407D02*
X56468749Y-55789091D01*
X55563202Y-56586249D02*
X53974298Y-56586249D01*
X26734540Y-56654548D02*
G75*
G02X26986798Y-56586249I252258J-431701D01*
G01*
X28575702Y-56586249D02*
G75*
G02X28827961Y-56654548I0J-500000D01*
G01*
X29530734Y-56005968D02*
G75*
G02X28827961Y-56654548I-450515J-216879D01*
G01*
X29530734Y-56005969D02*
G75*
G02X29481249Y-55789091I450515J216878D01*
G01*
X29481249Y-54383406D02*
G75*
G02X29530734Y-54166529I500000J-1D01*
G01*
X28827961Y-53517952D02*
G75*
G02X29530734Y-54166529I252258J-431700D01*
G01*
X28827961Y-53517951D02*
G75*
G02X28575703Y-53586250I-252258J431701D01*
G01*
X26986797Y-53586249D02*
G75*
G02X26734539Y-53517950I1J499999D01*
G01*
X26031766Y-54166529D02*
G75*
G02X26734539Y-53517950I450515J216878D01*
G01*
X26031766Y-54166529D02*
G75*
G02X26081251Y-54383407I-450515J-216878D01*
G01*
X26081251Y-55789092D02*
G75*
G02X26031766Y-56005969I-500000J1D01*
G01*
X26734539Y-56654546D02*
G75*
G02X26031766Y-56005969I-252258J431700D01*
G01*
X26081251Y-55789091D02*
X26081251Y-54383407D01*
X26986798Y-53586250D02*
X28575703Y-53586250D01*
X29481249Y-54383407D02*
X29481249Y-55789091D01*
X28575702Y-56586249D02*
X26986798Y-56586249D01*
M02*
