G04 #@! TF.GenerationSoftware,KiCad,Pcbnew,(5.1.4)-1*
G04 #@! TF.CreationDate,2024-04-11T21:59:36-07:00*
G04 #@! TF.ProjectId,keeb,6b656562-2e6b-4696-9361-645f70636258,rev?*
G04 #@! TF.SameCoordinates,Original*
G04 #@! TF.FileFunction,Legend,Bot*
G04 #@! TF.FilePolarity,Positive*
%FSLAX46Y46*%
G04 Gerber Fmt 4.6, Leading zero omitted, Abs format (unit mm)*
G04 Created by KiCad (PCBNEW (5.1.4)-1) date 2024-04-11 21:59:36*
%MOMM*%
%LPD*%
G04 APERTURE LIST*
%ADD10C,0.100000*%
%ADD11C,0.120000*%
%ADD12C,0.150000*%
%ADD13C,0.250000*%
G04 APERTURE END LIST*
D10*
G36*
X141056250Y-111395001D02*
G01*
X141956250Y-110495001D01*
X141056250Y-110495001D01*
X141056250Y-111395001D01*
G37*
X141056250Y-111395001D02*
X141956250Y-110495001D01*
X141056250Y-110495001D01*
X141056250Y-111395001D01*
G36*
X363306250Y-157432501D02*
G01*
X364206250Y-156532501D01*
X363306250Y-156532501D01*
X363306250Y-157432501D01*
G37*
X363306250Y-157432501D02*
X364206250Y-156532501D01*
X363306250Y-156532501D01*
X363306250Y-157432501D01*
G36*
X344256250Y-157432501D02*
G01*
X345156250Y-156532501D01*
X344256250Y-156532501D01*
X344256250Y-157432501D01*
G37*
X344256250Y-157432501D02*
X345156250Y-156532501D01*
X344256250Y-156532501D01*
X344256250Y-157432501D01*
G36*
X325206250Y-157432501D02*
G01*
X326106250Y-156532501D01*
X325206250Y-156532501D01*
X325206250Y-157432501D01*
G37*
X325206250Y-157432501D02*
X326106250Y-156532501D01*
X325206250Y-156532501D01*
X325206250Y-157432501D01*
G36*
X288693750Y-149495001D02*
G01*
X289593750Y-148595001D01*
X288693750Y-148595001D01*
X288693750Y-149495001D01*
G37*
X288693750Y-149495001D02*
X289593750Y-148595001D01*
X288693750Y-148595001D01*
X288693750Y-149495001D01*
G36*
X264881250Y-149495001D02*
G01*
X265781250Y-148595001D01*
X264881250Y-148595001D01*
X264881250Y-149495001D01*
G37*
X264881250Y-149495001D02*
X265781250Y-148595001D01*
X264881250Y-148595001D01*
X264881250Y-149495001D01*
G36*
X241068750Y-149495001D02*
G01*
X241968750Y-148595001D01*
X241068750Y-148595001D01*
X241068750Y-149495001D01*
G37*
X241068750Y-149495001D02*
X241968750Y-148595001D01*
X241068750Y-148595001D01*
X241068750Y-149495001D01*
G36*
X217256250Y-144732501D02*
G01*
X218156250Y-143832501D01*
X217256250Y-143832501D01*
X217256250Y-144732501D01*
G37*
X217256250Y-144732501D02*
X218156250Y-143832501D01*
X217256250Y-143832501D01*
X217256250Y-144732501D01*
G36*
X193443750Y-144732501D02*
G01*
X194343750Y-143832501D01*
X193443750Y-143832501D01*
X193443750Y-144732501D01*
G37*
X193443750Y-144732501D02*
X194343750Y-143832501D01*
X193443750Y-143832501D01*
X193443750Y-144732501D01*
G36*
X169631250Y-149495001D02*
G01*
X170531250Y-148595001D01*
X169631250Y-148595001D01*
X169631250Y-149495001D01*
G37*
X169631250Y-149495001D02*
X170531250Y-148595001D01*
X169631250Y-148595001D01*
X169631250Y-149495001D01*
G36*
X146612500Y-144732501D02*
G01*
X147512500Y-143832501D01*
X146612500Y-143832501D01*
X146612500Y-144732501D01*
G37*
X146612500Y-144732501D02*
X147512500Y-143832501D01*
X146612500Y-143832501D01*
X146612500Y-144732501D01*
G36*
X122006250Y-144732501D02*
G01*
X122906250Y-143832501D01*
X122006250Y-143832501D01*
X122006250Y-144732501D01*
G37*
X122006250Y-144732501D02*
X122906250Y-143832501D01*
X122006250Y-143832501D01*
X122006250Y-144732501D01*
G36*
X98193750Y-149495001D02*
G01*
X99093750Y-148595001D01*
X98193750Y-148595001D01*
X98193750Y-149495001D01*
G37*
X98193750Y-149495001D02*
X99093750Y-148595001D01*
X98193750Y-148595001D01*
X98193750Y-149495001D01*
G36*
X74381250Y-149495001D02*
G01*
X75281250Y-148595001D01*
X74381250Y-148595001D01*
X74381250Y-149495001D01*
G37*
X74381250Y-149495001D02*
X75281250Y-148595001D01*
X74381250Y-148595001D01*
X74381250Y-149495001D01*
G36*
X52950000Y-149495001D02*
G01*
X53850000Y-148595001D01*
X52950000Y-148595001D01*
X52950000Y-149495001D01*
G37*
X52950000Y-149495001D02*
X53850000Y-148595001D01*
X52950000Y-148595001D01*
X52950000Y-149495001D01*
G36*
X23581250Y-149495001D02*
G01*
X24481250Y-148595001D01*
X23581250Y-148595001D01*
X23581250Y-149495001D01*
G37*
X23581250Y-149495001D02*
X24481250Y-148595001D01*
X23581250Y-148595001D01*
X23581250Y-149495001D01*
G36*
X352656250Y-140223749D02*
G01*
X351756250Y-141123749D01*
X352656250Y-141123749D01*
X352656250Y-140223749D01*
G37*
X352656250Y-140223749D02*
X351756250Y-141123749D01*
X352656250Y-141123749D01*
X352656250Y-140223749D01*
G36*
X309000000Y-132286249D02*
G01*
X308100000Y-133186249D01*
X309000000Y-133186249D01*
X309000000Y-132286249D01*
G37*
X309000000Y-132286249D02*
X308100000Y-133186249D01*
X309000000Y-133186249D01*
X309000000Y-132286249D01*
G36*
X273281250Y-132286249D02*
G01*
X272381250Y-133186249D01*
X273281250Y-133186249D01*
X273281250Y-132286249D01*
G37*
X273281250Y-132286249D02*
X272381250Y-133186249D01*
X273281250Y-133186249D01*
X273281250Y-132286249D01*
G36*
X254231250Y-132286249D02*
G01*
X253331250Y-133186249D01*
X254231250Y-133186249D01*
X254231250Y-132286249D01*
G37*
X254231250Y-132286249D02*
X253331250Y-133186249D01*
X254231250Y-133186249D01*
X254231250Y-132286249D01*
G36*
X235181250Y-132286249D02*
G01*
X234281250Y-133186249D01*
X235181250Y-133186249D01*
X235181250Y-132286249D01*
G37*
X235181250Y-132286249D02*
X234281250Y-133186249D01*
X235181250Y-133186249D01*
X235181250Y-132286249D01*
G36*
X216131250Y-132286249D02*
G01*
X215231250Y-133186249D01*
X216131250Y-133186249D01*
X216131250Y-132286249D01*
G37*
X216131250Y-132286249D02*
X215231250Y-133186249D01*
X216131250Y-133186249D01*
X216131250Y-132286249D01*
G36*
X197081250Y-132286249D02*
G01*
X196181250Y-133186249D01*
X197081250Y-133186249D01*
X197081250Y-132286249D01*
G37*
X197081250Y-132286249D02*
X196181250Y-133186249D01*
X197081250Y-133186249D01*
X197081250Y-132286249D01*
G36*
X178031250Y-132286249D02*
G01*
X177131250Y-133186249D01*
X178031250Y-133186249D01*
X178031250Y-132286249D01*
G37*
X178031250Y-132286249D02*
X177131250Y-133186249D01*
X178031250Y-133186249D01*
X178031250Y-132286249D01*
G36*
X158981250Y-132286249D02*
G01*
X158081250Y-133186249D01*
X158981250Y-133186249D01*
X158981250Y-132286249D01*
G37*
X158981250Y-132286249D02*
X158081250Y-133186249D01*
X158981250Y-133186249D01*
X158981250Y-132286249D01*
G36*
X139931250Y-132286249D02*
G01*
X139031250Y-133186249D01*
X139931250Y-133186249D01*
X139931250Y-132286249D01*
G37*
X139931250Y-132286249D02*
X139031250Y-133186249D01*
X139931250Y-133186249D01*
X139931250Y-132286249D01*
G36*
X120881250Y-132286249D02*
G01*
X119981250Y-133186249D01*
X120881250Y-133186249D01*
X120881250Y-132286249D01*
G37*
X120881250Y-132286249D02*
X119981250Y-133186249D01*
X120881250Y-133186249D01*
X120881250Y-132286249D01*
G36*
X101831250Y-132286249D02*
G01*
X100931250Y-133186249D01*
X101831250Y-133186249D01*
X101831250Y-132286249D01*
G37*
X101831250Y-132286249D02*
X100931250Y-133186249D01*
X101831250Y-133186249D01*
X101831250Y-132286249D01*
G36*
X70875000Y-132286249D02*
G01*
X69975000Y-133186249D01*
X70875000Y-133186249D01*
X70875000Y-132286249D01*
G37*
X70875000Y-132286249D02*
X69975000Y-133186249D01*
X70875000Y-133186249D01*
X70875000Y-132286249D01*
G36*
X31981250Y-132286249D02*
G01*
X31081250Y-133186249D01*
X31981250Y-133186249D01*
X31981250Y-132286249D01*
G37*
X31981250Y-132286249D02*
X31081250Y-133186249D01*
X31981250Y-133186249D01*
X31981250Y-132286249D01*
G36*
X404250000Y-137842499D02*
G01*
X403350000Y-138742499D01*
X404250000Y-138742499D01*
X404250000Y-137842499D01*
G37*
X404250000Y-137842499D02*
X403350000Y-138742499D01*
X404250000Y-138742499D01*
X404250000Y-137842499D01*
G36*
X363306250Y-111395001D02*
G01*
X364206250Y-110495001D01*
X363306250Y-110495001D01*
X363306250Y-111395001D01*
G37*
X363306250Y-111395001D02*
X364206250Y-110495001D01*
X363306250Y-110495001D01*
X363306250Y-111395001D01*
G36*
X344256250Y-111395001D02*
G01*
X345156250Y-110495001D01*
X344256250Y-110495001D01*
X344256250Y-111395001D01*
G37*
X344256250Y-111395001D02*
X345156250Y-110495001D01*
X344256250Y-110495001D01*
X344256250Y-111395001D01*
G36*
X305362500Y-111395001D02*
G01*
X306262500Y-110495001D01*
X305362500Y-110495001D01*
X305362500Y-111395001D01*
G37*
X305362500Y-111395001D02*
X306262500Y-110495001D01*
X305362500Y-110495001D01*
X305362500Y-111395001D01*
G36*
X274406250Y-111395001D02*
G01*
X275306250Y-110495001D01*
X274406250Y-110495001D01*
X274406250Y-111395001D01*
G37*
X274406250Y-111395001D02*
X275306250Y-110495001D01*
X274406250Y-110495001D01*
X274406250Y-111395001D01*
G36*
X255356250Y-111395001D02*
G01*
X256256250Y-110495001D01*
X255356250Y-110495001D01*
X255356250Y-111395001D01*
G37*
X255356250Y-111395001D02*
X256256250Y-110495001D01*
X255356250Y-110495001D01*
X255356250Y-111395001D01*
G36*
X236306250Y-111395001D02*
G01*
X237206250Y-110495001D01*
X236306250Y-110495001D01*
X236306250Y-111395001D01*
G37*
X236306250Y-111395001D02*
X237206250Y-110495001D01*
X236306250Y-110495001D01*
X236306250Y-111395001D01*
G36*
X217256250Y-111395001D02*
G01*
X218156250Y-110495001D01*
X217256250Y-110495001D01*
X217256250Y-111395001D01*
G37*
X217256250Y-111395001D02*
X218156250Y-110495001D01*
X217256250Y-110495001D01*
X217256250Y-111395001D01*
G36*
X198206250Y-111395001D02*
G01*
X199106250Y-110495001D01*
X198206250Y-110495001D01*
X198206250Y-111395001D01*
G37*
X198206250Y-111395001D02*
X199106250Y-110495001D01*
X198206250Y-110495001D01*
X198206250Y-111395001D01*
G36*
X179156250Y-111395001D02*
G01*
X180056250Y-110495001D01*
X179156250Y-110495001D01*
X179156250Y-111395001D01*
G37*
X179156250Y-111395001D02*
X180056250Y-110495001D01*
X179156250Y-110495001D01*
X179156250Y-111395001D01*
G36*
X160106250Y-111395001D02*
G01*
X161006250Y-110495001D01*
X160106250Y-110495001D01*
X160106250Y-111395001D01*
G37*
X160106250Y-111395001D02*
X161006250Y-110495001D01*
X160106250Y-110495001D01*
X160106250Y-111395001D01*
G36*
X122006250Y-111395001D02*
G01*
X122906250Y-110495001D01*
X122006250Y-110495001D01*
X122006250Y-111395001D01*
G37*
X122006250Y-111395001D02*
X122906250Y-110495001D01*
X122006250Y-110495001D01*
X122006250Y-111395001D01*
G36*
X102956250Y-111395001D02*
G01*
X103856250Y-110495001D01*
X102956250Y-110495001D01*
X102956250Y-111395001D01*
G37*
X102956250Y-111395001D02*
X103856250Y-110495001D01*
X102956250Y-110495001D01*
X102956250Y-111395001D01*
G36*
X83906250Y-111395001D02*
G01*
X84806250Y-110495001D01*
X83906250Y-110495001D01*
X83906250Y-111395001D01*
G37*
X83906250Y-111395001D02*
X84806250Y-110495001D01*
X83906250Y-110495001D01*
X83906250Y-111395001D01*
G36*
X57712500Y-111395001D02*
G01*
X58612500Y-110495001D01*
X57712500Y-110495001D01*
X57712500Y-111395001D01*
G37*
X57712500Y-111395001D02*
X58612500Y-110495001D01*
X57712500Y-110495001D01*
X57712500Y-111395001D01*
G36*
X23581250Y-111395001D02*
G01*
X24481250Y-110495001D01*
X23581250Y-110495001D01*
X23581250Y-111395001D01*
G37*
X23581250Y-111395001D02*
X24481250Y-110495001D01*
X23581250Y-110495001D01*
X23581250Y-111395001D01*
G36*
X404250000Y-109267499D02*
G01*
X403350000Y-110167499D01*
X404250000Y-110167499D01*
X404250000Y-109267499D01*
G37*
X404250000Y-109267499D02*
X403350000Y-110167499D01*
X404250000Y-110167499D01*
X404250000Y-109267499D01*
G36*
X371706250Y-94186249D02*
G01*
X370806250Y-95086249D01*
X371706250Y-95086249D01*
X371706250Y-94186249D01*
G37*
X371706250Y-94186249D02*
X370806250Y-95086249D01*
X371706250Y-95086249D01*
X371706250Y-94186249D01*
G36*
X352656250Y-94186249D02*
G01*
X351756250Y-95086249D01*
X352656250Y-95086249D01*
X352656250Y-94186249D01*
G37*
X352656250Y-94186249D02*
X351756250Y-95086249D01*
X352656250Y-95086249D01*
X352656250Y-94186249D01*
G36*
X320906250Y-94186249D02*
G01*
X320006250Y-95086249D01*
X320906250Y-95086249D01*
X320906250Y-94186249D01*
G37*
X320906250Y-94186249D02*
X320006250Y-95086249D01*
X320906250Y-95086249D01*
X320906250Y-94186249D01*
G36*
X297093750Y-94186249D02*
G01*
X296193750Y-95086249D01*
X297093750Y-95086249D01*
X297093750Y-94186249D01*
G37*
X297093750Y-94186249D02*
X296193750Y-95086249D01*
X297093750Y-95086249D01*
X297093750Y-94186249D01*
G36*
X278043750Y-94186249D02*
G01*
X277143750Y-95086249D01*
X278043750Y-95086249D01*
X278043750Y-94186249D01*
G37*
X278043750Y-94186249D02*
X277143750Y-95086249D01*
X278043750Y-95086249D01*
X278043750Y-94186249D01*
G36*
X258993750Y-94186249D02*
G01*
X258093750Y-95086249D01*
X258993750Y-95086249D01*
X258993750Y-94186249D01*
G37*
X258993750Y-94186249D02*
X258093750Y-95086249D01*
X258993750Y-95086249D01*
X258993750Y-94186249D01*
G36*
X239943750Y-94186249D02*
G01*
X239043750Y-95086249D01*
X239943750Y-95086249D01*
X239943750Y-94186249D01*
G37*
X239943750Y-94186249D02*
X239043750Y-95086249D01*
X239943750Y-95086249D01*
X239943750Y-94186249D01*
G36*
X220893750Y-94186249D02*
G01*
X219993750Y-95086249D01*
X220893750Y-95086249D01*
X220893750Y-94186249D01*
G37*
X220893750Y-94186249D02*
X219993750Y-95086249D01*
X220893750Y-95086249D01*
X220893750Y-94186249D01*
G36*
X201843750Y-94186249D02*
G01*
X200943750Y-95086249D01*
X201843750Y-95086249D01*
X201843750Y-94186249D01*
G37*
X201843750Y-94186249D02*
X200943750Y-95086249D01*
X201843750Y-95086249D01*
X201843750Y-94186249D01*
G36*
X182793750Y-94186249D02*
G01*
X181893750Y-95086249D01*
X182793750Y-95086249D01*
X182793750Y-94186249D01*
G37*
X182793750Y-94186249D02*
X181893750Y-95086249D01*
X182793750Y-95086249D01*
X182793750Y-94186249D01*
G36*
X163743750Y-94186249D02*
G01*
X162843750Y-95086249D01*
X163743750Y-95086249D01*
X163743750Y-94186249D01*
G37*
X163743750Y-94186249D02*
X162843750Y-95086249D01*
X163743750Y-95086249D01*
X163743750Y-94186249D01*
G36*
X144693750Y-94186249D02*
G01*
X143793750Y-95086249D01*
X144693750Y-95086249D01*
X144693750Y-94186249D01*
G37*
X144693750Y-94186249D02*
X143793750Y-95086249D01*
X144693750Y-95086249D01*
X144693750Y-94186249D01*
G36*
X125643750Y-94186249D02*
G01*
X124743750Y-95086249D01*
X125643750Y-95086249D01*
X125643750Y-94186249D01*
G37*
X125643750Y-94186249D02*
X124743750Y-95086249D01*
X125643750Y-95086249D01*
X125643750Y-94186249D01*
G36*
X106593750Y-94186249D02*
G01*
X105693750Y-95086249D01*
X106593750Y-95086249D01*
X106593750Y-94186249D01*
G37*
X106593750Y-94186249D02*
X105693750Y-95086249D01*
X106593750Y-95086249D01*
X106593750Y-94186249D01*
G36*
X87543750Y-94186249D02*
G01*
X86643750Y-95086249D01*
X87543750Y-95086249D01*
X87543750Y-94186249D01*
G37*
X87543750Y-94186249D02*
X86643750Y-95086249D01*
X87543750Y-95086249D01*
X87543750Y-94186249D01*
G36*
X63731250Y-94186249D02*
G01*
X62831250Y-95086249D01*
X63731250Y-95086249D01*
X63731250Y-94186249D01*
G37*
X63731250Y-94186249D02*
X62831250Y-95086249D01*
X63731250Y-95086249D01*
X63731250Y-94186249D01*
G36*
X31981250Y-94186249D02*
G01*
X31081250Y-95086249D01*
X31981250Y-95086249D01*
X31981250Y-94186249D01*
G37*
X31981250Y-94186249D02*
X31081250Y-95086249D01*
X31981250Y-95086249D01*
X31981250Y-94186249D01*
G36*
X404250000Y-81486249D02*
G01*
X403350000Y-82386249D01*
X404250000Y-82386249D01*
X404250000Y-81486249D01*
G37*
X404250000Y-81486249D02*
X403350000Y-82386249D01*
X404250000Y-82386249D01*
X404250000Y-81486249D01*
G36*
X363306250Y-73295001D02*
G01*
X364206250Y-72395001D01*
X363306250Y-72395001D01*
X363306250Y-73295001D01*
G37*
X363306250Y-73295001D02*
X364206250Y-72395001D01*
X363306250Y-72395001D01*
X363306250Y-73295001D01*
G36*
X344256250Y-73295001D02*
G01*
X345156250Y-72395001D01*
X344256250Y-72395001D01*
X344256250Y-73295001D01*
G37*
X344256250Y-73295001D02*
X345156250Y-72395001D01*
X344256250Y-72395001D01*
X344256250Y-73295001D01*
G36*
X307743750Y-73295001D02*
G01*
X308643750Y-72395001D01*
X307743750Y-72395001D01*
X307743750Y-73295001D01*
G37*
X307743750Y-73295001D02*
X308643750Y-72395001D01*
X307743750Y-72395001D01*
X307743750Y-73295001D01*
G36*
X279168750Y-73295001D02*
G01*
X280068750Y-72395001D01*
X279168750Y-72395001D01*
X279168750Y-73295001D01*
G37*
X279168750Y-73295001D02*
X280068750Y-72395001D01*
X279168750Y-72395001D01*
X279168750Y-73295001D01*
G36*
X260118750Y-73295001D02*
G01*
X261018750Y-72395001D01*
X260118750Y-72395001D01*
X260118750Y-73295001D01*
G37*
X260118750Y-73295001D02*
X261018750Y-72395001D01*
X260118750Y-72395001D01*
X260118750Y-73295001D01*
G36*
X241068750Y-73295001D02*
G01*
X241968750Y-72395001D01*
X241068750Y-72395001D01*
X241068750Y-73295001D01*
G37*
X241068750Y-73295001D02*
X241968750Y-72395001D01*
X241068750Y-72395001D01*
X241068750Y-73295001D01*
G36*
X222018750Y-73295001D02*
G01*
X222918750Y-72395001D01*
X222018750Y-72395001D01*
X222018750Y-73295001D01*
G37*
X222018750Y-73295001D02*
X222918750Y-72395001D01*
X222018750Y-72395001D01*
X222018750Y-73295001D01*
G36*
X202968750Y-73295001D02*
G01*
X203868750Y-72395001D01*
X202968750Y-72395001D01*
X202968750Y-73295001D01*
G37*
X202968750Y-73295001D02*
X203868750Y-72395001D01*
X202968750Y-72395001D01*
X202968750Y-73295001D01*
G36*
X183918750Y-73295001D02*
G01*
X184818750Y-72395001D01*
X183918750Y-72395001D01*
X183918750Y-73295001D01*
G37*
X183918750Y-73295001D02*
X184818750Y-72395001D01*
X183918750Y-72395001D01*
X183918750Y-73295001D01*
G36*
X164868750Y-73295001D02*
G01*
X165768750Y-72395001D01*
X164868750Y-72395001D01*
X164868750Y-73295001D01*
G37*
X164868750Y-73295001D02*
X165768750Y-72395001D01*
X164868750Y-72395001D01*
X164868750Y-73295001D01*
G36*
X145818750Y-73295001D02*
G01*
X146718750Y-72395001D01*
X145818750Y-72395001D01*
X145818750Y-73295001D01*
G37*
X145818750Y-73295001D02*
X146718750Y-72395001D01*
X145818750Y-72395001D01*
X145818750Y-73295001D01*
G36*
X126768750Y-73295001D02*
G01*
X127668750Y-72395001D01*
X126768750Y-72395001D01*
X126768750Y-73295001D01*
G37*
X126768750Y-73295001D02*
X127668750Y-72395001D01*
X126768750Y-72395001D01*
X126768750Y-73295001D01*
G36*
X107718750Y-73295001D02*
G01*
X108618750Y-72395001D01*
X107718750Y-72395001D01*
X107718750Y-73295001D01*
G37*
X107718750Y-73295001D02*
X108618750Y-72395001D01*
X107718750Y-72395001D01*
X107718750Y-73295001D01*
G36*
X88668750Y-73295001D02*
G01*
X89568750Y-72395001D01*
X88668750Y-72395001D01*
X88668750Y-73295001D01*
G37*
X88668750Y-73295001D02*
X89568750Y-72395001D01*
X88668750Y-72395001D01*
X88668750Y-73295001D01*
G36*
X69618750Y-73295001D02*
G01*
X70518750Y-72395001D01*
X69618750Y-72395001D01*
X69618750Y-73295001D01*
G37*
X69618750Y-73295001D02*
X70518750Y-72395001D01*
X69618750Y-72395001D01*
X69618750Y-73295001D01*
G36*
X50568750Y-73295001D02*
G01*
X51468750Y-72395001D01*
X50568750Y-72395001D01*
X50568750Y-73295001D01*
G37*
X50568750Y-73295001D02*
X51468750Y-72395001D01*
X50568750Y-72395001D01*
X50568750Y-73295001D01*
G36*
X23581250Y-73295001D02*
G01*
X24481250Y-72395001D01*
X23581250Y-72395001D01*
X23581250Y-73295001D01*
G37*
X23581250Y-73295001D02*
X24481250Y-72395001D01*
X23581250Y-72395001D01*
X23581250Y-73295001D01*
G36*
X371706250Y-56086249D02*
G01*
X370806250Y-56986249D01*
X371706250Y-56986249D01*
X371706250Y-56086249D01*
G37*
X371706250Y-56086249D02*
X370806250Y-56986249D01*
X371706250Y-56986249D01*
X371706250Y-56086249D01*
G36*
X352656250Y-56086249D02*
G01*
X351756250Y-56986249D01*
X352656250Y-56986249D01*
X352656250Y-56086249D01*
G37*
X352656250Y-56086249D02*
X351756250Y-56986249D01*
X352656250Y-56986249D01*
X352656250Y-56086249D01*
G36*
X325668750Y-56086249D02*
G01*
X324768750Y-56986249D01*
X325668750Y-56986249D01*
X325668750Y-56086249D01*
G37*
X325668750Y-56086249D02*
X324768750Y-56986249D01*
X325668750Y-56986249D01*
X325668750Y-56086249D01*
G36*
X306618750Y-56086249D02*
G01*
X305718750Y-56986249D01*
X306618750Y-56986249D01*
X306618750Y-56086249D01*
G37*
X306618750Y-56086249D02*
X305718750Y-56986249D01*
X306618750Y-56986249D01*
X306618750Y-56086249D01*
G36*
X287568750Y-56086249D02*
G01*
X286668750Y-56986249D01*
X287568750Y-56986249D01*
X287568750Y-56086249D01*
G37*
X287568750Y-56086249D02*
X286668750Y-56986249D01*
X287568750Y-56986249D01*
X287568750Y-56086249D01*
G36*
X268518750Y-56086249D02*
G01*
X267618750Y-56986249D01*
X268518750Y-56986249D01*
X268518750Y-56086249D01*
G37*
X268518750Y-56086249D02*
X267618750Y-56986249D01*
X268518750Y-56986249D01*
X268518750Y-56086249D01*
G36*
X249468750Y-56086249D02*
G01*
X248568750Y-56986249D01*
X249468750Y-56986249D01*
X249468750Y-56086249D01*
G37*
X249468750Y-56086249D02*
X248568750Y-56986249D01*
X249468750Y-56986249D01*
X249468750Y-56086249D01*
G36*
X230418750Y-56086249D02*
G01*
X229518750Y-56986249D01*
X230418750Y-56986249D01*
X230418750Y-56086249D01*
G37*
X230418750Y-56086249D02*
X229518750Y-56986249D01*
X230418750Y-56986249D01*
X230418750Y-56086249D01*
G36*
X211368750Y-56086249D02*
G01*
X210468750Y-56986249D01*
X211368750Y-56986249D01*
X211368750Y-56086249D01*
G37*
X211368750Y-56086249D02*
X210468750Y-56986249D01*
X211368750Y-56986249D01*
X211368750Y-56086249D01*
G36*
X192318750Y-56086249D02*
G01*
X191418750Y-56986249D01*
X192318750Y-56986249D01*
X192318750Y-56086249D01*
G37*
X192318750Y-56086249D02*
X191418750Y-56986249D01*
X192318750Y-56986249D01*
X192318750Y-56086249D01*
G36*
X173268750Y-56086249D02*
G01*
X172368750Y-56986249D01*
X173268750Y-56986249D01*
X173268750Y-56086249D01*
G37*
X173268750Y-56086249D02*
X172368750Y-56986249D01*
X173268750Y-56986249D01*
X173268750Y-56086249D01*
G36*
X154218750Y-56086249D02*
G01*
X153318750Y-56986249D01*
X154218750Y-56986249D01*
X154218750Y-56086249D01*
G37*
X154218750Y-56086249D02*
X153318750Y-56986249D01*
X154218750Y-56986249D01*
X154218750Y-56086249D01*
G36*
X135196250Y-56086249D02*
G01*
X134296250Y-56986249D01*
X135196250Y-56986249D01*
X135196250Y-56086249D01*
G37*
X135196250Y-56086249D02*
X134296250Y-56986249D01*
X135196250Y-56986249D01*
X135196250Y-56086249D01*
G36*
X116118750Y-56086249D02*
G01*
X115218750Y-56986249D01*
X116118750Y-56986249D01*
X116118750Y-56086249D01*
G37*
X116118750Y-56086249D02*
X115218750Y-56986249D01*
X116118750Y-56986249D01*
X116118750Y-56086249D01*
G36*
X97068750Y-56086249D02*
G01*
X96168750Y-56986249D01*
X97068750Y-56986249D01*
X97068750Y-56086249D01*
G37*
X97068750Y-56086249D02*
X96168750Y-56986249D01*
X97068750Y-56986249D01*
X97068750Y-56086249D01*
G36*
X78018750Y-56086249D02*
G01*
X77118750Y-56986249D01*
X78018750Y-56986249D01*
X78018750Y-56086249D01*
G37*
X78018750Y-56086249D02*
X77118750Y-56986249D01*
X78018750Y-56986249D01*
X78018750Y-56086249D01*
G36*
X58968750Y-56086249D02*
G01*
X58068750Y-56986249D01*
X58968750Y-56986249D01*
X58968750Y-56086249D01*
G37*
X58968750Y-56086249D02*
X58068750Y-56986249D01*
X58968750Y-56986249D01*
X58968750Y-56086249D01*
G36*
X31981250Y-56086249D02*
G01*
X31081250Y-56986249D01*
X31981250Y-56986249D01*
X31981250Y-56086249D01*
G37*
X31981250Y-56086249D02*
X31081250Y-56986249D01*
X31981250Y-56986249D01*
X31981250Y-56086249D01*
D11*
X399340000Y-44058578D02*
X399340000Y-43541422D01*
X400760000Y-44058578D02*
X400760000Y-43541422D01*
X389647500Y-79260172D02*
X389647500Y-79777328D01*
X388227500Y-79260172D02*
X388227500Y-79777328D01*
X392990000Y-50264828D02*
X392990000Y-49747672D01*
X394410000Y-50264828D02*
X394410000Y-49747672D01*
X395371250Y-50264828D02*
X395371250Y-49747672D01*
X396791250Y-50264828D02*
X396791250Y-49747672D01*
X384258750Y-50264828D02*
X384258750Y-49747672D01*
X385678750Y-50264828D02*
X385678750Y-49747672D01*
X386640000Y-50264828D02*
X386640000Y-49747672D01*
X388060000Y-50264828D02*
X388060000Y-49747672D01*
X373597672Y-53265000D02*
X374114828Y-53265000D01*
X373597672Y-54685000D02*
X374114828Y-54685000D01*
X387671250Y-59365000D02*
X387671250Y-58890000D01*
X396891250Y-68110000D02*
X396416250Y-68110000D01*
X396891250Y-67635000D02*
X396891250Y-68110000D01*
X396891250Y-58890000D02*
X396416250Y-58890000D01*
X396891250Y-59365000D02*
X396891250Y-58890000D01*
X387671250Y-68110000D02*
X388146250Y-68110000D01*
X387671250Y-67635000D02*
X387671250Y-68110000D01*
X404750000Y-71850000D02*
X404750000Y-67850000D01*
X408050000Y-71850000D02*
X404750000Y-71850000D01*
X398346250Y-49814564D02*
X398346250Y-48610436D01*
X400166250Y-49814564D02*
X400166250Y-48610436D01*
X404553922Y-50883750D02*
X405071078Y-50883750D01*
X404553922Y-52303750D02*
X405071078Y-52303750D01*
X404553922Y-58027500D02*
X405071078Y-58027500D01*
X404553922Y-59447500D02*
X405071078Y-59447500D01*
X404553922Y-55646250D02*
X405071078Y-55646250D01*
X404553922Y-57066250D02*
X405071078Y-57066250D01*
X404553922Y-53265000D02*
X405071078Y-53265000D01*
X404553922Y-54685000D02*
X405071078Y-54685000D01*
X404553922Y-62790000D02*
X405071078Y-62790000D01*
X404553922Y-64210000D02*
X405071078Y-64210000D01*
X404553922Y-60408750D02*
X405071078Y-60408750D01*
X404553922Y-61828750D02*
X405071078Y-61828750D01*
X406141422Y-72315000D02*
X406658578Y-72315000D01*
X406141422Y-73735000D02*
X406658578Y-73735000D01*
X400728922Y-52471250D02*
X401246078Y-52471250D01*
X400728922Y-53891250D02*
X401246078Y-53891250D01*
X406658578Y-67385000D02*
X406141422Y-67385000D01*
X406658578Y-65965000D02*
X406141422Y-65965000D01*
D12*
X402212500Y-42643750D02*
X402212500Y-47843750D01*
X402212500Y-47843750D02*
X407412500Y-47843750D01*
X407412500Y-47843750D02*
X407412500Y-42643750D01*
X407412500Y-42643750D02*
X402212500Y-42643750D01*
X405812500Y-45243750D02*
G75*
G03X405812500Y-45243750I-1000000J0D01*
G01*
D13*
X397212500Y-125055000D02*
X397212500Y-120055000D01*
X397212500Y-120055000D02*
X394712500Y-120055000D01*
X394712500Y-120055000D02*
X394712500Y-125055000D01*
X394712500Y-125055000D02*
X397212500Y-125055000D01*
D11*
X359362500Y-144656250D02*
X359362500Y-148556250D01*
X361362500Y-144656250D02*
X361362500Y-148556250D01*
X359362500Y-144656250D02*
X361362500Y-144656250D01*
X340312500Y-144656250D02*
X340312500Y-148556250D01*
X342312500Y-144656250D02*
X342312500Y-148556250D01*
X340312500Y-144656250D02*
X342312500Y-144656250D01*
X321262500Y-144656250D02*
X321262500Y-148556250D01*
X323262500Y-144656250D02*
X323262500Y-148556250D01*
X321262500Y-144656250D02*
X323262500Y-144656250D01*
X284750000Y-136656250D02*
X286750000Y-136656250D01*
X286750000Y-136656250D02*
X286750000Y-140556250D01*
X284750000Y-136656250D02*
X284750000Y-140556250D01*
X260937500Y-136656250D02*
X260937500Y-140556250D01*
X262937500Y-136656250D02*
X262937500Y-140556250D01*
X260937500Y-136656250D02*
X262937500Y-136656250D01*
X237125000Y-136718750D02*
X237125000Y-140618750D01*
X239125000Y-136718750D02*
X239125000Y-140618750D01*
X237125000Y-136718750D02*
X239125000Y-136718750D01*
X165687500Y-136593750D02*
X165687500Y-140493750D01*
X167687500Y-136593750D02*
X167687500Y-140493750D01*
X165687500Y-136593750D02*
X167687500Y-136593750D01*
X94250000Y-136718750D02*
X94250000Y-140618750D01*
X96250000Y-136718750D02*
X96250000Y-140618750D01*
X94250000Y-136718750D02*
X96250000Y-136718750D01*
X70437500Y-136718750D02*
X70437500Y-140618750D01*
X72437500Y-136718750D02*
X72437500Y-140618750D01*
X70437500Y-136718750D02*
X72437500Y-136718750D01*
X49006250Y-136718750D02*
X49006250Y-140618750D01*
X51006250Y-136718750D02*
X51006250Y-140618750D01*
X49006250Y-136718750D02*
X51006250Y-136718750D01*
X19637500Y-136718750D02*
X19637500Y-140618750D01*
X21637500Y-136718750D02*
X21637500Y-140618750D01*
X19637500Y-136718750D02*
X21637500Y-136718750D01*
X340312500Y-125543750D02*
X340312500Y-129443750D01*
X342312500Y-125543750D02*
X342312500Y-129443750D01*
X340312500Y-125543750D02*
X342312500Y-125543750D01*
X296656250Y-117668750D02*
X296656250Y-121568750D01*
X298656250Y-117668750D02*
X298656250Y-121568750D01*
X296656250Y-117668750D02*
X298656250Y-117668750D01*
X260937500Y-117668750D02*
X260937500Y-121568750D01*
X262937500Y-117668750D02*
X262937500Y-121568750D01*
X260937500Y-117668750D02*
X262937500Y-117668750D01*
X241887500Y-117606250D02*
X241887500Y-121506250D01*
X243887500Y-117606250D02*
X243887500Y-121506250D01*
X241887500Y-117606250D02*
X243887500Y-117606250D01*
X222837500Y-117606250D02*
X222837500Y-121506250D01*
X224837500Y-117606250D02*
X224837500Y-121506250D01*
X222837500Y-117606250D02*
X224837500Y-117606250D01*
X203787500Y-117668750D02*
X203787500Y-121568750D01*
X205787500Y-117668750D02*
X205787500Y-121568750D01*
X203787500Y-117668750D02*
X205787500Y-117668750D01*
X184737500Y-117543750D02*
X184737500Y-121443750D01*
X186737500Y-117543750D02*
X186737500Y-121443750D01*
X184737500Y-117543750D02*
X186737500Y-117543750D01*
X165687500Y-117668750D02*
X165687500Y-121568750D01*
X167687500Y-117668750D02*
X167687500Y-121568750D01*
X165687500Y-117668750D02*
X167687500Y-117668750D01*
X146637500Y-117668750D02*
X146637500Y-121568750D01*
X148637500Y-117668750D02*
X148637500Y-121568750D01*
X146637500Y-117668750D02*
X148637500Y-117668750D01*
X127587500Y-117668750D02*
X127587500Y-121568750D01*
X129587500Y-117668750D02*
X129587500Y-121568750D01*
X127587500Y-117668750D02*
X129587500Y-117668750D01*
X108537500Y-117668750D02*
X108537500Y-121568750D01*
X110537500Y-117668750D02*
X110537500Y-121568750D01*
X108537500Y-117668750D02*
X110537500Y-117668750D01*
X89487500Y-117606250D02*
X89487500Y-121506250D01*
X91487500Y-117606250D02*
X91487500Y-121506250D01*
X89487500Y-117606250D02*
X91487500Y-117606250D01*
X58531250Y-117668750D02*
X58531250Y-121568750D01*
X60531250Y-117668750D02*
X60531250Y-121568750D01*
X58531250Y-117668750D02*
X60531250Y-117668750D01*
X19637500Y-117668750D02*
X19637500Y-121568750D01*
X21637500Y-117668750D02*
X21637500Y-121568750D01*
X19637500Y-117668750D02*
X21637500Y-117668750D01*
X359362500Y-98618750D02*
X359362500Y-102518750D01*
X361362500Y-98618750D02*
X361362500Y-102518750D01*
X359362500Y-98618750D02*
X361362500Y-98618750D01*
X340312500Y-98556250D02*
X340312500Y-102456250D01*
X342312500Y-98556250D02*
X342312500Y-102456250D01*
X340312500Y-98556250D02*
X342312500Y-98556250D01*
X373193750Y-100218750D02*
X377093750Y-100218750D01*
X373193750Y-98218750D02*
X377093750Y-98218750D01*
X373193750Y-100218750D02*
X373193750Y-98218750D01*
X301418750Y-98618750D02*
X301418750Y-102518750D01*
X303418750Y-98618750D02*
X303418750Y-102518750D01*
X301418750Y-98618750D02*
X303418750Y-98618750D01*
X270462500Y-98618750D02*
X270462500Y-102518750D01*
X272462500Y-98618750D02*
X272462500Y-102518750D01*
X270462500Y-98618750D02*
X272462500Y-98618750D01*
X251412500Y-98618750D02*
X251412500Y-102518750D01*
X253412500Y-98618750D02*
X253412500Y-102518750D01*
X251412500Y-98618750D02*
X253412500Y-98618750D01*
X232362500Y-98618750D02*
X232362500Y-102518750D01*
X234362500Y-98618750D02*
X234362500Y-102518750D01*
X232362500Y-98618750D02*
X234362500Y-98618750D01*
X213312500Y-98556250D02*
X213312500Y-102456250D01*
X215312500Y-98556250D02*
X215312500Y-102456250D01*
X213312500Y-98556250D02*
X215312500Y-98556250D01*
X194262500Y-98556250D02*
X194262500Y-102456250D01*
X196262500Y-98556250D02*
X196262500Y-102456250D01*
X194262500Y-98556250D02*
X196262500Y-98556250D01*
X175212500Y-98618750D02*
X175212500Y-102518750D01*
X177212500Y-98618750D02*
X177212500Y-102518750D01*
X175212500Y-98618750D02*
X177212500Y-98618750D01*
X156162500Y-98556250D02*
X156162500Y-102456250D01*
X158162500Y-98556250D02*
X158162500Y-102456250D01*
X156162500Y-98556250D02*
X158162500Y-98556250D01*
X137112500Y-98618750D02*
X137112500Y-102518750D01*
X139112500Y-98618750D02*
X139112500Y-102518750D01*
X137112500Y-98618750D02*
X139112500Y-98618750D01*
X118062500Y-98556250D02*
X118062500Y-102456250D01*
X120062500Y-98556250D02*
X120062500Y-102456250D01*
X118062500Y-98556250D02*
X120062500Y-98556250D01*
X99012500Y-98556250D02*
X99012500Y-102456250D01*
X101012500Y-98556250D02*
X101012500Y-102456250D01*
X99012500Y-98556250D02*
X101012500Y-98556250D01*
X79962500Y-98618750D02*
X79962500Y-102518750D01*
X81962500Y-98618750D02*
X81962500Y-102518750D01*
X79962500Y-98618750D02*
X81962500Y-98618750D01*
X53768750Y-98556250D02*
X53768750Y-102456250D01*
X55768750Y-98556250D02*
X55768750Y-102456250D01*
X53768750Y-98556250D02*
X55768750Y-98556250D01*
X19637500Y-98618750D02*
X19637500Y-102518750D01*
X21637500Y-98618750D02*
X21637500Y-102518750D01*
X19637500Y-98618750D02*
X21637500Y-98618750D01*
X359362500Y-79568750D02*
X359362500Y-83468750D01*
X361362500Y-79568750D02*
X361362500Y-83468750D01*
X359362500Y-79568750D02*
X361362500Y-79568750D01*
X340312500Y-79568750D02*
X340312500Y-83468750D01*
X342312500Y-79568750D02*
X342312500Y-83468750D01*
X340312500Y-79568750D02*
X342312500Y-79568750D01*
X373193750Y-81168750D02*
X377093750Y-81168750D01*
X373193750Y-79168750D02*
X377093750Y-79168750D01*
X373193750Y-81168750D02*
X373193750Y-79168750D01*
X308562500Y-79568750D02*
X308562500Y-83468750D01*
X310562500Y-79568750D02*
X310562500Y-83468750D01*
X308562500Y-79568750D02*
X310562500Y-79568750D01*
X284750000Y-79443750D02*
X284750000Y-83343750D01*
X286750000Y-79443750D02*
X286750000Y-83343750D01*
X284750000Y-79443750D02*
X286750000Y-79443750D01*
X265700000Y-79568750D02*
X265700000Y-83468750D01*
X267700000Y-79568750D02*
X267700000Y-83468750D01*
X265700000Y-79568750D02*
X267700000Y-79568750D01*
X246650000Y-79506250D02*
X246650000Y-83406250D01*
X248650000Y-79506250D02*
X248650000Y-83406250D01*
X246650000Y-79506250D02*
X248650000Y-79506250D01*
X227600000Y-79506250D02*
X227600000Y-83406250D01*
X229600000Y-79506250D02*
X229600000Y-83406250D01*
X227600000Y-79506250D02*
X229600000Y-79506250D01*
X208550000Y-79506250D02*
X208550000Y-83406250D01*
X210550000Y-79506250D02*
X210550000Y-83406250D01*
X208550000Y-79506250D02*
X210550000Y-79506250D01*
X189500000Y-79506250D02*
X189500000Y-83406250D01*
X191500000Y-79506250D02*
X191500000Y-83406250D01*
X189500000Y-79506250D02*
X191500000Y-79506250D01*
X170450000Y-79568750D02*
X170450000Y-83468750D01*
X172450000Y-79568750D02*
X172450000Y-83468750D01*
X170450000Y-79568750D02*
X172450000Y-79568750D01*
X151400000Y-79506250D02*
X151400000Y-83406250D01*
X153400000Y-79506250D02*
X153400000Y-83406250D01*
X151400000Y-79506250D02*
X153400000Y-79506250D01*
X132350000Y-79506250D02*
X132350000Y-83406250D01*
X134350000Y-79506250D02*
X134350000Y-83406250D01*
X132350000Y-79506250D02*
X134350000Y-79506250D01*
X113300000Y-79568750D02*
X113300000Y-83468750D01*
X115300000Y-79568750D02*
X115300000Y-83468750D01*
X113300000Y-79568750D02*
X115300000Y-79568750D01*
X359362500Y-60456250D02*
X359362500Y-64356250D01*
X361362500Y-60456250D02*
X361362500Y-64356250D01*
X359362500Y-60456250D02*
X361362500Y-60456250D01*
X340312500Y-60456250D02*
X340312500Y-64356250D01*
X342312500Y-60456250D02*
X342312500Y-64356250D01*
X340312500Y-60456250D02*
X342312500Y-60456250D01*
X372400000Y-62118750D02*
X376300000Y-62118750D01*
X372400000Y-60118750D02*
X376300000Y-60118750D01*
X372400000Y-62118750D02*
X372400000Y-60118750D01*
X303800000Y-60456250D02*
X303800000Y-64356250D01*
X305800000Y-60456250D02*
X305800000Y-64356250D01*
X303800000Y-60456250D02*
X305800000Y-60456250D01*
X275225000Y-60456250D02*
X275225000Y-64356250D01*
X277225000Y-60456250D02*
X277225000Y-64356250D01*
X275225000Y-60456250D02*
X277225000Y-60456250D01*
X253793750Y-62106250D02*
X253793750Y-66006250D01*
X255793750Y-62106250D02*
X255793750Y-66006250D01*
X253793750Y-62106250D02*
X255793750Y-62106250D01*
X237125000Y-60456250D02*
X237125000Y-64356250D01*
X239125000Y-60456250D02*
X239125000Y-64356250D01*
X237125000Y-60456250D02*
X239125000Y-60456250D01*
X218075000Y-60518750D02*
X218075000Y-64418750D01*
X220075000Y-60518750D02*
X220075000Y-64418750D01*
X218075000Y-60518750D02*
X220075000Y-60518750D01*
X196643750Y-62106250D02*
X196643750Y-66006250D01*
X198643750Y-62106250D02*
X198643750Y-66006250D01*
X196643750Y-62106250D02*
X198643750Y-62106250D01*
X179975000Y-60518750D02*
X179975000Y-64418750D01*
X181975000Y-60518750D02*
X181975000Y-64418750D01*
X179975000Y-60518750D02*
X181975000Y-60518750D01*
X160925000Y-60456250D02*
X160925000Y-64356250D01*
X162925000Y-60456250D02*
X162925000Y-64356250D01*
X160925000Y-60456250D02*
X162925000Y-60456250D01*
X139493750Y-62043750D02*
X139493750Y-65943750D01*
X141493750Y-62043750D02*
X141493750Y-65943750D01*
X139493750Y-62043750D02*
X141493750Y-62043750D01*
X122825000Y-60518750D02*
X122825000Y-64418750D01*
X124825000Y-60518750D02*
X124825000Y-64418750D01*
X122825000Y-60518750D02*
X124825000Y-60518750D01*
X103775000Y-60518750D02*
X103775000Y-64418750D01*
X105775000Y-60518750D02*
X105775000Y-64418750D01*
X103775000Y-60518750D02*
X105775000Y-60518750D01*
X359362500Y-41406250D02*
X359362500Y-45306250D01*
X361362500Y-41406250D02*
X361362500Y-45306250D01*
X359362500Y-41406250D02*
X361362500Y-41406250D01*
X340312500Y-41406250D02*
X340312500Y-45306250D01*
X342312500Y-41406250D02*
X342312500Y-45306250D01*
X340312500Y-41406250D02*
X342312500Y-41406250D01*
X313325000Y-41406250D02*
X313325000Y-45306250D01*
X315325000Y-41406250D02*
X315325000Y-45306250D01*
X313325000Y-41406250D02*
X315325000Y-41406250D01*
X294275000Y-41468750D02*
X294275000Y-45368750D01*
X296275000Y-41468750D02*
X296275000Y-45368750D01*
X294275000Y-41468750D02*
X296275000Y-41468750D01*
X275225000Y-41406250D02*
X275225000Y-45306250D01*
X277225000Y-41406250D02*
X277225000Y-45306250D01*
X275225000Y-41406250D02*
X277225000Y-41406250D01*
X256175000Y-41468750D02*
X256175000Y-45368750D01*
X258175000Y-41468750D02*
X258175000Y-45368750D01*
X256175000Y-41468750D02*
X258175000Y-41468750D01*
X237125000Y-41406250D02*
X237125000Y-45306250D01*
X239125000Y-41406250D02*
X239125000Y-45306250D01*
X237125000Y-41406250D02*
X239125000Y-41406250D01*
X218075000Y-41468750D02*
X218075000Y-45368750D01*
X220075000Y-41468750D02*
X220075000Y-45368750D01*
X218075000Y-41468750D02*
X220075000Y-41468750D01*
X199025000Y-41468750D02*
X199025000Y-45368750D01*
X201025000Y-41468750D02*
X201025000Y-45368750D01*
X199025000Y-41468750D02*
X201025000Y-41468750D01*
X179975000Y-41468750D02*
X179975000Y-45368750D01*
X181975000Y-41468750D02*
X181975000Y-45368750D01*
X179975000Y-41468750D02*
X181975000Y-41468750D01*
X94250000Y-79568750D02*
X94250000Y-83468750D01*
X96250000Y-79568750D02*
X96250000Y-83468750D01*
X94250000Y-79568750D02*
X96250000Y-79568750D01*
X75200000Y-79506250D02*
X75200000Y-83406250D01*
X77200000Y-79506250D02*
X77200000Y-83406250D01*
X75200000Y-79506250D02*
X77200000Y-79506250D01*
X51387500Y-79506250D02*
X51387500Y-83406250D01*
X53387500Y-79506250D02*
X53387500Y-83406250D01*
X51387500Y-79506250D02*
X53387500Y-79506250D01*
X19637500Y-79568750D02*
X19637500Y-83468750D01*
X21637500Y-79568750D02*
X21637500Y-83468750D01*
X19637500Y-79568750D02*
X21637500Y-79568750D01*
X84725000Y-60456250D02*
X84725000Y-64356250D01*
X86725000Y-60456250D02*
X86725000Y-64356250D01*
X84725000Y-60456250D02*
X86725000Y-60456250D01*
X65675000Y-60518750D02*
X65675000Y-64418750D01*
X67675000Y-60518750D02*
X67675000Y-64418750D01*
X65675000Y-60518750D02*
X67675000Y-60518750D01*
X46625000Y-60518750D02*
X46625000Y-64418750D01*
X48625000Y-60518750D02*
X48625000Y-64418750D01*
X46625000Y-60518750D02*
X48625000Y-60518750D01*
X19637500Y-60518750D02*
X19637500Y-64418750D01*
X21637500Y-60518750D02*
X21637500Y-64418750D01*
X19637500Y-60518750D02*
X21637500Y-60518750D01*
X84725000Y-41468750D02*
X84725000Y-45368750D01*
X86725000Y-41468750D02*
X86725000Y-45368750D01*
X84725000Y-41468750D02*
X86725000Y-41468750D01*
X65675000Y-41468750D02*
X65675000Y-45368750D01*
X67675000Y-41468750D02*
X67675000Y-45368750D01*
X65675000Y-41468750D02*
X67675000Y-41468750D01*
X46625000Y-41406250D02*
X46625000Y-45306250D01*
X48625000Y-41406250D02*
X48625000Y-45306250D01*
X46625000Y-41406250D02*
X48625000Y-41406250D01*
X19637500Y-41406250D02*
X19637500Y-45306250D01*
X21637500Y-41406250D02*
X21637500Y-45306250D01*
X19637500Y-41406250D02*
X21637500Y-41406250D01*
X160925000Y-41406250D02*
X160925000Y-45306250D01*
X162925000Y-41406250D02*
X162925000Y-45306250D01*
X160925000Y-41406250D02*
X162925000Y-41406250D01*
X141875000Y-41468750D02*
X141875000Y-45368750D01*
X143875000Y-41468750D02*
X143875000Y-45368750D01*
X141875000Y-41468750D02*
X143875000Y-41468750D01*
X122825000Y-41468750D02*
X122825000Y-45368750D01*
X124825000Y-41468750D02*
X124825000Y-45368750D01*
X122825000Y-41468750D02*
X124825000Y-41468750D01*
X103775000Y-41406250D02*
X103775000Y-45306250D01*
X105775000Y-41406250D02*
X105775000Y-45306250D01*
X103775000Y-41406250D02*
X105775000Y-41406250D01*
X391725000Y-51556250D02*
X388775000Y-51556250D01*
X389325000Y-48456250D02*
X391725000Y-48456250D01*
D12*
X402152380Y-43633333D02*
X401676190Y-43300000D01*
X402152380Y-43061904D02*
X401152380Y-43061904D01*
X401152380Y-43442857D01*
X401200000Y-43538095D01*
X401247619Y-43585714D01*
X401342857Y-43633333D01*
X401485714Y-43633333D01*
X401580952Y-43585714D01*
X401628571Y-43538095D01*
X401676190Y-43442857D01*
X401676190Y-43061904D01*
X401152380Y-44490476D02*
X401152380Y-44300000D01*
X401200000Y-44204761D01*
X401247619Y-44157142D01*
X401390476Y-44061904D01*
X401580952Y-44014285D01*
X401961904Y-44014285D01*
X402057142Y-44061904D01*
X402104761Y-44109523D01*
X402152380Y-44204761D01*
X402152380Y-44395238D01*
X402104761Y-44490476D01*
X402057142Y-44538095D01*
X401961904Y-44585714D01*
X401723809Y-44585714D01*
X401628571Y-44538095D01*
X401580952Y-44490476D01*
X401533333Y-44395238D01*
X401533333Y-44204761D01*
X401580952Y-44109523D01*
X401628571Y-44061904D01*
X401723809Y-44014285D01*
X387739880Y-79352083D02*
X387263690Y-79018750D01*
X387739880Y-78780654D02*
X386739880Y-78780654D01*
X386739880Y-79161607D01*
X386787500Y-79256845D01*
X386835119Y-79304464D01*
X386930357Y-79352083D01*
X387073214Y-79352083D01*
X387168452Y-79304464D01*
X387216071Y-79256845D01*
X387263690Y-79161607D01*
X387263690Y-78780654D01*
X386739880Y-80256845D02*
X386739880Y-79780654D01*
X387216071Y-79733035D01*
X387168452Y-79780654D01*
X387120833Y-79875892D01*
X387120833Y-80113988D01*
X387168452Y-80209226D01*
X387216071Y-80256845D01*
X387311309Y-80304464D01*
X387549404Y-80304464D01*
X387644642Y-80256845D01*
X387692261Y-80209226D01*
X387739880Y-80113988D01*
X387739880Y-79875892D01*
X387692261Y-79780654D01*
X387644642Y-79733035D01*
X395802380Y-49839583D02*
X395326190Y-49506250D01*
X395802380Y-49268154D02*
X394802380Y-49268154D01*
X394802380Y-49649107D01*
X394850000Y-49744345D01*
X394897619Y-49791964D01*
X394992857Y-49839583D01*
X395135714Y-49839583D01*
X395230952Y-49791964D01*
X395278571Y-49744345D01*
X395326190Y-49649107D01*
X395326190Y-49268154D01*
X394802380Y-50172916D02*
X394802380Y-50791964D01*
X395183333Y-50458630D01*
X395183333Y-50601488D01*
X395230952Y-50696726D01*
X395278571Y-50744345D01*
X395373809Y-50791964D01*
X395611904Y-50791964D01*
X395707142Y-50744345D01*
X395754761Y-50696726D01*
X395802380Y-50601488D01*
X395802380Y-50315773D01*
X395754761Y-50220535D01*
X395707142Y-50172916D01*
X398183630Y-49839583D02*
X397707440Y-49506250D01*
X398183630Y-49268154D02*
X397183630Y-49268154D01*
X397183630Y-49649107D01*
X397231250Y-49744345D01*
X397278869Y-49791964D01*
X397374107Y-49839583D01*
X397516964Y-49839583D01*
X397612202Y-49791964D01*
X397659821Y-49744345D01*
X397707440Y-49649107D01*
X397707440Y-49268154D01*
X397278869Y-50220535D02*
X397231250Y-50268154D01*
X397183630Y-50363392D01*
X397183630Y-50601488D01*
X397231250Y-50696726D01*
X397278869Y-50744345D01*
X397374107Y-50791964D01*
X397469345Y-50791964D01*
X397612202Y-50744345D01*
X398183630Y-50172916D01*
X398183630Y-50791964D01*
X387071130Y-49839583D02*
X386594940Y-49506250D01*
X387071130Y-49268154D02*
X386071130Y-49268154D01*
X386071130Y-49649107D01*
X386118750Y-49744345D01*
X386166369Y-49791964D01*
X386261607Y-49839583D01*
X386404464Y-49839583D01*
X386499702Y-49791964D01*
X386547321Y-49744345D01*
X386594940Y-49649107D01*
X386594940Y-49268154D01*
X387071130Y-50791964D02*
X387071130Y-50220535D01*
X387071130Y-50506250D02*
X386071130Y-50506250D01*
X386213988Y-50411011D01*
X386309226Y-50315773D01*
X386356845Y-50220535D01*
X389452380Y-49839583D02*
X388976190Y-49506250D01*
X389452380Y-49268154D02*
X388452380Y-49268154D01*
X388452380Y-49649107D01*
X388500000Y-49744345D01*
X388547619Y-49791964D01*
X388642857Y-49839583D01*
X388785714Y-49839583D01*
X388880952Y-49791964D01*
X388928571Y-49744345D01*
X388976190Y-49649107D01*
X388976190Y-49268154D01*
X388785714Y-50696726D02*
X389452380Y-50696726D01*
X388404761Y-50458630D02*
X389119047Y-50220535D01*
X389119047Y-50839583D01*
X374022916Y-56077380D02*
X374356250Y-55601190D01*
X374594345Y-56077380D02*
X374594345Y-55077380D01*
X374213392Y-55077380D01*
X374118154Y-55125000D01*
X374070535Y-55172619D01*
X374022916Y-55267857D01*
X374022916Y-55410714D01*
X374070535Y-55505952D01*
X374118154Y-55553571D01*
X374213392Y-55601190D01*
X374594345Y-55601190D01*
X373689583Y-55077380D02*
X373022916Y-55077380D01*
X373451488Y-56077380D01*
X385933630Y-62738095D02*
X386743154Y-62738095D01*
X386838392Y-62785714D01*
X386886011Y-62833333D01*
X386933630Y-62928571D01*
X386933630Y-63119047D01*
X386886011Y-63214285D01*
X386838392Y-63261904D01*
X386743154Y-63309523D01*
X385933630Y-63309523D01*
X386933630Y-64309523D02*
X386933630Y-63738095D01*
X386933630Y-64023809D02*
X385933630Y-64023809D01*
X386076488Y-63928571D01*
X386171726Y-63833333D01*
X386219345Y-63738095D01*
X408826190Y-69373809D02*
X409302380Y-69373809D01*
X408302380Y-69040476D02*
X408826190Y-69373809D01*
X408302380Y-69707142D01*
X409302380Y-70564285D02*
X409302380Y-69992857D01*
X409302380Y-70278571D02*
X408302380Y-70278571D01*
X408445238Y-70183333D01*
X408540476Y-70088095D01*
X408588095Y-69992857D01*
X401004821Y-48879166D02*
X401004821Y-48545833D01*
X401528630Y-48545833D02*
X400528630Y-48545833D01*
X400528630Y-49022023D01*
X401528630Y-49926785D02*
X401528630Y-49355357D01*
X401528630Y-49641071D02*
X400528630Y-49641071D01*
X400671488Y-49545833D01*
X400766726Y-49450595D01*
X400814345Y-49355357D01*
X404979166Y-53600892D02*
X405026785Y-53648511D01*
X405169642Y-53696130D01*
X405264880Y-53696130D01*
X405407738Y-53648511D01*
X405502976Y-53553273D01*
X405550595Y-53458035D01*
X405598214Y-53267559D01*
X405598214Y-53124702D01*
X405550595Y-52934226D01*
X405502976Y-52838988D01*
X405407738Y-52743750D01*
X405264880Y-52696130D01*
X405169642Y-52696130D01*
X405026785Y-52743750D01*
X404979166Y-52791369D01*
X404122023Y-53029464D02*
X404122023Y-53696130D01*
X404360119Y-52648511D02*
X404598214Y-53362797D01*
X403979166Y-53362797D01*
X404979166Y-60744642D02*
X405026785Y-60792261D01*
X405169642Y-60839880D01*
X405264880Y-60839880D01*
X405407738Y-60792261D01*
X405502976Y-60697023D01*
X405550595Y-60601785D01*
X405598214Y-60411309D01*
X405598214Y-60268452D01*
X405550595Y-60077976D01*
X405502976Y-59982738D01*
X405407738Y-59887500D01*
X405264880Y-59839880D01*
X405169642Y-59839880D01*
X405026785Y-59887500D01*
X404979166Y-59935119D01*
X404645833Y-59839880D02*
X403979166Y-59839880D01*
X404407738Y-60839880D01*
X404979166Y-58363392D02*
X405026785Y-58411011D01*
X405169642Y-58458630D01*
X405264880Y-58458630D01*
X405407738Y-58411011D01*
X405502976Y-58315773D01*
X405550595Y-58220535D01*
X405598214Y-58030059D01*
X405598214Y-57887202D01*
X405550595Y-57696726D01*
X405502976Y-57601488D01*
X405407738Y-57506250D01*
X405264880Y-57458630D01*
X405169642Y-57458630D01*
X405026785Y-57506250D01*
X404979166Y-57553869D01*
X404122023Y-57458630D02*
X404312500Y-57458630D01*
X404407738Y-57506250D01*
X404455357Y-57553869D01*
X404550595Y-57696726D01*
X404598214Y-57887202D01*
X404598214Y-58268154D01*
X404550595Y-58363392D01*
X404502976Y-58411011D01*
X404407738Y-58458630D01*
X404217261Y-58458630D01*
X404122023Y-58411011D01*
X404074404Y-58363392D01*
X404026785Y-58268154D01*
X404026785Y-58030059D01*
X404074404Y-57934821D01*
X404122023Y-57887202D01*
X404217261Y-57839583D01*
X404407738Y-57839583D01*
X404502976Y-57887202D01*
X404550595Y-57934821D01*
X404598214Y-58030059D01*
X404979166Y-55982142D02*
X405026785Y-56029761D01*
X405169642Y-56077380D01*
X405264880Y-56077380D01*
X405407738Y-56029761D01*
X405502976Y-55934523D01*
X405550595Y-55839285D01*
X405598214Y-55648809D01*
X405598214Y-55505952D01*
X405550595Y-55315476D01*
X405502976Y-55220238D01*
X405407738Y-55125000D01*
X405264880Y-55077380D01*
X405169642Y-55077380D01*
X405026785Y-55125000D01*
X404979166Y-55172619D01*
X404074404Y-55077380D02*
X404550595Y-55077380D01*
X404598214Y-55553571D01*
X404550595Y-55505952D01*
X404455357Y-55458333D01*
X404217261Y-55458333D01*
X404122023Y-55505952D01*
X404074404Y-55553571D01*
X404026785Y-55648809D01*
X404026785Y-55886904D01*
X404074404Y-55982142D01*
X404122023Y-56029761D01*
X404217261Y-56077380D01*
X404455357Y-56077380D01*
X404550595Y-56029761D01*
X404598214Y-55982142D01*
X404979166Y-65507142D02*
X405026785Y-65554761D01*
X405169642Y-65602380D01*
X405264880Y-65602380D01*
X405407738Y-65554761D01*
X405502976Y-65459523D01*
X405550595Y-65364285D01*
X405598214Y-65173809D01*
X405598214Y-65030952D01*
X405550595Y-64840476D01*
X405502976Y-64745238D01*
X405407738Y-64650000D01*
X405264880Y-64602380D01*
X405169642Y-64602380D01*
X405026785Y-64650000D01*
X404979166Y-64697619D01*
X404502976Y-65602380D02*
X404312500Y-65602380D01*
X404217261Y-65554761D01*
X404169642Y-65507142D01*
X404074404Y-65364285D01*
X404026785Y-65173809D01*
X404026785Y-64792857D01*
X404074404Y-64697619D01*
X404122023Y-64650000D01*
X404217261Y-64602380D01*
X404407738Y-64602380D01*
X404502976Y-64650000D01*
X404550595Y-64697619D01*
X404598214Y-64792857D01*
X404598214Y-65030952D01*
X404550595Y-65126190D01*
X404502976Y-65173809D01*
X404407738Y-65221428D01*
X404217261Y-65221428D01*
X404122023Y-65173809D01*
X404074404Y-65126190D01*
X404026785Y-65030952D01*
X404979166Y-63125892D02*
X405026785Y-63173511D01*
X405169642Y-63221130D01*
X405264880Y-63221130D01*
X405407738Y-63173511D01*
X405502976Y-63078273D01*
X405550595Y-62983035D01*
X405598214Y-62792559D01*
X405598214Y-62649702D01*
X405550595Y-62459226D01*
X405502976Y-62363988D01*
X405407738Y-62268750D01*
X405264880Y-62221130D01*
X405169642Y-62221130D01*
X405026785Y-62268750D01*
X404979166Y-62316369D01*
X404407738Y-62649702D02*
X404502976Y-62602083D01*
X404550595Y-62554464D01*
X404598214Y-62459226D01*
X404598214Y-62411607D01*
X404550595Y-62316369D01*
X404502976Y-62268750D01*
X404407738Y-62221130D01*
X404217261Y-62221130D01*
X404122023Y-62268750D01*
X404074404Y-62316369D01*
X404026785Y-62411607D01*
X404026785Y-62459226D01*
X404074404Y-62554464D01*
X404122023Y-62602083D01*
X404217261Y-62649702D01*
X404407738Y-62649702D01*
X404502976Y-62697321D01*
X404550595Y-62744940D01*
X404598214Y-62840178D01*
X404598214Y-63030654D01*
X404550595Y-63125892D01*
X404502976Y-63173511D01*
X404407738Y-63221130D01*
X404217261Y-63221130D01*
X404122023Y-63173511D01*
X404074404Y-63125892D01*
X404026785Y-63030654D01*
X404026785Y-62840178D01*
X404074404Y-62744940D01*
X404122023Y-62697321D01*
X404217261Y-62649702D01*
X406566666Y-75032142D02*
X406614285Y-75079761D01*
X406757142Y-75127380D01*
X406852380Y-75127380D01*
X406995238Y-75079761D01*
X407090476Y-74984523D01*
X407138095Y-74889285D01*
X407185714Y-74698809D01*
X407185714Y-74555952D01*
X407138095Y-74365476D01*
X407090476Y-74270238D01*
X406995238Y-74175000D01*
X406852380Y-74127380D01*
X406757142Y-74127380D01*
X406614285Y-74175000D01*
X406566666Y-74222619D01*
X406185714Y-74222619D02*
X406138095Y-74175000D01*
X406042857Y-74127380D01*
X405804761Y-74127380D01*
X405709523Y-74175000D01*
X405661904Y-74222619D01*
X405614285Y-74317857D01*
X405614285Y-74413095D01*
X405661904Y-74555952D01*
X406233333Y-75127380D01*
X405614285Y-75127380D01*
X401154166Y-55188392D02*
X401201785Y-55236011D01*
X401344642Y-55283630D01*
X401439880Y-55283630D01*
X401582738Y-55236011D01*
X401677976Y-55140773D01*
X401725595Y-55045535D01*
X401773214Y-54855059D01*
X401773214Y-54712202D01*
X401725595Y-54521726D01*
X401677976Y-54426488D01*
X401582738Y-54331250D01*
X401439880Y-54283630D01*
X401344642Y-54283630D01*
X401201785Y-54331250D01*
X401154166Y-54378869D01*
X400201785Y-55283630D02*
X400773214Y-55283630D01*
X400487500Y-55283630D02*
X400487500Y-54283630D01*
X400582738Y-54426488D01*
X400677976Y-54521726D01*
X400773214Y-54569345D01*
X406566666Y-65382142D02*
X406614285Y-65429761D01*
X406757142Y-65477380D01*
X406852380Y-65477380D01*
X406995238Y-65429761D01*
X407090476Y-65334523D01*
X407138095Y-65239285D01*
X407185714Y-65048809D01*
X407185714Y-64905952D01*
X407138095Y-64715476D01*
X407090476Y-64620238D01*
X406995238Y-64525000D01*
X406852380Y-64477380D01*
X406757142Y-64477380D01*
X406614285Y-64525000D01*
X406566666Y-64572619D01*
X406233333Y-64477380D02*
X405614285Y-64477380D01*
X405947619Y-64858333D01*
X405804761Y-64858333D01*
X405709523Y-64905952D01*
X405661904Y-64953571D01*
X405614285Y-65048809D01*
X405614285Y-65286904D01*
X405661904Y-65382142D01*
X405709523Y-65429761D01*
X405804761Y-65477380D01*
X406090476Y-65477380D01*
X406185714Y-65429761D01*
X406233333Y-65382142D01*
X392263095Y-45371130D02*
X392263095Y-46180654D01*
X392215476Y-46275892D01*
X392167857Y-46323511D01*
X392072619Y-46371130D01*
X391882142Y-46371130D01*
X391786904Y-46323511D01*
X391739285Y-46275892D01*
X391691666Y-46180654D01*
X391691666Y-45371130D01*
X391263095Y-46323511D02*
X391120238Y-46371130D01*
X390882142Y-46371130D01*
X390786904Y-46323511D01*
X390739285Y-46275892D01*
X390691666Y-46180654D01*
X390691666Y-46085416D01*
X390739285Y-45990178D01*
X390786904Y-45942559D01*
X390882142Y-45894940D01*
X391072619Y-45847321D01*
X391167857Y-45799702D01*
X391215476Y-45752083D01*
X391263095Y-45656845D01*
X391263095Y-45561607D01*
X391215476Y-45466369D01*
X391167857Y-45418750D01*
X391072619Y-45371130D01*
X390834523Y-45371130D01*
X390691666Y-45418750D01*
X389929761Y-45847321D02*
X389786904Y-45894940D01*
X389739285Y-45942559D01*
X389691666Y-46037797D01*
X389691666Y-46180654D01*
X389739285Y-46275892D01*
X389786904Y-46323511D01*
X389882142Y-46371130D01*
X390263095Y-46371130D01*
X390263095Y-45371130D01*
X389929761Y-45371130D01*
X389834523Y-45418750D01*
X389786904Y-45466369D01*
X389739285Y-45561607D01*
X389739285Y-45656845D01*
X389786904Y-45752083D01*
X389834523Y-45799702D01*
X389929761Y-45847321D01*
X390263095Y-45847321D01*
X388739285Y-46371130D02*
X389310714Y-46371130D01*
X389025000Y-46371130D02*
X389025000Y-45371130D01*
X389120238Y-45513988D01*
X389215476Y-45609226D01*
X389310714Y-45656845D01*
X409281261Y-43910416D02*
X409328880Y-44053273D01*
X409328880Y-44291369D01*
X409281261Y-44386607D01*
X409233642Y-44434226D01*
X409138404Y-44481845D01*
X409043166Y-44481845D01*
X408947928Y-44434226D01*
X408900309Y-44386607D01*
X408852690Y-44291369D01*
X408805071Y-44100892D01*
X408757452Y-44005654D01*
X408709833Y-43958035D01*
X408614595Y-43910416D01*
X408519357Y-43910416D01*
X408424119Y-43958035D01*
X408376500Y-44005654D01*
X408328880Y-44100892D01*
X408328880Y-44338988D01*
X408376500Y-44481845D01*
X408328880Y-44815178D02*
X409328880Y-45053273D01*
X408614595Y-45243750D01*
X409328880Y-45434226D01*
X408328880Y-45672321D01*
X409328880Y-46577083D02*
X409328880Y-46005654D01*
X409328880Y-46291369D02*
X408328880Y-46291369D01*
X408471738Y-46196130D01*
X408566976Y-46100892D01*
X408614595Y-46005654D01*
X401414880Y-125233571D02*
X400414880Y-125233571D01*
X401129166Y-125566904D01*
X400414880Y-125900238D01*
X401414880Y-125900238D01*
X401414880Y-126376428D02*
X400414880Y-126376428D01*
X401367261Y-126805000D02*
X401414880Y-126947857D01*
X401414880Y-127185952D01*
X401367261Y-127281190D01*
X401319642Y-127328809D01*
X401224404Y-127376428D01*
X401129166Y-127376428D01*
X401033928Y-127328809D01*
X400986309Y-127281190D01*
X400938690Y-127185952D01*
X400891071Y-126995476D01*
X400843452Y-126900238D01*
X400795833Y-126852619D01*
X400700595Y-126805000D01*
X400605357Y-126805000D01*
X400510119Y-126852619D01*
X400462500Y-126900238D01*
X400414880Y-126995476D01*
X400414880Y-127233571D01*
X400462500Y-127376428D01*
X400414880Y-127995476D02*
X400414880Y-128185952D01*
X400462500Y-128281190D01*
X400557738Y-128376428D01*
X400748214Y-128424047D01*
X401081547Y-128424047D01*
X401272023Y-128376428D01*
X401367261Y-128281190D01*
X401414880Y-128185952D01*
X401414880Y-127995476D01*
X401367261Y-127900238D01*
X401272023Y-127805000D01*
X401081547Y-127757380D01*
X400748214Y-127757380D01*
X400557738Y-127805000D01*
X400462500Y-127900238D01*
X400414880Y-127995476D01*
X400414880Y-117221666D02*
X401414880Y-117555000D01*
X400414880Y-117888333D01*
X401319642Y-118793095D02*
X401367261Y-118745476D01*
X401414880Y-118602619D01*
X401414880Y-118507380D01*
X401367261Y-118364523D01*
X401272023Y-118269285D01*
X401176785Y-118221666D01*
X400986309Y-118174047D01*
X400843452Y-118174047D01*
X400652976Y-118221666D01*
X400557738Y-118269285D01*
X400462500Y-118364523D01*
X400414880Y-118507380D01*
X400414880Y-118602619D01*
X400462500Y-118745476D01*
X400510119Y-118793095D01*
X401319642Y-119793095D02*
X401367261Y-119745476D01*
X401414880Y-119602619D01*
X401414880Y-119507380D01*
X401367261Y-119364523D01*
X401272023Y-119269285D01*
X401176785Y-119221666D01*
X400986309Y-119174047D01*
X400843452Y-119174047D01*
X400652976Y-119221666D01*
X400557738Y-119269285D01*
X400462500Y-119364523D01*
X400414880Y-119507380D01*
X400414880Y-119602619D01*
X400462500Y-119745476D01*
X400510119Y-119793095D01*
X398867261Y-125269285D02*
X398914880Y-125412142D01*
X398914880Y-125650238D01*
X398867261Y-125745476D01*
X398819642Y-125793095D01*
X398724404Y-125840714D01*
X398629166Y-125840714D01*
X398533928Y-125793095D01*
X398486309Y-125745476D01*
X398438690Y-125650238D01*
X398391071Y-125459761D01*
X398343452Y-125364523D01*
X398295833Y-125316904D01*
X398200595Y-125269285D01*
X398105357Y-125269285D01*
X398010119Y-125316904D01*
X397962500Y-125364523D01*
X397914880Y-125459761D01*
X397914880Y-125697857D01*
X397962500Y-125840714D01*
X398819642Y-126840714D02*
X398867261Y-126793095D01*
X398914880Y-126650238D01*
X398914880Y-126555000D01*
X398867261Y-126412142D01*
X398772023Y-126316904D01*
X398676785Y-126269285D01*
X398486309Y-126221666D01*
X398343452Y-126221666D01*
X398152976Y-126269285D01*
X398057738Y-126316904D01*
X397962500Y-126412142D01*
X397914880Y-126555000D01*
X397914880Y-126650238D01*
X397962500Y-126793095D01*
X398010119Y-126840714D01*
X398914880Y-127269285D02*
X397914880Y-127269285D01*
X398914880Y-127840714D02*
X398343452Y-127412142D01*
X397914880Y-127840714D02*
X398486309Y-127269285D01*
X398914880Y-116733571D02*
X397914880Y-116733571D01*
X398629166Y-117066904D01*
X397914880Y-117400238D01*
X398914880Y-117400238D01*
X397914880Y-118066904D02*
X397914880Y-118257380D01*
X397962500Y-118352619D01*
X398057738Y-118447857D01*
X398248214Y-118495476D01*
X398581547Y-118495476D01*
X398772023Y-118447857D01*
X398867261Y-118352619D01*
X398914880Y-118257380D01*
X398914880Y-118066904D01*
X398867261Y-117971666D01*
X398772023Y-117876428D01*
X398581547Y-117828809D01*
X398248214Y-117828809D01*
X398057738Y-117876428D01*
X397962500Y-117971666D01*
X397914880Y-118066904D01*
X398867261Y-118876428D02*
X398914880Y-119019285D01*
X398914880Y-119257380D01*
X398867261Y-119352619D01*
X398819642Y-119400238D01*
X398724404Y-119447857D01*
X398629166Y-119447857D01*
X398533928Y-119400238D01*
X398486309Y-119352619D01*
X398438690Y-119257380D01*
X398391071Y-119066904D01*
X398343452Y-118971666D01*
X398295833Y-118924047D01*
X398200595Y-118876428D01*
X398105357Y-118876428D01*
X398010119Y-118924047D01*
X397962500Y-118971666D01*
X397914880Y-119066904D01*
X397914880Y-119305000D01*
X397962500Y-119447857D01*
X398914880Y-119876428D02*
X397914880Y-119876428D01*
X396414880Y-126257380D02*
X395938690Y-125924047D01*
X396414880Y-125685952D02*
X395414880Y-125685952D01*
X395414880Y-126066904D01*
X395462500Y-126162142D01*
X395510119Y-126209761D01*
X395605357Y-126257380D01*
X395748214Y-126257380D01*
X395843452Y-126209761D01*
X395891071Y-126162142D01*
X395938690Y-126066904D01*
X395938690Y-125685952D01*
X396367261Y-126638333D02*
X396414880Y-126781190D01*
X396414880Y-127019285D01*
X396367261Y-127114523D01*
X396319642Y-127162142D01*
X396224404Y-127209761D01*
X396129166Y-127209761D01*
X396033928Y-127162142D01*
X395986309Y-127114523D01*
X395938690Y-127019285D01*
X395891071Y-126828809D01*
X395843452Y-126733571D01*
X395795833Y-126685952D01*
X395700595Y-126638333D01*
X395605357Y-126638333D01*
X395510119Y-126685952D01*
X395462500Y-126733571D01*
X395414880Y-126828809D01*
X395414880Y-127066904D01*
X395462500Y-127209761D01*
X395414880Y-127495476D02*
X395414880Y-128066904D01*
X396414880Y-127781190D02*
X395414880Y-127781190D01*
X395462500Y-117543095D02*
X395414880Y-117447857D01*
X395414880Y-117305000D01*
X395462500Y-117162142D01*
X395557738Y-117066904D01*
X395652976Y-117019285D01*
X395843452Y-116971666D01*
X395986309Y-116971666D01*
X396176785Y-117019285D01*
X396272023Y-117066904D01*
X396367261Y-117162142D01*
X396414880Y-117305000D01*
X396414880Y-117400238D01*
X396367261Y-117543095D01*
X396319642Y-117590714D01*
X395986309Y-117590714D01*
X395986309Y-117400238D01*
X396414880Y-118019285D02*
X395414880Y-118019285D01*
X396414880Y-118590714D01*
X395414880Y-118590714D01*
X396414880Y-119066904D02*
X395414880Y-119066904D01*
X395414880Y-119305000D01*
X395462500Y-119447857D01*
X395557738Y-119543095D01*
X395652976Y-119590714D01*
X395843452Y-119638333D01*
X395986309Y-119638333D01*
X396176785Y-119590714D01*
X396272023Y-119543095D01*
X396367261Y-119447857D01*
X396414880Y-119305000D01*
X396414880Y-119066904D01*
X358814880Y-145215773D02*
X357814880Y-145215773D01*
X357814880Y-145453869D01*
X357862500Y-145596726D01*
X357957738Y-145691964D01*
X358052976Y-145739583D01*
X358243452Y-145787202D01*
X358386309Y-145787202D01*
X358576785Y-145739583D01*
X358672023Y-145691964D01*
X358767261Y-145596726D01*
X358814880Y-145453869D01*
X358814880Y-145215773D01*
X358814880Y-146739583D02*
X358814880Y-146168154D01*
X358814880Y-146453869D02*
X357814880Y-146453869D01*
X357957738Y-146358630D01*
X358052976Y-146263392D01*
X358100595Y-146168154D01*
X357814880Y-147358630D02*
X357814880Y-147453869D01*
X357862500Y-147549107D01*
X357910119Y-147596726D01*
X358005357Y-147644345D01*
X358195833Y-147691964D01*
X358433928Y-147691964D01*
X358624404Y-147644345D01*
X358719642Y-147596726D01*
X358767261Y-147549107D01*
X358814880Y-147453869D01*
X358814880Y-147358630D01*
X358767261Y-147263392D01*
X358719642Y-147215773D01*
X358624404Y-147168154D01*
X358433928Y-147120535D01*
X358195833Y-147120535D01*
X358005357Y-147168154D01*
X357910119Y-147215773D01*
X357862500Y-147263392D01*
X357814880Y-147358630D01*
X357814880Y-148549107D02*
X357814880Y-148358630D01*
X357862500Y-148263392D01*
X357910119Y-148215773D01*
X358052976Y-148120535D01*
X358243452Y-148072916D01*
X358624404Y-148072916D01*
X358719642Y-148120535D01*
X358767261Y-148168154D01*
X358814880Y-148263392D01*
X358814880Y-148453869D01*
X358767261Y-148549107D01*
X358719642Y-148596726D01*
X358624404Y-148644345D01*
X358386309Y-148644345D01*
X358291071Y-148596726D01*
X358243452Y-148549107D01*
X358195833Y-148453869D01*
X358195833Y-148263392D01*
X358243452Y-148168154D01*
X358291071Y-148120535D01*
X358386309Y-148072916D01*
X339764880Y-145215773D02*
X338764880Y-145215773D01*
X338764880Y-145453869D01*
X338812500Y-145596726D01*
X338907738Y-145691964D01*
X339002976Y-145739583D01*
X339193452Y-145787202D01*
X339336309Y-145787202D01*
X339526785Y-145739583D01*
X339622023Y-145691964D01*
X339717261Y-145596726D01*
X339764880Y-145453869D01*
X339764880Y-145215773D01*
X339764880Y-146739583D02*
X339764880Y-146168154D01*
X339764880Y-146453869D02*
X338764880Y-146453869D01*
X338907738Y-146358630D01*
X339002976Y-146263392D01*
X339050595Y-146168154D01*
X338764880Y-147358630D02*
X338764880Y-147453869D01*
X338812500Y-147549107D01*
X338860119Y-147596726D01*
X338955357Y-147644345D01*
X339145833Y-147691964D01*
X339383928Y-147691964D01*
X339574404Y-147644345D01*
X339669642Y-147596726D01*
X339717261Y-147549107D01*
X339764880Y-147453869D01*
X339764880Y-147358630D01*
X339717261Y-147263392D01*
X339669642Y-147215773D01*
X339574404Y-147168154D01*
X339383928Y-147120535D01*
X339145833Y-147120535D01*
X338955357Y-147168154D01*
X338860119Y-147215773D01*
X338812500Y-147263392D01*
X338764880Y-147358630D01*
X338764880Y-148596726D02*
X338764880Y-148120535D01*
X339241071Y-148072916D01*
X339193452Y-148120535D01*
X339145833Y-148215773D01*
X339145833Y-148453869D01*
X339193452Y-148549107D01*
X339241071Y-148596726D01*
X339336309Y-148644345D01*
X339574404Y-148644345D01*
X339669642Y-148596726D01*
X339717261Y-148549107D01*
X339764880Y-148453869D01*
X339764880Y-148215773D01*
X339717261Y-148120535D01*
X339669642Y-148072916D01*
X320714880Y-145215773D02*
X319714880Y-145215773D01*
X319714880Y-145453869D01*
X319762500Y-145596726D01*
X319857738Y-145691964D01*
X319952976Y-145739583D01*
X320143452Y-145787202D01*
X320286309Y-145787202D01*
X320476785Y-145739583D01*
X320572023Y-145691964D01*
X320667261Y-145596726D01*
X320714880Y-145453869D01*
X320714880Y-145215773D01*
X320714880Y-146739583D02*
X320714880Y-146168154D01*
X320714880Y-146453869D02*
X319714880Y-146453869D01*
X319857738Y-146358630D01*
X319952976Y-146263392D01*
X320000595Y-146168154D01*
X319714880Y-147358630D02*
X319714880Y-147453869D01*
X319762500Y-147549107D01*
X319810119Y-147596726D01*
X319905357Y-147644345D01*
X320095833Y-147691964D01*
X320333928Y-147691964D01*
X320524404Y-147644345D01*
X320619642Y-147596726D01*
X320667261Y-147549107D01*
X320714880Y-147453869D01*
X320714880Y-147358630D01*
X320667261Y-147263392D01*
X320619642Y-147215773D01*
X320524404Y-147168154D01*
X320333928Y-147120535D01*
X320095833Y-147120535D01*
X319905357Y-147168154D01*
X319810119Y-147215773D01*
X319762500Y-147263392D01*
X319714880Y-147358630D01*
X320048214Y-148549107D02*
X320714880Y-148549107D01*
X319667261Y-148311011D02*
X320381547Y-148072916D01*
X320381547Y-148691964D01*
X284202380Y-137215773D02*
X283202380Y-137215773D01*
X283202380Y-137453869D01*
X283250000Y-137596726D01*
X283345238Y-137691964D01*
X283440476Y-137739583D01*
X283630952Y-137787202D01*
X283773809Y-137787202D01*
X283964285Y-137739583D01*
X284059523Y-137691964D01*
X284154761Y-137596726D01*
X284202380Y-137453869D01*
X284202380Y-137215773D01*
X284202380Y-138739583D02*
X284202380Y-138168154D01*
X284202380Y-138453869D02*
X283202380Y-138453869D01*
X283345238Y-138358630D01*
X283440476Y-138263392D01*
X283488095Y-138168154D01*
X283202380Y-139358630D02*
X283202380Y-139453869D01*
X283250000Y-139549107D01*
X283297619Y-139596726D01*
X283392857Y-139644345D01*
X283583333Y-139691964D01*
X283821428Y-139691964D01*
X284011904Y-139644345D01*
X284107142Y-139596726D01*
X284154761Y-139549107D01*
X284202380Y-139453869D01*
X284202380Y-139358630D01*
X284154761Y-139263392D01*
X284107142Y-139215773D01*
X284011904Y-139168154D01*
X283821428Y-139120535D01*
X283583333Y-139120535D01*
X283392857Y-139168154D01*
X283297619Y-139215773D01*
X283250000Y-139263392D01*
X283202380Y-139358630D01*
X283297619Y-140072916D02*
X283250000Y-140120535D01*
X283202380Y-140215773D01*
X283202380Y-140453869D01*
X283250000Y-140549107D01*
X283297619Y-140596726D01*
X283392857Y-140644345D01*
X283488095Y-140644345D01*
X283630952Y-140596726D01*
X284202380Y-140025297D01*
X284202380Y-140644345D01*
X260389880Y-137215773D02*
X259389880Y-137215773D01*
X259389880Y-137453869D01*
X259437500Y-137596726D01*
X259532738Y-137691964D01*
X259627976Y-137739583D01*
X259818452Y-137787202D01*
X259961309Y-137787202D01*
X260151785Y-137739583D01*
X260247023Y-137691964D01*
X260342261Y-137596726D01*
X260389880Y-137453869D01*
X260389880Y-137215773D01*
X260389880Y-138739583D02*
X260389880Y-138168154D01*
X260389880Y-138453869D02*
X259389880Y-138453869D01*
X259532738Y-138358630D01*
X259627976Y-138263392D01*
X259675595Y-138168154D01*
X259389880Y-139358630D02*
X259389880Y-139453869D01*
X259437500Y-139549107D01*
X259485119Y-139596726D01*
X259580357Y-139644345D01*
X259770833Y-139691964D01*
X260008928Y-139691964D01*
X260199404Y-139644345D01*
X260294642Y-139596726D01*
X260342261Y-139549107D01*
X260389880Y-139453869D01*
X260389880Y-139358630D01*
X260342261Y-139263392D01*
X260294642Y-139215773D01*
X260199404Y-139168154D01*
X260008928Y-139120535D01*
X259770833Y-139120535D01*
X259580357Y-139168154D01*
X259485119Y-139215773D01*
X259437500Y-139263392D01*
X259389880Y-139358630D01*
X260389880Y-140644345D02*
X260389880Y-140072916D01*
X260389880Y-140358630D02*
X259389880Y-140358630D01*
X259532738Y-140263392D01*
X259627976Y-140168154D01*
X259675595Y-140072916D01*
X236577380Y-137278273D02*
X235577380Y-137278273D01*
X235577380Y-137516369D01*
X235625000Y-137659226D01*
X235720238Y-137754464D01*
X235815476Y-137802083D01*
X236005952Y-137849702D01*
X236148809Y-137849702D01*
X236339285Y-137802083D01*
X236434523Y-137754464D01*
X236529761Y-137659226D01*
X236577380Y-137516369D01*
X236577380Y-137278273D01*
X236577380Y-138802083D02*
X236577380Y-138230654D01*
X236577380Y-138516369D02*
X235577380Y-138516369D01*
X235720238Y-138421130D01*
X235815476Y-138325892D01*
X235863095Y-138230654D01*
X235577380Y-139421130D02*
X235577380Y-139516369D01*
X235625000Y-139611607D01*
X235672619Y-139659226D01*
X235767857Y-139706845D01*
X235958333Y-139754464D01*
X236196428Y-139754464D01*
X236386904Y-139706845D01*
X236482142Y-139659226D01*
X236529761Y-139611607D01*
X236577380Y-139516369D01*
X236577380Y-139421130D01*
X236529761Y-139325892D01*
X236482142Y-139278273D01*
X236386904Y-139230654D01*
X236196428Y-139183035D01*
X235958333Y-139183035D01*
X235767857Y-139230654D01*
X235672619Y-139278273D01*
X235625000Y-139325892D01*
X235577380Y-139421130D01*
X235577380Y-140373511D02*
X235577380Y-140468750D01*
X235625000Y-140563988D01*
X235672619Y-140611607D01*
X235767857Y-140659226D01*
X235958333Y-140706845D01*
X236196428Y-140706845D01*
X236386904Y-140659226D01*
X236482142Y-140611607D01*
X236529761Y-140563988D01*
X236577380Y-140468750D01*
X236577380Y-140373511D01*
X236529761Y-140278273D01*
X236482142Y-140230654D01*
X236386904Y-140183035D01*
X236196428Y-140135416D01*
X235958333Y-140135416D01*
X235767857Y-140183035D01*
X235672619Y-140230654D01*
X235625000Y-140278273D01*
X235577380Y-140373511D01*
X165139880Y-137629464D02*
X164139880Y-137629464D01*
X164139880Y-137867559D01*
X164187500Y-138010416D01*
X164282738Y-138105654D01*
X164377976Y-138153273D01*
X164568452Y-138200892D01*
X164711309Y-138200892D01*
X164901785Y-138153273D01*
X164997023Y-138105654D01*
X165092261Y-138010416D01*
X165139880Y-137867559D01*
X165139880Y-137629464D01*
X165139880Y-138677083D02*
X165139880Y-138867559D01*
X165092261Y-138962797D01*
X165044642Y-139010416D01*
X164901785Y-139105654D01*
X164711309Y-139153273D01*
X164330357Y-139153273D01*
X164235119Y-139105654D01*
X164187500Y-139058035D01*
X164139880Y-138962797D01*
X164139880Y-138772321D01*
X164187500Y-138677083D01*
X164235119Y-138629464D01*
X164330357Y-138581845D01*
X164568452Y-138581845D01*
X164663690Y-138629464D01*
X164711309Y-138677083D01*
X164758928Y-138772321D01*
X164758928Y-138962797D01*
X164711309Y-139058035D01*
X164663690Y-139105654D01*
X164568452Y-139153273D01*
X165139880Y-139629464D02*
X165139880Y-139819940D01*
X165092261Y-139915178D01*
X165044642Y-139962797D01*
X164901785Y-140058035D01*
X164711309Y-140105654D01*
X164330357Y-140105654D01*
X164235119Y-140058035D01*
X164187500Y-140010416D01*
X164139880Y-139915178D01*
X164139880Y-139724702D01*
X164187500Y-139629464D01*
X164235119Y-139581845D01*
X164330357Y-139534226D01*
X164568452Y-139534226D01*
X164663690Y-139581845D01*
X164711309Y-139629464D01*
X164758928Y-139724702D01*
X164758928Y-139915178D01*
X164711309Y-140010416D01*
X164663690Y-140058035D01*
X164568452Y-140105654D01*
X93702380Y-137754464D02*
X92702380Y-137754464D01*
X92702380Y-137992559D01*
X92750000Y-138135416D01*
X92845238Y-138230654D01*
X92940476Y-138278273D01*
X93130952Y-138325892D01*
X93273809Y-138325892D01*
X93464285Y-138278273D01*
X93559523Y-138230654D01*
X93654761Y-138135416D01*
X93702380Y-137992559D01*
X93702380Y-137754464D01*
X93702380Y-138802083D02*
X93702380Y-138992559D01*
X93654761Y-139087797D01*
X93607142Y-139135416D01*
X93464285Y-139230654D01*
X93273809Y-139278273D01*
X92892857Y-139278273D01*
X92797619Y-139230654D01*
X92750000Y-139183035D01*
X92702380Y-139087797D01*
X92702380Y-138897321D01*
X92750000Y-138802083D01*
X92797619Y-138754464D01*
X92892857Y-138706845D01*
X93130952Y-138706845D01*
X93226190Y-138754464D01*
X93273809Y-138802083D01*
X93321428Y-138897321D01*
X93321428Y-139087797D01*
X93273809Y-139183035D01*
X93226190Y-139230654D01*
X93130952Y-139278273D01*
X93130952Y-139849702D02*
X93083333Y-139754464D01*
X93035714Y-139706845D01*
X92940476Y-139659226D01*
X92892857Y-139659226D01*
X92797619Y-139706845D01*
X92750000Y-139754464D01*
X92702380Y-139849702D01*
X92702380Y-140040178D01*
X92750000Y-140135416D01*
X92797619Y-140183035D01*
X92892857Y-140230654D01*
X92940476Y-140230654D01*
X93035714Y-140183035D01*
X93083333Y-140135416D01*
X93130952Y-140040178D01*
X93130952Y-139849702D01*
X93178571Y-139754464D01*
X93226190Y-139706845D01*
X93321428Y-139659226D01*
X93511904Y-139659226D01*
X93607142Y-139706845D01*
X93654761Y-139754464D01*
X93702380Y-139849702D01*
X93702380Y-140040178D01*
X93654761Y-140135416D01*
X93607142Y-140183035D01*
X93511904Y-140230654D01*
X93321428Y-140230654D01*
X93226190Y-140183035D01*
X93178571Y-140135416D01*
X93130952Y-140040178D01*
X69889880Y-137754464D02*
X68889880Y-137754464D01*
X68889880Y-137992559D01*
X68937500Y-138135416D01*
X69032738Y-138230654D01*
X69127976Y-138278273D01*
X69318452Y-138325892D01*
X69461309Y-138325892D01*
X69651785Y-138278273D01*
X69747023Y-138230654D01*
X69842261Y-138135416D01*
X69889880Y-137992559D01*
X69889880Y-137754464D01*
X69889880Y-138802083D02*
X69889880Y-138992559D01*
X69842261Y-139087797D01*
X69794642Y-139135416D01*
X69651785Y-139230654D01*
X69461309Y-139278273D01*
X69080357Y-139278273D01*
X68985119Y-139230654D01*
X68937500Y-139183035D01*
X68889880Y-139087797D01*
X68889880Y-138897321D01*
X68937500Y-138802083D01*
X68985119Y-138754464D01*
X69080357Y-138706845D01*
X69318452Y-138706845D01*
X69413690Y-138754464D01*
X69461309Y-138802083D01*
X69508928Y-138897321D01*
X69508928Y-139087797D01*
X69461309Y-139183035D01*
X69413690Y-139230654D01*
X69318452Y-139278273D01*
X68889880Y-139611607D02*
X68889880Y-140278273D01*
X69889880Y-139849702D01*
X48458630Y-137754464D02*
X47458630Y-137754464D01*
X47458630Y-137992559D01*
X47506250Y-138135416D01*
X47601488Y-138230654D01*
X47696726Y-138278273D01*
X47887202Y-138325892D01*
X48030059Y-138325892D01*
X48220535Y-138278273D01*
X48315773Y-138230654D01*
X48411011Y-138135416D01*
X48458630Y-137992559D01*
X48458630Y-137754464D01*
X48458630Y-138802083D02*
X48458630Y-138992559D01*
X48411011Y-139087797D01*
X48363392Y-139135416D01*
X48220535Y-139230654D01*
X48030059Y-139278273D01*
X47649107Y-139278273D01*
X47553869Y-139230654D01*
X47506250Y-139183035D01*
X47458630Y-139087797D01*
X47458630Y-138897321D01*
X47506250Y-138802083D01*
X47553869Y-138754464D01*
X47649107Y-138706845D01*
X47887202Y-138706845D01*
X47982440Y-138754464D01*
X48030059Y-138802083D01*
X48077678Y-138897321D01*
X48077678Y-139087797D01*
X48030059Y-139183035D01*
X47982440Y-139230654D01*
X47887202Y-139278273D01*
X47458630Y-140135416D02*
X47458630Y-139944940D01*
X47506250Y-139849702D01*
X47553869Y-139802083D01*
X47696726Y-139706845D01*
X47887202Y-139659226D01*
X48268154Y-139659226D01*
X48363392Y-139706845D01*
X48411011Y-139754464D01*
X48458630Y-139849702D01*
X48458630Y-140040178D01*
X48411011Y-140135416D01*
X48363392Y-140183035D01*
X48268154Y-140230654D01*
X48030059Y-140230654D01*
X47934821Y-140183035D01*
X47887202Y-140135416D01*
X47839583Y-140040178D01*
X47839583Y-139849702D01*
X47887202Y-139754464D01*
X47934821Y-139706845D01*
X48030059Y-139659226D01*
X19089880Y-137754464D02*
X18089880Y-137754464D01*
X18089880Y-137992559D01*
X18137500Y-138135416D01*
X18232738Y-138230654D01*
X18327976Y-138278273D01*
X18518452Y-138325892D01*
X18661309Y-138325892D01*
X18851785Y-138278273D01*
X18947023Y-138230654D01*
X19042261Y-138135416D01*
X19089880Y-137992559D01*
X19089880Y-137754464D01*
X19089880Y-138802083D02*
X19089880Y-138992559D01*
X19042261Y-139087797D01*
X18994642Y-139135416D01*
X18851785Y-139230654D01*
X18661309Y-139278273D01*
X18280357Y-139278273D01*
X18185119Y-139230654D01*
X18137500Y-139183035D01*
X18089880Y-139087797D01*
X18089880Y-138897321D01*
X18137500Y-138802083D01*
X18185119Y-138754464D01*
X18280357Y-138706845D01*
X18518452Y-138706845D01*
X18613690Y-138754464D01*
X18661309Y-138802083D01*
X18708928Y-138897321D01*
X18708928Y-139087797D01*
X18661309Y-139183035D01*
X18613690Y-139230654D01*
X18518452Y-139278273D01*
X18089880Y-140183035D02*
X18089880Y-139706845D01*
X18566071Y-139659226D01*
X18518452Y-139706845D01*
X18470833Y-139802083D01*
X18470833Y-140040178D01*
X18518452Y-140135416D01*
X18566071Y-140183035D01*
X18661309Y-140230654D01*
X18899404Y-140230654D01*
X18994642Y-140183035D01*
X19042261Y-140135416D01*
X19089880Y-140040178D01*
X19089880Y-139802083D01*
X19042261Y-139706845D01*
X18994642Y-139659226D01*
X339764880Y-126579464D02*
X338764880Y-126579464D01*
X338764880Y-126817559D01*
X338812500Y-126960416D01*
X338907738Y-127055654D01*
X339002976Y-127103273D01*
X339193452Y-127150892D01*
X339336309Y-127150892D01*
X339526785Y-127103273D01*
X339622023Y-127055654D01*
X339717261Y-126960416D01*
X339764880Y-126817559D01*
X339764880Y-126579464D01*
X339764880Y-127627083D02*
X339764880Y-127817559D01*
X339717261Y-127912797D01*
X339669642Y-127960416D01*
X339526785Y-128055654D01*
X339336309Y-128103273D01*
X338955357Y-128103273D01*
X338860119Y-128055654D01*
X338812500Y-128008035D01*
X338764880Y-127912797D01*
X338764880Y-127722321D01*
X338812500Y-127627083D01*
X338860119Y-127579464D01*
X338955357Y-127531845D01*
X339193452Y-127531845D01*
X339288690Y-127579464D01*
X339336309Y-127627083D01*
X339383928Y-127722321D01*
X339383928Y-127912797D01*
X339336309Y-128008035D01*
X339288690Y-128055654D01*
X339193452Y-128103273D01*
X339098214Y-128960416D02*
X339764880Y-128960416D01*
X338717261Y-128722321D02*
X339431547Y-128484226D01*
X339431547Y-129103273D01*
X296108630Y-118704464D02*
X295108630Y-118704464D01*
X295108630Y-118942559D01*
X295156250Y-119085416D01*
X295251488Y-119180654D01*
X295346726Y-119228273D01*
X295537202Y-119275892D01*
X295680059Y-119275892D01*
X295870535Y-119228273D01*
X295965773Y-119180654D01*
X296061011Y-119085416D01*
X296108630Y-118942559D01*
X296108630Y-118704464D01*
X296108630Y-119752083D02*
X296108630Y-119942559D01*
X296061011Y-120037797D01*
X296013392Y-120085416D01*
X295870535Y-120180654D01*
X295680059Y-120228273D01*
X295299107Y-120228273D01*
X295203869Y-120180654D01*
X295156250Y-120133035D01*
X295108630Y-120037797D01*
X295108630Y-119847321D01*
X295156250Y-119752083D01*
X295203869Y-119704464D01*
X295299107Y-119656845D01*
X295537202Y-119656845D01*
X295632440Y-119704464D01*
X295680059Y-119752083D01*
X295727678Y-119847321D01*
X295727678Y-120037797D01*
X295680059Y-120133035D01*
X295632440Y-120180654D01*
X295537202Y-120228273D01*
X295108630Y-120561607D02*
X295108630Y-121180654D01*
X295489583Y-120847321D01*
X295489583Y-120990178D01*
X295537202Y-121085416D01*
X295584821Y-121133035D01*
X295680059Y-121180654D01*
X295918154Y-121180654D01*
X296013392Y-121133035D01*
X296061011Y-121085416D01*
X296108630Y-120990178D01*
X296108630Y-120704464D01*
X296061011Y-120609226D01*
X296013392Y-120561607D01*
X260389880Y-118704464D02*
X259389880Y-118704464D01*
X259389880Y-118942559D01*
X259437500Y-119085416D01*
X259532738Y-119180654D01*
X259627976Y-119228273D01*
X259818452Y-119275892D01*
X259961309Y-119275892D01*
X260151785Y-119228273D01*
X260247023Y-119180654D01*
X260342261Y-119085416D01*
X260389880Y-118942559D01*
X260389880Y-118704464D01*
X260389880Y-119752083D02*
X260389880Y-119942559D01*
X260342261Y-120037797D01*
X260294642Y-120085416D01*
X260151785Y-120180654D01*
X259961309Y-120228273D01*
X259580357Y-120228273D01*
X259485119Y-120180654D01*
X259437500Y-120133035D01*
X259389880Y-120037797D01*
X259389880Y-119847321D01*
X259437500Y-119752083D01*
X259485119Y-119704464D01*
X259580357Y-119656845D01*
X259818452Y-119656845D01*
X259913690Y-119704464D01*
X259961309Y-119752083D01*
X260008928Y-119847321D01*
X260008928Y-120037797D01*
X259961309Y-120133035D01*
X259913690Y-120180654D01*
X259818452Y-120228273D01*
X259485119Y-120609226D02*
X259437500Y-120656845D01*
X259389880Y-120752083D01*
X259389880Y-120990178D01*
X259437500Y-121085416D01*
X259485119Y-121133035D01*
X259580357Y-121180654D01*
X259675595Y-121180654D01*
X259818452Y-121133035D01*
X260389880Y-120561607D01*
X260389880Y-121180654D01*
X241339880Y-118641964D02*
X240339880Y-118641964D01*
X240339880Y-118880059D01*
X240387500Y-119022916D01*
X240482738Y-119118154D01*
X240577976Y-119165773D01*
X240768452Y-119213392D01*
X240911309Y-119213392D01*
X241101785Y-119165773D01*
X241197023Y-119118154D01*
X241292261Y-119022916D01*
X241339880Y-118880059D01*
X241339880Y-118641964D01*
X241339880Y-119689583D02*
X241339880Y-119880059D01*
X241292261Y-119975297D01*
X241244642Y-120022916D01*
X241101785Y-120118154D01*
X240911309Y-120165773D01*
X240530357Y-120165773D01*
X240435119Y-120118154D01*
X240387500Y-120070535D01*
X240339880Y-119975297D01*
X240339880Y-119784821D01*
X240387500Y-119689583D01*
X240435119Y-119641964D01*
X240530357Y-119594345D01*
X240768452Y-119594345D01*
X240863690Y-119641964D01*
X240911309Y-119689583D01*
X240958928Y-119784821D01*
X240958928Y-119975297D01*
X240911309Y-120070535D01*
X240863690Y-120118154D01*
X240768452Y-120165773D01*
X241339880Y-121118154D02*
X241339880Y-120546726D01*
X241339880Y-120832440D02*
X240339880Y-120832440D01*
X240482738Y-120737202D01*
X240577976Y-120641964D01*
X240625595Y-120546726D01*
X222289880Y-118641964D02*
X221289880Y-118641964D01*
X221289880Y-118880059D01*
X221337500Y-119022916D01*
X221432738Y-119118154D01*
X221527976Y-119165773D01*
X221718452Y-119213392D01*
X221861309Y-119213392D01*
X222051785Y-119165773D01*
X222147023Y-119118154D01*
X222242261Y-119022916D01*
X222289880Y-118880059D01*
X222289880Y-118641964D01*
X222289880Y-119689583D02*
X222289880Y-119880059D01*
X222242261Y-119975297D01*
X222194642Y-120022916D01*
X222051785Y-120118154D01*
X221861309Y-120165773D01*
X221480357Y-120165773D01*
X221385119Y-120118154D01*
X221337500Y-120070535D01*
X221289880Y-119975297D01*
X221289880Y-119784821D01*
X221337500Y-119689583D01*
X221385119Y-119641964D01*
X221480357Y-119594345D01*
X221718452Y-119594345D01*
X221813690Y-119641964D01*
X221861309Y-119689583D01*
X221908928Y-119784821D01*
X221908928Y-119975297D01*
X221861309Y-120070535D01*
X221813690Y-120118154D01*
X221718452Y-120165773D01*
X221289880Y-120784821D02*
X221289880Y-120880059D01*
X221337500Y-120975297D01*
X221385119Y-121022916D01*
X221480357Y-121070535D01*
X221670833Y-121118154D01*
X221908928Y-121118154D01*
X222099404Y-121070535D01*
X222194642Y-121022916D01*
X222242261Y-120975297D01*
X222289880Y-120880059D01*
X222289880Y-120784821D01*
X222242261Y-120689583D01*
X222194642Y-120641964D01*
X222099404Y-120594345D01*
X221908928Y-120546726D01*
X221670833Y-120546726D01*
X221480357Y-120594345D01*
X221385119Y-120641964D01*
X221337500Y-120689583D01*
X221289880Y-120784821D01*
X203239880Y-118704464D02*
X202239880Y-118704464D01*
X202239880Y-118942559D01*
X202287500Y-119085416D01*
X202382738Y-119180654D01*
X202477976Y-119228273D01*
X202668452Y-119275892D01*
X202811309Y-119275892D01*
X203001785Y-119228273D01*
X203097023Y-119180654D01*
X203192261Y-119085416D01*
X203239880Y-118942559D01*
X203239880Y-118704464D01*
X202668452Y-119847321D02*
X202620833Y-119752083D01*
X202573214Y-119704464D01*
X202477976Y-119656845D01*
X202430357Y-119656845D01*
X202335119Y-119704464D01*
X202287500Y-119752083D01*
X202239880Y-119847321D01*
X202239880Y-120037797D01*
X202287500Y-120133035D01*
X202335119Y-120180654D01*
X202430357Y-120228273D01*
X202477976Y-120228273D01*
X202573214Y-120180654D01*
X202620833Y-120133035D01*
X202668452Y-120037797D01*
X202668452Y-119847321D01*
X202716071Y-119752083D01*
X202763690Y-119704464D01*
X202858928Y-119656845D01*
X203049404Y-119656845D01*
X203144642Y-119704464D01*
X203192261Y-119752083D01*
X203239880Y-119847321D01*
X203239880Y-120037797D01*
X203192261Y-120133035D01*
X203144642Y-120180654D01*
X203049404Y-120228273D01*
X202858928Y-120228273D01*
X202763690Y-120180654D01*
X202716071Y-120133035D01*
X202668452Y-120037797D01*
X203239880Y-120704464D02*
X203239880Y-120894940D01*
X203192261Y-120990178D01*
X203144642Y-121037797D01*
X203001785Y-121133035D01*
X202811309Y-121180654D01*
X202430357Y-121180654D01*
X202335119Y-121133035D01*
X202287500Y-121085416D01*
X202239880Y-120990178D01*
X202239880Y-120799702D01*
X202287500Y-120704464D01*
X202335119Y-120656845D01*
X202430357Y-120609226D01*
X202668452Y-120609226D01*
X202763690Y-120656845D01*
X202811309Y-120704464D01*
X202858928Y-120799702D01*
X202858928Y-120990178D01*
X202811309Y-121085416D01*
X202763690Y-121133035D01*
X202668452Y-121180654D01*
X184189880Y-118579464D02*
X183189880Y-118579464D01*
X183189880Y-118817559D01*
X183237500Y-118960416D01*
X183332738Y-119055654D01*
X183427976Y-119103273D01*
X183618452Y-119150892D01*
X183761309Y-119150892D01*
X183951785Y-119103273D01*
X184047023Y-119055654D01*
X184142261Y-118960416D01*
X184189880Y-118817559D01*
X184189880Y-118579464D01*
X183618452Y-119722321D02*
X183570833Y-119627083D01*
X183523214Y-119579464D01*
X183427976Y-119531845D01*
X183380357Y-119531845D01*
X183285119Y-119579464D01*
X183237500Y-119627083D01*
X183189880Y-119722321D01*
X183189880Y-119912797D01*
X183237500Y-120008035D01*
X183285119Y-120055654D01*
X183380357Y-120103273D01*
X183427976Y-120103273D01*
X183523214Y-120055654D01*
X183570833Y-120008035D01*
X183618452Y-119912797D01*
X183618452Y-119722321D01*
X183666071Y-119627083D01*
X183713690Y-119579464D01*
X183808928Y-119531845D01*
X183999404Y-119531845D01*
X184094642Y-119579464D01*
X184142261Y-119627083D01*
X184189880Y-119722321D01*
X184189880Y-119912797D01*
X184142261Y-120008035D01*
X184094642Y-120055654D01*
X183999404Y-120103273D01*
X183808928Y-120103273D01*
X183713690Y-120055654D01*
X183666071Y-120008035D01*
X183618452Y-119912797D01*
X183618452Y-120674702D02*
X183570833Y-120579464D01*
X183523214Y-120531845D01*
X183427976Y-120484226D01*
X183380357Y-120484226D01*
X183285119Y-120531845D01*
X183237500Y-120579464D01*
X183189880Y-120674702D01*
X183189880Y-120865178D01*
X183237500Y-120960416D01*
X183285119Y-121008035D01*
X183380357Y-121055654D01*
X183427976Y-121055654D01*
X183523214Y-121008035D01*
X183570833Y-120960416D01*
X183618452Y-120865178D01*
X183618452Y-120674702D01*
X183666071Y-120579464D01*
X183713690Y-120531845D01*
X183808928Y-120484226D01*
X183999404Y-120484226D01*
X184094642Y-120531845D01*
X184142261Y-120579464D01*
X184189880Y-120674702D01*
X184189880Y-120865178D01*
X184142261Y-120960416D01*
X184094642Y-121008035D01*
X183999404Y-121055654D01*
X183808928Y-121055654D01*
X183713690Y-121008035D01*
X183666071Y-120960416D01*
X183618452Y-120865178D01*
X165139880Y-118704464D02*
X164139880Y-118704464D01*
X164139880Y-118942559D01*
X164187500Y-119085416D01*
X164282738Y-119180654D01*
X164377976Y-119228273D01*
X164568452Y-119275892D01*
X164711309Y-119275892D01*
X164901785Y-119228273D01*
X164997023Y-119180654D01*
X165092261Y-119085416D01*
X165139880Y-118942559D01*
X165139880Y-118704464D01*
X164568452Y-119847321D02*
X164520833Y-119752083D01*
X164473214Y-119704464D01*
X164377976Y-119656845D01*
X164330357Y-119656845D01*
X164235119Y-119704464D01*
X164187500Y-119752083D01*
X164139880Y-119847321D01*
X164139880Y-120037797D01*
X164187500Y-120133035D01*
X164235119Y-120180654D01*
X164330357Y-120228273D01*
X164377976Y-120228273D01*
X164473214Y-120180654D01*
X164520833Y-120133035D01*
X164568452Y-120037797D01*
X164568452Y-119847321D01*
X164616071Y-119752083D01*
X164663690Y-119704464D01*
X164758928Y-119656845D01*
X164949404Y-119656845D01*
X165044642Y-119704464D01*
X165092261Y-119752083D01*
X165139880Y-119847321D01*
X165139880Y-120037797D01*
X165092261Y-120133035D01*
X165044642Y-120180654D01*
X164949404Y-120228273D01*
X164758928Y-120228273D01*
X164663690Y-120180654D01*
X164616071Y-120133035D01*
X164568452Y-120037797D01*
X164139880Y-120561607D02*
X164139880Y-121228273D01*
X165139880Y-120799702D01*
X146089880Y-118704464D02*
X145089880Y-118704464D01*
X145089880Y-118942559D01*
X145137500Y-119085416D01*
X145232738Y-119180654D01*
X145327976Y-119228273D01*
X145518452Y-119275892D01*
X145661309Y-119275892D01*
X145851785Y-119228273D01*
X145947023Y-119180654D01*
X146042261Y-119085416D01*
X146089880Y-118942559D01*
X146089880Y-118704464D01*
X145518452Y-119847321D02*
X145470833Y-119752083D01*
X145423214Y-119704464D01*
X145327976Y-119656845D01*
X145280357Y-119656845D01*
X145185119Y-119704464D01*
X145137500Y-119752083D01*
X145089880Y-119847321D01*
X145089880Y-120037797D01*
X145137500Y-120133035D01*
X145185119Y-120180654D01*
X145280357Y-120228273D01*
X145327976Y-120228273D01*
X145423214Y-120180654D01*
X145470833Y-120133035D01*
X145518452Y-120037797D01*
X145518452Y-119847321D01*
X145566071Y-119752083D01*
X145613690Y-119704464D01*
X145708928Y-119656845D01*
X145899404Y-119656845D01*
X145994642Y-119704464D01*
X146042261Y-119752083D01*
X146089880Y-119847321D01*
X146089880Y-120037797D01*
X146042261Y-120133035D01*
X145994642Y-120180654D01*
X145899404Y-120228273D01*
X145708928Y-120228273D01*
X145613690Y-120180654D01*
X145566071Y-120133035D01*
X145518452Y-120037797D01*
X145089880Y-121085416D02*
X145089880Y-120894940D01*
X145137500Y-120799702D01*
X145185119Y-120752083D01*
X145327976Y-120656845D01*
X145518452Y-120609226D01*
X145899404Y-120609226D01*
X145994642Y-120656845D01*
X146042261Y-120704464D01*
X146089880Y-120799702D01*
X146089880Y-120990178D01*
X146042261Y-121085416D01*
X145994642Y-121133035D01*
X145899404Y-121180654D01*
X145661309Y-121180654D01*
X145566071Y-121133035D01*
X145518452Y-121085416D01*
X145470833Y-120990178D01*
X145470833Y-120799702D01*
X145518452Y-120704464D01*
X145566071Y-120656845D01*
X145661309Y-120609226D01*
X127039880Y-118704464D02*
X126039880Y-118704464D01*
X126039880Y-118942559D01*
X126087500Y-119085416D01*
X126182738Y-119180654D01*
X126277976Y-119228273D01*
X126468452Y-119275892D01*
X126611309Y-119275892D01*
X126801785Y-119228273D01*
X126897023Y-119180654D01*
X126992261Y-119085416D01*
X127039880Y-118942559D01*
X127039880Y-118704464D01*
X126468452Y-119847321D02*
X126420833Y-119752083D01*
X126373214Y-119704464D01*
X126277976Y-119656845D01*
X126230357Y-119656845D01*
X126135119Y-119704464D01*
X126087500Y-119752083D01*
X126039880Y-119847321D01*
X126039880Y-120037797D01*
X126087500Y-120133035D01*
X126135119Y-120180654D01*
X126230357Y-120228273D01*
X126277976Y-120228273D01*
X126373214Y-120180654D01*
X126420833Y-120133035D01*
X126468452Y-120037797D01*
X126468452Y-119847321D01*
X126516071Y-119752083D01*
X126563690Y-119704464D01*
X126658928Y-119656845D01*
X126849404Y-119656845D01*
X126944642Y-119704464D01*
X126992261Y-119752083D01*
X127039880Y-119847321D01*
X127039880Y-120037797D01*
X126992261Y-120133035D01*
X126944642Y-120180654D01*
X126849404Y-120228273D01*
X126658928Y-120228273D01*
X126563690Y-120180654D01*
X126516071Y-120133035D01*
X126468452Y-120037797D01*
X126039880Y-121133035D02*
X126039880Y-120656845D01*
X126516071Y-120609226D01*
X126468452Y-120656845D01*
X126420833Y-120752083D01*
X126420833Y-120990178D01*
X126468452Y-121085416D01*
X126516071Y-121133035D01*
X126611309Y-121180654D01*
X126849404Y-121180654D01*
X126944642Y-121133035D01*
X126992261Y-121085416D01*
X127039880Y-120990178D01*
X127039880Y-120752083D01*
X126992261Y-120656845D01*
X126944642Y-120609226D01*
X107989880Y-118704464D02*
X106989880Y-118704464D01*
X106989880Y-118942559D01*
X107037500Y-119085416D01*
X107132738Y-119180654D01*
X107227976Y-119228273D01*
X107418452Y-119275892D01*
X107561309Y-119275892D01*
X107751785Y-119228273D01*
X107847023Y-119180654D01*
X107942261Y-119085416D01*
X107989880Y-118942559D01*
X107989880Y-118704464D01*
X107418452Y-119847321D02*
X107370833Y-119752083D01*
X107323214Y-119704464D01*
X107227976Y-119656845D01*
X107180357Y-119656845D01*
X107085119Y-119704464D01*
X107037500Y-119752083D01*
X106989880Y-119847321D01*
X106989880Y-120037797D01*
X107037500Y-120133035D01*
X107085119Y-120180654D01*
X107180357Y-120228273D01*
X107227976Y-120228273D01*
X107323214Y-120180654D01*
X107370833Y-120133035D01*
X107418452Y-120037797D01*
X107418452Y-119847321D01*
X107466071Y-119752083D01*
X107513690Y-119704464D01*
X107608928Y-119656845D01*
X107799404Y-119656845D01*
X107894642Y-119704464D01*
X107942261Y-119752083D01*
X107989880Y-119847321D01*
X107989880Y-120037797D01*
X107942261Y-120133035D01*
X107894642Y-120180654D01*
X107799404Y-120228273D01*
X107608928Y-120228273D01*
X107513690Y-120180654D01*
X107466071Y-120133035D01*
X107418452Y-120037797D01*
X107323214Y-121085416D02*
X107989880Y-121085416D01*
X106942261Y-120847321D02*
X107656547Y-120609226D01*
X107656547Y-121228273D01*
X88939880Y-118641964D02*
X87939880Y-118641964D01*
X87939880Y-118880059D01*
X87987500Y-119022916D01*
X88082738Y-119118154D01*
X88177976Y-119165773D01*
X88368452Y-119213392D01*
X88511309Y-119213392D01*
X88701785Y-119165773D01*
X88797023Y-119118154D01*
X88892261Y-119022916D01*
X88939880Y-118880059D01*
X88939880Y-118641964D01*
X88368452Y-119784821D02*
X88320833Y-119689583D01*
X88273214Y-119641964D01*
X88177976Y-119594345D01*
X88130357Y-119594345D01*
X88035119Y-119641964D01*
X87987500Y-119689583D01*
X87939880Y-119784821D01*
X87939880Y-119975297D01*
X87987500Y-120070535D01*
X88035119Y-120118154D01*
X88130357Y-120165773D01*
X88177976Y-120165773D01*
X88273214Y-120118154D01*
X88320833Y-120070535D01*
X88368452Y-119975297D01*
X88368452Y-119784821D01*
X88416071Y-119689583D01*
X88463690Y-119641964D01*
X88558928Y-119594345D01*
X88749404Y-119594345D01*
X88844642Y-119641964D01*
X88892261Y-119689583D01*
X88939880Y-119784821D01*
X88939880Y-119975297D01*
X88892261Y-120070535D01*
X88844642Y-120118154D01*
X88749404Y-120165773D01*
X88558928Y-120165773D01*
X88463690Y-120118154D01*
X88416071Y-120070535D01*
X88368452Y-119975297D01*
X87939880Y-120499107D02*
X87939880Y-121118154D01*
X88320833Y-120784821D01*
X88320833Y-120927678D01*
X88368452Y-121022916D01*
X88416071Y-121070535D01*
X88511309Y-121118154D01*
X88749404Y-121118154D01*
X88844642Y-121070535D01*
X88892261Y-121022916D01*
X88939880Y-120927678D01*
X88939880Y-120641964D01*
X88892261Y-120546726D01*
X88844642Y-120499107D01*
X57983630Y-118704464D02*
X56983630Y-118704464D01*
X56983630Y-118942559D01*
X57031250Y-119085416D01*
X57126488Y-119180654D01*
X57221726Y-119228273D01*
X57412202Y-119275892D01*
X57555059Y-119275892D01*
X57745535Y-119228273D01*
X57840773Y-119180654D01*
X57936011Y-119085416D01*
X57983630Y-118942559D01*
X57983630Y-118704464D01*
X57412202Y-119847321D02*
X57364583Y-119752083D01*
X57316964Y-119704464D01*
X57221726Y-119656845D01*
X57174107Y-119656845D01*
X57078869Y-119704464D01*
X57031250Y-119752083D01*
X56983630Y-119847321D01*
X56983630Y-120037797D01*
X57031250Y-120133035D01*
X57078869Y-120180654D01*
X57174107Y-120228273D01*
X57221726Y-120228273D01*
X57316964Y-120180654D01*
X57364583Y-120133035D01*
X57412202Y-120037797D01*
X57412202Y-119847321D01*
X57459821Y-119752083D01*
X57507440Y-119704464D01*
X57602678Y-119656845D01*
X57793154Y-119656845D01*
X57888392Y-119704464D01*
X57936011Y-119752083D01*
X57983630Y-119847321D01*
X57983630Y-120037797D01*
X57936011Y-120133035D01*
X57888392Y-120180654D01*
X57793154Y-120228273D01*
X57602678Y-120228273D01*
X57507440Y-120180654D01*
X57459821Y-120133035D01*
X57412202Y-120037797D01*
X57078869Y-120609226D02*
X57031250Y-120656845D01*
X56983630Y-120752083D01*
X56983630Y-120990178D01*
X57031250Y-121085416D01*
X57078869Y-121133035D01*
X57174107Y-121180654D01*
X57269345Y-121180654D01*
X57412202Y-121133035D01*
X57983630Y-120561607D01*
X57983630Y-121180654D01*
X19089880Y-118704464D02*
X18089880Y-118704464D01*
X18089880Y-118942559D01*
X18137500Y-119085416D01*
X18232738Y-119180654D01*
X18327976Y-119228273D01*
X18518452Y-119275892D01*
X18661309Y-119275892D01*
X18851785Y-119228273D01*
X18947023Y-119180654D01*
X19042261Y-119085416D01*
X19089880Y-118942559D01*
X19089880Y-118704464D01*
X18518452Y-119847321D02*
X18470833Y-119752083D01*
X18423214Y-119704464D01*
X18327976Y-119656845D01*
X18280357Y-119656845D01*
X18185119Y-119704464D01*
X18137500Y-119752083D01*
X18089880Y-119847321D01*
X18089880Y-120037797D01*
X18137500Y-120133035D01*
X18185119Y-120180654D01*
X18280357Y-120228273D01*
X18327976Y-120228273D01*
X18423214Y-120180654D01*
X18470833Y-120133035D01*
X18518452Y-120037797D01*
X18518452Y-119847321D01*
X18566071Y-119752083D01*
X18613690Y-119704464D01*
X18708928Y-119656845D01*
X18899404Y-119656845D01*
X18994642Y-119704464D01*
X19042261Y-119752083D01*
X19089880Y-119847321D01*
X19089880Y-120037797D01*
X19042261Y-120133035D01*
X18994642Y-120180654D01*
X18899404Y-120228273D01*
X18708928Y-120228273D01*
X18613690Y-120180654D01*
X18566071Y-120133035D01*
X18518452Y-120037797D01*
X19089880Y-121180654D02*
X19089880Y-120609226D01*
X19089880Y-120894940D02*
X18089880Y-120894940D01*
X18232738Y-120799702D01*
X18327976Y-120704464D01*
X18375595Y-120609226D01*
X358814880Y-99654464D02*
X357814880Y-99654464D01*
X357814880Y-99892559D01*
X357862500Y-100035416D01*
X357957738Y-100130654D01*
X358052976Y-100178273D01*
X358243452Y-100225892D01*
X358386309Y-100225892D01*
X358576785Y-100178273D01*
X358672023Y-100130654D01*
X358767261Y-100035416D01*
X358814880Y-99892559D01*
X358814880Y-99654464D01*
X358243452Y-100797321D02*
X358195833Y-100702083D01*
X358148214Y-100654464D01*
X358052976Y-100606845D01*
X358005357Y-100606845D01*
X357910119Y-100654464D01*
X357862500Y-100702083D01*
X357814880Y-100797321D01*
X357814880Y-100987797D01*
X357862500Y-101083035D01*
X357910119Y-101130654D01*
X358005357Y-101178273D01*
X358052976Y-101178273D01*
X358148214Y-101130654D01*
X358195833Y-101083035D01*
X358243452Y-100987797D01*
X358243452Y-100797321D01*
X358291071Y-100702083D01*
X358338690Y-100654464D01*
X358433928Y-100606845D01*
X358624404Y-100606845D01*
X358719642Y-100654464D01*
X358767261Y-100702083D01*
X358814880Y-100797321D01*
X358814880Y-100987797D01*
X358767261Y-101083035D01*
X358719642Y-101130654D01*
X358624404Y-101178273D01*
X358433928Y-101178273D01*
X358338690Y-101130654D01*
X358291071Y-101083035D01*
X358243452Y-100987797D01*
X357814880Y-101797321D02*
X357814880Y-101892559D01*
X357862500Y-101987797D01*
X357910119Y-102035416D01*
X358005357Y-102083035D01*
X358195833Y-102130654D01*
X358433928Y-102130654D01*
X358624404Y-102083035D01*
X358719642Y-102035416D01*
X358767261Y-101987797D01*
X358814880Y-101892559D01*
X358814880Y-101797321D01*
X358767261Y-101702083D01*
X358719642Y-101654464D01*
X358624404Y-101606845D01*
X358433928Y-101559226D01*
X358195833Y-101559226D01*
X358005357Y-101606845D01*
X357910119Y-101654464D01*
X357862500Y-101702083D01*
X357814880Y-101797321D01*
X339764880Y-99591964D02*
X338764880Y-99591964D01*
X338764880Y-99830059D01*
X338812500Y-99972916D01*
X338907738Y-100068154D01*
X339002976Y-100115773D01*
X339193452Y-100163392D01*
X339336309Y-100163392D01*
X339526785Y-100115773D01*
X339622023Y-100068154D01*
X339717261Y-99972916D01*
X339764880Y-99830059D01*
X339764880Y-99591964D01*
X338764880Y-100496726D02*
X338764880Y-101163392D01*
X339764880Y-100734821D01*
X339764880Y-101591964D02*
X339764880Y-101782440D01*
X339717261Y-101877678D01*
X339669642Y-101925297D01*
X339526785Y-102020535D01*
X339336309Y-102068154D01*
X338955357Y-102068154D01*
X338860119Y-102020535D01*
X338812500Y-101972916D01*
X338764880Y-101877678D01*
X338764880Y-101687202D01*
X338812500Y-101591964D01*
X338860119Y-101544345D01*
X338955357Y-101496726D01*
X339193452Y-101496726D01*
X339288690Y-101544345D01*
X339336309Y-101591964D01*
X339383928Y-101687202D01*
X339383928Y-101877678D01*
X339336309Y-101972916D01*
X339288690Y-102020535D01*
X339193452Y-102068154D01*
X376658035Y-101671130D02*
X376658035Y-100671130D01*
X376419940Y-100671130D01*
X376277083Y-100718750D01*
X376181845Y-100813988D01*
X376134226Y-100909226D01*
X376086607Y-101099702D01*
X376086607Y-101242559D01*
X376134226Y-101433035D01*
X376181845Y-101528273D01*
X376277083Y-101623511D01*
X376419940Y-101671130D01*
X376658035Y-101671130D01*
X375753273Y-100671130D02*
X375086607Y-100671130D01*
X375515178Y-101671130D01*
X374562797Y-101099702D02*
X374658035Y-101052083D01*
X374705654Y-101004464D01*
X374753273Y-100909226D01*
X374753273Y-100861607D01*
X374705654Y-100766369D01*
X374658035Y-100718750D01*
X374562797Y-100671130D01*
X374372321Y-100671130D01*
X374277083Y-100718750D01*
X374229464Y-100766369D01*
X374181845Y-100861607D01*
X374181845Y-100909226D01*
X374229464Y-101004464D01*
X374277083Y-101052083D01*
X374372321Y-101099702D01*
X374562797Y-101099702D01*
X374658035Y-101147321D01*
X374705654Y-101194940D01*
X374753273Y-101290178D01*
X374753273Y-101480654D01*
X374705654Y-101575892D01*
X374658035Y-101623511D01*
X374562797Y-101671130D01*
X374372321Y-101671130D01*
X374277083Y-101623511D01*
X374229464Y-101575892D01*
X374181845Y-101480654D01*
X374181845Y-101290178D01*
X374229464Y-101194940D01*
X374277083Y-101147321D01*
X374372321Y-101099702D01*
X300871130Y-99654464D02*
X299871130Y-99654464D01*
X299871130Y-99892559D01*
X299918750Y-100035416D01*
X300013988Y-100130654D01*
X300109226Y-100178273D01*
X300299702Y-100225892D01*
X300442559Y-100225892D01*
X300633035Y-100178273D01*
X300728273Y-100130654D01*
X300823511Y-100035416D01*
X300871130Y-99892559D01*
X300871130Y-99654464D01*
X299871130Y-100559226D02*
X299871130Y-101225892D01*
X300871130Y-100797321D01*
X299871130Y-101511607D02*
X299871130Y-102178273D01*
X300871130Y-101749702D01*
X269914880Y-99654464D02*
X268914880Y-99654464D01*
X268914880Y-99892559D01*
X268962500Y-100035416D01*
X269057738Y-100130654D01*
X269152976Y-100178273D01*
X269343452Y-100225892D01*
X269486309Y-100225892D01*
X269676785Y-100178273D01*
X269772023Y-100130654D01*
X269867261Y-100035416D01*
X269914880Y-99892559D01*
X269914880Y-99654464D01*
X268914880Y-100559226D02*
X268914880Y-101225892D01*
X269914880Y-100797321D01*
X268914880Y-102035416D02*
X268914880Y-101844940D01*
X268962500Y-101749702D01*
X269010119Y-101702083D01*
X269152976Y-101606845D01*
X269343452Y-101559226D01*
X269724404Y-101559226D01*
X269819642Y-101606845D01*
X269867261Y-101654464D01*
X269914880Y-101749702D01*
X269914880Y-101940178D01*
X269867261Y-102035416D01*
X269819642Y-102083035D01*
X269724404Y-102130654D01*
X269486309Y-102130654D01*
X269391071Y-102083035D01*
X269343452Y-102035416D01*
X269295833Y-101940178D01*
X269295833Y-101749702D01*
X269343452Y-101654464D01*
X269391071Y-101606845D01*
X269486309Y-101559226D01*
X250864880Y-99654464D02*
X249864880Y-99654464D01*
X249864880Y-99892559D01*
X249912500Y-100035416D01*
X250007738Y-100130654D01*
X250102976Y-100178273D01*
X250293452Y-100225892D01*
X250436309Y-100225892D01*
X250626785Y-100178273D01*
X250722023Y-100130654D01*
X250817261Y-100035416D01*
X250864880Y-99892559D01*
X250864880Y-99654464D01*
X249864880Y-100559226D02*
X249864880Y-101225892D01*
X250864880Y-100797321D01*
X249864880Y-102083035D02*
X249864880Y-101606845D01*
X250341071Y-101559226D01*
X250293452Y-101606845D01*
X250245833Y-101702083D01*
X250245833Y-101940178D01*
X250293452Y-102035416D01*
X250341071Y-102083035D01*
X250436309Y-102130654D01*
X250674404Y-102130654D01*
X250769642Y-102083035D01*
X250817261Y-102035416D01*
X250864880Y-101940178D01*
X250864880Y-101702083D01*
X250817261Y-101606845D01*
X250769642Y-101559226D01*
X231814880Y-99654464D02*
X230814880Y-99654464D01*
X230814880Y-99892559D01*
X230862500Y-100035416D01*
X230957738Y-100130654D01*
X231052976Y-100178273D01*
X231243452Y-100225892D01*
X231386309Y-100225892D01*
X231576785Y-100178273D01*
X231672023Y-100130654D01*
X231767261Y-100035416D01*
X231814880Y-99892559D01*
X231814880Y-99654464D01*
X230814880Y-100559226D02*
X230814880Y-101225892D01*
X231814880Y-100797321D01*
X231148214Y-102035416D02*
X231814880Y-102035416D01*
X230767261Y-101797321D02*
X231481547Y-101559226D01*
X231481547Y-102178273D01*
X212764880Y-99591964D02*
X211764880Y-99591964D01*
X211764880Y-99830059D01*
X211812500Y-99972916D01*
X211907738Y-100068154D01*
X212002976Y-100115773D01*
X212193452Y-100163392D01*
X212336309Y-100163392D01*
X212526785Y-100115773D01*
X212622023Y-100068154D01*
X212717261Y-99972916D01*
X212764880Y-99830059D01*
X212764880Y-99591964D01*
X211764880Y-100496726D02*
X211764880Y-101163392D01*
X212764880Y-100734821D01*
X211764880Y-101449107D02*
X211764880Y-102068154D01*
X212145833Y-101734821D01*
X212145833Y-101877678D01*
X212193452Y-101972916D01*
X212241071Y-102020535D01*
X212336309Y-102068154D01*
X212574404Y-102068154D01*
X212669642Y-102020535D01*
X212717261Y-101972916D01*
X212764880Y-101877678D01*
X212764880Y-101591964D01*
X212717261Y-101496726D01*
X212669642Y-101449107D01*
X193714880Y-99591964D02*
X192714880Y-99591964D01*
X192714880Y-99830059D01*
X192762500Y-99972916D01*
X192857738Y-100068154D01*
X192952976Y-100115773D01*
X193143452Y-100163392D01*
X193286309Y-100163392D01*
X193476785Y-100115773D01*
X193572023Y-100068154D01*
X193667261Y-99972916D01*
X193714880Y-99830059D01*
X193714880Y-99591964D01*
X192714880Y-100496726D02*
X192714880Y-101163392D01*
X193714880Y-100734821D01*
X192810119Y-101496726D02*
X192762500Y-101544345D01*
X192714880Y-101639583D01*
X192714880Y-101877678D01*
X192762500Y-101972916D01*
X192810119Y-102020535D01*
X192905357Y-102068154D01*
X193000595Y-102068154D01*
X193143452Y-102020535D01*
X193714880Y-101449107D01*
X193714880Y-102068154D01*
X174664880Y-99654464D02*
X173664880Y-99654464D01*
X173664880Y-99892559D01*
X173712500Y-100035416D01*
X173807738Y-100130654D01*
X173902976Y-100178273D01*
X174093452Y-100225892D01*
X174236309Y-100225892D01*
X174426785Y-100178273D01*
X174522023Y-100130654D01*
X174617261Y-100035416D01*
X174664880Y-99892559D01*
X174664880Y-99654464D01*
X173664880Y-100559226D02*
X173664880Y-101225892D01*
X174664880Y-100797321D01*
X174664880Y-102130654D02*
X174664880Y-101559226D01*
X174664880Y-101844940D02*
X173664880Y-101844940D01*
X173807738Y-101749702D01*
X173902976Y-101654464D01*
X173950595Y-101559226D01*
X155614880Y-99591964D02*
X154614880Y-99591964D01*
X154614880Y-99830059D01*
X154662500Y-99972916D01*
X154757738Y-100068154D01*
X154852976Y-100115773D01*
X155043452Y-100163392D01*
X155186309Y-100163392D01*
X155376785Y-100115773D01*
X155472023Y-100068154D01*
X155567261Y-99972916D01*
X155614880Y-99830059D01*
X155614880Y-99591964D01*
X154614880Y-100496726D02*
X154614880Y-101163392D01*
X155614880Y-100734821D01*
X154614880Y-101734821D02*
X154614880Y-101830059D01*
X154662500Y-101925297D01*
X154710119Y-101972916D01*
X154805357Y-102020535D01*
X154995833Y-102068154D01*
X155233928Y-102068154D01*
X155424404Y-102020535D01*
X155519642Y-101972916D01*
X155567261Y-101925297D01*
X155614880Y-101830059D01*
X155614880Y-101734821D01*
X155567261Y-101639583D01*
X155519642Y-101591964D01*
X155424404Y-101544345D01*
X155233928Y-101496726D01*
X154995833Y-101496726D01*
X154805357Y-101544345D01*
X154710119Y-101591964D01*
X154662500Y-101639583D01*
X154614880Y-101734821D01*
X136564880Y-99654464D02*
X135564880Y-99654464D01*
X135564880Y-99892559D01*
X135612500Y-100035416D01*
X135707738Y-100130654D01*
X135802976Y-100178273D01*
X135993452Y-100225892D01*
X136136309Y-100225892D01*
X136326785Y-100178273D01*
X136422023Y-100130654D01*
X136517261Y-100035416D01*
X136564880Y-99892559D01*
X136564880Y-99654464D01*
X135564880Y-101083035D02*
X135564880Y-100892559D01*
X135612500Y-100797321D01*
X135660119Y-100749702D01*
X135802976Y-100654464D01*
X135993452Y-100606845D01*
X136374404Y-100606845D01*
X136469642Y-100654464D01*
X136517261Y-100702083D01*
X136564880Y-100797321D01*
X136564880Y-100987797D01*
X136517261Y-101083035D01*
X136469642Y-101130654D01*
X136374404Y-101178273D01*
X136136309Y-101178273D01*
X136041071Y-101130654D01*
X135993452Y-101083035D01*
X135945833Y-100987797D01*
X135945833Y-100797321D01*
X135993452Y-100702083D01*
X136041071Y-100654464D01*
X136136309Y-100606845D01*
X136564880Y-101654464D02*
X136564880Y-101844940D01*
X136517261Y-101940178D01*
X136469642Y-101987797D01*
X136326785Y-102083035D01*
X136136309Y-102130654D01*
X135755357Y-102130654D01*
X135660119Y-102083035D01*
X135612500Y-102035416D01*
X135564880Y-101940178D01*
X135564880Y-101749702D01*
X135612500Y-101654464D01*
X135660119Y-101606845D01*
X135755357Y-101559226D01*
X135993452Y-101559226D01*
X136088690Y-101606845D01*
X136136309Y-101654464D01*
X136183928Y-101749702D01*
X136183928Y-101940178D01*
X136136309Y-102035416D01*
X136088690Y-102083035D01*
X135993452Y-102130654D01*
X117514880Y-99591964D02*
X116514880Y-99591964D01*
X116514880Y-99830059D01*
X116562500Y-99972916D01*
X116657738Y-100068154D01*
X116752976Y-100115773D01*
X116943452Y-100163392D01*
X117086309Y-100163392D01*
X117276785Y-100115773D01*
X117372023Y-100068154D01*
X117467261Y-99972916D01*
X117514880Y-99830059D01*
X117514880Y-99591964D01*
X116514880Y-101020535D02*
X116514880Y-100830059D01*
X116562500Y-100734821D01*
X116610119Y-100687202D01*
X116752976Y-100591964D01*
X116943452Y-100544345D01*
X117324404Y-100544345D01*
X117419642Y-100591964D01*
X117467261Y-100639583D01*
X117514880Y-100734821D01*
X117514880Y-100925297D01*
X117467261Y-101020535D01*
X117419642Y-101068154D01*
X117324404Y-101115773D01*
X117086309Y-101115773D01*
X116991071Y-101068154D01*
X116943452Y-101020535D01*
X116895833Y-100925297D01*
X116895833Y-100734821D01*
X116943452Y-100639583D01*
X116991071Y-100591964D01*
X117086309Y-100544345D01*
X116943452Y-101687202D02*
X116895833Y-101591964D01*
X116848214Y-101544345D01*
X116752976Y-101496726D01*
X116705357Y-101496726D01*
X116610119Y-101544345D01*
X116562500Y-101591964D01*
X116514880Y-101687202D01*
X116514880Y-101877678D01*
X116562500Y-101972916D01*
X116610119Y-102020535D01*
X116705357Y-102068154D01*
X116752976Y-102068154D01*
X116848214Y-102020535D01*
X116895833Y-101972916D01*
X116943452Y-101877678D01*
X116943452Y-101687202D01*
X116991071Y-101591964D01*
X117038690Y-101544345D01*
X117133928Y-101496726D01*
X117324404Y-101496726D01*
X117419642Y-101544345D01*
X117467261Y-101591964D01*
X117514880Y-101687202D01*
X117514880Y-101877678D01*
X117467261Y-101972916D01*
X117419642Y-102020535D01*
X117324404Y-102068154D01*
X117133928Y-102068154D01*
X117038690Y-102020535D01*
X116991071Y-101972916D01*
X116943452Y-101877678D01*
X98464880Y-99591964D02*
X97464880Y-99591964D01*
X97464880Y-99830059D01*
X97512500Y-99972916D01*
X97607738Y-100068154D01*
X97702976Y-100115773D01*
X97893452Y-100163392D01*
X98036309Y-100163392D01*
X98226785Y-100115773D01*
X98322023Y-100068154D01*
X98417261Y-99972916D01*
X98464880Y-99830059D01*
X98464880Y-99591964D01*
X97464880Y-101020535D02*
X97464880Y-100830059D01*
X97512500Y-100734821D01*
X97560119Y-100687202D01*
X97702976Y-100591964D01*
X97893452Y-100544345D01*
X98274404Y-100544345D01*
X98369642Y-100591964D01*
X98417261Y-100639583D01*
X98464880Y-100734821D01*
X98464880Y-100925297D01*
X98417261Y-101020535D01*
X98369642Y-101068154D01*
X98274404Y-101115773D01*
X98036309Y-101115773D01*
X97941071Y-101068154D01*
X97893452Y-101020535D01*
X97845833Y-100925297D01*
X97845833Y-100734821D01*
X97893452Y-100639583D01*
X97941071Y-100591964D01*
X98036309Y-100544345D01*
X97464880Y-101449107D02*
X97464880Y-102115773D01*
X98464880Y-101687202D01*
X79414880Y-99654464D02*
X78414880Y-99654464D01*
X78414880Y-99892559D01*
X78462500Y-100035416D01*
X78557738Y-100130654D01*
X78652976Y-100178273D01*
X78843452Y-100225892D01*
X78986309Y-100225892D01*
X79176785Y-100178273D01*
X79272023Y-100130654D01*
X79367261Y-100035416D01*
X79414880Y-99892559D01*
X79414880Y-99654464D01*
X78414880Y-101083035D02*
X78414880Y-100892559D01*
X78462500Y-100797321D01*
X78510119Y-100749702D01*
X78652976Y-100654464D01*
X78843452Y-100606845D01*
X79224404Y-100606845D01*
X79319642Y-100654464D01*
X79367261Y-100702083D01*
X79414880Y-100797321D01*
X79414880Y-100987797D01*
X79367261Y-101083035D01*
X79319642Y-101130654D01*
X79224404Y-101178273D01*
X78986309Y-101178273D01*
X78891071Y-101130654D01*
X78843452Y-101083035D01*
X78795833Y-100987797D01*
X78795833Y-100797321D01*
X78843452Y-100702083D01*
X78891071Y-100654464D01*
X78986309Y-100606845D01*
X78414880Y-102035416D02*
X78414880Y-101844940D01*
X78462500Y-101749702D01*
X78510119Y-101702083D01*
X78652976Y-101606845D01*
X78843452Y-101559226D01*
X79224404Y-101559226D01*
X79319642Y-101606845D01*
X79367261Y-101654464D01*
X79414880Y-101749702D01*
X79414880Y-101940178D01*
X79367261Y-102035416D01*
X79319642Y-102083035D01*
X79224404Y-102130654D01*
X78986309Y-102130654D01*
X78891071Y-102083035D01*
X78843452Y-102035416D01*
X78795833Y-101940178D01*
X78795833Y-101749702D01*
X78843452Y-101654464D01*
X78891071Y-101606845D01*
X78986309Y-101559226D01*
X53221130Y-99591964D02*
X52221130Y-99591964D01*
X52221130Y-99830059D01*
X52268750Y-99972916D01*
X52363988Y-100068154D01*
X52459226Y-100115773D01*
X52649702Y-100163392D01*
X52792559Y-100163392D01*
X52983035Y-100115773D01*
X53078273Y-100068154D01*
X53173511Y-99972916D01*
X53221130Y-99830059D01*
X53221130Y-99591964D01*
X52221130Y-101020535D02*
X52221130Y-100830059D01*
X52268750Y-100734821D01*
X52316369Y-100687202D01*
X52459226Y-100591964D01*
X52649702Y-100544345D01*
X53030654Y-100544345D01*
X53125892Y-100591964D01*
X53173511Y-100639583D01*
X53221130Y-100734821D01*
X53221130Y-100925297D01*
X53173511Y-101020535D01*
X53125892Y-101068154D01*
X53030654Y-101115773D01*
X52792559Y-101115773D01*
X52697321Y-101068154D01*
X52649702Y-101020535D01*
X52602083Y-100925297D01*
X52602083Y-100734821D01*
X52649702Y-100639583D01*
X52697321Y-100591964D01*
X52792559Y-100544345D01*
X52221130Y-102020535D02*
X52221130Y-101544345D01*
X52697321Y-101496726D01*
X52649702Y-101544345D01*
X52602083Y-101639583D01*
X52602083Y-101877678D01*
X52649702Y-101972916D01*
X52697321Y-102020535D01*
X52792559Y-102068154D01*
X53030654Y-102068154D01*
X53125892Y-102020535D01*
X53173511Y-101972916D01*
X53221130Y-101877678D01*
X53221130Y-101639583D01*
X53173511Y-101544345D01*
X53125892Y-101496726D01*
X19089880Y-99654464D02*
X18089880Y-99654464D01*
X18089880Y-99892559D01*
X18137500Y-100035416D01*
X18232738Y-100130654D01*
X18327976Y-100178273D01*
X18518452Y-100225892D01*
X18661309Y-100225892D01*
X18851785Y-100178273D01*
X18947023Y-100130654D01*
X19042261Y-100035416D01*
X19089880Y-99892559D01*
X19089880Y-99654464D01*
X18089880Y-101083035D02*
X18089880Y-100892559D01*
X18137500Y-100797321D01*
X18185119Y-100749702D01*
X18327976Y-100654464D01*
X18518452Y-100606845D01*
X18899404Y-100606845D01*
X18994642Y-100654464D01*
X19042261Y-100702083D01*
X19089880Y-100797321D01*
X19089880Y-100987797D01*
X19042261Y-101083035D01*
X18994642Y-101130654D01*
X18899404Y-101178273D01*
X18661309Y-101178273D01*
X18566071Y-101130654D01*
X18518452Y-101083035D01*
X18470833Y-100987797D01*
X18470833Y-100797321D01*
X18518452Y-100702083D01*
X18566071Y-100654464D01*
X18661309Y-100606845D01*
X18423214Y-102035416D02*
X19089880Y-102035416D01*
X18042261Y-101797321D02*
X18756547Y-101559226D01*
X18756547Y-102178273D01*
X358814880Y-80604464D02*
X357814880Y-80604464D01*
X357814880Y-80842559D01*
X357862500Y-80985416D01*
X357957738Y-81080654D01*
X358052976Y-81128273D01*
X358243452Y-81175892D01*
X358386309Y-81175892D01*
X358576785Y-81128273D01*
X358672023Y-81080654D01*
X358767261Y-80985416D01*
X358814880Y-80842559D01*
X358814880Y-80604464D01*
X357814880Y-82033035D02*
X357814880Y-81842559D01*
X357862500Y-81747321D01*
X357910119Y-81699702D01*
X358052976Y-81604464D01*
X358243452Y-81556845D01*
X358624404Y-81556845D01*
X358719642Y-81604464D01*
X358767261Y-81652083D01*
X358814880Y-81747321D01*
X358814880Y-81937797D01*
X358767261Y-82033035D01*
X358719642Y-82080654D01*
X358624404Y-82128273D01*
X358386309Y-82128273D01*
X358291071Y-82080654D01*
X358243452Y-82033035D01*
X358195833Y-81937797D01*
X358195833Y-81747321D01*
X358243452Y-81652083D01*
X358291071Y-81604464D01*
X358386309Y-81556845D01*
X357814880Y-82461607D02*
X357814880Y-83080654D01*
X358195833Y-82747321D01*
X358195833Y-82890178D01*
X358243452Y-82985416D01*
X358291071Y-83033035D01*
X358386309Y-83080654D01*
X358624404Y-83080654D01*
X358719642Y-83033035D01*
X358767261Y-82985416D01*
X358814880Y-82890178D01*
X358814880Y-82604464D01*
X358767261Y-82509226D01*
X358719642Y-82461607D01*
X339764880Y-80604464D02*
X338764880Y-80604464D01*
X338764880Y-80842559D01*
X338812500Y-80985416D01*
X338907738Y-81080654D01*
X339002976Y-81128273D01*
X339193452Y-81175892D01*
X339336309Y-81175892D01*
X339526785Y-81128273D01*
X339622023Y-81080654D01*
X339717261Y-80985416D01*
X339764880Y-80842559D01*
X339764880Y-80604464D01*
X338764880Y-82033035D02*
X338764880Y-81842559D01*
X338812500Y-81747321D01*
X338860119Y-81699702D01*
X339002976Y-81604464D01*
X339193452Y-81556845D01*
X339574404Y-81556845D01*
X339669642Y-81604464D01*
X339717261Y-81652083D01*
X339764880Y-81747321D01*
X339764880Y-81937797D01*
X339717261Y-82033035D01*
X339669642Y-82080654D01*
X339574404Y-82128273D01*
X339336309Y-82128273D01*
X339241071Y-82080654D01*
X339193452Y-82033035D01*
X339145833Y-81937797D01*
X339145833Y-81747321D01*
X339193452Y-81652083D01*
X339241071Y-81604464D01*
X339336309Y-81556845D01*
X338860119Y-82509226D02*
X338812500Y-82556845D01*
X338764880Y-82652083D01*
X338764880Y-82890178D01*
X338812500Y-82985416D01*
X338860119Y-83033035D01*
X338955357Y-83080654D01*
X339050595Y-83080654D01*
X339193452Y-83033035D01*
X339764880Y-82461607D01*
X339764880Y-83080654D01*
X376658035Y-82621130D02*
X376658035Y-81621130D01*
X376419940Y-81621130D01*
X376277083Y-81668750D01*
X376181845Y-81763988D01*
X376134226Y-81859226D01*
X376086607Y-82049702D01*
X376086607Y-82192559D01*
X376134226Y-82383035D01*
X376181845Y-82478273D01*
X376277083Y-82573511D01*
X376419940Y-82621130D01*
X376658035Y-82621130D01*
X375229464Y-81621130D02*
X375419940Y-81621130D01*
X375515178Y-81668750D01*
X375562797Y-81716369D01*
X375658035Y-81859226D01*
X375705654Y-82049702D01*
X375705654Y-82430654D01*
X375658035Y-82525892D01*
X375610416Y-82573511D01*
X375515178Y-82621130D01*
X375324702Y-82621130D01*
X375229464Y-82573511D01*
X375181845Y-82525892D01*
X375134226Y-82430654D01*
X375134226Y-82192559D01*
X375181845Y-82097321D01*
X375229464Y-82049702D01*
X375324702Y-82002083D01*
X375515178Y-82002083D01*
X375610416Y-82049702D01*
X375658035Y-82097321D01*
X375705654Y-82192559D01*
X374181845Y-82621130D02*
X374753273Y-82621130D01*
X374467559Y-82621130D02*
X374467559Y-81621130D01*
X374562797Y-81763988D01*
X374658035Y-81859226D01*
X374753273Y-81906845D01*
X308014880Y-80604464D02*
X307014880Y-80604464D01*
X307014880Y-80842559D01*
X307062500Y-80985416D01*
X307157738Y-81080654D01*
X307252976Y-81128273D01*
X307443452Y-81175892D01*
X307586309Y-81175892D01*
X307776785Y-81128273D01*
X307872023Y-81080654D01*
X307967261Y-80985416D01*
X308014880Y-80842559D01*
X308014880Y-80604464D01*
X307014880Y-82033035D02*
X307014880Y-81842559D01*
X307062500Y-81747321D01*
X307110119Y-81699702D01*
X307252976Y-81604464D01*
X307443452Y-81556845D01*
X307824404Y-81556845D01*
X307919642Y-81604464D01*
X307967261Y-81652083D01*
X308014880Y-81747321D01*
X308014880Y-81937797D01*
X307967261Y-82033035D01*
X307919642Y-82080654D01*
X307824404Y-82128273D01*
X307586309Y-82128273D01*
X307491071Y-82080654D01*
X307443452Y-82033035D01*
X307395833Y-81937797D01*
X307395833Y-81747321D01*
X307443452Y-81652083D01*
X307491071Y-81604464D01*
X307586309Y-81556845D01*
X307014880Y-82747321D02*
X307014880Y-82842559D01*
X307062500Y-82937797D01*
X307110119Y-82985416D01*
X307205357Y-83033035D01*
X307395833Y-83080654D01*
X307633928Y-83080654D01*
X307824404Y-83033035D01*
X307919642Y-82985416D01*
X307967261Y-82937797D01*
X308014880Y-82842559D01*
X308014880Y-82747321D01*
X307967261Y-82652083D01*
X307919642Y-82604464D01*
X307824404Y-82556845D01*
X307633928Y-82509226D01*
X307395833Y-82509226D01*
X307205357Y-82556845D01*
X307110119Y-82604464D01*
X307062500Y-82652083D01*
X307014880Y-82747321D01*
X284202380Y-80479464D02*
X283202380Y-80479464D01*
X283202380Y-80717559D01*
X283250000Y-80860416D01*
X283345238Y-80955654D01*
X283440476Y-81003273D01*
X283630952Y-81050892D01*
X283773809Y-81050892D01*
X283964285Y-81003273D01*
X284059523Y-80955654D01*
X284154761Y-80860416D01*
X284202380Y-80717559D01*
X284202380Y-80479464D01*
X283202380Y-81955654D02*
X283202380Y-81479464D01*
X283678571Y-81431845D01*
X283630952Y-81479464D01*
X283583333Y-81574702D01*
X283583333Y-81812797D01*
X283630952Y-81908035D01*
X283678571Y-81955654D01*
X283773809Y-82003273D01*
X284011904Y-82003273D01*
X284107142Y-81955654D01*
X284154761Y-81908035D01*
X284202380Y-81812797D01*
X284202380Y-81574702D01*
X284154761Y-81479464D01*
X284107142Y-81431845D01*
X284202380Y-82479464D02*
X284202380Y-82669940D01*
X284154761Y-82765178D01*
X284107142Y-82812797D01*
X283964285Y-82908035D01*
X283773809Y-82955654D01*
X283392857Y-82955654D01*
X283297619Y-82908035D01*
X283250000Y-82860416D01*
X283202380Y-82765178D01*
X283202380Y-82574702D01*
X283250000Y-82479464D01*
X283297619Y-82431845D01*
X283392857Y-82384226D01*
X283630952Y-82384226D01*
X283726190Y-82431845D01*
X283773809Y-82479464D01*
X283821428Y-82574702D01*
X283821428Y-82765178D01*
X283773809Y-82860416D01*
X283726190Y-82908035D01*
X283630952Y-82955654D01*
X265152380Y-80604464D02*
X264152380Y-80604464D01*
X264152380Y-80842559D01*
X264200000Y-80985416D01*
X264295238Y-81080654D01*
X264390476Y-81128273D01*
X264580952Y-81175892D01*
X264723809Y-81175892D01*
X264914285Y-81128273D01*
X265009523Y-81080654D01*
X265104761Y-80985416D01*
X265152380Y-80842559D01*
X265152380Y-80604464D01*
X264152380Y-82080654D02*
X264152380Y-81604464D01*
X264628571Y-81556845D01*
X264580952Y-81604464D01*
X264533333Y-81699702D01*
X264533333Y-81937797D01*
X264580952Y-82033035D01*
X264628571Y-82080654D01*
X264723809Y-82128273D01*
X264961904Y-82128273D01*
X265057142Y-82080654D01*
X265104761Y-82033035D01*
X265152380Y-81937797D01*
X265152380Y-81699702D01*
X265104761Y-81604464D01*
X265057142Y-81556845D01*
X264580952Y-82699702D02*
X264533333Y-82604464D01*
X264485714Y-82556845D01*
X264390476Y-82509226D01*
X264342857Y-82509226D01*
X264247619Y-82556845D01*
X264200000Y-82604464D01*
X264152380Y-82699702D01*
X264152380Y-82890178D01*
X264200000Y-82985416D01*
X264247619Y-83033035D01*
X264342857Y-83080654D01*
X264390476Y-83080654D01*
X264485714Y-83033035D01*
X264533333Y-82985416D01*
X264580952Y-82890178D01*
X264580952Y-82699702D01*
X264628571Y-82604464D01*
X264676190Y-82556845D01*
X264771428Y-82509226D01*
X264961904Y-82509226D01*
X265057142Y-82556845D01*
X265104761Y-82604464D01*
X265152380Y-82699702D01*
X265152380Y-82890178D01*
X265104761Y-82985416D01*
X265057142Y-83033035D01*
X264961904Y-83080654D01*
X264771428Y-83080654D01*
X264676190Y-83033035D01*
X264628571Y-82985416D01*
X264580952Y-82890178D01*
X246102380Y-80541964D02*
X245102380Y-80541964D01*
X245102380Y-80780059D01*
X245150000Y-80922916D01*
X245245238Y-81018154D01*
X245340476Y-81065773D01*
X245530952Y-81113392D01*
X245673809Y-81113392D01*
X245864285Y-81065773D01*
X245959523Y-81018154D01*
X246054761Y-80922916D01*
X246102380Y-80780059D01*
X246102380Y-80541964D01*
X245102380Y-82018154D02*
X245102380Y-81541964D01*
X245578571Y-81494345D01*
X245530952Y-81541964D01*
X245483333Y-81637202D01*
X245483333Y-81875297D01*
X245530952Y-81970535D01*
X245578571Y-82018154D01*
X245673809Y-82065773D01*
X245911904Y-82065773D01*
X246007142Y-82018154D01*
X246054761Y-81970535D01*
X246102380Y-81875297D01*
X246102380Y-81637202D01*
X246054761Y-81541964D01*
X246007142Y-81494345D01*
X245102380Y-82399107D02*
X245102380Y-83065773D01*
X246102380Y-82637202D01*
X227052380Y-80541964D02*
X226052380Y-80541964D01*
X226052380Y-80780059D01*
X226100000Y-80922916D01*
X226195238Y-81018154D01*
X226290476Y-81065773D01*
X226480952Y-81113392D01*
X226623809Y-81113392D01*
X226814285Y-81065773D01*
X226909523Y-81018154D01*
X227004761Y-80922916D01*
X227052380Y-80780059D01*
X227052380Y-80541964D01*
X226052380Y-82018154D02*
X226052380Y-81541964D01*
X226528571Y-81494345D01*
X226480952Y-81541964D01*
X226433333Y-81637202D01*
X226433333Y-81875297D01*
X226480952Y-81970535D01*
X226528571Y-82018154D01*
X226623809Y-82065773D01*
X226861904Y-82065773D01*
X226957142Y-82018154D01*
X227004761Y-81970535D01*
X227052380Y-81875297D01*
X227052380Y-81637202D01*
X227004761Y-81541964D01*
X226957142Y-81494345D01*
X226052380Y-82922916D02*
X226052380Y-82732440D01*
X226100000Y-82637202D01*
X226147619Y-82589583D01*
X226290476Y-82494345D01*
X226480952Y-82446726D01*
X226861904Y-82446726D01*
X226957142Y-82494345D01*
X227004761Y-82541964D01*
X227052380Y-82637202D01*
X227052380Y-82827678D01*
X227004761Y-82922916D01*
X226957142Y-82970535D01*
X226861904Y-83018154D01*
X226623809Y-83018154D01*
X226528571Y-82970535D01*
X226480952Y-82922916D01*
X226433333Y-82827678D01*
X226433333Y-82637202D01*
X226480952Y-82541964D01*
X226528571Y-82494345D01*
X226623809Y-82446726D01*
X208002380Y-80541964D02*
X207002380Y-80541964D01*
X207002380Y-80780059D01*
X207050000Y-80922916D01*
X207145238Y-81018154D01*
X207240476Y-81065773D01*
X207430952Y-81113392D01*
X207573809Y-81113392D01*
X207764285Y-81065773D01*
X207859523Y-81018154D01*
X207954761Y-80922916D01*
X208002380Y-80780059D01*
X208002380Y-80541964D01*
X207002380Y-82018154D02*
X207002380Y-81541964D01*
X207478571Y-81494345D01*
X207430952Y-81541964D01*
X207383333Y-81637202D01*
X207383333Y-81875297D01*
X207430952Y-81970535D01*
X207478571Y-82018154D01*
X207573809Y-82065773D01*
X207811904Y-82065773D01*
X207907142Y-82018154D01*
X207954761Y-81970535D01*
X208002380Y-81875297D01*
X208002380Y-81637202D01*
X207954761Y-81541964D01*
X207907142Y-81494345D01*
X207002380Y-82970535D02*
X207002380Y-82494345D01*
X207478571Y-82446726D01*
X207430952Y-82494345D01*
X207383333Y-82589583D01*
X207383333Y-82827678D01*
X207430952Y-82922916D01*
X207478571Y-82970535D01*
X207573809Y-83018154D01*
X207811904Y-83018154D01*
X207907142Y-82970535D01*
X207954761Y-82922916D01*
X208002380Y-82827678D01*
X208002380Y-82589583D01*
X207954761Y-82494345D01*
X207907142Y-82446726D01*
X188952380Y-80541964D02*
X187952380Y-80541964D01*
X187952380Y-80780059D01*
X188000000Y-80922916D01*
X188095238Y-81018154D01*
X188190476Y-81065773D01*
X188380952Y-81113392D01*
X188523809Y-81113392D01*
X188714285Y-81065773D01*
X188809523Y-81018154D01*
X188904761Y-80922916D01*
X188952380Y-80780059D01*
X188952380Y-80541964D01*
X187952380Y-82018154D02*
X187952380Y-81541964D01*
X188428571Y-81494345D01*
X188380952Y-81541964D01*
X188333333Y-81637202D01*
X188333333Y-81875297D01*
X188380952Y-81970535D01*
X188428571Y-82018154D01*
X188523809Y-82065773D01*
X188761904Y-82065773D01*
X188857142Y-82018154D01*
X188904761Y-81970535D01*
X188952380Y-81875297D01*
X188952380Y-81637202D01*
X188904761Y-81541964D01*
X188857142Y-81494345D01*
X188285714Y-82922916D02*
X188952380Y-82922916D01*
X187904761Y-82684821D02*
X188619047Y-82446726D01*
X188619047Y-83065773D01*
X169902380Y-80604464D02*
X168902380Y-80604464D01*
X168902380Y-80842559D01*
X168950000Y-80985416D01*
X169045238Y-81080654D01*
X169140476Y-81128273D01*
X169330952Y-81175892D01*
X169473809Y-81175892D01*
X169664285Y-81128273D01*
X169759523Y-81080654D01*
X169854761Y-80985416D01*
X169902380Y-80842559D01*
X169902380Y-80604464D01*
X168902380Y-82080654D02*
X168902380Y-81604464D01*
X169378571Y-81556845D01*
X169330952Y-81604464D01*
X169283333Y-81699702D01*
X169283333Y-81937797D01*
X169330952Y-82033035D01*
X169378571Y-82080654D01*
X169473809Y-82128273D01*
X169711904Y-82128273D01*
X169807142Y-82080654D01*
X169854761Y-82033035D01*
X169902380Y-81937797D01*
X169902380Y-81699702D01*
X169854761Y-81604464D01*
X169807142Y-81556845D01*
X168902380Y-82461607D02*
X168902380Y-83080654D01*
X169283333Y-82747321D01*
X169283333Y-82890178D01*
X169330952Y-82985416D01*
X169378571Y-83033035D01*
X169473809Y-83080654D01*
X169711904Y-83080654D01*
X169807142Y-83033035D01*
X169854761Y-82985416D01*
X169902380Y-82890178D01*
X169902380Y-82604464D01*
X169854761Y-82509226D01*
X169807142Y-82461607D01*
X150852380Y-80541964D02*
X149852380Y-80541964D01*
X149852380Y-80780059D01*
X149900000Y-80922916D01*
X149995238Y-81018154D01*
X150090476Y-81065773D01*
X150280952Y-81113392D01*
X150423809Y-81113392D01*
X150614285Y-81065773D01*
X150709523Y-81018154D01*
X150804761Y-80922916D01*
X150852380Y-80780059D01*
X150852380Y-80541964D01*
X149852380Y-82018154D02*
X149852380Y-81541964D01*
X150328571Y-81494345D01*
X150280952Y-81541964D01*
X150233333Y-81637202D01*
X150233333Y-81875297D01*
X150280952Y-81970535D01*
X150328571Y-82018154D01*
X150423809Y-82065773D01*
X150661904Y-82065773D01*
X150757142Y-82018154D01*
X150804761Y-81970535D01*
X150852380Y-81875297D01*
X150852380Y-81637202D01*
X150804761Y-81541964D01*
X150757142Y-81494345D01*
X149947619Y-82446726D02*
X149900000Y-82494345D01*
X149852380Y-82589583D01*
X149852380Y-82827678D01*
X149900000Y-82922916D01*
X149947619Y-82970535D01*
X150042857Y-83018154D01*
X150138095Y-83018154D01*
X150280952Y-82970535D01*
X150852380Y-82399107D01*
X150852380Y-83018154D01*
X131802380Y-80541964D02*
X130802380Y-80541964D01*
X130802380Y-80780059D01*
X130850000Y-80922916D01*
X130945238Y-81018154D01*
X131040476Y-81065773D01*
X131230952Y-81113392D01*
X131373809Y-81113392D01*
X131564285Y-81065773D01*
X131659523Y-81018154D01*
X131754761Y-80922916D01*
X131802380Y-80780059D01*
X131802380Y-80541964D01*
X130802380Y-82018154D02*
X130802380Y-81541964D01*
X131278571Y-81494345D01*
X131230952Y-81541964D01*
X131183333Y-81637202D01*
X131183333Y-81875297D01*
X131230952Y-81970535D01*
X131278571Y-82018154D01*
X131373809Y-82065773D01*
X131611904Y-82065773D01*
X131707142Y-82018154D01*
X131754761Y-81970535D01*
X131802380Y-81875297D01*
X131802380Y-81637202D01*
X131754761Y-81541964D01*
X131707142Y-81494345D01*
X131802380Y-83018154D02*
X131802380Y-82446726D01*
X131802380Y-82732440D02*
X130802380Y-82732440D01*
X130945238Y-82637202D01*
X131040476Y-82541964D01*
X131088095Y-82446726D01*
X112752380Y-80604464D02*
X111752380Y-80604464D01*
X111752380Y-80842559D01*
X111800000Y-80985416D01*
X111895238Y-81080654D01*
X111990476Y-81128273D01*
X112180952Y-81175892D01*
X112323809Y-81175892D01*
X112514285Y-81128273D01*
X112609523Y-81080654D01*
X112704761Y-80985416D01*
X112752380Y-80842559D01*
X112752380Y-80604464D01*
X111752380Y-82080654D02*
X111752380Y-81604464D01*
X112228571Y-81556845D01*
X112180952Y-81604464D01*
X112133333Y-81699702D01*
X112133333Y-81937797D01*
X112180952Y-82033035D01*
X112228571Y-82080654D01*
X112323809Y-82128273D01*
X112561904Y-82128273D01*
X112657142Y-82080654D01*
X112704761Y-82033035D01*
X112752380Y-81937797D01*
X112752380Y-81699702D01*
X112704761Y-81604464D01*
X112657142Y-81556845D01*
X111752380Y-82747321D02*
X111752380Y-82842559D01*
X111800000Y-82937797D01*
X111847619Y-82985416D01*
X111942857Y-83033035D01*
X112133333Y-83080654D01*
X112371428Y-83080654D01*
X112561904Y-83033035D01*
X112657142Y-82985416D01*
X112704761Y-82937797D01*
X112752380Y-82842559D01*
X112752380Y-82747321D01*
X112704761Y-82652083D01*
X112657142Y-82604464D01*
X112561904Y-82556845D01*
X112371428Y-82509226D01*
X112133333Y-82509226D01*
X111942857Y-82556845D01*
X111847619Y-82604464D01*
X111800000Y-82652083D01*
X111752380Y-82747321D01*
X358814880Y-61491964D02*
X357814880Y-61491964D01*
X357814880Y-61730059D01*
X357862500Y-61872916D01*
X357957738Y-61968154D01*
X358052976Y-62015773D01*
X358243452Y-62063392D01*
X358386309Y-62063392D01*
X358576785Y-62015773D01*
X358672023Y-61968154D01*
X358767261Y-61872916D01*
X358814880Y-61730059D01*
X358814880Y-61491964D01*
X358148214Y-62920535D02*
X358814880Y-62920535D01*
X357767261Y-62682440D02*
X358481547Y-62444345D01*
X358481547Y-63063392D01*
X358814880Y-63491964D02*
X358814880Y-63682440D01*
X358767261Y-63777678D01*
X358719642Y-63825297D01*
X358576785Y-63920535D01*
X358386309Y-63968154D01*
X358005357Y-63968154D01*
X357910119Y-63920535D01*
X357862500Y-63872916D01*
X357814880Y-63777678D01*
X357814880Y-63587202D01*
X357862500Y-63491964D01*
X357910119Y-63444345D01*
X358005357Y-63396726D01*
X358243452Y-63396726D01*
X358338690Y-63444345D01*
X358386309Y-63491964D01*
X358433928Y-63587202D01*
X358433928Y-63777678D01*
X358386309Y-63872916D01*
X358338690Y-63920535D01*
X358243452Y-63968154D01*
X339764880Y-61491964D02*
X338764880Y-61491964D01*
X338764880Y-61730059D01*
X338812500Y-61872916D01*
X338907738Y-61968154D01*
X339002976Y-62015773D01*
X339193452Y-62063392D01*
X339336309Y-62063392D01*
X339526785Y-62015773D01*
X339622023Y-61968154D01*
X339717261Y-61872916D01*
X339764880Y-61730059D01*
X339764880Y-61491964D01*
X339098214Y-62920535D02*
X339764880Y-62920535D01*
X338717261Y-62682440D02*
X339431547Y-62444345D01*
X339431547Y-63063392D01*
X339193452Y-63587202D02*
X339145833Y-63491964D01*
X339098214Y-63444345D01*
X339002976Y-63396726D01*
X338955357Y-63396726D01*
X338860119Y-63444345D01*
X338812500Y-63491964D01*
X338764880Y-63587202D01*
X338764880Y-63777678D01*
X338812500Y-63872916D01*
X338860119Y-63920535D01*
X338955357Y-63968154D01*
X339002976Y-63968154D01*
X339098214Y-63920535D01*
X339145833Y-63872916D01*
X339193452Y-63777678D01*
X339193452Y-63587202D01*
X339241071Y-63491964D01*
X339288690Y-63444345D01*
X339383928Y-63396726D01*
X339574404Y-63396726D01*
X339669642Y-63444345D01*
X339717261Y-63491964D01*
X339764880Y-63587202D01*
X339764880Y-63777678D01*
X339717261Y-63872916D01*
X339669642Y-63920535D01*
X339574404Y-63968154D01*
X339383928Y-63968154D01*
X339288690Y-63920535D01*
X339241071Y-63872916D01*
X339193452Y-63777678D01*
X375864285Y-63571130D02*
X375864285Y-62571130D01*
X375626190Y-62571130D01*
X375483333Y-62618750D01*
X375388095Y-62713988D01*
X375340476Y-62809226D01*
X375292857Y-62999702D01*
X375292857Y-63142559D01*
X375340476Y-63333035D01*
X375388095Y-63428273D01*
X375483333Y-63523511D01*
X375626190Y-63571130D01*
X375864285Y-63571130D01*
X374435714Y-62904464D02*
X374435714Y-63571130D01*
X374673809Y-62523511D02*
X374911904Y-63237797D01*
X374292857Y-63237797D01*
X374007142Y-62571130D02*
X373340476Y-62571130D01*
X373769047Y-63571130D01*
X303252380Y-61491964D02*
X302252380Y-61491964D01*
X302252380Y-61730059D01*
X302300000Y-61872916D01*
X302395238Y-61968154D01*
X302490476Y-62015773D01*
X302680952Y-62063392D01*
X302823809Y-62063392D01*
X303014285Y-62015773D01*
X303109523Y-61968154D01*
X303204761Y-61872916D01*
X303252380Y-61730059D01*
X303252380Y-61491964D01*
X302585714Y-62920535D02*
X303252380Y-62920535D01*
X302204761Y-62682440D02*
X302919047Y-62444345D01*
X302919047Y-63063392D01*
X302252380Y-63872916D02*
X302252380Y-63682440D01*
X302300000Y-63587202D01*
X302347619Y-63539583D01*
X302490476Y-63444345D01*
X302680952Y-63396726D01*
X303061904Y-63396726D01*
X303157142Y-63444345D01*
X303204761Y-63491964D01*
X303252380Y-63587202D01*
X303252380Y-63777678D01*
X303204761Y-63872916D01*
X303157142Y-63920535D01*
X303061904Y-63968154D01*
X302823809Y-63968154D01*
X302728571Y-63920535D01*
X302680952Y-63872916D01*
X302633333Y-63777678D01*
X302633333Y-63587202D01*
X302680952Y-63491964D01*
X302728571Y-63444345D01*
X302823809Y-63396726D01*
X274677380Y-61491964D02*
X273677380Y-61491964D01*
X273677380Y-61730059D01*
X273725000Y-61872916D01*
X273820238Y-61968154D01*
X273915476Y-62015773D01*
X274105952Y-62063392D01*
X274248809Y-62063392D01*
X274439285Y-62015773D01*
X274534523Y-61968154D01*
X274629761Y-61872916D01*
X274677380Y-61730059D01*
X274677380Y-61491964D01*
X274010714Y-62920535D02*
X274677380Y-62920535D01*
X273629761Y-62682440D02*
X274344047Y-62444345D01*
X274344047Y-63063392D01*
X273677380Y-63920535D02*
X273677380Y-63444345D01*
X274153571Y-63396726D01*
X274105952Y-63444345D01*
X274058333Y-63539583D01*
X274058333Y-63777678D01*
X274105952Y-63872916D01*
X274153571Y-63920535D01*
X274248809Y-63968154D01*
X274486904Y-63968154D01*
X274582142Y-63920535D01*
X274629761Y-63872916D01*
X274677380Y-63777678D01*
X274677380Y-63539583D01*
X274629761Y-63444345D01*
X274582142Y-63396726D01*
X253246130Y-63141964D02*
X252246130Y-63141964D01*
X252246130Y-63380059D01*
X252293750Y-63522916D01*
X252388988Y-63618154D01*
X252484226Y-63665773D01*
X252674702Y-63713392D01*
X252817559Y-63713392D01*
X253008035Y-63665773D01*
X253103273Y-63618154D01*
X253198511Y-63522916D01*
X253246130Y-63380059D01*
X253246130Y-63141964D01*
X252579464Y-64570535D02*
X253246130Y-64570535D01*
X252198511Y-64332440D02*
X252912797Y-64094345D01*
X252912797Y-64713392D01*
X252579464Y-65522916D02*
X253246130Y-65522916D01*
X252198511Y-65284821D02*
X252912797Y-65046726D01*
X252912797Y-65665773D01*
X236577380Y-61491964D02*
X235577380Y-61491964D01*
X235577380Y-61730059D01*
X235625000Y-61872916D01*
X235720238Y-61968154D01*
X235815476Y-62015773D01*
X236005952Y-62063392D01*
X236148809Y-62063392D01*
X236339285Y-62015773D01*
X236434523Y-61968154D01*
X236529761Y-61872916D01*
X236577380Y-61730059D01*
X236577380Y-61491964D01*
X235910714Y-62920535D02*
X236577380Y-62920535D01*
X235529761Y-62682440D02*
X236244047Y-62444345D01*
X236244047Y-63063392D01*
X235577380Y-63349107D02*
X235577380Y-63968154D01*
X235958333Y-63634821D01*
X235958333Y-63777678D01*
X236005952Y-63872916D01*
X236053571Y-63920535D01*
X236148809Y-63968154D01*
X236386904Y-63968154D01*
X236482142Y-63920535D01*
X236529761Y-63872916D01*
X236577380Y-63777678D01*
X236577380Y-63491964D01*
X236529761Y-63396726D01*
X236482142Y-63349107D01*
X217527380Y-61554464D02*
X216527380Y-61554464D01*
X216527380Y-61792559D01*
X216575000Y-61935416D01*
X216670238Y-62030654D01*
X216765476Y-62078273D01*
X216955952Y-62125892D01*
X217098809Y-62125892D01*
X217289285Y-62078273D01*
X217384523Y-62030654D01*
X217479761Y-61935416D01*
X217527380Y-61792559D01*
X217527380Y-61554464D01*
X216860714Y-62983035D02*
X217527380Y-62983035D01*
X216479761Y-62744940D02*
X217194047Y-62506845D01*
X217194047Y-63125892D01*
X216622619Y-63459226D02*
X216575000Y-63506845D01*
X216527380Y-63602083D01*
X216527380Y-63840178D01*
X216575000Y-63935416D01*
X216622619Y-63983035D01*
X216717857Y-64030654D01*
X216813095Y-64030654D01*
X216955952Y-63983035D01*
X217527380Y-63411607D01*
X217527380Y-64030654D01*
X196096130Y-63141964D02*
X195096130Y-63141964D01*
X195096130Y-63380059D01*
X195143750Y-63522916D01*
X195238988Y-63618154D01*
X195334226Y-63665773D01*
X195524702Y-63713392D01*
X195667559Y-63713392D01*
X195858035Y-63665773D01*
X195953273Y-63618154D01*
X196048511Y-63522916D01*
X196096130Y-63380059D01*
X196096130Y-63141964D01*
X195429464Y-64570535D02*
X196096130Y-64570535D01*
X195048511Y-64332440D02*
X195762797Y-64094345D01*
X195762797Y-64713392D01*
X196096130Y-65618154D02*
X196096130Y-65046726D01*
X196096130Y-65332440D02*
X195096130Y-65332440D01*
X195238988Y-65237202D01*
X195334226Y-65141964D01*
X195381845Y-65046726D01*
X179427380Y-61554464D02*
X178427380Y-61554464D01*
X178427380Y-61792559D01*
X178475000Y-61935416D01*
X178570238Y-62030654D01*
X178665476Y-62078273D01*
X178855952Y-62125892D01*
X178998809Y-62125892D01*
X179189285Y-62078273D01*
X179284523Y-62030654D01*
X179379761Y-61935416D01*
X179427380Y-61792559D01*
X179427380Y-61554464D01*
X178760714Y-62983035D02*
X179427380Y-62983035D01*
X178379761Y-62744940D02*
X179094047Y-62506845D01*
X179094047Y-63125892D01*
X178427380Y-63697321D02*
X178427380Y-63792559D01*
X178475000Y-63887797D01*
X178522619Y-63935416D01*
X178617857Y-63983035D01*
X178808333Y-64030654D01*
X179046428Y-64030654D01*
X179236904Y-63983035D01*
X179332142Y-63935416D01*
X179379761Y-63887797D01*
X179427380Y-63792559D01*
X179427380Y-63697321D01*
X179379761Y-63602083D01*
X179332142Y-63554464D01*
X179236904Y-63506845D01*
X179046428Y-63459226D01*
X178808333Y-63459226D01*
X178617857Y-63506845D01*
X178522619Y-63554464D01*
X178475000Y-63602083D01*
X178427380Y-63697321D01*
X160377380Y-61491964D02*
X159377380Y-61491964D01*
X159377380Y-61730059D01*
X159425000Y-61872916D01*
X159520238Y-61968154D01*
X159615476Y-62015773D01*
X159805952Y-62063392D01*
X159948809Y-62063392D01*
X160139285Y-62015773D01*
X160234523Y-61968154D01*
X160329761Y-61872916D01*
X160377380Y-61730059D01*
X160377380Y-61491964D01*
X159377380Y-62396726D02*
X159377380Y-63015773D01*
X159758333Y-62682440D01*
X159758333Y-62825297D01*
X159805952Y-62920535D01*
X159853571Y-62968154D01*
X159948809Y-63015773D01*
X160186904Y-63015773D01*
X160282142Y-62968154D01*
X160329761Y-62920535D01*
X160377380Y-62825297D01*
X160377380Y-62539583D01*
X160329761Y-62444345D01*
X160282142Y-62396726D01*
X160377380Y-63491964D02*
X160377380Y-63682440D01*
X160329761Y-63777678D01*
X160282142Y-63825297D01*
X160139285Y-63920535D01*
X159948809Y-63968154D01*
X159567857Y-63968154D01*
X159472619Y-63920535D01*
X159425000Y-63872916D01*
X159377380Y-63777678D01*
X159377380Y-63587202D01*
X159425000Y-63491964D01*
X159472619Y-63444345D01*
X159567857Y-63396726D01*
X159805952Y-63396726D01*
X159901190Y-63444345D01*
X159948809Y-63491964D01*
X159996428Y-63587202D01*
X159996428Y-63777678D01*
X159948809Y-63872916D01*
X159901190Y-63920535D01*
X159805952Y-63968154D01*
X138946130Y-63079464D02*
X137946130Y-63079464D01*
X137946130Y-63317559D01*
X137993750Y-63460416D01*
X138088988Y-63555654D01*
X138184226Y-63603273D01*
X138374702Y-63650892D01*
X138517559Y-63650892D01*
X138708035Y-63603273D01*
X138803273Y-63555654D01*
X138898511Y-63460416D01*
X138946130Y-63317559D01*
X138946130Y-63079464D01*
X137946130Y-63984226D02*
X137946130Y-64603273D01*
X138327083Y-64269940D01*
X138327083Y-64412797D01*
X138374702Y-64508035D01*
X138422321Y-64555654D01*
X138517559Y-64603273D01*
X138755654Y-64603273D01*
X138850892Y-64555654D01*
X138898511Y-64508035D01*
X138946130Y-64412797D01*
X138946130Y-64127083D01*
X138898511Y-64031845D01*
X138850892Y-63984226D01*
X138374702Y-65174702D02*
X138327083Y-65079464D01*
X138279464Y-65031845D01*
X138184226Y-64984226D01*
X138136607Y-64984226D01*
X138041369Y-65031845D01*
X137993750Y-65079464D01*
X137946130Y-65174702D01*
X137946130Y-65365178D01*
X137993750Y-65460416D01*
X138041369Y-65508035D01*
X138136607Y-65555654D01*
X138184226Y-65555654D01*
X138279464Y-65508035D01*
X138327083Y-65460416D01*
X138374702Y-65365178D01*
X138374702Y-65174702D01*
X138422321Y-65079464D01*
X138469940Y-65031845D01*
X138565178Y-64984226D01*
X138755654Y-64984226D01*
X138850892Y-65031845D01*
X138898511Y-65079464D01*
X138946130Y-65174702D01*
X138946130Y-65365178D01*
X138898511Y-65460416D01*
X138850892Y-65508035D01*
X138755654Y-65555654D01*
X138565178Y-65555654D01*
X138469940Y-65508035D01*
X138422321Y-65460416D01*
X138374702Y-65365178D01*
X122277380Y-61554464D02*
X121277380Y-61554464D01*
X121277380Y-61792559D01*
X121325000Y-61935416D01*
X121420238Y-62030654D01*
X121515476Y-62078273D01*
X121705952Y-62125892D01*
X121848809Y-62125892D01*
X122039285Y-62078273D01*
X122134523Y-62030654D01*
X122229761Y-61935416D01*
X122277380Y-61792559D01*
X122277380Y-61554464D01*
X121277380Y-62459226D02*
X121277380Y-63078273D01*
X121658333Y-62744940D01*
X121658333Y-62887797D01*
X121705952Y-62983035D01*
X121753571Y-63030654D01*
X121848809Y-63078273D01*
X122086904Y-63078273D01*
X122182142Y-63030654D01*
X122229761Y-62983035D01*
X122277380Y-62887797D01*
X122277380Y-62602083D01*
X122229761Y-62506845D01*
X122182142Y-62459226D01*
X121277380Y-63411607D02*
X121277380Y-64078273D01*
X122277380Y-63649702D01*
X103227380Y-61554464D02*
X102227380Y-61554464D01*
X102227380Y-61792559D01*
X102275000Y-61935416D01*
X102370238Y-62030654D01*
X102465476Y-62078273D01*
X102655952Y-62125892D01*
X102798809Y-62125892D01*
X102989285Y-62078273D01*
X103084523Y-62030654D01*
X103179761Y-61935416D01*
X103227380Y-61792559D01*
X103227380Y-61554464D01*
X102227380Y-62459226D02*
X102227380Y-63078273D01*
X102608333Y-62744940D01*
X102608333Y-62887797D01*
X102655952Y-62983035D01*
X102703571Y-63030654D01*
X102798809Y-63078273D01*
X103036904Y-63078273D01*
X103132142Y-63030654D01*
X103179761Y-62983035D01*
X103227380Y-62887797D01*
X103227380Y-62602083D01*
X103179761Y-62506845D01*
X103132142Y-62459226D01*
X102227380Y-63935416D02*
X102227380Y-63744940D01*
X102275000Y-63649702D01*
X102322619Y-63602083D01*
X102465476Y-63506845D01*
X102655952Y-63459226D01*
X103036904Y-63459226D01*
X103132142Y-63506845D01*
X103179761Y-63554464D01*
X103227380Y-63649702D01*
X103227380Y-63840178D01*
X103179761Y-63935416D01*
X103132142Y-63983035D01*
X103036904Y-64030654D01*
X102798809Y-64030654D01*
X102703571Y-63983035D01*
X102655952Y-63935416D01*
X102608333Y-63840178D01*
X102608333Y-63649702D01*
X102655952Y-63554464D01*
X102703571Y-63506845D01*
X102798809Y-63459226D01*
X358814880Y-42441964D02*
X357814880Y-42441964D01*
X357814880Y-42680059D01*
X357862500Y-42822916D01*
X357957738Y-42918154D01*
X358052976Y-42965773D01*
X358243452Y-43013392D01*
X358386309Y-43013392D01*
X358576785Y-42965773D01*
X358672023Y-42918154D01*
X358767261Y-42822916D01*
X358814880Y-42680059D01*
X358814880Y-42441964D01*
X357814880Y-43346726D02*
X357814880Y-43965773D01*
X358195833Y-43632440D01*
X358195833Y-43775297D01*
X358243452Y-43870535D01*
X358291071Y-43918154D01*
X358386309Y-43965773D01*
X358624404Y-43965773D01*
X358719642Y-43918154D01*
X358767261Y-43870535D01*
X358814880Y-43775297D01*
X358814880Y-43489583D01*
X358767261Y-43394345D01*
X358719642Y-43346726D01*
X357814880Y-44870535D02*
X357814880Y-44394345D01*
X358291071Y-44346726D01*
X358243452Y-44394345D01*
X358195833Y-44489583D01*
X358195833Y-44727678D01*
X358243452Y-44822916D01*
X358291071Y-44870535D01*
X358386309Y-44918154D01*
X358624404Y-44918154D01*
X358719642Y-44870535D01*
X358767261Y-44822916D01*
X358814880Y-44727678D01*
X358814880Y-44489583D01*
X358767261Y-44394345D01*
X358719642Y-44346726D01*
X339764880Y-42441964D02*
X338764880Y-42441964D01*
X338764880Y-42680059D01*
X338812500Y-42822916D01*
X338907738Y-42918154D01*
X339002976Y-42965773D01*
X339193452Y-43013392D01*
X339336309Y-43013392D01*
X339526785Y-42965773D01*
X339622023Y-42918154D01*
X339717261Y-42822916D01*
X339764880Y-42680059D01*
X339764880Y-42441964D01*
X338764880Y-43346726D02*
X338764880Y-43965773D01*
X339145833Y-43632440D01*
X339145833Y-43775297D01*
X339193452Y-43870535D01*
X339241071Y-43918154D01*
X339336309Y-43965773D01*
X339574404Y-43965773D01*
X339669642Y-43918154D01*
X339717261Y-43870535D01*
X339764880Y-43775297D01*
X339764880Y-43489583D01*
X339717261Y-43394345D01*
X339669642Y-43346726D01*
X339098214Y-44822916D02*
X339764880Y-44822916D01*
X338717261Y-44584821D02*
X339431547Y-44346726D01*
X339431547Y-44965773D01*
X312777380Y-42441964D02*
X311777380Y-42441964D01*
X311777380Y-42680059D01*
X311825000Y-42822916D01*
X311920238Y-42918154D01*
X312015476Y-42965773D01*
X312205952Y-43013392D01*
X312348809Y-43013392D01*
X312539285Y-42965773D01*
X312634523Y-42918154D01*
X312729761Y-42822916D01*
X312777380Y-42680059D01*
X312777380Y-42441964D01*
X311777380Y-43346726D02*
X311777380Y-43965773D01*
X312158333Y-43632440D01*
X312158333Y-43775297D01*
X312205952Y-43870535D01*
X312253571Y-43918154D01*
X312348809Y-43965773D01*
X312586904Y-43965773D01*
X312682142Y-43918154D01*
X312729761Y-43870535D01*
X312777380Y-43775297D01*
X312777380Y-43489583D01*
X312729761Y-43394345D01*
X312682142Y-43346726D01*
X311777380Y-44299107D02*
X311777380Y-44918154D01*
X312158333Y-44584821D01*
X312158333Y-44727678D01*
X312205952Y-44822916D01*
X312253571Y-44870535D01*
X312348809Y-44918154D01*
X312586904Y-44918154D01*
X312682142Y-44870535D01*
X312729761Y-44822916D01*
X312777380Y-44727678D01*
X312777380Y-44441964D01*
X312729761Y-44346726D01*
X312682142Y-44299107D01*
X293727380Y-42504464D02*
X292727380Y-42504464D01*
X292727380Y-42742559D01*
X292775000Y-42885416D01*
X292870238Y-42980654D01*
X292965476Y-43028273D01*
X293155952Y-43075892D01*
X293298809Y-43075892D01*
X293489285Y-43028273D01*
X293584523Y-42980654D01*
X293679761Y-42885416D01*
X293727380Y-42742559D01*
X293727380Y-42504464D01*
X292727380Y-43409226D02*
X292727380Y-44028273D01*
X293108333Y-43694940D01*
X293108333Y-43837797D01*
X293155952Y-43933035D01*
X293203571Y-43980654D01*
X293298809Y-44028273D01*
X293536904Y-44028273D01*
X293632142Y-43980654D01*
X293679761Y-43933035D01*
X293727380Y-43837797D01*
X293727380Y-43552083D01*
X293679761Y-43456845D01*
X293632142Y-43409226D01*
X292822619Y-44409226D02*
X292775000Y-44456845D01*
X292727380Y-44552083D01*
X292727380Y-44790178D01*
X292775000Y-44885416D01*
X292822619Y-44933035D01*
X292917857Y-44980654D01*
X293013095Y-44980654D01*
X293155952Y-44933035D01*
X293727380Y-44361607D01*
X293727380Y-44980654D01*
X274677380Y-42441964D02*
X273677380Y-42441964D01*
X273677380Y-42680059D01*
X273725000Y-42822916D01*
X273820238Y-42918154D01*
X273915476Y-42965773D01*
X274105952Y-43013392D01*
X274248809Y-43013392D01*
X274439285Y-42965773D01*
X274534523Y-42918154D01*
X274629761Y-42822916D01*
X274677380Y-42680059D01*
X274677380Y-42441964D01*
X273677380Y-43346726D02*
X273677380Y-43965773D01*
X274058333Y-43632440D01*
X274058333Y-43775297D01*
X274105952Y-43870535D01*
X274153571Y-43918154D01*
X274248809Y-43965773D01*
X274486904Y-43965773D01*
X274582142Y-43918154D01*
X274629761Y-43870535D01*
X274677380Y-43775297D01*
X274677380Y-43489583D01*
X274629761Y-43394345D01*
X274582142Y-43346726D01*
X274677380Y-44918154D02*
X274677380Y-44346726D01*
X274677380Y-44632440D02*
X273677380Y-44632440D01*
X273820238Y-44537202D01*
X273915476Y-44441964D01*
X273963095Y-44346726D01*
X255627380Y-42504464D02*
X254627380Y-42504464D01*
X254627380Y-42742559D01*
X254675000Y-42885416D01*
X254770238Y-42980654D01*
X254865476Y-43028273D01*
X255055952Y-43075892D01*
X255198809Y-43075892D01*
X255389285Y-43028273D01*
X255484523Y-42980654D01*
X255579761Y-42885416D01*
X255627380Y-42742559D01*
X255627380Y-42504464D01*
X254627380Y-43409226D02*
X254627380Y-44028273D01*
X255008333Y-43694940D01*
X255008333Y-43837797D01*
X255055952Y-43933035D01*
X255103571Y-43980654D01*
X255198809Y-44028273D01*
X255436904Y-44028273D01*
X255532142Y-43980654D01*
X255579761Y-43933035D01*
X255627380Y-43837797D01*
X255627380Y-43552083D01*
X255579761Y-43456845D01*
X255532142Y-43409226D01*
X254627380Y-44647321D02*
X254627380Y-44742559D01*
X254675000Y-44837797D01*
X254722619Y-44885416D01*
X254817857Y-44933035D01*
X255008333Y-44980654D01*
X255246428Y-44980654D01*
X255436904Y-44933035D01*
X255532142Y-44885416D01*
X255579761Y-44837797D01*
X255627380Y-44742559D01*
X255627380Y-44647321D01*
X255579761Y-44552083D01*
X255532142Y-44504464D01*
X255436904Y-44456845D01*
X255246428Y-44409226D01*
X255008333Y-44409226D01*
X254817857Y-44456845D01*
X254722619Y-44504464D01*
X254675000Y-44552083D01*
X254627380Y-44647321D01*
X236577380Y-42441964D02*
X235577380Y-42441964D01*
X235577380Y-42680059D01*
X235625000Y-42822916D01*
X235720238Y-42918154D01*
X235815476Y-42965773D01*
X236005952Y-43013392D01*
X236148809Y-43013392D01*
X236339285Y-42965773D01*
X236434523Y-42918154D01*
X236529761Y-42822916D01*
X236577380Y-42680059D01*
X236577380Y-42441964D01*
X235672619Y-43394345D02*
X235625000Y-43441964D01*
X235577380Y-43537202D01*
X235577380Y-43775297D01*
X235625000Y-43870535D01*
X235672619Y-43918154D01*
X235767857Y-43965773D01*
X235863095Y-43965773D01*
X236005952Y-43918154D01*
X236577380Y-43346726D01*
X236577380Y-43965773D01*
X236577380Y-44441964D02*
X236577380Y-44632440D01*
X236529761Y-44727678D01*
X236482142Y-44775297D01*
X236339285Y-44870535D01*
X236148809Y-44918154D01*
X235767857Y-44918154D01*
X235672619Y-44870535D01*
X235625000Y-44822916D01*
X235577380Y-44727678D01*
X235577380Y-44537202D01*
X235625000Y-44441964D01*
X235672619Y-44394345D01*
X235767857Y-44346726D01*
X236005952Y-44346726D01*
X236101190Y-44394345D01*
X236148809Y-44441964D01*
X236196428Y-44537202D01*
X236196428Y-44727678D01*
X236148809Y-44822916D01*
X236101190Y-44870535D01*
X236005952Y-44918154D01*
X217527380Y-42504464D02*
X216527380Y-42504464D01*
X216527380Y-42742559D01*
X216575000Y-42885416D01*
X216670238Y-42980654D01*
X216765476Y-43028273D01*
X216955952Y-43075892D01*
X217098809Y-43075892D01*
X217289285Y-43028273D01*
X217384523Y-42980654D01*
X217479761Y-42885416D01*
X217527380Y-42742559D01*
X217527380Y-42504464D01*
X216622619Y-43456845D02*
X216575000Y-43504464D01*
X216527380Y-43599702D01*
X216527380Y-43837797D01*
X216575000Y-43933035D01*
X216622619Y-43980654D01*
X216717857Y-44028273D01*
X216813095Y-44028273D01*
X216955952Y-43980654D01*
X217527380Y-43409226D01*
X217527380Y-44028273D01*
X216955952Y-44599702D02*
X216908333Y-44504464D01*
X216860714Y-44456845D01*
X216765476Y-44409226D01*
X216717857Y-44409226D01*
X216622619Y-44456845D01*
X216575000Y-44504464D01*
X216527380Y-44599702D01*
X216527380Y-44790178D01*
X216575000Y-44885416D01*
X216622619Y-44933035D01*
X216717857Y-44980654D01*
X216765476Y-44980654D01*
X216860714Y-44933035D01*
X216908333Y-44885416D01*
X216955952Y-44790178D01*
X216955952Y-44599702D01*
X217003571Y-44504464D01*
X217051190Y-44456845D01*
X217146428Y-44409226D01*
X217336904Y-44409226D01*
X217432142Y-44456845D01*
X217479761Y-44504464D01*
X217527380Y-44599702D01*
X217527380Y-44790178D01*
X217479761Y-44885416D01*
X217432142Y-44933035D01*
X217336904Y-44980654D01*
X217146428Y-44980654D01*
X217051190Y-44933035D01*
X217003571Y-44885416D01*
X216955952Y-44790178D01*
X198477380Y-42504464D02*
X197477380Y-42504464D01*
X197477380Y-42742559D01*
X197525000Y-42885416D01*
X197620238Y-42980654D01*
X197715476Y-43028273D01*
X197905952Y-43075892D01*
X198048809Y-43075892D01*
X198239285Y-43028273D01*
X198334523Y-42980654D01*
X198429761Y-42885416D01*
X198477380Y-42742559D01*
X198477380Y-42504464D01*
X197572619Y-43456845D02*
X197525000Y-43504464D01*
X197477380Y-43599702D01*
X197477380Y-43837797D01*
X197525000Y-43933035D01*
X197572619Y-43980654D01*
X197667857Y-44028273D01*
X197763095Y-44028273D01*
X197905952Y-43980654D01*
X198477380Y-43409226D01*
X198477380Y-44028273D01*
X197477380Y-44361607D02*
X197477380Y-45028273D01*
X198477380Y-44599702D01*
X179427380Y-42504464D02*
X178427380Y-42504464D01*
X178427380Y-42742559D01*
X178475000Y-42885416D01*
X178570238Y-42980654D01*
X178665476Y-43028273D01*
X178855952Y-43075892D01*
X178998809Y-43075892D01*
X179189285Y-43028273D01*
X179284523Y-42980654D01*
X179379761Y-42885416D01*
X179427380Y-42742559D01*
X179427380Y-42504464D01*
X178522619Y-43456845D02*
X178475000Y-43504464D01*
X178427380Y-43599702D01*
X178427380Y-43837797D01*
X178475000Y-43933035D01*
X178522619Y-43980654D01*
X178617857Y-44028273D01*
X178713095Y-44028273D01*
X178855952Y-43980654D01*
X179427380Y-43409226D01*
X179427380Y-44028273D01*
X178427380Y-44885416D02*
X178427380Y-44694940D01*
X178475000Y-44599702D01*
X178522619Y-44552083D01*
X178665476Y-44456845D01*
X178855952Y-44409226D01*
X179236904Y-44409226D01*
X179332142Y-44456845D01*
X179379761Y-44504464D01*
X179427380Y-44599702D01*
X179427380Y-44790178D01*
X179379761Y-44885416D01*
X179332142Y-44933035D01*
X179236904Y-44980654D01*
X178998809Y-44980654D01*
X178903571Y-44933035D01*
X178855952Y-44885416D01*
X178808333Y-44790178D01*
X178808333Y-44599702D01*
X178855952Y-44504464D01*
X178903571Y-44456845D01*
X178998809Y-44409226D01*
X93702380Y-80604464D02*
X92702380Y-80604464D01*
X92702380Y-80842559D01*
X92750000Y-80985416D01*
X92845238Y-81080654D01*
X92940476Y-81128273D01*
X93130952Y-81175892D01*
X93273809Y-81175892D01*
X93464285Y-81128273D01*
X93559523Y-81080654D01*
X93654761Y-80985416D01*
X93702380Y-80842559D01*
X93702380Y-80604464D01*
X92797619Y-81556845D02*
X92750000Y-81604464D01*
X92702380Y-81699702D01*
X92702380Y-81937797D01*
X92750000Y-82033035D01*
X92797619Y-82080654D01*
X92892857Y-82128273D01*
X92988095Y-82128273D01*
X93130952Y-82080654D01*
X93702380Y-81509226D01*
X93702380Y-82128273D01*
X92702380Y-83033035D02*
X92702380Y-82556845D01*
X93178571Y-82509226D01*
X93130952Y-82556845D01*
X93083333Y-82652083D01*
X93083333Y-82890178D01*
X93130952Y-82985416D01*
X93178571Y-83033035D01*
X93273809Y-83080654D01*
X93511904Y-83080654D01*
X93607142Y-83033035D01*
X93654761Y-82985416D01*
X93702380Y-82890178D01*
X93702380Y-82652083D01*
X93654761Y-82556845D01*
X93607142Y-82509226D01*
X74652380Y-80541964D02*
X73652380Y-80541964D01*
X73652380Y-80780059D01*
X73700000Y-80922916D01*
X73795238Y-81018154D01*
X73890476Y-81065773D01*
X74080952Y-81113392D01*
X74223809Y-81113392D01*
X74414285Y-81065773D01*
X74509523Y-81018154D01*
X74604761Y-80922916D01*
X74652380Y-80780059D01*
X74652380Y-80541964D01*
X73747619Y-81494345D02*
X73700000Y-81541964D01*
X73652380Y-81637202D01*
X73652380Y-81875297D01*
X73700000Y-81970535D01*
X73747619Y-82018154D01*
X73842857Y-82065773D01*
X73938095Y-82065773D01*
X74080952Y-82018154D01*
X74652380Y-81446726D01*
X74652380Y-82065773D01*
X73985714Y-82922916D02*
X74652380Y-82922916D01*
X73604761Y-82684821D02*
X74319047Y-82446726D01*
X74319047Y-83065773D01*
X50839880Y-80541964D02*
X49839880Y-80541964D01*
X49839880Y-80780059D01*
X49887500Y-80922916D01*
X49982738Y-81018154D01*
X50077976Y-81065773D01*
X50268452Y-81113392D01*
X50411309Y-81113392D01*
X50601785Y-81065773D01*
X50697023Y-81018154D01*
X50792261Y-80922916D01*
X50839880Y-80780059D01*
X50839880Y-80541964D01*
X49935119Y-81494345D02*
X49887500Y-81541964D01*
X49839880Y-81637202D01*
X49839880Y-81875297D01*
X49887500Y-81970535D01*
X49935119Y-82018154D01*
X50030357Y-82065773D01*
X50125595Y-82065773D01*
X50268452Y-82018154D01*
X50839880Y-81446726D01*
X50839880Y-82065773D01*
X49839880Y-82399107D02*
X49839880Y-83018154D01*
X50220833Y-82684821D01*
X50220833Y-82827678D01*
X50268452Y-82922916D01*
X50316071Y-82970535D01*
X50411309Y-83018154D01*
X50649404Y-83018154D01*
X50744642Y-82970535D01*
X50792261Y-82922916D01*
X50839880Y-82827678D01*
X50839880Y-82541964D01*
X50792261Y-82446726D01*
X50744642Y-82399107D01*
X19089880Y-80604464D02*
X18089880Y-80604464D01*
X18089880Y-80842559D01*
X18137500Y-80985416D01*
X18232738Y-81080654D01*
X18327976Y-81128273D01*
X18518452Y-81175892D01*
X18661309Y-81175892D01*
X18851785Y-81128273D01*
X18947023Y-81080654D01*
X19042261Y-80985416D01*
X19089880Y-80842559D01*
X19089880Y-80604464D01*
X18185119Y-81556845D02*
X18137500Y-81604464D01*
X18089880Y-81699702D01*
X18089880Y-81937797D01*
X18137500Y-82033035D01*
X18185119Y-82080654D01*
X18280357Y-82128273D01*
X18375595Y-82128273D01*
X18518452Y-82080654D01*
X19089880Y-81509226D01*
X19089880Y-82128273D01*
X18185119Y-82509226D02*
X18137500Y-82556845D01*
X18089880Y-82652083D01*
X18089880Y-82890178D01*
X18137500Y-82985416D01*
X18185119Y-83033035D01*
X18280357Y-83080654D01*
X18375595Y-83080654D01*
X18518452Y-83033035D01*
X19089880Y-82461607D01*
X19089880Y-83080654D01*
X84177380Y-61491964D02*
X83177380Y-61491964D01*
X83177380Y-61730059D01*
X83225000Y-61872916D01*
X83320238Y-61968154D01*
X83415476Y-62015773D01*
X83605952Y-62063392D01*
X83748809Y-62063392D01*
X83939285Y-62015773D01*
X84034523Y-61968154D01*
X84129761Y-61872916D01*
X84177380Y-61730059D01*
X84177380Y-61491964D01*
X83272619Y-62444345D02*
X83225000Y-62491964D01*
X83177380Y-62587202D01*
X83177380Y-62825297D01*
X83225000Y-62920535D01*
X83272619Y-62968154D01*
X83367857Y-63015773D01*
X83463095Y-63015773D01*
X83605952Y-62968154D01*
X84177380Y-62396726D01*
X84177380Y-63015773D01*
X84177380Y-63968154D02*
X84177380Y-63396726D01*
X84177380Y-63682440D02*
X83177380Y-63682440D01*
X83320238Y-63587202D01*
X83415476Y-63491964D01*
X83463095Y-63396726D01*
X65127380Y-61554464D02*
X64127380Y-61554464D01*
X64127380Y-61792559D01*
X64175000Y-61935416D01*
X64270238Y-62030654D01*
X64365476Y-62078273D01*
X64555952Y-62125892D01*
X64698809Y-62125892D01*
X64889285Y-62078273D01*
X64984523Y-62030654D01*
X65079761Y-61935416D01*
X65127380Y-61792559D01*
X65127380Y-61554464D01*
X64222619Y-62506845D02*
X64175000Y-62554464D01*
X64127380Y-62649702D01*
X64127380Y-62887797D01*
X64175000Y-62983035D01*
X64222619Y-63030654D01*
X64317857Y-63078273D01*
X64413095Y-63078273D01*
X64555952Y-63030654D01*
X65127380Y-62459226D01*
X65127380Y-63078273D01*
X64127380Y-63697321D02*
X64127380Y-63792559D01*
X64175000Y-63887797D01*
X64222619Y-63935416D01*
X64317857Y-63983035D01*
X64508333Y-64030654D01*
X64746428Y-64030654D01*
X64936904Y-63983035D01*
X65032142Y-63935416D01*
X65079761Y-63887797D01*
X65127380Y-63792559D01*
X65127380Y-63697321D01*
X65079761Y-63602083D01*
X65032142Y-63554464D01*
X64936904Y-63506845D01*
X64746428Y-63459226D01*
X64508333Y-63459226D01*
X64317857Y-63506845D01*
X64222619Y-63554464D01*
X64175000Y-63602083D01*
X64127380Y-63697321D01*
X46077380Y-61554464D02*
X45077380Y-61554464D01*
X45077380Y-61792559D01*
X45125000Y-61935416D01*
X45220238Y-62030654D01*
X45315476Y-62078273D01*
X45505952Y-62125892D01*
X45648809Y-62125892D01*
X45839285Y-62078273D01*
X45934523Y-62030654D01*
X46029761Y-61935416D01*
X46077380Y-61792559D01*
X46077380Y-61554464D01*
X46077380Y-63078273D02*
X46077380Y-62506845D01*
X46077380Y-62792559D02*
X45077380Y-62792559D01*
X45220238Y-62697321D01*
X45315476Y-62602083D01*
X45363095Y-62506845D01*
X46077380Y-63554464D02*
X46077380Y-63744940D01*
X46029761Y-63840178D01*
X45982142Y-63887797D01*
X45839285Y-63983035D01*
X45648809Y-64030654D01*
X45267857Y-64030654D01*
X45172619Y-63983035D01*
X45125000Y-63935416D01*
X45077380Y-63840178D01*
X45077380Y-63649702D01*
X45125000Y-63554464D01*
X45172619Y-63506845D01*
X45267857Y-63459226D01*
X45505952Y-63459226D01*
X45601190Y-63506845D01*
X45648809Y-63554464D01*
X45696428Y-63649702D01*
X45696428Y-63840178D01*
X45648809Y-63935416D01*
X45601190Y-63983035D01*
X45505952Y-64030654D01*
X19089880Y-61554464D02*
X18089880Y-61554464D01*
X18089880Y-61792559D01*
X18137500Y-61935416D01*
X18232738Y-62030654D01*
X18327976Y-62078273D01*
X18518452Y-62125892D01*
X18661309Y-62125892D01*
X18851785Y-62078273D01*
X18947023Y-62030654D01*
X19042261Y-61935416D01*
X19089880Y-61792559D01*
X19089880Y-61554464D01*
X19089880Y-63078273D02*
X19089880Y-62506845D01*
X19089880Y-62792559D02*
X18089880Y-62792559D01*
X18232738Y-62697321D01*
X18327976Y-62602083D01*
X18375595Y-62506845D01*
X18518452Y-63649702D02*
X18470833Y-63554464D01*
X18423214Y-63506845D01*
X18327976Y-63459226D01*
X18280357Y-63459226D01*
X18185119Y-63506845D01*
X18137500Y-63554464D01*
X18089880Y-63649702D01*
X18089880Y-63840178D01*
X18137500Y-63935416D01*
X18185119Y-63983035D01*
X18280357Y-64030654D01*
X18327976Y-64030654D01*
X18423214Y-63983035D01*
X18470833Y-63935416D01*
X18518452Y-63840178D01*
X18518452Y-63649702D01*
X18566071Y-63554464D01*
X18613690Y-63506845D01*
X18708928Y-63459226D01*
X18899404Y-63459226D01*
X18994642Y-63506845D01*
X19042261Y-63554464D01*
X19089880Y-63649702D01*
X19089880Y-63840178D01*
X19042261Y-63935416D01*
X18994642Y-63983035D01*
X18899404Y-64030654D01*
X18708928Y-64030654D01*
X18613690Y-63983035D01*
X18566071Y-63935416D01*
X18518452Y-63840178D01*
X84177380Y-42504464D02*
X83177380Y-42504464D01*
X83177380Y-42742559D01*
X83225000Y-42885416D01*
X83320238Y-42980654D01*
X83415476Y-43028273D01*
X83605952Y-43075892D01*
X83748809Y-43075892D01*
X83939285Y-43028273D01*
X84034523Y-42980654D01*
X84129761Y-42885416D01*
X84177380Y-42742559D01*
X84177380Y-42504464D01*
X84177380Y-44028273D02*
X84177380Y-43456845D01*
X84177380Y-43742559D02*
X83177380Y-43742559D01*
X83320238Y-43647321D01*
X83415476Y-43552083D01*
X83463095Y-43456845D01*
X83177380Y-44361607D02*
X83177380Y-45028273D01*
X84177380Y-44599702D01*
X65127380Y-42504464D02*
X64127380Y-42504464D01*
X64127380Y-42742559D01*
X64175000Y-42885416D01*
X64270238Y-42980654D01*
X64365476Y-43028273D01*
X64555952Y-43075892D01*
X64698809Y-43075892D01*
X64889285Y-43028273D01*
X64984523Y-42980654D01*
X65079761Y-42885416D01*
X65127380Y-42742559D01*
X65127380Y-42504464D01*
X65127380Y-44028273D02*
X65127380Y-43456845D01*
X65127380Y-43742559D02*
X64127380Y-43742559D01*
X64270238Y-43647321D01*
X64365476Y-43552083D01*
X64413095Y-43456845D01*
X64127380Y-44885416D02*
X64127380Y-44694940D01*
X64175000Y-44599702D01*
X64222619Y-44552083D01*
X64365476Y-44456845D01*
X64555952Y-44409226D01*
X64936904Y-44409226D01*
X65032142Y-44456845D01*
X65079761Y-44504464D01*
X65127380Y-44599702D01*
X65127380Y-44790178D01*
X65079761Y-44885416D01*
X65032142Y-44933035D01*
X64936904Y-44980654D01*
X64698809Y-44980654D01*
X64603571Y-44933035D01*
X64555952Y-44885416D01*
X64508333Y-44790178D01*
X64508333Y-44599702D01*
X64555952Y-44504464D01*
X64603571Y-44456845D01*
X64698809Y-44409226D01*
X46077380Y-42441964D02*
X45077380Y-42441964D01*
X45077380Y-42680059D01*
X45125000Y-42822916D01*
X45220238Y-42918154D01*
X45315476Y-42965773D01*
X45505952Y-43013392D01*
X45648809Y-43013392D01*
X45839285Y-42965773D01*
X45934523Y-42918154D01*
X46029761Y-42822916D01*
X46077380Y-42680059D01*
X46077380Y-42441964D01*
X46077380Y-43965773D02*
X46077380Y-43394345D01*
X46077380Y-43680059D02*
X45077380Y-43680059D01*
X45220238Y-43584821D01*
X45315476Y-43489583D01*
X45363095Y-43394345D01*
X45077380Y-44870535D02*
X45077380Y-44394345D01*
X45553571Y-44346726D01*
X45505952Y-44394345D01*
X45458333Y-44489583D01*
X45458333Y-44727678D01*
X45505952Y-44822916D01*
X45553571Y-44870535D01*
X45648809Y-44918154D01*
X45886904Y-44918154D01*
X45982142Y-44870535D01*
X46029761Y-44822916D01*
X46077380Y-44727678D01*
X46077380Y-44489583D01*
X46029761Y-44394345D01*
X45982142Y-44346726D01*
X19089880Y-42441964D02*
X18089880Y-42441964D01*
X18089880Y-42680059D01*
X18137500Y-42822916D01*
X18232738Y-42918154D01*
X18327976Y-42965773D01*
X18518452Y-43013392D01*
X18661309Y-43013392D01*
X18851785Y-42965773D01*
X18947023Y-42918154D01*
X19042261Y-42822916D01*
X19089880Y-42680059D01*
X19089880Y-42441964D01*
X19089880Y-43965773D02*
X19089880Y-43394345D01*
X19089880Y-43680059D02*
X18089880Y-43680059D01*
X18232738Y-43584821D01*
X18327976Y-43489583D01*
X18375595Y-43394345D01*
X18423214Y-44822916D02*
X19089880Y-44822916D01*
X18042261Y-44584821D02*
X18756547Y-44346726D01*
X18756547Y-44965773D01*
X160377380Y-42441964D02*
X159377380Y-42441964D01*
X159377380Y-42680059D01*
X159425000Y-42822916D01*
X159520238Y-42918154D01*
X159615476Y-42965773D01*
X159805952Y-43013392D01*
X159948809Y-43013392D01*
X160139285Y-42965773D01*
X160234523Y-42918154D01*
X160329761Y-42822916D01*
X160377380Y-42680059D01*
X160377380Y-42441964D01*
X160377380Y-43965773D02*
X160377380Y-43394345D01*
X160377380Y-43680059D02*
X159377380Y-43680059D01*
X159520238Y-43584821D01*
X159615476Y-43489583D01*
X159663095Y-43394345D01*
X159377380Y-44299107D02*
X159377380Y-44918154D01*
X159758333Y-44584821D01*
X159758333Y-44727678D01*
X159805952Y-44822916D01*
X159853571Y-44870535D01*
X159948809Y-44918154D01*
X160186904Y-44918154D01*
X160282142Y-44870535D01*
X160329761Y-44822916D01*
X160377380Y-44727678D01*
X160377380Y-44441964D01*
X160329761Y-44346726D01*
X160282142Y-44299107D01*
X141327380Y-42504464D02*
X140327380Y-42504464D01*
X140327380Y-42742559D01*
X140375000Y-42885416D01*
X140470238Y-42980654D01*
X140565476Y-43028273D01*
X140755952Y-43075892D01*
X140898809Y-43075892D01*
X141089285Y-43028273D01*
X141184523Y-42980654D01*
X141279761Y-42885416D01*
X141327380Y-42742559D01*
X141327380Y-42504464D01*
X141327380Y-44028273D02*
X141327380Y-43456845D01*
X141327380Y-43742559D02*
X140327380Y-43742559D01*
X140470238Y-43647321D01*
X140565476Y-43552083D01*
X140613095Y-43456845D01*
X140422619Y-44409226D02*
X140375000Y-44456845D01*
X140327380Y-44552083D01*
X140327380Y-44790178D01*
X140375000Y-44885416D01*
X140422619Y-44933035D01*
X140517857Y-44980654D01*
X140613095Y-44980654D01*
X140755952Y-44933035D01*
X141327380Y-44361607D01*
X141327380Y-44980654D01*
X122277380Y-42504464D02*
X121277380Y-42504464D01*
X121277380Y-42742559D01*
X121325000Y-42885416D01*
X121420238Y-42980654D01*
X121515476Y-43028273D01*
X121705952Y-43075892D01*
X121848809Y-43075892D01*
X122039285Y-43028273D01*
X122134523Y-42980654D01*
X122229761Y-42885416D01*
X122277380Y-42742559D01*
X122277380Y-42504464D01*
X122277380Y-44028273D02*
X122277380Y-43456845D01*
X122277380Y-43742559D02*
X121277380Y-43742559D01*
X121420238Y-43647321D01*
X121515476Y-43552083D01*
X121563095Y-43456845D01*
X122277380Y-44980654D02*
X122277380Y-44409226D01*
X122277380Y-44694940D02*
X121277380Y-44694940D01*
X121420238Y-44599702D01*
X121515476Y-44504464D01*
X121563095Y-44409226D01*
X103227380Y-42441964D02*
X102227380Y-42441964D01*
X102227380Y-42680059D01*
X102275000Y-42822916D01*
X102370238Y-42918154D01*
X102465476Y-42965773D01*
X102655952Y-43013392D01*
X102798809Y-43013392D01*
X102989285Y-42965773D01*
X103084523Y-42918154D01*
X103179761Y-42822916D01*
X103227380Y-42680059D01*
X103227380Y-42441964D01*
X103227380Y-43965773D02*
X103227380Y-43394345D01*
X103227380Y-43680059D02*
X102227380Y-43680059D01*
X102370238Y-43584821D01*
X102465476Y-43489583D01*
X102513095Y-43394345D01*
X102227380Y-44584821D02*
X102227380Y-44680059D01*
X102275000Y-44775297D01*
X102322619Y-44822916D01*
X102417857Y-44870535D01*
X102608333Y-44918154D01*
X102846428Y-44918154D01*
X103036904Y-44870535D01*
X103132142Y-44822916D01*
X103179761Y-44775297D01*
X103227380Y-44680059D01*
X103227380Y-44584821D01*
X103179761Y-44489583D01*
X103132142Y-44441964D01*
X103036904Y-44394345D01*
X102846428Y-44346726D01*
X102608333Y-44346726D01*
X102417857Y-44394345D01*
X102322619Y-44441964D01*
X102275000Y-44489583D01*
X102227380Y-44584821D01*
X391283095Y-52838630D02*
X391283095Y-51838630D01*
X391045000Y-51838630D01*
X390902142Y-51886250D01*
X390806904Y-51981488D01*
X390759285Y-52076726D01*
X390711666Y-52267202D01*
X390711666Y-52410059D01*
X390759285Y-52600535D01*
X390806904Y-52695773D01*
X390902142Y-52791011D01*
X391045000Y-52838630D01*
X391283095Y-52838630D01*
X389759285Y-52838630D02*
X390330714Y-52838630D01*
X390045000Y-52838630D02*
X390045000Y-51838630D01*
X390140238Y-51981488D01*
X390235476Y-52076726D01*
X390330714Y-52124345D01*
M02*
