M48
; DRILL file {KiCad (5.1.4)-1} date 2024-03-23 3:19:36 AM
; FORMAT={-:-/ absolute / metric / decimal}
; #@! TF.CreationDate,2024-03-23T03:19:36-07:00
; #@! TF.GenerationSoftware,Kicad,Pcbnew,(5.1.4)-1
; #@! TF.FileFunction,NonPlated,1,2,NPTH
FMAT,2
METRIC
T1C0.650
T2C1.750
T3C3.988
%
G90
G05
T1
X62.991Y-60.225
X68.771Y-60.225
T2
X64.77Y-130.175
X74.93Y-130.175
X102.87Y-130.175
X113.03Y-130.175
X83.82Y-111.125
X93.98Y-111.125
X102.87Y-92.075
X113.03Y-92.075
X102.87Y-111.125
X113.03Y-111.125
X121.92Y-92.075
X132.08Y-92.075
X83.82Y-92.075
X93.98Y-92.075
X121.92Y-111.125
X132.08Y-111.125
X83.82Y-130.175
X93.98Y-130.175
X121.92Y-130.175
X132.08Y-130.175
X64.77Y-111.125
X74.93Y-111.125
X64.77Y-92.075
X74.93Y-92.075
T3
X88.9Y-111.125
X107.95Y-111.125
X127.0Y-111.125
X127.0Y-130.175
X69.85Y-111.125
X69.85Y-130.175
X107.95Y-130.175
X107.95Y-92.075
X127.0Y-92.075
X88.9Y-92.075
X88.9Y-130.175
X69.85Y-92.075
T0
M30
